<?xml version="1.0" encoding="UTF-8"?>
<svg width="48px" height="48px" viewBox="0 0 48 48" version="1.1" xmlns="http://www.w3.org/2000/svg" xmlns:xlink="http://www.w3.org/1999/xlink">
    <title>55289CEF-0626-4895-9E24-EB4D3E726535</title>
    <g id="UI-kit" stroke="none" stroke-width="1" fill="none" fill-rule="evenodd">
        <g id="Connectors" transform="translate(-820.000000, -1024.000000)" fill-rule="nonzero">
            <g id="Connector/Ably-Copy-57" transform="translate(820.000000, 1024.000000)">
                <g id="g877" transform="translate(0.000000, 3.000000)">
                    <path d="M10.859036,40.453748 L0.418424565,22.546252 C-0.139474855,21.5894279 -0.139474855,20.4105721 0.418424565,19.453748 L10.859036,1.54625199 C11.4161512,0.590770456 12.4451571,0.00155016717 13.5593885,0 L34.4518864,0 C35.562086,0.00552059789 36.5858712,0.594209442 37.140964,1.54625199 L47.5815754,19.453748 C48.1394749,20.4105721 48.1394749,21.5894279 47.5815754,22.546252 L37.140964,40.453748 C36.5838488,41.4092295 35.5548429,41.9984498 34.4406115,42 L13.5537511,42 C12.4415351,41.9964621 11.4151412,41.4075079 10.859036,40.453748 L10.859036,40.453748 Z" id="path20" fill="#4386FA"></path>
                    <path d="M30.5225634,15.2336523 C30.5225634,15.2336523 33.4258652,22.1275917 29.4683548,26.0350877 C25.5108444,29.9425837 18.306146,27.4417863 18.306146,27.4417863 C18.306146,27.4417863 29.0173565,38.1874003 32.9635919,41.9944179 L34.4518864,41.9944179 C35.5661178,41.9928677 36.5951238,41.4036474 37.1522389,40.4481659 L44.0637884,28.5972887 L30.5225634,15.2336523 Z" id="path22" fill="#000000" opacity="0.1"></path>
                    <path d="M33.9501508,29.3397129 L30.7424251,26.1634769 C30.7076664,26.1280433 30.6677652,26.0979407 30.624038,26.0741627 C33.4413807,22.4645582 32.9372453,17.3077162 29.4730101,14.3002043 C26.0087748,11.2926923 20.7796019,11.4721028 17.5339077,14.7098294 C14.2882134,17.947556 14.1457632,23.126582 17.2086694,26.5344379 C20.2715755,29.9422937 25.4831345,30.4032681 29.1075561,27.5869219 C29.1302983,27.6278903 29.1587665,27.6654753 29.1921183,27.6985646 L32.399844,30.8748006 C32.4939684,30.9682013 32.62175,31.0206902 32.7550052,31.0206902 C32.8882603,31.0206902 33.0160419,30.9682013 33.1101664,30.8748006 L33.1101664,30.8748006 L33.9501508,30.0430622 C34.0444774,29.9498618 34.0974867,29.8233346 34.0974867,29.6913876 C34.0974867,29.5594406 34.0444774,29.4329134 33.9501508,29.3397129 L33.9501508,29.3397129 Z M23.729401,27.2854864 C20.1052942,27.2854864 17.1673752,24.3764084 17.1673752,20.7878788 C17.1673752,17.1993492 20.1052942,14.2902711 23.729401,14.2902711 C27.3535078,14.2902711 30.2914268,17.1993492 30.2914268,20.7878788 C30.2914268,22.5111515 29.6000725,24.1638434 28.3694539,25.3823812 C27.1388354,26.600919 25.4697584,27.2854864 23.729401,27.2854864 L23.729401,27.2854864 Z" id="path24" fill="#FFFFFF"></path>
                    <path d="M19.5351165,20.4417863 L19.5351165,23.1267943 C19.9529393,23.8570418 20.5576424,24.4654351 21.2883725,24.8907496 L21.2883725,20.4250399 L19.5351165,20.4417863 Z" id="path26" fill="#FFFFFF"></path>
                    <path d="M19.5351165,20.4417863 L19.5351165,23.1267943 C19.9529393,23.8570418 20.5576424,24.4654351 21.2883725,24.8907496 L21.2883725,20.4250399 L19.5351165,20.4417863 Z" id="path28" fill="#FFFFFF"></path>
                    <path d="M22.8161294,18.2145136 L22.8161294,25.4712919 C23.3956686,25.5770451 23.9898462,25.5770451 24.5693854,25.4712919 L24.5693854,18.2145136 L22.8161294,18.2145136 Z" id="path30" fill="#FFFFFF"></path>
                    <path d="M22.8161294,18.2145136 L22.8161294,25.4712919 C23.3956686,25.5770451 23.9898462,25.5770451 24.5693854,25.4712919 L24.5693854,18.2145136 L22.8161294,18.2145136 Z" id="path32" fill="#FFFFFF"></path>
                    <path d="M27.8898606,23.1212121 L27.8898606,21.530303 L26.1366046,21.530303 L26.1366046,24.8795853 C26.8666139,24.455812 27.4712497,23.8494115 27.8898606,23.1212121 Z" id="path34" fill="#FFFFFF"></path>
                    <path d="M27.8898606,23.1212121 L27.8898606,21.530303 L26.1366046,21.530303 L26.1366046,24.8795853 C26.8666139,24.455812 27.4712497,23.8494115 27.8898606,23.1212121 Z" id="path36" fill="#FFFFFF"></path>
                </g>
            </g>
        </g>
    </g>
</svg>