<?xml version="1.0" encoding="UTF-8"?>
<svg width="48px" height="48px" viewBox="0 0 48 48" version="1.1" xmlns="http://www.w3.org/2000/svg" xmlns:xlink="http://www.w3.org/1999/xlink">
    <title>31B44B0D-2EF6-4BA3-B70D-8D022265D71B</title>
    <defs>
        <linearGradient x1="-5.98211709%" y1="12.97%" x2="70.2461271%" y2="51.93%" id="linearGradient-1">
            <stop stop-color="#3C61AA" offset="0%"></stop>
            <stop stop-color="#292136" offset="100%"></stop>
        </linearGradient>
        <radialGradient cx="15.06%" cy="-14.31%" fx="15.06%" fy="-14.31%" r="96.97%" gradientTransform="translate(0.150600,-0.143100),scale(1.000000,0.709448),translate(-0.150600,0.143100)" id="radialGradient-2">
            <stop stop-color="#FFFFFF" offset="0%"></stop>
            <stop stop-color="#FAFFFF" offset="49.86%"></stop>
            <stop stop-color="#D7F9FF" offset="100%"></stop>
        </radialGradient>
        <radialGradient cx="0%" cy="54.89%" fx="0%" fy="54.89%" r="72.42%" gradientTransform="translate(0.000000,0.548900),scale(1.000000,0.526450),translate(-0.000000,-0.548900)" id="radialGradient-3">
            <stop stop-color="#FFFFFF" offset="0%"></stop>
            <stop stop-color="#FAFFFF" offset="49.86%"></stop>
            <stop stop-color="#D7F9FF" offset="100%"></stop>
        </radialGradient>
        <linearGradient x1="0.763309511%" y1="54.51%" x2="61.8463477%" y2="65.39%" id="linearGradient-4">
            <stop stop-color="#B1EBFF" offset="0%"></stop>
            <stop stop-color="#02A8F4" offset="20.91%"></stop>
            <stop stop-color="#364D87" offset="100%"></stop>
        </linearGradient>
    </defs>
    <g id="UI-kit" stroke="none" stroke-width="1" fill="none" fill-rule="evenodd">
        <g id="Connectors" transform="translate(-120.000000, -1160.000000)" fill-rule="nonzero">
            <g id="Connector/Ably-Copy-60" transform="translate(120.000000, 1160.000000)">
                <g id="logo-dev-wtext" transform="translate(3.000000, 0.000000)">
                    <g id="Group">
                        <g id="logo-dev-wtext_b-link" fill="url(#linearGradient-1)">
                            <path d="M27.6944261,38.7234344 C27.3763917,39.6743722 26.3610708,40.1814387 25.423392,39.85493 C24.4837438,39.5240542 23.9831301,38.4929576 24.3005664,37.5422854 L31.467538,16.0318323 C31.7840793,15.0793898 32.7994002,14.5723233 33.737079,14.898832 C34.6732647,15.2253407 35.1764458,16.2620435 34.8599046,17.2129812 L27.692933,38.7234344 L27.6944261,38.7234344 Z M17.9831796,41.7267125 C17.044111,41.3951792 16.5437886,40.3646826 16.8603541,39.414068 L28.1363894,5.56399353 C28.4544237,4.61305575 29.4697447,4.10598925 30.4074235,4.43249795 C31.3436091,4.75900665 31.8467903,5.79420473 31.530249,6.7451425 L20.2527206,40.595217 C19.9361794,41.5461547 18.9193653,42.0532212 17.9831796,41.7267125 Z M14.6236617,31.3461434 C13.6840135,31.0152676 13.1833998,29.984171 13.5008362,29.0334989 L20.6976701,7.4357761 C21.0127182,6.48483833 22.0295323,5.97777183 22.9672111,6.30428053 C23.9033968,6.63078922 24.4065779,7.6659873 24.0885435,8.61692508 L16.8946958,30.2146478 C16.5766615,31.1655856 15.5613405,31.6726521 14.6251548,31.3461434 L14.6236617,31.3461434 Z M9.57393298,26.007651 C8.63408534,25.6761207 8.13357689,24.6445702 8.45110743,23.6935018 L13.2440197,9.31056798 C13.5605609,8.3596302 14.5758819,7.8525637 15.5135607,8.1790724 C16.4497463,8.5055811 16.9529275,9.54077918 16.6348931,10.4917169 L11.843474,24.8761554 C11.6938412,25.3312397 11.3696385,25.7070134 10.9432283,25.9196032 C10.5168182,26.1321929 10.023698,26.1639013 9.57393298,26.007651 L9.57393298,26.007651 Z M32.8561388,37.984652 C31.9170701,37.6531186 31.4167477,36.6226221 31.7333132,35.6720075 L36.5247323,21.2890737 C36.8203699,20.4013311 37.7266932,19.9002832 38.6091266,20.1049154 L42,7.89469386 C38.4060624,-1.56051652 33.8221868,-1.37394013 18.4684433,2.4899969 C-1.31687758,7.46586907 -2.47404486,9.40837012 2.45772745,29.3690354 C7.39248601,49.3297008 9.31860962,50.4958033 29.1024374,45.5199311 C29.987857,45.2972431 30.8374418,45.0790691 31.6496985,44.8669137 L31.6944921,44.8548765 L33.5892602,38.0764356 C33.3418,38.0983892 33.0925247,38.06763 32.8576319,37.9861567 L32.8561388,37.984652 Z" id="logo-dev-wtext_b"></path>
                        </g>
                        <g id="logo-dev-wtext_b-link" fill="#000000">
                            <path d="M27.6944261,38.7234344 C27.3763917,39.6743722 26.3610708,40.1814387 25.423392,39.85493 C24.4837438,39.5240542 23.9831301,38.4929576 24.3005664,37.5422854 L31.467538,16.0318323 C31.7840793,15.0793898 32.7994002,14.5723233 33.737079,14.898832 C34.6732647,15.2253407 35.1764458,16.2620435 34.8599046,17.2129812 L27.692933,38.7234344 L27.6944261,38.7234344 Z M17.9831796,41.7267125 C17.044111,41.3951792 16.5437886,40.3646826 16.8603541,39.414068 L28.1363894,5.56399353 C28.4544237,4.61305575 29.4697447,4.10598925 30.4074235,4.43249795 C31.3436091,4.75900665 31.8467903,5.79420473 31.530249,6.7451425 L20.2527206,40.595217 C19.9361794,41.5461547 18.9193653,42.0532212 17.9831796,41.7267125 Z M14.6236617,31.3461434 C13.6840135,31.0152676 13.1833998,29.984171 13.5008362,29.0334989 L20.6976701,7.4357761 C21.0127182,6.48483833 22.0295323,5.97777183 22.9672111,6.30428053 C23.9033968,6.63078922 24.4065779,7.6659873 24.0885435,8.61692508 L16.8946958,30.2146478 C16.5766615,31.1655856 15.5613405,31.6726521 14.6251548,31.3461434 L14.6236617,31.3461434 Z M9.57393298,26.007651 C8.63408534,25.6761207 8.13357689,24.6445702 8.45110743,23.6935018 L13.2440197,9.31056798 C13.5605609,8.3596302 14.5758819,7.8525637 15.5135607,8.1790724 C16.4497463,8.5055811 16.9529275,9.54077918 16.6348931,10.4917169 L11.843474,24.8761554 C11.6938412,25.3312397 11.3696385,25.7070134 10.9432283,25.9196032 C10.5168182,26.1321929 10.023698,26.1639013 9.57393298,26.007651 L9.57393298,26.007651 Z M32.8561388,37.984652 C31.9170701,37.6531186 31.4167477,36.6226221 31.7333132,35.6720075 L36.5247323,21.2890737 C36.8203699,20.4013311 37.7266932,19.9002832 38.6091266,20.1049154 L42,7.89469386 C38.4060624,-1.56051652 33.8221868,-1.37394013 18.4684433,2.4899969 C-1.31687758,7.46586907 -2.47404486,9.40837012 2.45772745,29.3690354 C7.39248601,49.3297008 9.31860962,50.4958033 29.1024374,45.5199311 C29.987857,45.2972431 30.8374418,45.0790691 31.6496985,44.8669137 L31.6944921,44.8548765 L33.5892602,38.0764356 C33.3418,38.0983892 33.0925247,38.06763 32.8576319,37.9861567 L32.8561388,37.984652 Z" id="logo-dev-wtext_b"></path>
                        </g>
                    </g>
                    <path d="M15.5135607,8.1790724 C16.4497463,8.5055811 16.9529275,9.54077918 16.6348931,10.4917169 L11.843474,24.8761554 C11.6938412,25.3312397 11.3696385,25.7070134 10.9432283,25.9196032 C10.5168182,26.1321929 10.023698,26.1639013 9.57393298,26.007651 C8.63408534,25.6761207 8.13357689,24.6445702 8.45110743,23.6935018 L13.2440197,9.31056798 C13.5605609,8.3596302 14.5758819,7.8525637 15.5135607,8.1790724 Z M24.0885435,8.61692508 L16.8946958,30.2146478 C16.5766615,31.1655856 15.5613405,31.6726521 14.6251548,31.3461434 C13.6849115,31.0158859 13.1835406,29.9846012 13.5008362,29.0334989 L20.6976701,7.4357761 C21.0127182,6.48483833 22.0295323,5.97777183 22.9672111,6.30428053 C23.9033968,6.63078922 24.4065779,7.6659873 24.0885435,8.61692508 Z M33.737079,14.898832 C34.6732647,15.2253407 35.1764458,16.2620435 34.8599046,17.2129812 L27.692933,38.7234344 C27.3763917,39.6743722 26.3610708,40.1814387 25.423392,39.85493 C24.4843233,39.5233966 23.984001,38.4929001 24.3005664,37.5422854 L31.467538,16.0318323 C31.7840793,15.0793898 32.7994002,14.5723233 33.737079,14.898832 L33.737079,14.898832 Z M30.4074235,4.43249795 C31.3436091,4.75900665 31.8467903,5.79420473 31.530249,6.7451425 L20.2527206,40.595217 C19.9361794,41.5461547 18.9193653,42.0532212 17.9831796,41.7267125 C17.044111,41.3951792 16.5437886,40.3646826 16.8603541,39.414068 L28.1363894,5.56399353 C28.4544237,4.61305575 29.4697447,4.10598925 30.4074235,4.43249795 L30.4074235,4.43249795 Z" id="Shape" fill="url(#radialGradient-2)"></path>
                    <g id="Group" transform="translate(22.390832, 7.894694)">
                        <g id="logo-dev-wtext_f-link" fill="#000000">
                            <path d="M19.6091683,0 C18.1309804,3.00929675 15.0865106,6.20817919 11.7553619,8.99779727 C11.0222404,9.61018916 10.2592566,10.2165625 9.27230488,10.9779145 C9.1170205,11.0982864 7.3402088,12.4584885 6.83702767,12.8512018 C4.67499124,14.5364079 3.32670471,15.7401266 2.2531521,17.0446568 C0.900386211,18.6907421 0.141881719,20.372939 0.0179528358,22.2402076 C-0.24782236,26.2275258 2.42784703,30.9069822 8.67655037,37.125694 C8.67655037,37.125694 9.148376,37.4853049 9.30067415,36.9707152 C7.92999083,26.4231301 16.3198269,8.99779727 19.6091683,0 Z" id="logo-dev-wtext_f"></path>
                        </g>
                        <g id="logo-dev-wtext_f-link" fill="url(#radialGradient-3)">
                            <path d="M19.6091683,0 C18.1309804,3.00929675 15.0865106,6.20817919 11.7553619,8.99779727 C11.0222404,9.61018916 10.2592566,10.2165625 9.27230488,10.9779145 C9.1170205,11.0982864 7.3402088,12.4584885 6.83702767,12.8512018 C4.67499124,14.5364079 3.32670471,15.7401266 2.2531521,17.0446568 C0.900386211,18.6907421 0.141881719,20.372939 0.0179528358,22.2402076 C-0.24782236,26.2275258 2.42784703,30.9069822 8.67655037,37.125694 C8.67655037,37.125694 9.148376,37.4853049 9.30067415,36.9707152 C7.92999083,26.4231301 16.3198269,8.99779727 19.6091683,0 Z" id="logo-dev-wtext_f"></path>
                        </g>
                    </g>
                    <g id="Group" transform="translate(22.874266, 7.894694)">
                        <g id="logo-dev-wtext_i-link" fill="url(#linearGradient-4)">
                            <path d="M8.81873263,36.9601827 C-13.2540467,15.2992647 12.2260304,16.5225438 19.1257336,0 L8.81873263,36.958678 L8.81873263,36.9601827 Z" id="logo-dev-wtext_i"></path>
                        </g>
                        <g id="logo-dev-wtext_i-link" fill="#000000">
                            <path d="M8.81873263,36.9601827 C-13.2540467,15.2992647 12.2260304,16.5225438 19.1257336,0 L8.81873263,36.958678 L8.81873263,36.9601827 Z" id="logo-dev-wtext_i"></path>
                        </g>
                    </g>
                </g>
            </g>
        </g>
    </g>
</svg>