<?xml version="1.0" encoding="UTF-8"?>
<svg width="48px" height="48px" viewBox="0 0 48 48" version="1.1" xmlns="http://www.w3.org/2000/svg" xmlns:xlink="http://www.w3.org/1999/xlink">
    <title>9BF26C69-5888-4647-9938-334B9B40249D</title>
    <g id="UI-kit" stroke="none" stroke-width="1" fill="none" fill-rule="evenodd">
        <g id="Connectors" transform="translate(-220.000000, -1876.000000)" fill="#1AB7EA" fill-rule="nonzero">
            <g id="Connector/Ably-Copy-111" transform="translate(220.000000, 1876.000000)">
                <path d="M47.9768128,12.7176987 C47.7638431,17.4426991 44.4983087,23.9153879 38.1863824,32.1295233 C31.6614865,40.7088008 26.1397084,45 21.6210482,45 C18.8246643,45 16.4573061,42.38783 14.5220602,37.1603692 C13.2318963,32.3698305 11.9386459,27.5824126 10.648482,22.7918739 C9.21325181,17.567534 7.67308007,14.9522431 6.02488025,14.9522431 C5.66684433,14.9522431 4.40754559,15.7168568 2.25624358,17.2398424 L0,14.29686 C2.36735817,12.1933921 4.70385118,10.0868035 7.00330598,7.97709389 C10.1638989,5.21824293 12.5343436,3.76391651 14.1177266,3.61723552 C17.8524115,3.25521435 20.1518664,5.83929648 21.016091,11.366361 C21.948219,17.3334685 22.5933009,21.0441855 22.9544234,22.4953911 C24.0316176,27.4450943 25.21684,29.916825 26.5100904,29.916825 C27.5162948,29.916825 29.0256013,28.3095758 31.0380101,25.1013193 C33.0473324,21.8899419 34.1245266,19.446299 34.2695929,17.7703906 C34.5566389,14.9990562 33.4794447,13.6102681 31.0380101,13.6102681 C29.8867395,13.6102681 28.7015171,13.8755422 27.4854296,14.4060905 C29.8435282,6.59142666 34.3498423,2.79332528 41.004372,3.00866546 C45.9366254,3.15534645 48.2607723,6.39169085 47.9768128,12.7176987" id="path4"></path>
            </g>
        </g>
    </g>
</svg>