<?xml version="1.0" encoding="UTF-8"?>
<svg width="48px" height="48px" viewBox="0 0 48 48" version="1.1" xmlns="http://www.w3.org/2000/svg" xmlns:xlink="http://www.w3.org/1999/xlink">
    <title>EA0D457D-E52C-4086-8A2E-C40205F0BC58</title>
    <g id="UI-kit" stroke="none" stroke-width="1" fill="none" fill-rule="evenodd">
        <g id="Connectors" transform="translate(-220.000000, -464.000000)" fill="#FE523C" fill-rule="nonzero">
            <g id="Connector/Ably-Copy-11" transform="translate(220.000000, 464.000000)">
                <path d="M46.5,19 C46.1021566,18.999939 45.7205902,19.1579546 45.4392724,19.4392724 C45.1579546,19.7205902 44.999939,20.1021566 45,20.5 L45,22 L40.87225,22 C40.5070804,18.889872 39.2849636,15.9423652 37.34225,13.48633 L40.26346,10.56494 L41.43928,11.56055 C41.8180354,11.9402025 42.3706665,12.0887578 42.888729,11.9501832 C43.4067914,11.8116086 43.811456,11.4069898 43.9500892,10.888943 C44.0887224,10.3708962 43.9402296,9.81824838 43.56062,9.43945 L38.56071,4.43945 C38.181812,4.06052161 37.6295399,3.91251703 37.1119293,4.05118815 C36.5943186,4.18985926 36.1900069,4.59413864 36.0512943,5.11173815 C35.9125817,5.62933765 36.060542,6.18162161 36.43944,6.56055 L37.43509,7.73633 L34.5137,10.65771 C32.0575768,8.71516401 29.1100886,7.4931354 26,7.12793 L26,3 L27.5,3 C28.3284271,3 29,2.32842712 29,1.5 C29,0.671572875 28.3284271,0 27.5,0 L20.5,0 C19.6715729,0 19,0.671572875 19,1.5 C19,2.32842712 19.6715729,3 20.5,3 L22,3 L22,7.12793 C18.8899219,7.49314078 15.9424447,8.71516911 13.48633,10.65771 L10.56494,7.73633 L11.56059,6.56055 C11.939488,6.18162161 12.0874483,5.62933765 11.9487357,5.11173815 C11.8100231,4.59413864 11.4057114,4.18985926 10.8881007,4.05118815 C10.3704901,3.91251703 9.81821802,4.06052161 9.43932,4.43945 L4.55457,9.43945 C3.97128757,10.0256564 3.97249799,10.9733593 4.55727593,11.5580738 C5.14205387,12.1427883 6.08975685,12.143896 6.6759,11.56055 L7.73657,10.56494 L10.65778,13.48633 C8.71505565,15.9423618 7.49292833,18.889869 7.12775,22 L3,22 L3,20.5 C3,19.6715729 2.32842712,19 1.5,19 C0.671572875,19 0,19.6715729 0,20.5 L0,27.5 C0,28.3284271 0.671572875,29 1.5,29 C2.32842712,29 3,28.3284271 3,27.5 L3,26 L7.12775,26 C7.49291961,29.110128 8.71503642,32.0576348 10.65775,34.51367 L7.73657,37.43506 L6.56075,36.43945 C5.9748316,35.8547837 5.02604952,35.8552643 4.44072373,36.4405239 C3.85539793,37.0257834 3.85480999,37.9745655 4.43941,38.56055 L9.43932,43.56055 C9.81821802,43.9394784 10.3704901,44.087483 10.8881008,43.9488119 C11.4057114,43.8101408 11.8100232,43.4058614 11.9487358,42.8882619 C12.0874484,42.3706624 11.939488,41.8183784 11.56059,41.43945 L10.56494,40.26367 L13.48621,37.34229 C15.9423572,39.2848536 18.8898793,40.5068833 22,40.87207 L22,45 L20.5,45 C19.6715729,45 19,45.6715729 19,46.5 C19,47.3284271 19.6715729,48 20.5,48 L27.5,48 C28.3284271,48 29,47.3284271 29,46.5 C29,45.6715729 28.3284271,45 27.5,45 L26,45 L26,40.87207 C29.1101207,40.5068833 32.0576428,39.2848536 34.51379,37.34229 L37.43506,40.26367 L36.43941,41.43945 C35.8536844,42.0252225 35.8537225,42.9749094 36.439495,43.560635 C37.0252675,44.1463606 37.9749544,44.1463225 38.56068,43.56055 L43.56059,38.56055 C43.9401996,38.1817516 44.0886924,37.6291038 43.9500592,37.111057 C43.811426,36.5930102 43.4067614,36.1883914 42.888699,36.0498168 C42.3706365,35.9112422 41.8180054,36.0597975 41.43925,36.43945 L40.26343,37.43506 L37.34222,34.51367 C39.2849443,32.0576382 40.5070717,29.110131 40.87225,26 L45,26 L45,27.5 C45,28.3284271 45.6715729,29 46.5,29 C47.3284271,29 48,28.3284271 48,27.5 L48,20.5 C48,20.1021566 47.8420454,19.7205902 47.5607276,19.4392724 C47.2794098,19.1579546 46.8978434,18.999939 46.5,19 Z M18.5,20 C17.0843821,20 15.8081551,19.1472524 15.2664216,17.839392 C14.7246881,16.5315316 15.0241333,15.0261193 16.0251263,14.0251263 C17.0261193,13.0241333 18.5315316,12.7246881 19.839392,13.2664216 C21.1472524,13.8081551 22,15.0843821 22,16.5 C22,17.4282626 21.6312721,18.3185105 20.9748913,18.9748913 C20.3185105,19.6312721 19.4282626,20 18.5,20 Z M30,33 C28.8954305,33 28,32.1045695 28,31 C28,29.8954305 28.8954305,29 30,29 C31.1045695,29 32,29.8954305 32,31 C32,32.1045558 31.1045558,33 30,33 Z" id="Shape"></path>
            </g>
        </g>
    </g>
</svg>