<?xml version="1.0" encoding="UTF-8"?>
<svg width="20px" height="20px" viewBox="0 0 20 20" version="1.1" xmlns="http://www.w3.org/2000/svg" xmlns:xlink="http://www.w3.org/1999/xlink">
    <title>7B62840E-D908-42BD-A6BA-58A446753897</title>
    <g id="Page-1" stroke="none" stroke-width="1" fill="none" fill-rule="evenodd">
        <g id="adding-new-API-Calls" transform="translate(-543.000000, -610.000000)" fill="#FE523C" fill-rule="nonzero">
            <g id="Dropdown/Select/Default-Copy-13" transform="translate(533.000000, 600.000000)">
                <g id="Logo/Circle" transform="translate(10.000000, 10.000000)">
                    <path d="M19.375,7.91666667 C19.2092319,7.91664124 19.0502459,7.9824811 18.9330302,8.09969685 C18.8158144,8.2169126 18.7499746,8.37589857 18.75,8.54166667 L18.75,9.16666667 L17.0301042,9.16666667 C16.8779502,7.87078002 16.3687348,6.64265215 15.5592708,5.61930417 L16.7764417,4.40205833 L17.2663667,4.81689583 C17.4241814,4.97508436 17.6544444,5.03698242 17.8703037,4.97924301 C18.0861631,4.92150359 18.2547733,4.75291243 18.3125372,4.5370596 C18.370301,4.32120676 18.308429,4.09093683 18.1502583,3.93310417 L16.0669625,1.84977083 C15.9090883,1.691884 15.6789749,1.63021543 15.4633039,1.68799506 C15.2476328,1.74577469 15.0791695,1.91422443 15.0213726,2.12989089 C14.9635757,2.34555736 15.0252258,2.57567567 15.1831,2.7335625 L15.5979542,3.22347083 L14.3807083,4.4407125 C13.3573237,3.63131834 12.1292036,3.12213975 10.8333333,2.96997083 L10.8333333,1.25 L11.4583333,1.25 C11.8035113,1.25 12.0833333,0.970177969 12.0833333,0.625 C12.0833333,0.279822031 11.8035113,0 11.4583333,0 L8.54166667,0 C8.1964887,0 7.91666667,0.279822031 7.91666667,0.625 C7.91666667,0.970177969 8.1964887,1.25 8.54166667,1.25 L9.16666667,1.25 L9.16666667,2.96997083 C7.87080079,3.12214199 6.64268531,3.63132046 5.61930417,4.4407125 L4.40205833,3.22347083 L4.8169125,2.7335625 C4.97478668,2.57567567 5.03643681,2.34555736 4.97863989,2.12989089 C4.92084298,1.91422443 4.75237973,1.74577469 4.53670864,1.68799506 C4.32103755,1.63021543 4.09092418,1.691884 3.93305,1.84977083 L1.8977375,3.93310417 C1.65470315,4.17735683 1.65520749,4.57223302 1.89886497,4.81586408 C2.14252245,5.05949514 2.53739869,5.05995666 2.781625,4.81689583 L3.22357083,4.40205833 L4.44074167,5.61930417 C3.63127319,6.64265076 3.12205347,7.87077874 2.96989583,9.16666667 L1.25,9.16666667 L1.25,8.54166667 C1.25,8.1964887 0.970177969,7.91666667 0.625,7.91666667 C0.279822031,7.91666667 0,8.1964887 0,8.54166667 L0,11.4583333 C0,11.8035113 0.279822031,12.0833333 0.625,12.0833333 C0.970177969,12.0833333 1.25,11.8035113 1.25,11.4583333 L1.25,10.8333333 L2.96989583,10.8333333 C3.12204984,12.12922 3.63126518,13.3573478 4.44072917,14.3806958 L3.22357083,15.5979417 L2.73364583,15.1831042 C2.48951317,14.9394932 2.0941873,14.9396935 1.85030155,15.1835516 C1.6064158,15.4274098 1.60617083,15.8227356 1.84975417,16.0668958 L3.93305,18.1502292 C4.09092417,18.308116 4.32103755,18.3697846 4.53670865,18.312005 C4.75237975,18.2542253 4.92084299,18.0857756 4.97863991,17.8701091 C5.03643682,17.6544426 4.97478668,17.4243243 4.8169125,17.2664375 L4.40205833,16.7765292 L5.61925417,15.5592875 C6.64264882,16.368689 7.87078303,16.8778681 9.16666667,17.0300292 L9.16666667,18.75 L8.54166667,18.75 C8.1964887,18.75 7.91666667,19.029822 7.91666667,19.375 C7.91666667,19.720178 8.1964887,20 8.54166667,20 L11.4583333,20 C11.8035113,20 12.0833333,19.720178 12.0833333,19.375 C12.0833333,19.029822 11.8035113,18.75 11.4583333,18.75 L10.8333333,18.75 L10.8333333,17.0300292 C12.129217,16.8778681 13.3573512,16.368689 14.3807458,15.5592875 L15.5979417,16.7765292 L15.1830875,17.2664375 C14.9390352,17.5105094 14.939051,17.9062123 15.1831229,18.1502646 C15.4271948,18.3943169 15.8228977,18.3943011 16.06695,18.1502292 L18.1502458,16.0668958 C18.3084165,15.9090632 18.3702885,15.6787932 18.3125247,15.4629404 C18.2547608,15.2470876 18.0861506,15.0784964 17.8702912,15.020757 C17.6544319,14.9630176 17.4241689,15.0249156 17.2663542,15.1831042 L16.7764292,15.5979417 L15.5592583,14.3806958 C16.3687268,13.3573492 16.8779465,12.1292213 17.0301042,10.8333333 L18.75,10.8333333 L18.75,11.4583333 C18.75,11.8035113 19.029822,12.0833333 19.375,12.0833333 C19.720178,12.0833333 20,11.8035113 20,11.4583333 L20,8.54166667 C20,8.37589857 19.9341856,8.2169126 19.8169698,8.09969685 C19.6997541,7.9824811 19.5407681,7.91664124 19.375,7.91666667 Z M7.70833333,8.33333333 C7.11849256,8.33333333 6.58673131,7.97802182 6.36100902,7.43308001 C6.13528672,6.88813819 6.26005553,6.26088302 6.67713594,5.84380261 C7.09421635,5.4267222 7.72147152,5.30195339 8.26641334,5.52767568 C8.81135516,5.75339797 9.16666667,6.28515923 9.16666667,6.875 C9.16666667,7.26177608 9.01303003,7.63271272 8.73953805,7.90620471 C8.46604606,8.1796967 8.09510941,8.33333333 7.70833333,8.33333333 Z M12.5,13.75 C12.0397627,13.75 11.6666667,13.376904 11.6666667,12.9166667 C11.6666667,12.4564294 12.0397627,12.0833333 12.5,12.0833333 C12.9602373,12.0833333 13.3333333,12.4564294 13.3333333,12.9166667 C13.3333333,13.3768982 12.9602316,13.75 12.5,13.75 Z" id="Shape"></path>
                </g>
            </g>
        </g>
    </g>
</svg>