<?xml version="1.0" encoding="UTF-8"?>
<svg width="48px" height="48px" viewBox="0 0 48 48" version="1.1" xmlns="http://www.w3.org/2000/svg" xmlns:xlink="http://www.w3.org/1999/xlink">
    <title>F7F1F2CE-1538-4BDF-898C-F377BA518F16</title>
    <g id="UI-kit" stroke="none" stroke-width="1" fill="none" fill-rule="evenodd">
        <g id="Connectors" transform="translate(-520.000000, -1472.000000)">
            <g id="Connector/Ably-Copy-84" transform="translate(520.000000, 1472.000000)">
                <rect id="Rectangle" fill="#DC3445" x="1" y="1" width="46" height="46" rx="6"></rect>
                <path d="M15.7362251,34.3091051 C17.9785072,34.3091051 19.7456038,33.7596717 21.0375147,32.6756546 C22.3294256,31.5916374 22.9679562,30.1215318 22.9679562,28.2801876 C22.9679562,27.1070731 22.6709652,26.0824541 22.0621336,25.191481 C21.4533021,24.300508 20.6068777,23.6174287 19.5228605,23.1273935 L19.5525596,23.1273935 C21.3196561,22.1770223 22.1957796,20.6920672 22.1957796,18.6873779 C22.1809301,17.0093787 21.5275498,15.64322 20.2356389,14.5889019 C18.943728,13.5345838 17.2508792,13.0148496 15.1570926,13.0148496 L5,13.0148496 L5,34.3091051 L15.7362251,34.3091051 Z M15.2016413,21.8651817 L9.06877687,21.8651817 L9.06877687,16.6084408 L15.112544,16.5935912 C15.9886674,16.5787417 16.7014459,16.8163345 17.2508792,17.3063697 C17.8003126,17.7964048 18.0676045,18.420086 18.0676045,19.1774131 C18.0824541,19.9347401 17.8151622,20.5732708 17.2805784,21.0930051 C16.7459945,21.6127394 16.0480657,21.8651817 15.2016413,21.8651817 Z M15.7213755,30.6858148 L9.06877687,30.6858148 L9.06877687,25.1617819 L15.7213755,25.1617819 C16.6717468,25.1617819 17.4290739,25.4142243 17.9933568,25.9339586 C18.5576397,26.4536928 18.8397812,27.1070731 18.8397812,27.8940993 C18.8397812,28.7108245 18.5576397,29.3790543 17.9933568,29.8987886 C17.4290739,30.4185229 16.6717468,30.6858148 15.7213755,30.6858148 Z M35.8573662,34.2942556 L35.8573662,16.7717859 L43,16.7717859 L43,13 L24.5420086,13 L24.5420086,16.7717859 L31.6846424,16.7717859 L31.6846424,34.2942556 L35.8573662,34.2942556 Z" id="BT" fill="#FFFFFF" fill-rule="nonzero"></path>
            </g>
        </g>
    </g>
</svg>