<?xml version="1.0" encoding="UTF-8"?>
<svg width="48px" height="48px" viewBox="0 0 48 48" version="1.1" xmlns="http://www.w3.org/2000/svg" xmlns:xlink="http://www.w3.org/1999/xlink">
    <title>90A13CD3-1D2A-4FF4-B2C1-2F50E91AED34</title>
    <g id="UI-kit" stroke="none" stroke-width="1" fill="none" fill-rule="evenodd">
        <g id="Connectors" transform="translate(-920.000000, -1472.000000)" fill="#26292C" fill-rule="nonzero">
            <g id="Connector/Ably-Copy-88" transform="translate(920.000000, 1472.000000)">
                <path d="M25.6666667,27.5735294 C20.5555556,27.5735294 18.2444444,22.6764706 18.2444444,18.1323529 C18.2444444,10.9852941 22.1555556,8.42647059 25.8,8.42647059 C30.2888889,8.42647059 33.3111111,12.3088235 33.3111111,18.0441176 C33.3111111,24.6176471 29.4444444,27.5735294 25.6666667,27.5735294 M27.6222222,0 C22.2888889,0 19.2222222,2.38235294 17.7111111,4.05882353 C17.5333333,2.64705882 16.6,0.794117647 12.9555556,0.794117647 L5,0.794117647 L5,9.13235294 L8.24444444,9.13235294 C8.77777778,9.13235294 8.95555556,9.30882353 8.95555556,9.88235294 L8.95555556,48 L18.4666667,48 L18.4666667,33.7058824 C18.4666667,33.3088235 18.4666667,32.9558824 18.4666667,32.6470588 C19.9333333,34.0147059 22.7777778,35.8676471 27.2222222,35.8676471 C36.5111111,35.8676471 43,28.5 43,17.9558824 C42.9111111,7.23529412 36.7777778,0 27.6222222,0" id="Fill-6"></path>
            </g>
        </g>
    </g>
</svg>