<?xml version="1.0" encoding="UTF-8"?>
<svg width="48px" height="48px" viewBox="0 0 48 48" version="1.1" xmlns="http://www.w3.org/2000/svg" xmlns:xlink="http://www.w3.org/1999/xlink">
    <title>045C9FE6-4F16-4C79-BA3C-59981E499745</title>
    <g id="UI-kit" stroke="none" stroke-width="1" fill="none" fill-rule="evenodd">
        <g id="Connectors" transform="translate(-820.000000, -2472.000000)" fill="#000000">
            <g id="icons" transform="translate(820.000000, 2472.000000)">
                <path d="M20.5714,4 L3.42858,4 L3.42858,44 L20.5714,44 L20.5714,4 Z M0,0 L0,48 L24,48 L24,36 C24,42.6274 29.3726,48 36,48 C42.6274,48 48,42.6274 48,36 C48,29.3726 42.6274,24 36,24 C42.6274,24 48,18.6274 48,12 C48,5.37258 42.6274,0 36,0 C29.3726,0 24,5.37258 24,12 L24,0 L0,0 Z M24,12 C24,18.6274 29.3726,24 36,24 C29.3726,24 24,29.3726 24,36 L24,12 Z M36,20 C40.4182,20 44,16.4182 44,12 C44,7.58172 40.4182,4 36,4 C31.5818,4 28,7.58172 28,12 C28,16.4182 31.5818,20 36,20 Z M44,36 C44,40.4182 40.4182,44 36,44 C31.5818,44 28,40.4182 28,36 C28,31.5818 31.5818,28 36,28 C40.4182,28 44,31.5818 44,36 Z" id="Shape"></path>
            </g>
        </g>
    </g>
</svg>