<?xml version="1.0" encoding="UTF-8"?>
<svg width="48px" height="48px" viewBox="0 0 48 48" version="1.1" xmlns="http://www.w3.org/2000/svg" xmlns:xlink="http://www.w3.org/1999/xlink">
    <title>77E39692-BB3C-4FB6-90DE-DFA0E9C2F043</title>
    <g id="UI-kit" stroke="none" stroke-width="1" fill="none" fill-rule="evenodd">
        <g id="Connectors" transform="translate(-220.000000, -328.000000)">
            <g id="Connector/Ably-Copy" transform="translate(220.000000, 328.000000)">
                <rect id="Rectangle" fill="#1EA7D6" x="1" y="1" width="46" height="46" rx="6"></rect>
                <path d="M7.78398792,30.9773414 L8.9224572,28.0020141 L15.0931521,28.0020141 L16.2124874,30.9773414 L19.0156093,30.9773414 L13.7442095,17.2583082 L10.2522659,17.2583082 L5,30.9773414 L7.78398792,30.9773414 Z M14.193857,25.6294058 L9.80261833,25.6294058 L11.9934542,19.8318228 L14.193857,25.6294058 Z M29.6923464,30.9869084 L29.6923464,28.5568983 L23.8851964,28.5473313 L26.9753273,25.6868077 C27.8459215,24.8927492 28.4773414,24.1656596 28.8791541,23.5055388 C29.2809668,22.8454179 29.4818731,22.1087613 29.4818731,21.295569 C29.4818731,19.9370594 29.0322256,18.8846928 28.1329305,18.1289023 C27.2336354,17.3731118 26.0568983,17 24.5931521,17 C23.2824773,17 22.1822759,17.3922457 21.2925478,18.1767372 C20.4028197,18.9612286 19.8862034,19.8987915 19.7426989,20.979859 L22.153575,21.6686808 C22.2970796,20.989426 22.5936556,20.4441088 23.0433031,20.0327291 C23.4929507,19.6213494 24.0287009,19.4204431 24.6505539,19.4204431 C25.3298087,19.4204431 25.8559919,19.6022155 26.2386707,19.9657603 C26.6213494,20.3293051 26.8126888,20.8267875 26.8126888,21.4486405 C26.8126888,21.898288 26.6787513,22.3192346 26.4013092,22.7114804 C26.1238671,23.1037261 25.7029204,23.5725076 25.1289023,24.1082578 L19.7809668,29.1404834 L19.7809668,30.9869084 L29.6923464,30.9869084 Z M34.4853978,30.9773414 L34.4853978,26.7870091 L38.1304129,26.7870091 C39.6132931,26.7870091 40.7995972,26.3086606 41.6797583,25.3519637 C42.5599194,24.3952669 43,23.2854985 43,22.0322256 C43,20.8076536 42.5599194,19.7074522 41.6797583,18.7316213 C40.7995972,17.7557905 39.6515609,17.2678751 38.2260826,17.2678751 L38.2452165,17.2583082 L31.8162135,17.2583082 L31.8162135,30.9773414 L34.4853978,30.9773414 Z M38.0251762,24.4048338 L34.4662638,24.4048338 L34.4662638,19.6978852 L38.1495468,19.6978852 C38.7905337,19.6978852 39.316717,19.9370594 39.7376636,20.4058409 C40.1586103,20.8746224 40.3690836,21.4199396 40.3690836,22.0417925 C40.3690836,22.6636455 40.1490433,23.2089627 39.7089627,23.6777442 C39.2688822,24.1465257 38.704431,24.3856999 38.0060423,24.3856999 L38.0251762,24.4048338 Z" id="A2P" fill="#FFFFFF" fill-rule="nonzero"></path>
            </g>
        </g>
    </g>
</svg>