<?xml version="1.0" encoding="UTF-8"?>
<svg width="48px" height="48px" viewBox="0 0 48 48" version="1.1" xmlns="http://www.w3.org/2000/svg" xmlns:xlink="http://www.w3.org/1999/xlink">
    <title>73086E3C-416B-4A60-B737-D750E312CF41</title>
    <g id="UI-kit" stroke="none" stroke-width="1" fill="none" fill-rule="evenodd">
        <g id="Connectors" transform="translate(-620.000000, -2888.000000)">
            <g id="Connector/zendesk.support-Copy-5" transform="translate(620.000000, 2888.000000)">
                <rect id="Rectangle" fill="#334753" x="1" y="1" width="46" height="46" rx="6"></rect>
                <path d="M9.41642351,30.5527303 L11.8937057,22.1229679 L14.3709879,30.5527303 L16.9708212,30.5527303 L20.7699041,18 L18.1875782,18 L15.6052522,27.0950396 L12.9879116,18 L10.7819925,18 L8.16465194,27.0950396 L5.58232597,18 L3,18 L6.81659025,30.5527303 L9.41642351,30.5527303 Z M24.4814506,30.5527303 L24.4814506,25.2830346 L30.2150896,25.2830346 L30.2150896,30.5527303 L32.6923718,30.5527303 L32.6923718,18 L30.2150896,18 L30.2150896,23.0596082 L24.4814506,23.0596082 L24.4814506,18 L22.0216757,18 L22.0216757,30.5527303 L24.4814506,30.5527303 Z M40.7894956,30.5527303 L40.7894956,20.2234264 L45,20.2234264 L45,18 L34.1192163,18 L34.1192163,20.2234264 L38.3297207,20.2234264 L38.3297207,30.5527303 L40.7894956,30.5527303 Z" id="WHT" fill="#FFFFFF" fill-rule="nonzero"></path>
            </g>
        </g>
    </g>
</svg>