<?xml version="1.0" encoding="UTF-8"?>
<svg width="48px" height="48px" viewBox="0 0 48 48" version="1.1" xmlns="http://www.w3.org/2000/svg" xmlns:xlink="http://www.w3.org/1999/xlink">
    <title>E4FA95AE-48E6-493C-80B8-7CE52F1045AB</title>
    <g id="UI-kit" stroke="none" stroke-width="1" fill="none" fill-rule="evenodd">
        <g id="Connectors" transform="translate(-920.000000, -464.000000)" fill="#FF7A59" fill-rule="nonzero">
            <g id="Connector/Ably-Copy-18" transform="translate(920.000000, 464.000000)">
                <g id="Sprocket" transform="translate(1.000000, 0.000000)">
                    <path d="M33.4168423,34.5893406 C29.8536674,34.5893406 26.9652424,31.713163 26.9652424,28.1657129 C26.9652424,24.6176463 29.8536674,21.7414686 33.4168423,21.7414686 C36.9800172,21.7414686 39.868442,24.6176463 39.868442,28.1657129 C39.868442,31.713163 36.9800172,34.5893406 33.4168423,34.5893406 M35.3482365,15.7980256 L35.3482365,10.0832714 C36.8463053,9.37871264 37.8955723,7.86973643 37.8955723,6.11851039 L37.8955723,5.98659825 C37.8955723,3.56964741 35.9097027,1.59219821 33.4824601,1.59219821 L33.3506054,1.59219821 C30.9233627,1.59219821 28.9374931,3.56964741 28.9374931,5.98659825 L28.9374931,6.11851039 C28.9374931,7.86973643 29.9867602,9.37932905 31.484829,10.0838878 L31.484829,15.7980256 C29.2544399,16.141367 27.2165712,17.057355 25.5358869,18.4054477 L9.77830919,6.19987676 C9.88230734,5.80229112 9.95535367,5.39299364 9.95597271,4.96273818 C9.95844885,2.22586959 7.73363117,0.00370488649 4.98387042,3.20436378e-06 C2.23534775,-0.00307564381 0.0031016277,2.21292493 3.21890051e-06,4.95040994 C-0.00308873867,7.68789496 2.22172894,9.91005965 4.97148969,9.91314171 C5.8672357,9.91437454 6.6967448,9.66102927 7.42349381,9.24926616 L22.9235522,21.2563524 C21.6056231,23.2375002 20.8330654,25.6106857 20.8330654,28.1657129 C20.8330654,30.8403238 21.6817647,33.314601 23.1154536,35.3493765 L18.4021086,40.0433528 C18.0294486,39.9317821 17.6431696,39.8541143 17.2333674,39.8541143 C14.9745027,39.8541143 13.1427733,41.6774604 13.1427733,43.9267473 C13.1427733,46.1766505 14.9745027,48.0000032 17.2333674,48.0000032 C19.4928511,48.0000032 21.3239616,46.1766505 21.3239616,43.9267473 C21.3239616,43.5199155 21.245963,43.1346581 21.1339174,42.7635782 L25.7965012,38.1207641 C27.9129875,39.7289826 30.5488456,40.6955165 33.4168423,40.6955165 C40.3667666,40.6955165 46.0000032,35.0855522 46.0000032,28.1657129 C46.0000032,21.9011192 41.3782725,16.7257254 35.3482365,15.7980256" id="Marketing/Logos/Sprocket"></path>
                </g>
            </g>
        </g>
    </g>
</svg>