<?xml version="1.0" encoding="UTF-8"?>
<svg width="48px" height="48px" viewBox="0 0 48 48" version="1.1" xmlns="http://www.w3.org/2000/svg" xmlns:xlink="http://www.w3.org/1999/xlink">
    <title>9002716D-9F7C-4608-87DB-A3D5179D30A7</title>
    <g id="UI-kit" stroke="none" stroke-width="1" fill="none" fill-rule="evenodd">
        <g id="Connectors" transform="translate(-920.000000, -600.000000)" fill="#251802" fill-rule="nonzero">
            <g id="Connector/Ably-Copy-28" transform="translate(920.000000, 600.000000)">
                <path d="M19.5730629,35.163381 L19.5730629,18.0804619 L14.0204463,20.324933 C14.0204463,20.324933 12.66314,23.1928683 12.909923,27.4324249 C13.0333144,30.7991316 15.0075781,34.6646097 16.4882759,36.4103094 L19.5730629,35.163381 Z M34.5034322,0 C35.737347,0.124692841 37.8350022,0.748157043 39.3157,1.99508545 C40.9197892,3.49139954 41.2899637,5.86056351 40.7963977,7.98034179 C40.3028318,9.8507344 39.6858744,10.8482771 37.7116107,12.2198984 C35.737347,13.5915196 34.2566492,13.7162125 34.2566492,13.7162125 L34.2566492,21.9459399 L38.0817852,24.9385681 L34.2566492,28.4299676 L34.2566492,39.6523233 C34.2566492,39.6523233 37.4648277,37.0337736 39.9326574,31.9213672 C39.9326574,31.9213672 40.0560489,31.6719815 40.3028318,31.0485173 C40.5496148,32.4201385 40.4262233,35.2880739 38.822134,38.7794734 C37.5882192,41.5227159 35.490564,44.0165727 32.65256,45.5128868 C27.8402922,48.1314365 24.1385478,48.3808221 20.3134118,47.6326651 C15.747927,46.7598152 11.5526167,44.2659584 8.83800407,39.901709 C6.86374037,36.784388 6,33.2929884 6,29.4275104 C6.12339148,21.8212471 11.9227911,15.3372194 18.5859311,12.8433626 C19.4496715,12.5939769 19.6964544,12.3445912 20.8069778,12.2198984 C20.3134118,12.5939769 19.6964544,12.9680554 18.9561055,13.4668268 C16.8584504,14.838448 15.0075781,17.5816905 14.1438378,19.7014688 L26.9765518,14.090291 L26.9765518,31.6719815 L16.7350589,36.784388 C17.9689737,38.4053949 21.5473267,40.7745589 24.6321137,41.1486374 C29.8145559,41.7721016 33.2695174,39.7770161 33.2695174,39.7770161 L33.2695174,28.3052748 L29.4443815,24.9385681 L33.2695174,21.9459399 L33.2695174,13.7162125 C31.0484707,13.4668268 27.9636837,12.4692841 26.4829859,12.0952055 C24.1385478,11.5964342 16.4882759,9.47665588 15.2543611,9.2272702 C14.0204463,9.10257736 12.5397485,9.10257736 11.6760081,9.8507344 C10.8122678,10.5988914 10.1953104,12.0952055 10.5654848,13.3421339 C10.8122678,14.090291 11.3058337,14.4643695 11.6760081,14.838448 C11.6760081,14.838448 11.1824422,14.838448 10.4420933,14.3396767 C8.96139555,13.4668268 7.85087222,11.8458199 7.72748074,9.72604156 C7.58104056,7.07362849 8.79248805,4.53100915 10.9356593,2.99262817 C12.909923,1.74569977 15.1309696,0.997542724 17.7221907,1.37162125 C21.5473267,1.87039261 26.6063774,3.9901709 31.1718622,5.11240646 C32.8993429,5.48648498 34.2566492,5.61117782 35.490564,4.98771362 C36.1075215,4.6136351 37.0946533,3.49139954 36.2309129,2.11977829 C35.2437811,0.498771362 33.3929089,0.498771362 31.7888196,0.249385681 C33.2695174,0 33.5163003,0 34.5034322,0" id="Shape"></path>
            </g>
        </g>
    </g>
</svg>