<?xml version="1.0" encoding="UTF-8"?>
<svg width="48px" height="48px" viewBox="0 0 48 48" version="1.1" xmlns="http://www.w3.org/2000/svg" xmlns:xlink="http://www.w3.org/1999/xlink">
    <title>8CF56EF7-3243-420F-A1BB-93114B3B30E1</title>
    <g id="UI-kit" stroke="none" stroke-width="1" fill="none" fill-rule="evenodd">
        <g id="Connectors" transform="translate(-520.000000, -1608.000000)" fill="#1D96F3" fill-rule="nonzero">
            <g id="Connector/Ably-Copy-94" transform="translate(520.000000, 1608.000000)">
                <g id="Group" transform="translate(0.000000, 3.000000)">
                    <g id="Group_833" transform="translate(0.009881, 0.008541)">
                        <polygon id="Path" points="21.7695408 4.55650453 10.425021 7.92157067 21.7695408 11.3037184"></polygon>
                        <path d="M23.9801799,34.910426 C22.3007797,34.910426 20.9298407,36.2769503 20.9298407,37.9509426 C20.9298407,39.6249349 22.3007797,40.9914592 23.9801799,40.9914592 C25.6595801,40.9914592 27.030519,39.6249349 27.030519,37.9509426 C27.030519,36.2769503 25.6767168,34.910426 23.9801799,34.910426 Z" id="Path"></path>
                        <path d="M42.2993516,29.8201229 C40.6199514,29.8201229 39.2490124,31.1866472 39.2490124,32.8606395 C39.2490124,34.5346318 40.6199514,35.9011561 42.2993516,35.9011561 C43.9787518,35.9011561 45.3496908,34.5346318 45.3496908,32.8606395 C45.3496908,31.1866472 43.9958886,29.8201229 42.2993516,29.8201229 Z" id="Path"></path>
                        <path d="M5.67814489,29.8201229 C3.99874468,29.8201229 2.62780573,31.1866472 2.62780573,32.8606395 C2.62780573,34.5346318 3.99874468,35.9011561 5.67814489,35.9011561 C7.35754511,35.9011561 8.72848406,34.5346318 8.72848406,32.8606395 C8.71134732,31.1866472 7.35754511,29.8201229 5.67814489,29.8201229 Z" id="Path"></path>
                        <path d="M2.62780573,23.0899906 C2.62780573,24.4906781 3.55318952,25.7376315 4.90699173,26.1475888 L23.0719328,31.5966045 C23.6717186,31.7674201 24.3057779,31.7674201 24.9227004,31.5966045 L43.0876415,26.1475888 C44.4414437,25.7376315 45.3668275,24.5077596 45.3668275,23.0899906 L45.3668275,7.90448912 L23.9973166,14.2588272 L5.24972647,8.67315905 L2.62780573,7.90448912 L23.9973166,1.58431413 L23.9973166,11.6795126 L41.1169168,6.60629101 L43.7217008,5.83762108 L24.4600085,0.0640558275 C24.1515472,-0.0213519425 23.843086,-0.0213519425 23.5346247,0.0640558275 L1.51391783,6.65753567 C0.400029934,6.99916675 -0.251166067,8.17779398 0.0915686706,9.28809499 C0.297209513,9.97135715 0.828448356,10.5008853 1.51391783,10.705864 L2.62780573,11.0474951" id="Path"></path>
                    </g>
                    <polygon id="Path" fill-opacity="0" points="0 0 48 0 48 40.9274034 0 40.9274034"></polygon>
                </g>
            </g>
        </g>
    </g>
</svg>