<?xml version="1.0" encoding="UTF-8"?>
<svg width="48px" height="48px" viewBox="0 0 48 48" version="1.1" xmlns="http://www.w3.org/2000/svg" xmlns:xlink="http://www.w3.org/1999/xlink">
    <title>BD454B9A-21B1-455E-BB24-0F5EAF63F9AB</title>
    <g id="UI-kit" stroke="none" stroke-width="1" fill="none" fill-rule="evenodd">
        <g id="Connectors" transform="translate(-1020.000000, -2888.000000)" fill-rule="nonzero">
            <g id="Connector/zendesk.support-Copy-9" transform="translate(1020.000000, 2888.000000)">
                <g id="optimizely_logo_navigation" transform="translate(0.000000, 1.000000)">
                    <path d="M15.9854292,25.2456288 L15.9854292,30.7808683 C20.2472057,30.7759316 24.3330116,29.1474481 27.346555,26.2525857 C30.3600984,23.3577233 32.0552944,19.4329485 32.0605249,15.3390928 L26.2982036,15.3390928 C26.2948411,17.9654004 25.207136,20.4833481 23.27395,22.3403994 C21.3406395,24.1975741 18.7195118,25.2422965 15.9854292,25.2456288 L15.9854292,25.2456288 Z" id="Path" fill="#3BE081"></path>
                    <path d="M15.9838102,40.4928995 C13.2694044,40.4928995 10.6662225,39.4570631 8.74687257,37.6133408 C6.8275102,35.7696186 5.74923254,33.2689492 5.74923254,30.6615243 C5.74923254,28.053976 6.8275102,25.55343 8.74687257,23.7095844 C10.6662225,21.8658621 13.2694044,20.8300257 15.9838102,20.8300257 L15.9838102,15.3354985 C13.88773,15.3326751 11.8116878,15.7263744 9.87406831,16.4942732 C7.93644883,17.2620486 6.17523584,18.38909 4.69100532,19.8107271 C3.20677481,21.2323642 2.02858121,22.921075 1.22370061,24.7801009 C0.418818766,26.6392503 0.00301061555,28.6324302 0,30.6458504 C-0.00297803914,32.6592706 0.406900587,34.6535612 1.20624926,36.5149321 C2.00560416,38.3761795 3.17876646,40.0679758 4.65876273,41.493809 C6.13875899,42.9195189 7.89660948,44.0513735 9.83193748,44.8244558 C11.7672655,45.5976615 13.8421495,45.9971614 15.9382297,46 L15.9838102,46 L15.9838102,40.4928995 Z" id="Path" fill="#0037FF"></path>
                    <path d="M15.9854292,40.4930229 L15.9854292,45.9875349 C20.2185622,45.9875349 24.2783399,44.372257 27.2715838,41.4968945 C30.2648277,38.6215319 31.9464491,34.7216873 31.9464491,30.6553535 L26.2201189,30.6553535 C26.2183754,33.2627783 25.1397615,35.7632009 23.2208973,37.6075402 C21.3021576,39.4518796 18.6999595,40.4896907 15.9854292,40.4930229 Z" id="Path" fill="#00CCFF"></path>
                    <path d="M15.9854292,9.83766946 L15.9854292,15.3321814 C20.2185622,15.3321814 24.2783399,13.7169035 27.2715838,10.8415287 C30.2648277,7.96617846 31.9464491,4.06635848 31.9464491,0 L26.2201189,0 C26.2183754,2.60752359 25.1397615,5.10785977 23.2208973,6.95223612 C21.3021576,8.79662482 18.6999595,9.83434955 15.9854292,9.83766946 Z" id="Path" fill="#861DFF"></path>
                    <path d="M32.0391046,9.83766946 L32.0391046,15.3321814 C36.2722376,15.3321814 40.3318908,13.7169035 43.3251347,10.8415287 C46.3185031,7.96617846 48,4.06635848 48,0 L42.2769077,0 C42.2751642,2.60805428 41.1960522,5.10887178 39.2765653,6.95334687 C37.3570784,8.79780962 34.7541331,9.83517645 32.0391046,9.83766946 Z" id="Path" fill="#FF8110"></path>
                </g>
            </g>
        </g>
    </g>
</svg>