<?xml version="1.0" encoding="UTF-8"?>
<svg width="48px" height="48px" viewBox="0 0 48 48" version="1.1" xmlns="http://www.w3.org/2000/svg" xmlns:xlink="http://www.w3.org/1999/xlink">
    <title>BA283FF6-F22A-4428-A971-ECD351DE9CE9</title>
    <defs>
        <linearGradient x1="50.048061%" y1="100%" x2="50.048061%" y2="0%" id="linearGradient-1">
            <stop stop-color="#0052CC" offset="0%"></stop>
            <stop stop-color="#2684FF" offset="100%"></stop>
        </linearGradient>
    </defs>
    <g id="UI-kit" stroke="none" stroke-width="1" fill="none" fill-rule="evenodd">
        <g id="Connectors" transform="translate(-420.000000, -888.000000)" fill="url(#linearGradient-1)" fill-rule="nonzero">
            <g id="Connector/Ably-Copy-43" transform="translate(420.000000, 888.000000)">
                <g id="Trello_logo" transform="translate(1.000000, 1.000000)">
                    <path d="M40.5391493,0 L5.46822,0 C2.45115411,0 0.00419838378,2.44523622 4.34207612e-05,5.46425136 L4.34207612e-05,40.506252 C-0.00574671185,41.9612465 0.567757355,43.3586659 1.59386061,44.3895845 C2.61996388,45.4205029 4.01415434,46 5.46822,46 L40.5391493,46 C41.9919375,45.9980527 43.384232,45.4176795 44.4087403,44.3869743 C45.4332487,43.3562691 46.0057428,41.9599695 45.9999566,40.506252 L45.9999566,5.46425136 C45.9958082,2.44811286 43.5533377,0.00406214364 40.5391493,0 Z M19.8385314,33.1320936 C19.8365876,33.618406 19.641151,34.0839162 19.2954277,34.4257118 C18.9497045,34.7675074 18.4821698,34.9574365 17.9961838,34.9536283 L10.3320177,34.9536283 C9.32960632,34.9494497 8.51914766,34.1351617 8.51914766,33.1320936 L8.51914766,10.3090734 C8.51914766,9.3060053 9.32960632,8.49171732 10.3320177,8.4876563 L17.9961838,8.4876563 C18.9997966,8.49169763 19.8123845,9.30481127 19.8164233,10.3090734 L19.8385314,33.1320936 Z M37.5250686,22.6534146 C37.5250686,23.1403419 37.330298,23.6070109 36.9841403,23.949236 C36.6379826,24.2914611 36.1692976,24.4807458 35.682721,24.4750948 L28.0185549,24.4750948 C27.0149421,24.4707903 26.2023541,23.6576767 26.1983154,22.6534146 L26.1983154,10.3090734 C26.2023541,9.30481127 27.0149421,8.49169763 28.0185549,8.4876563 L35.682721,8.4876563 C36.6851324,8.49171732 37.4955992,9.3060053 37.495591,10.3090734 L37.5250686,22.6534146 Z" id="Shape"></path>
                </g>
            </g>
        </g>
    </g>
</svg>