<?xml version="1.0" encoding="UTF-8"?>
<svg width="48px" height="48px" viewBox="0 0 48 48" version="1.1" xmlns="http://www.w3.org/2000/svg" xmlns:xlink="http://www.w3.org/1999/xlink">
    <title>4845CB33-B823-4846-94E1-12D85BC5EBD3</title>
    <g id="UI-kit" stroke="none" stroke-width="1" fill="none" fill-rule="evenodd">
        <g id="Connectors" transform="translate(-1020.000000, -464.000000)" fill="#0D2772" fill-rule="nonzero">
            <g id="Connector/Ably-Copy-19" transform="translate(1020.000000, 464.000000)">
                <path d="M18.7170125,2.62209683 L18.9439336,2.75460729 C19.7418941,3.25760914 20.5475126,4.06364436 21.1271959,4.89316158 L21.2940892,5.14244166 C21.8768375,6.0641978 22.9377695,6.65470002 24.0469849,6.65136969 C25.088668,6.64825201 26.0910747,6.1256003 26.7024279,5.29486382 L26.8193803,5.12467137 C27.4044209,4.22299203 28.2989596,3.31206439 29.1929516,2.76188994 C30.4703226,2.00099137 31.9204053,1.79479635 33.3102701,2.379266 C35.1818334,3.16925323 37.019567,4.23634578 38.6358883,5.47588351 C39.8210705,6.38745382 40.3608825,7.7388493 40.3351404,9.22683662 C40.3053386,10.1537635 40.0200179,11.237353 39.59992,12.1396431 L39.4550613,12.433228 C38.9511044,13.3824396 38.9658279,14.5495669 39.5312908,15.5283927 C40.0630503,16.4488805 40.9844999,17.0340276 41.9943375,17.1356552 L42.1973942,17.1494899 C43.2638436,17.1941909 44.4928226,17.5027173 45.4117746,17.9947563 C46.6976541,18.7075341 47.5974624,19.8487817 47.7953411,21.3346234 C48.061105,23.3524916 48.0670299,25.47846 47.8158021,27.4952553 C47.6265585,28.9978963 46.7187387,30.1546836 45.4050549,30.888466 C44.5858045,31.3307479 43.504426,31.6329745 42.5103169,31.7300173 L42.1826586,31.7546761 C41.0831813,31.8055713 40.0348648,32.4320082 39.4790406,33.3874709 C38.9255084,34.3391354 38.9068238,35.544611 39.4149853,36.5113513 C39.9124857,37.4708328 40.2667772,38.7013471 40.3080234,39.7541391 C40.3456493,41.2592499 39.8056342,42.6406046 38.5887067,43.5693418 C36.9611121,44.8078601 35.1030338,45.8800667 33.2147053,46.6702614 C31.8075979,47.256697 30.348351,47.0346278 29.0563885,46.2452562 C28.2583705,45.7422256 27.4526633,44.9362511 26.8728636,44.1068124 L26.7059345,43.8575563 C26.1231042,42.9359614 25.0620052,42.3454502 23.9531844,42.3488018 C22.9118004,42.3519733 21.9091152,42.8745964 21.2976245,43.7050357 L21.1806467,43.875165 C20.5953201,44.7767545 19.7006913,45.6875546 18.8067021,46.2377197 C17.5291172,46.9988545 16.0787669,47.2051691 14.6886653,46.6205022 C12.817539,45.8306222 10.9802062,44.7636884 9.36414624,43.5243292 C8.17898136,42.6127605 7.63917267,41.2613803 7.66488989,39.7734207 C7.69465877,38.8464715 7.97998313,37.7628598 8.40012274,36.8605493 L8.54499681,36.5669576 C9.04892834,35.6178687 9.03419122,34.4507049 8.46874615,33.4718906 C7.9369899,32.5513902 7.01551097,31.9662192 6.00566572,31.8646262 L5.80260774,31.8507993 C4.73613244,31.8060551 3.5072069,31.4975142 2.58822532,31.0054705 C1.30232481,30.2926597 0.402510117,29.1514566 0.20463226,27.6656214 C-0.0611132173,25.6477483 -0.0670213652,23.5217715 0.184217956,21.5049723 C0.373461569,20.0023314 1.28129462,18.8455363 2.59498924,18.1117478 C3.41421024,17.6694833 4.49558615,17.3672617 5.48968861,17.27022 L5.81734442,17.2455614 C6.91681865,17.1946664 7.96518301,16.5682011 8.5209929,15.6127144 C9.07453849,14.6611593 9.09321482,13.4556633 8.58507489,12.4888538 C8.08757292,11.5293709 7.73329273,10.2988816 7.69204777,9.24614493 C7.65432832,7.74105745 8.19439507,6.35956723 9.41135769,5.43086747 C11.0392482,4.1921282 12.8975843,3.11980163 14.7859807,2.32971527 C16.1147511,1.77592682 17.4900509,1.94318056 18.7170125,2.62209683 Z M16.4231316,3.00000476 L16.2196049,3.00609693 C15.878228,3.02719197 15.5264409,3.10404286 15.1705175,3.25238018 C13.3616542,4.0091917 11.5770758,5.03895282 10.0166702,6.22633957 C8.97024854,7.02489558 8.6657173,8.19935966 8.69132349,9.22110178 C8.72449752,10.0657711 9.00482226,11.0357557 9.35383218,11.7869198 L9.4724679,12.0287313 L9.57522482,12.2387148 C10.1230759,13.4447047 10.0840445,14.9137078 9.38502051,16.1153429 C8.68525493,17.3183023 7.41993425,18.0937808 6.08637302,18.227733 L5.86356623,18.2440816 L5.56628282,18.2670713 C4.75372317,18.3493172 3.79815978,18.5981571 3.06984758,18.9913435 C2.18412618,19.4861602 1.33864524,20.3382188 1.17597323,21.6298747 C0.936988067,23.5483118 0.939378856,25.589064 1.19566455,27.5351066 C1.36503641,28.8068876 2.19562165,29.6449453 3.07284865,30.1312169 C3.7934704,30.5169584 4.74124447,30.757914 5.54891641,30.8321203 L5.8445088,30.8520884 L6.06238941,30.8657108 C7.36692435,30.982289 8.61332839,31.723852 9.33429177,32.9718807 C10.0524462,34.2150427 10.0719415,35.6530518 9.52940327,36.8306983 L9.42785478,37.0357229 L9.30984282,37.2746872 C8.96330372,38.017037 8.69061301,38.9757131 8.66396429,39.8055059 C8.64659256,40.814962 8.9604821,41.9527866 9.97356611,42.7319994 C11.5310976,43.9264718 13.2964092,44.9477679 15.0774146,45.6996042 C15.4275198,45.8468557 15.7745296,45.9247311 16.1121842,45.9480729 L16.3136041,45.9556527 L16.5124783,45.9508568 C17.1708156,45.9150363 17.7817152,45.6848295 18.2950969,45.3789769 C19.0092313,44.939397 19.7125159,44.2229539 20.1912711,43.5522819 L20.3422472,43.3308624 L20.4671433,43.1470524 C21.200265,42.1281695 22.3977983,41.4384166 23.704034,41.357238 L23.9501402,41.349217 L24.1830432,41.3550634 C25.4966599,41.4249999 26.6983581,42.1150401 27.4271327,43.1391441 L27.5507573,43.3232779 L27.7008976,43.5466967 C28.1769202,44.2237313 28.875667,44.9497319 29.5894192,45.3996455 C30.0886444,45.7046207 30.6852889,45.9407509 31.3324285,45.9903701 L31.5773811,46.0000048 L31.7809338,45.993906 C32.1223551,45.9728141 32.4741917,45.8959558 32.8301691,45.7475962 C34.6387884,44.9907557 36.4231471,43.9611398 37.9833929,42.7738707 C39.0297925,41.9752762 39.334289,40.8008835 39.3087462,39.7791198 C39.2755721,38.9344505 38.9952342,37.964443 38.6462264,37.2132826 L38.527592,36.9714733 L38.4248259,36.7614935 C37.8769307,35.5555252 37.916043,34.086552 38.6149825,32.8848947 C39.314802,31.681904 40.5800744,30.9064535 41.9136305,30.7725042 L42.1364368,30.7561559 L42.4337203,30.7331662 C43.2462804,30.65092 44.2018477,30.4020779 44.9301952,30.008871 C45.815911,29.5140576 46.6613748,28.6620088 46.8240469,27.370353 C47.0630206,25.4519225 47.0606128,23.4111801 46.8043101,21.4651474 C46.6349382,20.1933664 45.8044022,19.3552802 44.9271623,18.869016 C44.2065487,18.4832698 43.2587396,18.2423345 42.4511066,18.1681587 L42.1555324,18.1482024 L41.9376481,18.1345714 C40.6330939,18.0179474 39.3867236,17.2764326 38.6657495,16.0284101 C37.9475536,14.7852009 37.9281103,13.347225 38.4706415,12.1695263 L38.572188,11.9644915 L38.6901863,11.7255352 C39.0366894,10.9832063 39.3093878,10.0245257 39.3360672,9.1947152 C39.3534554,8.18524948 39.0395647,7.04742559 38.0264733,6.2682171 C36.4686461,5.07353896 34.7029331,4.05209846 32.9215531,3.30017764 C32.5715342,3.152987 32.224609,3.07513431 31.8870326,3.05179136 L31.6856587,3.04420813 L31.4868288,3.04899548 C30.8286359,3.08478011 30.2178468,3.31487852 29.7045028,3.62066494 C28.9905628,4.06013211 28.2874162,4.77655647 27.8088406,5.44730143 L27.6579261,5.66874868 L27.5330704,5.85260722 C26.7543734,6.9354617 25.4514285,7.64676025 24.0499766,7.65095469 C22.6460231,7.65516995 21.3443109,6.94525574 20.5727938,5.86075924 L20.4491902,5.67659969 L20.2990889,5.45316957 C19.8231825,4.77610105 19.1245485,4.05007112 18.4108972,3.60021438 C17.8493046,3.25717946 17.1644475,3.00127654 16.4231316,3.00000476 Z M17.5312013,4.26100398 L17.7108688,4.35098117 L17.877642,4.44616876 L18.0848843,4.58687936 C18.5722013,4.94058201 19.0786429,5.46399157 19.4543665,5.99040154 L19.6069509,6.21570349 L19.7344357,6.40752659 C20.6999146,7.79091799 22.3297244,8.65612412 24.052979,8.65095018 C25.7668883,8.64582058 27.3902397,7.78414732 28.3652611,6.40803697 L28.5000792,6.20798714 L28.6516146,5.98752695 C29.0788442,5.39831452 29.6815315,4.80907252 30.2287036,4.47225961 C30.9861833,4.02117061 31.7859392,3.90744904 32.5339116,4.22198786 C34.248014,4.94551175 35.9380839,5.92686237 37.4179314,7.06173886 C38.0547273,7.55152493 38.3514286,8.2943034 38.3362155,9.17749258 C38.3136324,9.87643422 38.0479075,10.8090169 37.6860164,11.5011344 C36.8636358,13.0500602 36.8875976,14.9495038 37.7998534,16.528634 C38.6720801,18.0384781 40.2057691,18.9945973 41.8797589,19.1333332 L42.1197985,19.1475638 L42.3826629,19.1657235 C43.0963236,19.2334087 43.8976808,19.4521934 44.4552231,19.7506471 C45.2123835,20.1704727 45.7065266,20.7972057 45.8130619,21.5971588 C46.0563586,23.4444487 46.0618075,25.3996176 45.8317162,27.246741 C45.7295974,28.0575826 45.2275973,28.6972551 44.4424831,29.1358665 C43.8885935,29.4347849 43.0796892,29.6609215 42.3525088,29.7364179 L42.0843047,29.7575157 L41.8440122,29.7743006 C40.1671996,29.930982 38.6095166,30.905581 37.7506022,32.3820561 C36.891582,33.8589333 36.8234477,35.6859764 37.5305569,37.2104472 L37.6424356,37.436767 L37.7606814,37.680199 C38.0657205,38.3498908 38.284069,39.1704248 38.3095165,39.8183641 C38.3318078,40.7141277 38.0332332,41.4778794 37.3767069,41.9789291 C35.8852372,43.1138619 34.1746723,44.1009456 32.4441421,44.8251087 C31.687328,45.1405226 30.883138,45.0181404 30.1107362,44.5462824 C29.5673002,44.2036227 28.9599381,43.5959086 28.5295093,42.9867819 L28.3929166,42.784049 L28.265418,42.5922643 C27.2998396,41.2091456 25.6699577,40.344014 23.9471175,40.3492215 C22.2337386,40.3544396 20.6102637,41.2158733 19.6350802,42.5914296 L19.5002387,42.7913981 L19.3486008,43.0118914 C18.9211091,43.6011858 18.3182471,44.1904646 17.7709022,44.5273785 C17.0131794,44.978678 16.2132334,45.0924715 15.465111,44.7778171 C13.7514095,44.0543916 12.0617223,43.0731953 10.5821148,41.9384828 C9.94532146,41.4486925 9.64861729,40.7059105 9.66381625,39.8227123 C9.68386717,39.2014356 9.89604589,38.3955687 10.197135,37.7380696 L10.3140095,37.4991125 L10.4257324,37.2755377 C11.1321068,35.770102 11.0689818,33.9755835 10.2001921,32.4716642 C9.32796432,30.9617881 7.79421224,30.0056205 6.12023716,29.8669464 L5.88020026,29.8527255 L5.61734419,29.8345564 C4.90370493,29.7668471 4.10235924,29.5480481 3.5447793,29.2495812 C2.78759414,28.829729 2.29344365,28.2030154 2.18691275,27.4030952 C1.94363375,25.5558077 1.93820025,23.6006277 2.16830319,21.753492 C2.27042228,20.9426486 2.77243452,20.3029657 3.55755981,19.864348 C4.11141829,19.5654474 4.92032059,19.3393149 5.64749619,19.2638195 L5.91569834,19.2427218 L6.15599177,19.2259367 C7.83281335,19.069252 9.39055179,18.0946196 10.249412,16.6181623 C11.108467,15.141431 11.176591,13.3143673 10.469519,11.7898122 L10.3576462,11.5634793 L10.239394,11.3200358 C9.93434097,10.6503191 9.71600101,9.82980518 9.69055314,9.18185745 C9.66820575,8.28612548 9.96680148,7.52231791 10.6233296,7.02130143 C12.1150991,5.88614434 13.8258855,4.89895922 15.5564876,4.17489147 C16.1968018,3.90803014 16.8710134,3.95456744 17.5312013,4.26100398 Z M24,14.5 C18.7532949,14.5 14.5,18.7532949 14.5,24 C14.5,29.2467051 18.7532949,33.5 24,33.5 C29.2467051,33.5 33.5,29.2467051 33.5,24 C33.5,18.7532949 29.2467051,14.5 24,14.5 Z M24,15.5 C28.6944204,15.5 32.5,19.3055796 32.5,24 C32.5,28.6944204 28.6944204,32.5 24,32.5 C19.3055796,32.5 15.5,28.6944204 15.5,24 C15.5,19.3055796 19.3055796,15.5 24,15.5 Z M24,17 C20.1340068,17 17,20.1340068 17,24 C17,27.8659932 20.1340068,31 24,31 C27.8659932,31 31,27.8659932 31,24 C31,20.1340068 27.8659932,17 24,17 Z" id="Combined-Shape"></path>
            </g>
        </g>
    </g>
</svg>