<?xml version="1.0" encoding="UTF-8"?>
<svg width="48px" height="48px" viewBox="0 0 48 48" version="1.1" xmlns="http://www.w3.org/2000/svg" xmlns:xlink="http://www.w3.org/1999/xlink">
    <title>353FE316-58BC-48EA-85D2-2D5F0AB78ABC</title>
    <g id="UI-kit" stroke="none" stroke-width="1" fill="none" fill-rule="evenodd">
        <g id="Connectors" transform="translate(-620.000000, -328.000000)" fill="#A92520">
            <g id="Connector/Ably-Copy-5" transform="translate(620.000000, 328.000000)">
                <path d="M23.5908659,38.9977932 C10.9831358,38.8616917 0.741574529,32.4469044 0.0385139619,24.3855622 L14.921,24.385 L24,33.432 L24,39 Z M47.961486,24.3855622 C47.2673613,32.3444461 37.2756605,38.6983639 24.8886992,38.9895704 L24.888,33.551 L34.087,24.385 Z M24.8886992,8.01042956 C37.7318092,8.31235973 48,15.1317403 48,23.5 L48,23.5 L34.146,23.5 L24.888,14.276 Z M24,8 L24,14.395 L14.862,23.5 L0,23.5 L0.00341700457,23.2357676 C0.221816545,14.7972397 10.8818138,8 24,8 L24,8 Z" id="Combined-Shape"></path>
            </g>
        </g>
    </g>
</svg>