<?xml version="1.0" encoding="UTF-8"?>
<svg width="48px" height="48px" viewBox="0 0 48 48" version="1.1" xmlns="http://www.w3.org/2000/svg" xmlns:xlink="http://www.w3.org/1999/xlink">
    <title>DD508691-36A3-4B39-BEA3-450DD0E71993</title>
    <g id="UI-kit" stroke="none" stroke-width="1" fill="none" fill-rule="evenodd">
        <g id="Connectors" transform="translate(-1020.000000, -328.000000)" fill="#FF6B00" fill-rule="nonzero">
            <g id="Connector/Ably-Copy-9" transform="translate(1020.000000, 328.000000)">
                <path d="M41.2032859,7 L13.1331547,7 C8.60419239,7 4.21676013,10.6982759 3.320403,15.25 L0.159564706,31.75 C-0.736792423,36.3017241 2.23533911,40 6.76430144,40 L34.8344326,40 C39.3633949,40 43.7508272,36.3017241 44.6471843,31.75 L47.8551993,15.25 C48.7043797,10.6982759 45.7322482,7 41.2032859,7 Z M40.873049,12.8793103 L24.2668538,21.5560345 L13.3218615,13.0215517 L40.873049,12.8793103 Z M38.7972746,31.75 C38.5613912,33.0775862 37.2876205,34.1206897 36.0138499,34.1206897 L7.94371872,34.1206897 C6.66994806,34.1206897 5.82076762,33.0775862 6.05665108,31.75 L8.88725254,17.2887931 L22.9930831,28.3362069 L41.2976392,19.0431034 L38.7972746,31.75 Z" id="Shape"></path>
            </g>
        </g>
    </g>
</svg>