<?xml version="1.0" encoding="UTF-8"?>
<svg width="48px" height="48px" viewBox="0 0 48 48" version="1.1" xmlns="http://www.w3.org/2000/svg" xmlns:xlink="http://www.w3.org/1999/xlink">
    <title>E1891987-7D73-47CC-A363-F338573D262F</title>
    <g id="UI-kit" stroke="none" stroke-width="1" fill="none" fill-rule="evenodd">
        <g id="Connectors" transform="translate(-420.000000, -464.000000)" fill-rule="nonzero">
            <g id="Connector/Ably-Copy-13" transform="translate(420.000000, 464.000000)">
                <g id="logo-inverse" transform="translate(0.000000, 6.000000)">
                    <path d="M15.0091747,0.656447714 C17.6848419,-0.211560558 20.6415384,-0.224510681 23.3182601,0.651897671 C26.7500177,1.83928399 29.662073,4.50053435 31.0340027,7.85934136 C31.5965888,7.507413 32.1180486,7.07988393 32.7439058,6.83785662 C34.7225357,6.037924 37.1257854,6.24110093 38.8685544,7.50006293 C40.0875788,8.37524627 41.0623062,9.6480334 41.4134612,11.1185724 C41.8373779,12.8208136 41.5744511,14.7031316 40.590233,16.1715706 C43.2892754,16.745401 45.6229268,18.6039187 46.9122525,21.0105417 C47.9516571,22.8641593 48.1775,25.0714554 47.8778407,27.1480252 C47.1917001,31.4639163 43.1170372,35.0528505 38.685068,34.998425 C29.4119761,35.000525 20.1413447,35.000525 10.8680771,34.998425 C5.62131592,35.0425254 0.80884098,30.7234842 0.116900515,25.5878853 C-0.199982558,23.2944884 0.114264217,20.8778904 1.22027929,18.8195208 C2.33877285,16.6470501 4.18295149,14.8364828 6.42239914,13.8156981 C6.238034,11.1185724 6.78655983,8.33307087 8.27659571,6.04457406 C9.85556273,3.59367571 12.2259465,1.60635677 15.0091747,0.656447714 Z" id="Path" fill="#00A68E"></path>
                    <g id="Group" transform="translate(9.835959, 8.288403)" fill="#FFFFFF">
                        <path d="M8.6287003,0.18256948 C10.9860784,-0.553837538 13.7654399,1.01942745 14.2897118,3.42955042 C11.3105188,4.20130778 8.34714363,5.0224156 5.36900515,5.79329795 C4.67354962,3.45090063 6.23089899,0.738899781 8.6287003,0.18256948 Z" id="Path"></path>
                        <path d="M18.037298,1.66850864 C18.3420541,1.19145409 19.1339981,1.21175429 19.4594931,1.66028356 C19.7203109,1.94081124 19.7275168,2.38129043 19.5315519,2.69944346 C18.9840806,3.71497814 18.3459206,4.68133735 17.8147944,5.70369709 C18.096351,7.07186013 18.5232556,8.41377292 18.8730046,9.76636081 C19.9494931,9.55950884 20.9892492,9.20005541 22.0581803,8.95172805 C22.6207664,8.80385164 23.2315089,9.33165667 23.1425778,9.9119622 C23.1497837,10.3358162 22.7982772,10.6751445 22.3991416,10.7579203 C21.388912,11.0235728 20.3807915,11.2922004 19.3763618,11.571678 C19.7238259,12.9778164 19.8391201,14.4366303 19.5373518,15.8628939 C20.7507521,16.5370003 21.9474558,17.239632 23.1443353,17.9373637 C23.4533095,18.0876901 23.575458,18.4158182 23.7046366,18.708071 C23.6084996,19.2880266 23.0293927,19.9012324 22.4102141,19.6009295 C21.1820505,18.9486983 19.9922011,18.2245414 18.7788008,17.54921 C17.8592599,18.8310972 16.5681767,19.8760322 15.0368388,20.3329615 C13.904285,16.1939971 12.8035425,12.0475075 11.6825884,7.90504307 C11.1045361,8.07146966 10.5273624,8.24069627 9.9371831,8.35847239 C10.9600669,12.5268371 12.1773338,16.6483014 13.2394105,20.808791 C11.5992814,21.2377201 9.87356043,20.8579665 8.37614291,20.1413347 C7.87682799,21.2156699 7.31072683,22.2595549 6.80174548,23.3289901 C6.66290043,23.6011177 6.52528565,23.8984455 6.25251664,24.0627721 C5.76040759,24.3392747 5.05563714,24.0856973 4.91239826,23.530242 C4.75703241,22.903036 5.22963284,22.3855561 5.46338464,21.8472509 C5.93791836,20.8656666 6.48275337,19.9175075 6.90561564,18.912823 C6.02860702,17.9270386 5.44106398,16.7008019 5.13806541,15.4269648 C4.01324474,15.5667911 2.94958619,16.0118203 1.83706825,16.2151723 C1.2303681,16.3115982 0.667782009,15.6689921 0.835099084,15.0776614 C0.94371458,14.7990588 1.1518064,14.5351563 1.45023539,14.4487054 C2.49913066,14.1230273 3.57649796,13.8971002 4.63084159,13.5869972 C4.22766368,12.2379094 3.91148362,10.8669463 3.51639036,9.51418341 C2.50844558,8.93387788 1.4889011,8.37229753 0.488337962,7.77624185 C0.0844570399,7.56676485 -0.121877252,7.05348496 0.0760208848,6.63505597 C0.2646041,6.16710151 0.874292054,5.88657384 1.33125045,6.16062645 C2.39016366,6.73900696 3.41498074,7.37531302 4.476706,7.94809348 C8.36331293,6.86010812 12.2866523,5.90039897 16.164823,4.78948838 C16.855006,3.79320389 17.3657449,2.67844326 18.037298,1.66850864 Z" id="Path"></path>
                    </g>
                </g>
            </g>
        </g>
    </g>
</svg>