<?xml version="1.0" encoding="UTF-8"?>
<svg width="48px" height="48px" viewBox="0 0 48 48" version="1.1" xmlns="http://www.w3.org/2000/svg" xmlns:xlink="http://www.w3.org/1999/xlink">
    <title>C09BB825-A0E9-45F8-88B6-EA5A9F193C68</title>
    <defs>
        <linearGradient x1="51.4102499%" y1="12.9340693%" x2="49.1161999%" y2="78.6233556%" id="linearGradient-1">
            <stop stop-color="#32D4F5" offset="0%"></stop>
            <stop stop-color="#31D0F1" offset="23%"></stop>
            <stop stop-color="#2CC3E6" offset="46%"></stop>
            <stop stop-color="#25AFD4" offset="70%"></stop>
            <stop stop-color="#1C92BA" offset="94%"></stop>
            <stop stop-color="#198AB3" offset="100%"></stop>
        </linearGradient>
    </defs>
    <g id="UI-kit" stroke="none" stroke-width="1" fill="none" fill-rule="evenodd">
        <g id="Connectors" transform="translate(-520.000000, -328.000000)" fill-rule="nonzero">
            <g id="Connector/Ably-Copy-4" transform="translate(520.000000, 328.000000)">
                <g id="10150-icon-service-Data-Lake-Store-Gen1" transform="translate(0.000000, 4.000000)">
                    <path d="M46.8692073,4.32709173 L25.9474708,4.32709173 C25.7237038,4.33563477 25.5039761,4.26605936 25.3263126,4.13040587 L19.3406066,0.168590587 C19.1525731,0.0577869433 18.9379739,-0.000457196754 18.7194484,0 L1.12937849,0 C0.516501891,0 0.0153218857,0.486100512 0,1.09582395 L0,37.9041787 C0.0153218857,38.5139021 0.516501891,39 1.12937849,39 L46.8692073,39 C47.4820839,39 47.9832639,38.5139021 47.9985858,37.9041787 L47.9985858,5.45101096 C47.9985858,4.83028751 47.4929458,4.32709173 46.8692073,4.32709173 Z" id="Path" fill="#005BA1"></path>
                    <rect id="Rectangle" fill="#FFFFFF" x="4.37634164" y="2.13544924" width="10.8985024" height="2.16354452" rx="0.451751395"></rect>
                    <rect id="Rectangle" fill="#1AC3F2" x="4.37634164" y="2.13544924" width="2.17405359" height="2.16354452" rx="0.310579084"></rect>
                    <path d="M46.8692073,4.27089577 L23.9992929,4.27089577 C23.6986172,4.26132623 23.4091271,4.38479368 23.2087279,4.60807154 L19.3970755,8.26080903 C19.179545,8.45520224 18.8988317,8.5649494 18.6065106,8.56988682 L1.12937849,8.56988682 C0.505639973,8.56988682 0,9.0730826 0,9.69380605 L0,37.7917868 C0.0153218857,38.4015102 0.516501891,38.8876081 1.12937849,38.8876081 L46.8692073,38.8876081 C47.4820839,38.8876081 47.9832639,38.4015102 47.9985858,37.7917868 L47.9985858,5.45101096 C48.0140648,5.14331716 47.9019461,4.84278921 47.6884457,4.61969741 C47.4749453,4.39660561 47.1787826,4.27037795 46.8692073,4.27089577 Z" id="Path" fill="url(#linearGradient-1)"></path>
                    <path d="M27.3309594,10.2276677 C27.2570559,10.2073185 27.1789873,10.2073185 27.1050837,10.2276677 C27.1050837,10.2276677 26.8509736,10.2276677 26.7380357,10.4243536 L17.8159457,23.3213267 C17.735248,23.4604234 17.735248,23.6317977 17.8159457,23.7708944 C17.9006392,23.9294854 18.0597854,24.03507 18.2394626,24.0518742 L23.519307,24.0518742 L21.1758467,31.8631128 C21.1291001,31.955523 21.1239245,32.0633263 21.161605,32.1597508 C21.1992855,32.2561752 21.2762874,32.3321751 21.3734879,32.3688765 C21.4372168,32.3925726 21.5074002,32.3925726 21.5711291,32.3688765 C21.7405359,32.3688765 21.8252393,32.3688765 21.9381771,32.1721906 L31.1426118,19.0785316 C31.1426118,19.0785316 31.1426118,18.9099437 31.1426118,18.7975518 C31.1276449,18.5447768 30.9170689,18.3475457 30.662626,18.3479841 L25.0157335,18.3479841 L27.302725,10.6772354 C27.4149143,10.5516766 27.426566,10.3661509 27.3309594,10.2276677 L27.3309594,10.2276677 Z" id="Path" fill="#FFFFFF"></path>
                </g>
            </g>
        </g>
    </g>
</svg>