<?xml version="1.0" encoding="UTF-8"?>
<svg width="48px" height="48px" viewBox="0 0 48 48" version="1.1" xmlns="http://www.w3.org/2000/svg" xmlns:xlink="http://www.w3.org/1999/xlink">
    <title>50C0CC3B-24E1-475D-A3AF-C60FD482FA07</title>
    <defs>
        <linearGradient x1="59.0631688%" y1="7.4114724%" x2="37.0599797%" y2="103.76182%" id="linearGradient-1">
            <stop stop-color="#114A8B" offset="0%"></stop>
            <stop stop-color="#0669BC" offset="100%"></stop>
        </linearGradient>
        <linearGradient x1="59.8178884%" y1="52.3127289%" x2="52.7188613%" y2="54.8636556%" id="linearGradient-2">
            <stop stop-color="#000000" stop-opacity="0.3" offset="0%"></stop>
            <stop stop-color="#000000" stop-opacity="0.2" offset="7.1%"></stop>
            <stop stop-color="#000000" stop-opacity="0.1" offset="32.1%"></stop>
            <stop stop-color="#000000" stop-opacity="0.05" offset="62.3%"></stop>
            <stop stop-color="#000000" stop-opacity="0" offset="100%"></stop>
        </linearGradient>
        <linearGradient x1="37.1493011%" y1="4.60005789%" x2="62.6005053%" y2="99.9794963%" id="linearGradient-3">
            <stop stop-color="#3CCBF4" offset="0%"></stop>
            <stop stop-color="#2892DF" offset="100%"></stop>
        </linearGradient>
    </defs>
    <g id="UI-kit" stroke="none" stroke-width="1" fill="none" fill-rule="evenodd">
        <g id="Connectors" transform="translate(-420.000000, -1876.000000)" fill-rule="nonzero">
            <g id="Connector/Ably-Copy-113" transform="translate(420.000000, 1876.000000)">
                <g id="azure" transform="translate(0.000000, 1.000000)">
                    <path d="M16.00186,0.000542737568 L30.2054861,0.000542737568 L15.460728,43.4667664 C15.1499907,44.3825991 14.2868139,44.9994573 13.315292,44.9994573 L2.26136014,44.9994573 C1.53305945,44.9994573 0.849306498,44.6505828 0.424498042,44.0620004 C-0.000310414005,43.473418 -0.11415857,42.717281 0.118651668,42.0306828 L13.8558786,1.53323363 C14.166492,0.616997361 15.0299934,0 16.00186,0 L16.00186,0.000542737568 Z" id="Path" fill="url(#linearGradient-1)"></path>
                    <path d="M36.641794,29.1547761 L14.1182622,29.1547761 C13.6897356,29.1543052 13.3045745,29.4148023 13.1473572,29.8114317 C12.9901399,30.208061 13.092899,30.6600105 13.4063899,30.9506953 L27.879491,44.3910484 C28.3008746,44.7821393 28.8557133,44.9994573 29.4319727,44.9994573 L42.1856703,44.9994573 L36.641794,29.1547761 Z" id="Path" fill="#0078D4"></path>
                    <path d="M16.00186,0.000526126257 C15.0184167,-0.00321215508 14.1468568,0.629943343 13.8509691,1.5630842 L0.135562045,41.9937766 C-0.112994191,42.6830963 -0.00831679896,43.4496842 0.416071284,44.0480404 C0.840459368,44.6463967 1.53130341,45.0014361 2.26736059,44.9994655 L13.6065869,44.9994655 C14.4663823,44.8466132 15.1770193,44.2453153 15.4667284,43.4255183 L18.2018456,35.4054853 L27.9716798,44.4719163 C28.3810902,44.8088479 28.894674,44.9951491 29.4259723,44.9994655 L42.1322117,44.9994655 L36.559424,29.1547767 L20.3140063,29.1585759 L30.2567627,0.000526126257 L16.00186,0.000526126257 Z" id="Path" fill="url(#linearGradient-2)"></path>
                    <path d="M34.1434221,1.53106268 C33.8332471,0.616302334 32.9710344,0.000542737568 32.0007136,0.000542737568 L16.1709638,0.000542737568 C17.1412306,0.000542737568 18.0033554,0.616406776 18.3136723,1.53106268 L32.0514447,42.03014 C32.2844307,42.7168638 32.1706867,43.4732028 31.7458782,44.0620004 C31.3210698,44.650798 30.6372126,45 29.9087363,45 L45.7390315,45 C46.4674117,45 47.1511061,44.6505509 47.5757871,44.06178 C48.0004681,43.4730092 48.1141497,42.7167731 47.8811945,42.03014 L34.1434221,1.53106268 Z" id="Path" fill="url(#linearGradient-3)"></path>
                </g>
            </g>
        </g>
    </g>
</svg>