<?xml version="1.0" encoding="UTF-8"?>
<svg width="48px" height="48px" viewBox="0 0 48 48" version="1.1" xmlns="http://www.w3.org/2000/svg" xmlns:xlink="http://www.w3.org/1999/xlink">
    <title>5F4F0536-6DAF-4FA7-A730-169D9A1CA35E</title>
    <g id="UI-kit" stroke="none" stroke-width="1" fill="none" fill-rule="evenodd">
        <g id="Connectors" transform="translate(-220.000000, -736.000000)">
            <g id="Connector/Ably-Copy-31" transform="translate(220.000000, 736.000000)">
                <g id="60916d2d77cab34ad9d7666f_Logo" transform="translate(0.000000, 8.000000)">
                    <path d="M37.7388589,14.2174691 C37.3917589,11.5617691 36.4058589,9.03279914 34.8675589,6.85281914 C33.3293589,4.67282914 31.2858589,2.90844914 28.9164589,1.71462914 C26.5471589,0.520809138 23.9244589,-0.0659518625 21.2787589,0.00588513752 C18.6330589,0.0777211375 16.0452589,0.805949138 13.7425589,2.12662914 C11.4398589,3.44730914 9.49271894,5.32003914 8.07214894,7.58035914 C6.65156894,9.84066914 5.80099894,12.4194691 5.59512894,15.0902691 C5.38925894,17.7610691 5.83436894,20.4421691 6.89139894,22.8981691 C7.94841894,25.3541691 9.58501894,27.5098691 11.6574589,29.1760691 C13.2441589,28.4609691 14.9790589,27.6261691 16.8216589,26.6898691 C14.9579589,25.7859691 13.3743589,24.3828691 12.2427589,22.6325691 C11.1111589,20.8822691 10.4747589,18.8516691 10.4026589,16.7611691 C10.3305589,14.6707691 10.8253589,12.6001691 11.8335589,10.7742691 C12.8417589,8.94828914 14.3247589,7.43668914 16.1215589,6.40345914 C17.9184589,5.37023914 19.9605589,4.85485914 22.0263589,4.91323914 C24.0921589,4.97161914 26.1026589,5.60152914 27.8397589,6.73462914 C29.5768589,7.86771914 30.9741589,9.46076914 31.8801589,11.3407691 C32.7861589,13.2207691 33.1660589,15.3160691 32.9787589,17.3992691 C34.6852589,16.3037691 36.2808589,15.2371691 37.7388589,14.2174691 Z M37.8750589,16.0719691 C36.2419589,17.2946691 34.4322589,18.5612691 32.4863589,19.8385691 C31.6171589,22.5978691 29.7474589,24.9214691 27.2536589,26.3413691 C24.7598589,27.7613691 21.8271589,28.1722691 19.0459589,27.4912691 C16.9129589,28.5291691 14.8891589,29.4275691 13.0360589,30.1715691 C15.5008589,31.7581691 18.3442589,32.6391691 21.2641589,32.7209691 C24.1840589,32.8027691 27.0712589,32.0823691 29.6189589,30.6361691 C32.1666589,29.1899691 34.2796589,27.0721691 35.7333589,24.5077691 C37.1870589,21.9432691 37.9271589,19.0280691 37.8750589,16.0719691 Z" id="Shape" fill="#1E2124"></path>
                    <path d="M38.6955589,2.76325017 C38.9143589,2.76325017 39.1281589,2.69757914 39.3100589,2.57454914 C39.4920589,2.45151914 39.6337589,2.27664914 39.7175589,2.07205914 C39.8012589,1.86746914 39.8231589,1.64233914 39.7804589,1.42514914 C39.7377589,1.20795914 39.6324589,1.00844914 39.4777589,0.851869138 C39.3230589,0.695279138 39.1259589,0.588639138 38.9113589,0.545439138 C38.6967589,0.502239138 38.4743589,0.524409138 38.2722589,0.609159138 C38.0700589,0.693899138 37.8973589,0.837409138 37.7757589,1.02153914 C37.6542589,1.20565914 37.5893579,1.42213914 37.5893579,1.64358914 C37.5891589,1.79067914 37.6176589,1.93635914 37.6731589,2.07229914 C37.7286589,2.20822914 37.8101589,2.33173914 37.9128589,2.43574914 C38.0156589,2.53975914 38.1376589,2.62222914 38.2719589,2.67841914 C38.4062589,2.73461914 38.5502589,2.76344914 38.6955589,2.76325017 Z" id="Path" fill="#00CCF5"></path>
                    <path d="M1.47441894,21.7869691 C1.76621894,21.7869691 2.05145894,21.6993691 2.29401894,21.5351691 C2.53657894,21.3709691 2.72555894,21.1376691 2.83701894,20.8646691 C2.94847894,20.5916691 2.97741894,20.2913691 2.92015894,20.0017691 C2.86290894,19.7121691 2.72203894,19.4462691 2.51538894,19.2377691 C2.30873894,19.0291691 2.04559894,18.8874691 1.75929894,18.8303691 C1.47299894,18.7732691 1.17639894,18.8034691 0.907065943,18.9171691 C0.637732943,19.0307691 0.407772943,19.2227691 0.246303943,19.4687691 C0.0848349425,19.7148691 -0.000881957481,20.0037691 1.11022302e-15,20.2991691 C0.00119544252,20.6941691 0.157058943,21.0725691 0.433435943,21.3514691 C0.709812943,21.6303691 1.08415894,21.7869691 1.47441894,21.7869691 Z" id="Path" fill="#00CCF5"></path>
                    <path d="M26.3748589,12.9964691 C27.9675589,12.1055691 29.5182589,11.2601691 31.0151589,10.4798691 C31.0705589,10.5707691 31.1303589,10.6783691 31.1932589,10.7995691 C29.7098589,11.5843691 28.1591589,12.4328691 26.5664589,13.3252691 L26.3748589,12.9964691 Z M47.0615589,5.04670914 C46.3505589,3.79977914 42.0395589,5.12397914 35.9383589,8.01023914 C35.9952589,8.10569914 36.0520589,8.20417914 36.1059589,8.30416914 C41.9512589,5.48759914 46.0301589,4.13158914 46.5480589,5.22245914 C47.3623589,6.64967914 38.0159589,13.6524691 25.6818589,20.8628691 C13.3476589,28.0731691 2.68100894,32.7609691 1.86670894,31.3336691 C1.40268894,30.4852691 3.69737894,28.1731691 5.75855894,26.3338691 C2.79027894,28.7580691 1.23353894,30.6261691 1.74546894,31.5230691 C2.90702894,33.5608691 14.1499589,29.5534691 26.6652589,22.2446691 C39.1805589,14.9357691 48.2290589,7.08451914 47.0615589,5.04670914 Z" id="Shape" fill="#00CCF5"></path>
                    <path d="M24.9093589,14.1810691 C24.6456589,13.7229691 24.5470589,13.1864691 24.6304589,12.6630691 C24.7137589,12.1395691 24.9739589,11.6616691 25.3665589,11.3106691 C25.7591589,10.9596691 26.2598589,10.7573691 26.7833589,10.7382691 C27.3068589,10.7191691 27.8206589,10.8844691 28.2371589,11.2059691 C28.6536589,11.5274691 28.9471589,11.9852691 29.0675589,12.5012691 C29.1878589,13.0172691 29.1276589,13.5595691 28.8971589,14.0356691 C28.6667589,14.5117691 28.2802589,14.8921691 27.8035589,15.1121691 C27.3269589,15.3320691 26.7897589,15.3777691 26.2834589,15.2416691 C25.9951589,15.1687691 25.7246589,15.0370691 25.4883589,14.8547691 C25.2520589,14.6723691 25.0550589,14.4431691 24.9093589,14.1810691 Z" id="Path" fill="#FA00E9" fill-rule="nonzero"></path>
                </g>
            </g>
        </g>
    </g>
</svg>