<?xml version="1.0" encoding="UTF-8"?>
<svg width="48px" height="48px" viewBox="0 0 48 48" version="1.1" xmlns="http://www.w3.org/2000/svg" xmlns:xlink="http://www.w3.org/1999/xlink">
    <title>C5CAD522-74B2-4B4D-AE52-6A9E77A6082C</title>
    <g id="UI-kit" stroke="none" stroke-width="1" fill="none" fill-rule="evenodd">
        <g id="Connectors" transform="translate(-120.000000, -2168.000000)">
            <g id="Connector/Ably-Copy-130" transform="translate(120.000000, 2168.000000)">
                <circle id="Oval" fill="#2E3336" cx="24" cy="24" r="24"></circle>
                <path d="M24.8922862,21.3026412 C23.9164665,21.1170594 22.9871145,20.8850823 22.10423,20.6067097 C19.9202527,19.9107782 18.2938866,18.379729 18.1544838,16.8486798 C18.1544838,16.7094935 18.1544838,16.5239117 18.1544838,16.3847254 C18.247419,15.3176305 18.944433,14.296931 20.1061231,13.6009996 C21.3142808,12.8586727 22.8477117,12.5339046 24.3811426,12.6730909 C26.4721847,12.8122772 28.3308888,13.7401859 29.3531761,15.0856534 C30.0966577,16.1063529 31.583621,16.33833 32.6059083,15.5496077 C33.6281955,14.8072808 33.8605336,13.322627 33.0705843,12.3019275 C31.2583478,9.88936505 28.1450184,8.26552495 24.7528834,8.0335478 C18.8514978,7.61598891 13.9259319,11.1420417 13.5541911,16.0599574 C13.5077235,16.4775163 13.5077235,16.8950752 13.5541911,17.3126341 C13.9259319,20.6995006 16.7139881,23.7152036 20.7102019,25.0142757 C21.8254244,25.3854391 22.8941793,25.5710208 23.9164665,25.802998 C26.0075087,26.2669523 27.8197452,26.6381158 29.0279029,27.844397 C29.9572549,28.7723056 30.4219309,29.9321914 30.3754633,30.9992863 C30.2825281,32.2055675 29.5390465,33.3654533 28.2379536,34.2005711 C26.8439255,35.0820843 25.0781566,35.4996432 23.2194525,35.3604569 C20.6637343,35.1748751 18.3868218,33.9685939 17.3180669,32.2055675 C16.9927937,31.6952178 16.4816501,31.3240543 15.8775712,31.1384726 C15.2734924,30.9992863 14.6694135,31.0920772 14.1118023,31.4168452 C13.0430474,32.0663812 12.6713066,33.5046396 13.3218531,34.5717345 C15.1340896,37.5874376 18.8050302,39.6288365 22.8477117,39.9536046 C23.1729849,40 23.4982581,40 23.8699989,40 C26.3792495,40 28.7955648,39.3040685 30.7472042,38.0513919 C33.3029223,36.4275518 34.743418,34.0613848 34.975756,31.3240543 C35.1616264,28.8650965 34.278742,26.5453249 32.3271027,24.5967168 C30.1431253,22.4161315 27.3550692,21.8129909 24.8922862,21.3026412 Z" id="Path" fill="#FFFFFF" fill-rule="nonzero"></path>
            </g>
        </g>
    </g>
</svg>