<?xml version="1.0" encoding="UTF-8"?>
<svg width="48px" height="48px" viewBox="0 0 48 48" version="1.1" xmlns="http://www.w3.org/2000/svg" xmlns:xlink="http://www.w3.org/1999/xlink">
    <title>4D6C3D57-27F0-4677-82C6-34EA601B115E</title>
    <g id="UI-kit" stroke="none" stroke-width="1" fill="none" fill-rule="evenodd">
        <g id="Connectors" transform="translate(-820.000000, -464.000000)" fill="#1BDBDB" fill-rule="nonzero">
            <g id="Connector/Ably-Copy-17" transform="translate(820.000000, 464.000000)">
                <path d="M41.404172,4.96518339 C36.4157527,1.82953153 29.8486166,2.57660264 23.9914962,6.27920983 C18.1526856,2.57660264 11.5814807,1.82953153 6.59916464,4.96518339 C-1.28221241,9.92041391 -2.24042836,22.6820258 4.46098,33.4705512 C9.40057306,41.4243 17.1252991,46.0847956 24.0016683,45.9988312 C30.8780376,46.0847956 38.6027636,41.4243 43.5423567,33.4705512 C50.2356273,22.6820258 49.2855491,9.92041391 41.404172,4.96518339 Z M4.99196591,24.0697359 C4.39851346,21.8843932 4.17161157,19.6147532 4.32060442,17.3542831 C4.61966545,13.3671748 6.23296746,10.2622245 8.86144943,8.61048102 C11.4899314,6.95873751 14.9647357,6.85844578 18.6653617,8.33621382 C19.2207607,8.55931177 19.7700565,8.8172048 20.3152834,9.10170585 C18.2588564,10.9881593 16.4707174,13.1507998 15.0013555,15.5285641 C10.9324979,22.0782286 9.69149637,29.366777 11.1115277,35.1775575 C9.97924077,33.9486905 8.96560656,32.6143371 8.08429764,31.192496 C6.70249093,28.9886637 5.65992445,26.5872554 4.99196591,24.0697359 Z M39.9210735,31.1904492 C39.0390122,32.6143116 38.0254484,33.9513135 36.8938435,35.1836978 C38.163327,29.9746678 37.3007292,23.5928385 34.1880532,17.6080826 C34.0875194,17.4087537 33.9077653,17.2615966 33.6933394,17.2030812 C33.4789135,17.1445658 33.249885,17.180169 33.0630141,17.301067 L23.3587889,23.4004421 C23.1800235,23.5126613 23.0529689,23.6918113 23.0056444,23.8983839 C22.95832,24.1049564 22.994613,24.3219838 23.1065197,24.5016044 L24.5306198,26.7919402 C24.6417768,26.9716524 24.8194867,27.0994378 25.0244826,27.1470611 C25.2294785,27.1946844 25.4448858,27.1582252 25.6231081,27.0457397 L31.9135618,23.0913798 C32.1170047,23.7054108 32.3204476,24.3194419 32.4730297,24.9334729 C33.066373,27.1160535 33.2939569,29.3828706 33.1464257,31.6407387 C32.8473646,35.6258001 31.2340626,38.7307504 28.6055806,40.3845407 C27.2498266,41.2184869 25.6963651,41.6708824 24.1074586,41.6944736 L23.9060502,41.6944736 C22.3170694,41.6713832 20.7634791,41.2189502 19.4079282,40.3845407 C16.7774118,38.7307504 15.1641098,35.6258001 14.8650487,31.6407387 C14.7169691,29.3802843 14.9438558,27.1107961 15.5364102,24.9252858 C16.8998476,19.8689939 19.7182607,15.3308957 23.6375056,11.8812197 C25.3276374,10.3886962 27.2526911,9.18930597 29.3339061,8.33212028 C33.0243599,6.85435224 36.5052676,6.9525972 39.135784,8.60638748 C41.7663004,10.2601778 43.3775679,13.3630813 43.676629,17.3501895 C43.8275459,19.6108678 43.6034088,21.8810527 43.0134052,24.0676891 C42.3445656,26.5848987 41.3020554,28.9861773 39.9210735,31.1904492 Z" id="Path_27"></path>
            </g>
        </g>
    </g>
</svg>