<?xml version="1.0" encoding="UTF-8"?>
<svg width="48px" height="48px" viewBox="0 0 48 48" version="1.1" xmlns="http://www.w3.org/2000/svg" xmlns:xlink="http://www.w3.org/1999/xlink">
    <title>2A3289E2-D29A-4F86-A201-CB516D9ECB19</title>
    <g id="UI-kit" stroke="none" stroke-width="1" fill="none" fill-rule="evenodd">
        <g id="Connectors" transform="translate(-620.000000, -888.000000)" fill="#000000" fill-rule="nonzero">
            <g id="Connector/Ably-Copy-45" transform="translate(620.000000, 888.000000)">
                <path d="M38.3364238,3 L38.3364238,3.03191489 L48,3.03191489 C48,3.03191489 44.140622,11.9205957 40.1942575,20.8979908 L39.7387364,21.9337371 C36.2467391,29.8698 32.8002119,37.6104255 32.010596,39.0638298 C30.5165563,41.8404255 27.7827815,45 24.0317881,45 L24.0317881,45 L15.3536424,45 C15.3218543,45 15.2900662,44.9680851 15.2900662,44.9361702 C15.2900662,44.9042553 15.2900662,44.8723404 15.3218543,44.8723404 C18.1192053,44.4255319 19.613245,43.0531915 21.8701987,39.4787234 C22.7233907,38.1165957 26.013635,30.8908596 29.4311475,23.2251983 L29.8977439,22.1776634 C29.9755691,22.0027896 30.0534058,21.8278159 30.1312269,21.6528059 L30.5977495,20.6028209 C34.5579115,11.6829128 38.3364238,3 38.3364238,3 L38.3364238,3 Z M9.47284768,3 L18.5324503,23.2021277 L14.0503311,33.8297872 C13.9549669,34.0531915 13.605298,34.0531915 13.5099338,33.8297872 L13.5099338,33.8297872 L0,3 L9.47284768,3 Z" id="Combined-Shape"></path>
            </g>
        </g>
    </g>
</svg>