<?xml version="1.0" encoding="UTF-8"?>
<svg width="48px" height="48px" viewBox="0 0 48 48" version="1.1" xmlns="http://www.w3.org/2000/svg" xmlns:xlink="http://www.w3.org/1999/xlink">
    <title>416BD83C-46BF-443E-88E6-EAF9CCDF1956</title>
    <g id="UI-kit" stroke="none" stroke-width="1" fill="none" fill-rule="evenodd">
        <g id="Connectors" transform="translate(-220.000000, -888.000000)" fill="#1E96D3">
            <g id="Connector/Ably-Copy-41" transform="translate(220.000000, 888.000000)">
                <circle id="Oval" cx="24" cy="24" r="5"></circle>
                <path d="M40.3983026,38.7143958 C40.984089,39.3001822 40.984089,40.2499297 40.3983026,40.8357161 C31.3417701,49.8922486 16.6582299,49.8922486 7.6016974,40.8357161 C7.01591097,40.2499297 7.01591097,39.3001822 7.6016974,38.7143958 C8.18748384,38.1286093 9.13723131,38.1286093 9.72301775,38.7143958 C17.6079773,46.5993553 30.3920227,46.5993553 38.2769823,38.7143958 C38.8627687,38.1286093 39.8125162,38.1286093 40.3983026,38.7143958 Z M36.1532767,34.4741403 C36.7390631,35.0599268 36.7390631,36.0096742 36.1532767,36.5954607 C29.4412073,43.30753 18.5587927,43.30753 11.8467233,36.5954607 C11.2609369,36.0096742 11.2609369,35.0599268 11.8467233,34.4741403 C12.4325098,33.8883539 13.3822572,33.8883539 13.9680437,34.4741403 C19.5085402,40.0146368 28.4914598,40.0146368 34.0319563,34.4741403 C34.6177428,33.8883539 35.5674902,33.8883539 36.1532767,34.4741403 Z M32.3398808,29.8022548 C32.9256672,30.3880413 32.9256672,31.3377887 32.3398808,31.9235752 C27.7338918,36.5295642 20.2661082,36.5295642 15.6601192,31.9235752 C15.0743328,31.3377887 15.0743328,30.3880413 15.6601192,29.8022548 C16.2459057,29.2164684 17.1956531,29.2164684 17.7814396,29.8022548 C21.2158557,33.2366709 26.7841443,33.2366709 30.2185604,29.8022548 C30.8043469,29.2164684 31.7540943,29.2164684 32.3398808,29.8022548 Z M32.3398808,16.0764248 C32.9256672,16.6622113 32.9256672,17.6119587 32.3398808,18.1977452 C31.7540943,18.7835316 30.8043469,18.7835316 30.2185604,18.1977452 C26.7841443,14.7633291 21.2158557,14.7633291 17.7814396,18.1977452 C17.1956531,18.7835316 16.2459057,18.7835316 15.6601192,18.1977452 C15.0743328,17.6119587 15.0743328,16.6622113 15.6601192,16.0764248 C20.2661082,11.4704358 27.7338918,11.4704358 32.3398808,16.0764248 Z M36.1532767,11.4045393 C36.7390631,11.9903258 36.7390631,12.9400732 36.1532767,13.5258597 C35.5674902,14.1116461 34.6177428,14.1116461 34.0319563,13.5258597 C28.4914598,7.98536318 19.5085402,7.98536318 13.9680437,13.5258597 C13.3822572,14.1116461 12.4325098,14.1116461 11.8467233,13.5258597 C11.2609369,12.9400732 11.2609369,11.9903258 11.8467233,11.4045393 C18.5587927,4.69246996 29.4412073,4.69246996 36.1532767,11.4045393 Z M40.3983026,7.16428388 C40.984089,7.75007032 40.984089,8.69981779 40.3983026,9.28560422 C39.8125162,9.87139066 38.8627687,9.87139066 38.2769823,9.28560422 C30.3920227,1.40064465 17.6079773,1.40064465 9.72301775,9.28560422 C9.13723131,9.87139066 8.18748384,9.87139066 7.6016974,9.28560422 C7.01591097,8.69981779 7.01591097,7.75007032 7.6016974,7.16428388 C16.6582299,-1.89224857 31.3417701,-1.89224857 40.3983026,7.16428388 Z" id="Combined-Shape" fill-rule="nonzero"></path>
            </g>
        </g>
    </g>
</svg>