<?xml version="1.0" encoding="UTF-8"?>
<svg width="48px" height="48px" viewBox="0 0 48 48" version="1.1" xmlns="http://www.w3.org/2000/svg" xmlns:xlink="http://www.w3.org/1999/xlink">
    <title>5A08A306-9D27-4279-A632-E3D7C927DDC3</title>
    <g id="UI-kit" stroke="none" stroke-width="1" fill="none" fill-rule="evenodd">
        <g id="Connectors" transform="translate(-220.000000, -2616.000000)" fill-rule="nonzero">
            <g id="Connector/goto" transform="translate(220.000000, 2616.000000)">
                <g id="Group" transform="translate(2.000000, 0.000000)">
                    <path d="M23.9159697,13.2013025 C23.9179108,12.7059582 24.2120154,12.2586124 24.668217,12.0550989 C27.8723057,10.5978651 29.2748831,6.8472641 27.8014489,3.67840462 C26.3280145,0.509545138 22.5366876,-0.878570829 19.3316282,0.579622915 C16.1285102,2.03685669 14.7249621,5.78649775 16.1983964,8.9563172 C16.8351374,10.3252338 17.9465223,11.4243989 19.3306576,12.0541389 C19.7868592,12.2576525 20.0819344,12.7059582 20.0848463,13.2013025 L20.0848463,34.7986975 C20.0819344,35.2940417 19.7888005,35.7413875 19.3325989,35.9449011 C16.1285102,37.4021349 14.7249621,41.1527359 16.1983964,44.3215954 C17.6718307,47.4904548 21.4641283,48.8785709 24.668217,47.420377 C27.8723057,45.9641033 29.2748831,42.2135023 27.8014489,39.0446427 C27.1656785,37.6747663 26.0542935,36.5765611 24.6701583,35.9458611 C24.2139567,35.7423475 23.9188815,35.2940417 23.9159697,34.7986975 L23.9159697,13.2013025 Z" id="Fill-4" fill="#F68D2E"></path>
                    <path d="M13.4514638,16.7868607 C13.0169619,16.5311456 12.7699305,16.0443032 12.8207038,15.5397575 C13.1478007,11.9813827 10.5505538,8.8292015 7.01790749,8.49873881 C3.48526118,8.16827614 0.355871625,10.7854225 0.0277983358,14.3437974 C-0.299298545,17.9021722 2.29794833,21.0543535 5.83059463,21.3848162 C7.35672128,21.5274266 8.88382432,21.1153317 10.1355801,20.2232791 C10.5437189,19.9272396 11.0866021,19.897734 11.5240332,20.1495151 L30.5493547,31.2131302 C30.9838565,31.4688453 31.2299116,31.9556877 31.1801147,32.4602333 C30.8520413,36.0186082 33.4492882,39.1707895 36.9829109,39.5012522 C40.5145809,39.8317147 43.6439704,37.215552 43.9720436,33.6561936 C44.3001171,30.0978187 41.7028702,26.9456374 38.1702239,26.6151747 C36.6431207,26.473548 35.1169942,26.8846593 33.8652384,27.7767118 C33.4561231,28.0737348 32.91324,28.1022567 32.4758088,27.8504757 L13.4514638,16.7868607 Z" id="Fill-6" fill="#00C0F3"></path>
                    <path d="M11.5241823,27.8504621 C11.0867542,28.102242 10.544851,28.0737201 10.136715,27.7776819 C7.24070645,25.7123001 3.23159961,26.4027276 1.18213168,29.3188502 C-0.868312644,32.2349727 -0.1838548,36.2732863 2.7121537,38.3386682 C5.60718581,40.4040501 9.61629267,39.714606 11.666737,36.7974999 C12.5523337,35.5366334 12.9614461,33.9993991 12.8208442,32.4621648 C12.7700713,31.9576215 13.0161246,31.4688144 13.4516,31.2131006 L32.4758177,20.1485544 C32.9122693,19.897758 33.455149,19.9262799 33.863285,20.2223181 C36.7583171,22.2876999 40.7684004,21.5972724 42.8178683,18.6811498 C44.8683127,15.7650272 44.1838548,11.7257302 41.2878462,9.66133181 C38.3928142,7.59594987 34.3837074,8.28539403 32.333263,11.2025001 C31.4476663,12.4623831 31.0385539,13.9996174 31.1791557,15.5378352 C31.2299286,16.043362 30.9838753,16.5311855 30.5484001,16.7868995 L11.5241823,27.8504621 Z" id="Fill-8" fill="#C4D600"></path>
                </g>
            </g>
        </g>
    </g>
</svg>