<?xml version="1.0" encoding="UTF-8"?>
<svg width="48px" height="48px" viewBox="0 0 48 48" version="1.1" xmlns="http://www.w3.org/2000/svg" xmlns:xlink="http://www.w3.org/1999/xlink">
    <title>1D249F82-7A48-4B66-A857-D71F22A7B470</title>
    <g id="UI-kit" stroke="none" stroke-width="1" fill="none" fill-rule="evenodd">
        <g id="Connectors" transform="translate(-920.000000, -328.000000)" fill="#0071F7" fill-rule="nonzero">
            <g id="Connector/Ably-Copy-8" transform="translate(920.000000, 328.000000)">
                <g id="Box,_Inc._logo" transform="translate(0.000000, 11.000000)">
                    <path d="M47.5767947,23.0895832 C48.1759986,23.931391 48.0561579,25.0137152 47.3371131,25.6150064 C46.4982275,26.2162976 45.2998196,26.0960394 44.7006157,25.3744899 L40.5061879,19.9628688 L36.431601,25.2542317 C35.832397,26.0960394 34.6339891,26.0960394 33.7951035,25.4947481 C32.956218,24.8934569 32.8363772,23.8111327 33.4355811,22.969325 L38.2292129,16.7158962 L33.4355811,10.4624674 C32.8363772,9.62065968 33.0760588,8.41807722 33.7951035,7.81678599 C34.6339891,7.21549476 35.832397,7.45601125 36.431601,8.17756073 L40.5061879,13.5891818 L44.7006157,8.41807722 C45.2998196,7.5762695 46.3783868,7.45601125 47.3371131,8.05730248 C48.1759986,8.65859371 48.1759986,9.86117617 47.5767947,10.7029839 L42.9030038,16.8361544 L47.5767947,23.0895832 L47.5767947,23.0895832 Z M25.7657704,22.3680338 C22.6499098,22.3680338 20.1332532,19.9628688 20.1332532,16.8361544 C20.1332532,13.8296983 22.6499098,11.3042751 25.7657704,11.3042751 C28.881631,11.3042751 31.3982877,13.8296983 31.3982877,16.8361544 C31.2784469,19.9628688 28.7617902,22.3680338 25.7657704,22.3680338 Z M9.22774103,22.3680338 C6.11188042,22.3680338 3.59522378,19.9628688 3.59522378,16.8361544 C3.59522378,13.8296983 6.11188042,11.3042751 9.22774103,11.3042751 C12.3436016,11.3042751 14.8602583,13.8296983 14.8602583,16.8361544 C14.8602583,19.9628688 12.3436016,22.3680338 9.22774103,22.3680338 Z M25.7657704,7.69652774 C22.2903874,7.69652774 19.1745268,9.62065968 17.6165965,12.5068576 C16.0586662,9.62065968 12.9428056,7.69652774 9.34758183,7.69652774 C7.19044756,7.69652774 5.27299488,8.41807722 3.71506457,9.50040143 L3.71506457,1.80387369 C3.71506457,0.841807722 2.87617902,0 1.91745268,0 C0.838885549,0 0,0.841807722 0,1.80387369 L0,16.9564127 C0.119840793,22.007259 4.19442774,25.9757811 9.22774103,25.9757811 C12.8229648,25.9757811 15.9388254,23.931391 17.4967557,21.045193 C19.054686,23.931391 22.1705466,25.9757811 25.6459296,25.9757811 C30.7990837,25.9757811 34.9935115,21.8870008 34.9935115,16.7158962 C35.1133522,11.7853081 30.9189245,7.69652774 25.7657704,7.69652774 Z" id="Shape"></path>
                </g>
            </g>
        </g>
    </g>
</svg>