<?xml version="1.0" encoding="UTF-8"?>
<svg width="48px" height="48px" viewBox="0 0 48 48" version="1.1" xmlns="http://www.w3.org/2000/svg" xmlns:xlink="http://www.w3.org/1999/xlink">
    <title>32B2A6F8-1854-4EC8-A4AE-352EC82732E1</title>
    <g id="UI-kit" stroke="none" stroke-width="1" fill="none" fill-rule="evenodd">
        <g id="Connectors" transform="translate(-820.000000, -1876.000000)" fill-rule="nonzero">
            <g id="Group" transform="translate(820.000000, 1876.000000)">
                <path d="M29.1240385,29.3791433 L38.1033279,38.4281075 C38.1855412,38.5108048 38.2903709,38.5671683 38.4043694,38.5901141 C38.5183678,38.6129059 38.6366451,38.601048 38.7440726,38.5562344 C38.8515001,38.5114208 38.9433407,38.4356534 39.0079806,38.3381722 C39.0726204,38.240845 39.1071562,38.126424 39.107309,38.009231 L39.107309,28.9664267 C39.107309,28.8885034 39.0920277,28.811504 39.0625348,28.7395866 C39.0328891,28.6676692 38.989643,28.6022198 38.934936,28.5472422 C38.8803817,28.4921107 38.8154362,28.4485291 38.7440726,28.4186533 C38.6727089,28.3889316 38.5963025,28.3735317 38.5189791,28.3735317 L29.5412179,28.3735317 C29.4259969,28.3746097 29.3138322,28.4095674 29.2181713,28.4744009 C29.1226632,28.5390803 29.0479376,28.6307095 29.0036219,28.7377387 C28.9591533,28.8447678 28.9469283,28.9625768 28.9683221,29.0766898 C28.9897159,29.1906489 29.0438117,29.29583 29.1240385,29.3791433 Z" id="Path" fill="#F42534"></path>
                <path d="M21.015783,28.3735317 L0.581634297,28.3735317 C0.466627266,28.3749177 0.354508399,28.4101834 0.259183676,28.4750169 C0.163843672,28.5398503 0.0894543243,28.6313255 0.0452302544,28.7383546 C0.00100618451,28.8453838 -0.0111271643,28.9631928 0.0103277749,29.0769978 C0.0317979954,29.1909569 0.0859090636,29.295984 0.165983053,29.3791433 L10.3830574,39.675497 C10.4377644,39.7306286 10.5025571,39.7745182 10.5740736,39.8042399 C10.64559,39.8341157 10.7221493,39.8495156 10.7994727,39.8495156 C10.8767961,39.8495156 10.9533553,39.8341157 11.0248718,39.8042399 C11.0963883,39.7745182 11.161181,39.7306286 11.215888,39.675497 L21.4314342,29.3791433 C21.5115082,29.295984 21.565604,29.1909569 21.5871506,29.0769978 C21.6085444,28.9631928 21.5964722,28.8453838 21.5521564,28.7383546 C21.5079935,28.6313255 21.4335736,28.5398503 21.3382183,28.4750169 C21.242863,28.4101834 21.1308511,28.3749177 21.015783,28.3735317 Z" id="Path" fill="#D82237"></path>
                <path d="M23.882554,43.8688819 L23.882554,31.7029838 C23.8824012,31.5857908 23.8478655,31.4713698 23.7832256,31.3740426 C23.7185857,31.2765614 23.6267452,31.200794 23.5193176,31.1559804 C23.4118901,31.1111668 23.2936129,31.0993089 23.1796144,31.1221007 C23.065616,31.1450465 22.9607863,31.20141 22.8785729,31.2841073 L10.8063493,43.4500054 C10.7242887,43.5328567 10.6683592,43.6384998 10.64559,43.7533829 C10.6229737,43.8682659 10.6347403,43.9874609 10.6792089,44.095722 C10.7236775,44.2039831 10.7988614,44.2965363 10.895592,44.3616778 C10.9921698,44.4268192 11.1057099,44.4616229 11.2220005,44.4617769 L23.2942242,44.4617769 C23.4502462,44.4617769 23.5998501,44.3992534 23.710181,44.2880664 C23.820512,44.1768793 23.882554,44.0261146 23.882554,43.8688819 L23.882554,43.8688819 Z" id="Path" fill="#C3002F"></path>
                <path d="M35.4688325,39.1349615 L27.6753716,31.2810273 C27.5931583,31.19833 27.4883286,31.1419665 27.3743301,31.1190207 C27.2603317,31.0962289 27.1420544,31.1080868 27.0346269,31.1529004 C26.9271994,31.197714 26.8353588,31.2734814 26.7707189,31.3709626 C26.7060791,31.4682898 26.6715433,31.5827108 26.6713905,31.6999038 L26.6713905,47.4077722 C26.6715433,47.5249653 26.7060791,47.6393863 26.7707189,47.7368675 C26.8353588,47.8341947 26.9271994,47.910116 27.0346269,47.9549297 C27.1420544,47.9997433 27.2603317,48.0114472 27.3743301,47.9886554 C27.4883286,47.9657096 27.5931583,47.9095 27.6753716,47.8266487 L35.4688325,39.9727145 C35.5790106,39.8615275 35.640747,39.7109167 35.640747,39.553838 C35.640747,39.3967594 35.5790106,39.2461486 35.4688325,39.1349615 Z" id="Path" fill="#911A1D"></path>
                <path d="M29.5412179,26.0004121 L45.4123716,26.0004121 C45.5286623,26.0002576 45.6422023,25.9654539 45.7387801,25.9003124 C45.8355107,25.835171 45.9106947,25.7426177 45.9551632,25.6343567 C45.9996318,25.5260956 46.0113984,25.4069006 45.9887821,25.2920175 C45.966013,25.1771345 45.9100834,25.0714914 45.8280229,24.9886401 L37.892446,16.9914871 C37.8377389,16.9363555 37.7729462,16.8924659 37.7014298,16.8625901 C37.6299133,16.8328684 37.553354,16.8174685 37.4760307,16.8174685 C37.3987073,16.8174685 37.322148,16.8328684 37.2506316,16.8625901 C37.1791151,16.8924659 37.1143224,16.9363555 37.0596154,16.9914871 L29.1240385,24.9886401 C29.0418251,25.0716454 28.9858956,25.1774425 28.9632792,25.2924795 C28.9406629,25.4075166 28.9524295,25.5267116 28.9970509,25.6349726 C29.0418251,25.7433877 29.1173147,25.835787 29.2141981,25.9009284 C29.3110815,25.9659159 29.4247744,26.0005656 29.5412179,26.0004121 L29.5412179,26.0004121 Z" id="Path" fill="#A41F35"></path>
                <path d="M26.6744468,9.91216637 L26.6744468,22.6694195 C26.6745996,22.7866125 26.7091353,22.9010336 26.7737752,22.9983607 C26.8384151,23.0958419 26.9302557,23.1716093 27.0376832,23.2164229 C27.1451107,23.2612365 27.2633879,23.2730944 27.3773864,23.2503026 C27.4913848,23.2273568 27.5962145,23.1709933 27.6784279,23.088296 L40.3374533,10.3310429 C40.4195139,10.2481916 40.4754434,10.1425484 40.4982125,10.0276654 C40.5208288,9.91278237 40.5090622,9.79358736 40.4645937,9.68532627 C40.4201251,9.57706518 40.3449411,9.48451195 40.2482105,9.4193705 C40.1516327,9.35422904 40.0380927,9.31942534 39.921802,9.31927134 L27.2627767,9.31927134 C27.1067546,9.31927134 26.9571507,9.38179481 26.8468198,9.49298188 C26.7364888,9.60416895 26.6744468,9.75493369 26.6744468,9.91216637 L26.6744468,9.91216637 Z" id="Path" fill="#D6202A"></path>
                <path d="M6.44506747,11.3166346 L6.44506747,25.4075166 C6.44506747,25.5647492 6.50710953,25.715514 6.61744049,25.826701 C6.72777144,25.9378881 6.87737533,26.0004116 7.03339736,26.0004116 L21.015783,26.0004116 C21.1320736,26.0002576 21.2456136,25.9654539 21.3421914,25.9003124 C21.438922,25.835171 21.514106,25.7426177 21.5585746,25.6343567 C21.6030432,25.5260956 21.6148098,25.4069006 21.5921934,25.2920175 C21.5694243,25.1771345 21.5134948,25.0714914 21.4314342,24.9886401 L7.44752047,10.8992981 C7.3653071,10.8172168 7.26078304,10.7613153 7.1470902,10.7386774 C7.03355017,10.7161936 6.91573138,10.7278975 6.80876231,10.7724032 C6.70164043,10.8170628 6.61010547,10.8923682 6.54546559,10.9892333 C6.48067289,11.0860985 6.44583154,11.1999036 6.44506747,11.3166346 L6.44506747,11.3166346 Z" id="Path" fill="#AC162C"></path>
                <path d="M11.923412,12.0512084 L22.8816292,23.089836 C22.9638425,23.1726873 23.0686722,23.2288968 23.1826707,23.2518426 C23.2966692,23.2746344 23.4149464,23.2629305 23.5223739,23.2179629 C23.6298014,23.1731493 23.721642,23.0973819 23.7862819,22.9999007 C23.8509218,22.9025735 23.8854575,22.7881525 23.8856103,22.6709595 L23.8856103,0.592164452 C23.8854575,0.475002234 23.8509218,0.360519593 23.7862819,0.263146209 C23.721642,0.165788225 23.6298014,0.0898976604 23.5223739,0.0450840359 C23.4149464,0.000270411306 23.2966692,-0.0114642904 23.1826707,0.0113583184 C23.0686722,0.0341655273 22.9638425,0.0905136553 22.8816292,0.173287962 L11.923412,11.2072955 C11.8679409,11.2624271 11.8239308,11.3281845 11.7938266,11.4005639 C11.7638753,11.4729433 11.7484412,11.5507126 11.7484412,11.629252 C11.7484412,11.7077913 11.7638753,11.7855607 11.7938266,11.8579401 C11.8239308,11.9303195 11.8679409,11.9960769 11.923412,12.0512084 Z" id="Path" fill="#EB0029"></path>
            </g>
        </g>
    </g>
</svg>