<?xml version="1.0" encoding="UTF-8"?>
<svg width="48px" height="48px" viewBox="0 0 48 48" version="1.1" xmlns="http://www.w3.org/2000/svg" xmlns:xlink="http://www.w3.org/1999/xlink">
    <title>26887BF8-8FFF-40C1-97D0-A4DD12580E5D</title>
    <g id="UI-kit" stroke="none" stroke-width="1" fill="none" fill-rule="evenodd">
        <g id="Connectors" transform="translate(-320.000000, -2616.000000)" fill="#068BC0">
            <g id="Connector/iris" transform="translate(320.000000, 2616.000000)">
                <g id="iris-crm-logo" transform="translate(0.000000, 8.000000)">
                    <rect id="Rectangle" fill-rule="nonzero" x="2.6904161" y="0" width="3.97977476" height="12.2040354"></rect>
                    <path d="M8.61870845,12.2040354 L8.61870845,0 L17.7917721,0 C19.9430017,0.00622700252 21.2300622,0.0284662972 21.6529534,0.0667178841 C22.0907699,0.110500495 22.5119727,0.252601414 22.8830155,0.481703123 C23.3405558,0.742680076 23.6864094,1.15354836 23.8579638,1.63992559 C24.0353943,2.13363793 24.1236498,2.90801017 24.1227376,3.96304232 C24.1227376,4.85039017 24.0661918,5.5055598 23.9544933,5.92321375 C23.8594279,6.31335253 23.6381668,6.66395183 23.3229144,6.92398201 C22.9901173,7.19085355 22.4877041,7.37588448 21.8156747,7.47907481 C22.6099748,7.54045526 23.1822571,7.76329299 23.5283844,8.14625365 C23.7330332,8.38891382 23.8655575,8.68090147 23.9117445,8.99090206 C23.9650656,9.32004362 23.9921858,10.0121305 23.9931051,11.0671626 L23.9931051,12.1986979 L20.2629282,12.1986979 L20.2629282,11.5502001 C20.2756238,11.0659612 20.2498064,10.5814947 20.1857045,10.1010877 C20.154641,9.85757628 20.0554657,9.62689071 19.8988739,9.43390881 C19.740986,9.28477562 19.5362009,9.19086255 19.3169387,9.16703727 C18.8029926,9.11593337 18.286189,9.09676827 17.7697082,9.10965989 L12.4164561,9.10965989 L12.4164561,12.2040354 L8.61870845,12.2040354 Z M12.4109401,6.05664952 L17.7531603,6.05664952 C18.6784648,6.03796851 19.2314412,6.02329058 19.4079523,6.00727828 C19.5700884,5.99741756 19.7272679,5.94931621 19.8657781,5.86717073 C20.0331343,5.76287757 20.156023,5.60369787 20.2119054,5.41882655 C20.2893845,5.12201894 20.3228156,4.8160521 20.3111929,4.51012896 C20.3245788,4.20822289 20.286848,3.90623066 20.1994945,3.61610932 C20.1303425,3.42918039 19.9882699,3.27589927 19.8037234,3.18911486 C19.6533329,3.1253492 19.4920156,3.08915308 19.3279707,3.08236625 C19.1445646,3.07035703 18.6150311,3.06101652 17.7435073,3.05434473 L12.4164561,3.05434473 L12.4109401,6.05664952 Z" id="Shape"></path>
                    <path d="M12.0634337,25.4208484 L14.7497127,25.4208484 C14.7690186,25.9772755 14.7786716,26.3362177 14.7786716,26.4950063 C14.7786716,27.3730137 14.6770857,28.0588735 14.473914,28.5525858 C14.2518961,29.109013 13.8133762,29.4866362 13.1624914,29.6867899 C12.5116065,29.8869435 11.389106,29.985686 9.79085268,29.985686 C8.1112388,29.985686 6.91611124,29.9438761 6.20547001,29.8602564 C5.49115146,29.7775262 4.95610205,29.6147346 4.59204781,29.3758845 C4.26907286,29.1575489 4.01815138,28.8535861 3.8694553,28.5005459 C3.68553846,28.0147864 3.58086161,27.5042917 3.5591818,26.9873843 C3.52194898,26.4709879 3.50126408,25.5342688 3.50126408,24.1852332 C3.50126408,22.8651086 3.52056998,21.912822 3.5591818,21.3283734 C3.57724704,20.8669601 3.65366081,20.4094259 3.7867157,19.9659942 C3.99616929,19.2775278 4.5618637,18.7448151 5.27878649,18.5609155 C6.02803953,18.3474183 7.54033556,18.2402249 9.81567456,18.2393353 C10.6443809,18.2257132 11.4731998,18.2591295 12.2978626,18.3394121 C12.7338861,18.3809923 13.1563734,18.5090868 13.5389566,18.715701 C13.9417903,18.9713308 14.2382712,19.3565215 14.3760055,19.8032025 C14.5387267,20.2853504 14.6200873,20.9943392 14.6200873,21.9301687 C14.6200873,21.9782055 14.6200873,22.1690187 14.6062974,22.4972707 L11.9227764,22.4972707 C11.9186086,22.2447381 11.9001947,21.992614 11.8676166,21.7420242 C11.8489214,21.6261263 11.7989782,21.5170462 11.7228223,21.4257815 C11.6193978,21.3123611 11.3573891,21.2256278 10.9409331,21.1749222 C10.3102233,21.1112005 9.67610669,21.0844645 9.0420593,21.0948608 C8.45915639,21.0819271 7.87599983,21.1055502 7.29625373,21.1655817 C6.97494829,21.2109499 6.7446564,21.2990175 6.60675707,21.4444625 C6.44541485,21.6099228 6.3309584,21.8914723 6.27441967,22.2851078 C6.19770908,22.9102603 6.1659159,23.5398097 6.17926913,24.1692209 C6.16634603,24.7783656 6.19444505,25.387678 6.26338773,25.9932878 C6.32130545,26.3468926 6.42610894,26.6004206 6.58745116,26.7538717 C6.78808676,26.9268238 7.0410014,27.0325764 7.30866467,27.0554365 C7.88877299,27.116926 8.47239663,27.1418865 9.05584923,27.1301606 C9.7428348,27.1428071 10.430036,27.1209833 11.1146863,27.064777 C11.4566766,27.0194089 11.6865088,26.9224455 11.8041829,26.7738871 C11.9710411,26.5804052 12.0551597,26.1307267 12.0634337,25.4208484 Z" id="Path"></path>
                    <path d="M16.0294185,29.8108851 L16.0294185,18.4087987 L23.2250057,18.4087987 C24.9128936,18.4141362 25.9241554,18.4350411 26.2587911,18.4715136 C26.6105001,18.5156396 26.9437002,18.6496721 27.2240864,18.8598116 C27.5958885,19.1253119 27.8637305,19.5048983 27.9839117,19.9366383 C28.1227304,20.3983261 28.1921397,21.1224375 28.1921397,22.1089726 C28.2077004,22.7229889 28.1615166,23.3370144 28.0542404,23.9423801 C27.9862122,24.2938388 27.8136827,24.6184541 27.5578028,24.8764304 C27.2971731,25.1272897 26.902781,25.3007562 26.3760055,25.3954956 C26.9993105,25.452873 27.4488623,25.6623671 27.719145,26.0226437 C27.8833254,26.258841 27.9864281,26.5297637 28.0197656,26.8125834 C28.0750515,27.4582801 28.0962237,28.1062875 28.0831993,28.7540739 L28.0831993,29.8108851 L25.1583544,29.8108851 L25.1583544,29.2037524 C25.1683155,28.7515012 25.1480479,28.2990999 25.0976787,27.8493793 C25.0751526,27.6277127 24.9980766,27.4144928 24.8729028,27.2275687 C24.758139,27.0916344 24.595642,27.0013774 24.416456,26.9740407 C24.0139781,26.9259644 23.6082958,26.9076751 23.2029419,26.919332 L19.0039071,26.919332 L19.0039071,29.8108851 L16.0294185,29.8108851 Z M19.0039071,24.0731471 L23.1946679,24.0731471 C23.9200184,24.0558005 24.3544013,24.0424569 24.4936796,24.0277789 C24.6237406,24.0166362 24.7479612,23.9704055 24.8522179,23.8943432 C24.9910922,23.7894223 25.0884671,23.6414922 25.1280165,23.4753549 C25.1892515,23.1960874 25.2156409,22.9107198 25.2066192,22.625369 C25.2170289,22.344331 25.1873306,22.0632466 25.1183636,21.7900611 C25.0711039,21.6233992 24.9602048,21.4803199 24.8080901,21.3897538 C24.6924446,21.3306894 24.5649561,21.2965487 24.4343829,21.289677 C24.2964836,21.2776678 23.8745116,21.2696616 23.1932889,21.2643242 L19.0039071,21.2643242 L19.0039071,24.0731471 Z" id="Shape"></path>
                    <polygon id="Path" points="29.4373707 18.4074644 34.2293726 18.4074644 36.8108481 25.8078121 39.3909446 18.4074644 44.1567456 18.4074644 44.1567456 29.8148882 41.5518272 29.8148882 41.6138819 21.2643242 41.182257 21.2643242 37.9099058 29.8148882 35.7173064 29.8148882 32.4435762 21.2643242 31.9802344 21.2643242 32.0422891 29.8148882 29.4373707 29.8148882"></polygon>
                    <path d="M0,15.0128584 L48,15.0128584 L48,33 L0,33 L0,15.0128584 Z M1.14732245,16.104363 L1.14732245,31.9071611 L46.8512986,31.9071611 L46.8512986,16.1056974 L1.14732245,16.104363 Z" id="Shape"></path>
                </g>
                <rect id="Rectangle" fill-rule="nonzero" x="25" y="8" width="4" height="12"></rect>
                <path d="M30.0040724,15.9651879 L33.6203557,15.9651879 C33.6203557,16.5446827 33.7370976,16.9203991 33.9882284,17.085969 C34.1990793,17.205081 34.4386618,17.2721218 34.6846073,17.2808321 C34.9696747,17.3012099 35.8646957,17.3169179 37.3696705,17.3279558 C38.9479483,17.3220123 39.8981729,17.3122479 40.2203443,17.2986627 C40.4734994,17.2937643 40.7238246,17.2476536 40.960162,17.1623859 C41.2316548,17.0541286 41.3674011,16.7611972 41.3674011,16.2835916 C41.3674011,15.9371683 41.2696637,15.7040968 41.0755464,15.5881978 C40.8814291,15.4722989 40.4836922,15.4073445 39.8864082,15.395882 C39.426228,15.395882 38.4488541,15.3614944 36.9597165,15.2939928 C35.4339272,15.223944 34.4402638,15.1857355 33.9800836,15.174273 C33.0823476,15.1454044 32.392756,15.063893 31.9113089,14.9297389 C31.4747944,14.8219082 31.0822043,14.5949645 30.7832566,14.2776481 C30.3230764,13.7682021 30.093665,12.9390788 30.093665,11.7660794 C30.093665,10.4508597 30.3574654,9.5223944 30.8850663,8.98068351 C31.2923055,8.56166419 31.9031641,8.29038421 32.7325745,8.17448525 C33.5619848,8.05858629 35.254742,8 37.8054163,8 C39.6072232,8 40.8741893,8.04839737 41.6063147,8.1451921 C42.7311997,8.29378051 43.5035965,8.59095733 43.9235053,9.03672256 C44.3434141,9.48248779 44.552916,10.2351942 44.552011,11.2948419 L44.552011,11.8424963 L40.9398001,11.8424963 C40.9427201,11.6178962 40.913964,11.3939203 40.8542798,11.1763957 C40.8067889,11.0525981 40.7132797,10.9490366 40.5909319,10.8847378 C40.4289412,10.7947357 40.1438738,10.736574 39.7357297,10.7102526 C39.3284906,10.6835067 38.4665012,10.6720442 37.1484039,10.6720442 C35.5642438,10.6720442 34.5950147,10.7191679 34.2488614,10.8121418 C33.9027082,10.9051157 33.7275954,11.1674804 33.7275954,11.595415 C33.7275954,12.0029718 33.9027082,12.2526003 34.2488614,12.3468478 C34.5366437,12.4198684 35.855646,12.4907663 38.2058681,12.5595415 C40.1859552,12.6147315 41.5099348,12.6818085 42.177807,12.7607727 C42.8456791,12.8397368 43.3768999,12.9862025 43.7714694,13.2001698 C44.2062455,13.4401232 44.5412805,13.8114939 44.721694,14.2534494 C44.909024,14.6983655 45.001784,15.3398429 45,16.1778816 C45,17.2748886 44.8447707,18.0908512 44.534364,18.6257695 C44.3141938,19.0062454 43.9736623,19.3132831 43.559705,19.5045638 C43.1425112,19.6964551 42.5569918,19.8276374 41.803147,19.8981108 C40.9940986,19.9651879 39.4882189,19.9991509 37.2855077,20 C35.443882,20 34.0818934,19.9545744 33.199542,19.8637232 C32.3171906,19.772872 31.6552008,19.6106984 31.2135726,19.3772023 C30.7871704,19.1558662 30.4524909,18.8064216 30.263348,18.3850563 C30.0886876,17.9749522 30.000905,17.3508809 30,16.5128423 L30.0040724,15.9651879 Z" id="Path"></path>
            </g>
        </g>
    </g>
</svg>