<?xml version="1.0" encoding="UTF-8"?>
<svg width="48px" height="48px" viewBox="0 0 48 48" version="1.1" xmlns="http://www.w3.org/2000/svg" xmlns:xlink="http://www.w3.org/1999/xlink">
    <title>A1254FD3-E127-4F31-ABF9-3A4651471EFA</title>
    <g id="UI-kit" stroke="none" stroke-width="1" fill="none" fill-rule="evenodd">
        <g id="Connectors" transform="translate(-1020.000000, -736.000000)" fill="#1ED760" fill-rule="nonzero">
            <g id="Connector/Ably-Copy-39" transform="translate(1020.000000, 736.000000)">
                <path d="M0,24.0000478 C0,37.2557276 10.7453832,48.0004777 23.9998567,48.0004777 C37.2557631,48.0004777 48,37.2557276 48,24.0000478 C48,10.745801 37.2557631,0.000477660419 23.9995701,0.000477660419 C10.7453832,-0.000668751967 0,10.7449411 0,24.0000478 Z M32.7387491,35.7644707 C27.1463466,32.084327 20.1062109,31.2508557 11.8151655,33.2916348 C11.0162102,33.4877457 10.2198148,32.9484407 10.0377816,32.0873913 C9.85489504,31.2263418 10.3534955,30.3683567 11.1544417,30.1722458 C20.2276612,27.9390329 28.0104356,28.9005891 34.288876,33.0342392 C34.9885662,33.4969384 35.2104192,34.4805571 34.7809346,35.2343584 C34.3542941,35.9881597 33.4384394,36.2271698 32.7387491,35.7644707 Z M35.1672363,28.724191 C28.7561538,24.767338 18.9834541,23.6214064 11.4003769,25.9327164 C10.4169265,26.2309961 9.37822293,25.6744743 9.07974162,24.6886928 C8.78353879,23.7011955 9.33806467,22.6602194 10.3198062,22.3599379 C18.9817453,19.720892 29.7501422,20.9992335 37.1124914,25.5420644 C37.9868593,26.0825712 38.2631254,27.2322206 37.7248338,28.1090428 C37.1865421,28.9872948 36.0416042,29.2646978 35.1672363,28.724191 Z M9.88209212,18.8738407 C8.70209483,19.2377284 7.45422917,18.5604044 7.09663695,17.3605899 C6.73904474,16.1601954 7.40461111,14.8922426 8.58546388,14.527485 C17.020819,11.9237309 31.0436239,12.4267948 39.9047248,17.7755088 C40.9683763,18.4160091 41.316273,19.8098004 40.6860666,20.8875459 C40.0587119,21.9667411 38.6842346,22.3225101 37.6262864,21.6817199 C29.9286434,17.0335259 17.2304126,16.6061391 9.88209212,18.8738407 Z" id="Shape"></path>
            </g>
        </g>
    </g>
</svg>