<?xml version="1.0" encoding="UTF-8"?>
<svg width="48px" height="48px" viewBox="0 0 48 48" version="1.1" xmlns="http://www.w3.org/2000/svg" xmlns:xlink="http://www.w3.org/1999/xlink">
    <title>5EB56EBA-2C0C-4FB0-AA1E-C3EDB0A5EE54</title>
    <g id="UI-kit" stroke="none" stroke-width="1" fill="none" fill-rule="evenodd">
        <g id="Connectors" transform="translate(-1020.000000, -1472.000000)">
            <g id="ctct_nav_logo" transform="translate(1020.000000, 1472.000000)">
                <path d="M33.8586591,21.7416291 C32.6299174,21.7416291 31.4011758,20.9295145 30.9915952,19.7113427 C30.5820147,18.4931708 29.6263267,17.5457038 28.1245313,16.8689417 C26.622736,16.1921795 25.9401017,14.2972456 26.622736,12.6730164 C27.3053702,11.1841397 29.2167462,10.5073776 30.8550684,11.1841397 C33.8586591,12.537664 36.0430887,14.7033028 36.9987767,17.5457038 C37.5448841,19.169933 36.725723,20.9295145 35.0874008,21.4709242 C34.5412933,21.7416291 34.2682396,21.7416291 33.8586591,21.7416291" id="Fill-32" fill="#FF9E1A"></path>
                <path d="M44.917334,21.7416291 C43.4155387,21.7416291 42.0502702,20.6588097 41.7772165,19.169933 C40.5484748,12.4023116 35.770035,7.66497662 28.6706387,6.17609992 C26.8957897,5.77004263 25.8035749,4.28116593 26.2131554,2.52158438 C26.622736,0.762002819 28.1245313,-0.320816601 29.8993804,0.0852406817 C39.5927868,1.98017467 46.2826026,8.74779604 47.9209248,18.0871135 C48.3305053,19.8466951 47.1017637,21.3355718 45.3269146,21.6062766 C45.1903877,21.7416291 45.0538609,21.7416291 44.917334,21.7416291" id="Fill-34" fill="#FF9E1A"></path>
                <path d="M21.980823,37.4425107 C15.7005879,37.4425107 10.5125675,32.2991184 10.5125675,26.0729068 C10.5125675,19.8466951 15.7005879,14.7033028 21.980823,14.7033028 C23.7556721,14.7033028 25.1209406,16.0568271 25.1209406,17.8164087 C25.1209406,19.5759902 23.7556721,20.9295145 21.980823,20.9295145 C19.1137592,20.9295145 16.7928027,23.2305058 16.7928027,26.0729068 C16.7928027,28.9153077 19.1137592,31.216299 21.980823,31.216299 C24.8478869,31.216299 27.1688434,28.9153077 27.1688434,26.0729068 C27.1688434,24.3133252 28.5341119,22.9598009 30.308961,22.9598009 C32.08381,22.9598009 33.4490785,24.3133252 33.4490785,26.0729068 C33.3125517,32.4344708 28.2610582,37.4425107 21.980823,37.4425107" id="Fill-36" fill="#394857"></path>
                <path d="M21.980823,48 C9.82993329,48 0,38.1192728 0,26.2082592 C0,14.2972456 9.82993329,4.28116593 21.980823,4.28116593 C23.7556721,4.28116593 25.1209406,5.63469021 25.1209406,7.39427176 C25.1209406,9.15385332 23.7556721,10.5073776 21.980823,10.5073776 C13.2431046,10.5073776 6.28023515,17.5457038 6.28023515,26.2082592 C6.28023515,34.7354621 13.2431046,41.6384359 21.980823,41.6384359 C30.7185415,41.6384359 37.8179378,34.6001097 37.8179378,25.9375543 C37.8179378,24.1779728 39.1832063,22.8244485 40.9580554,22.8244485 C42.7329044,22.8244485 44.0981729,24.1779728 44.0981729,25.9375543 C43.9616461,38.1192728 34.1317128,48 21.980823,48" id="Fill-38" fill="#394857"></path>
            </g>
        </g>
    </g>
</svg>