<?xml version="1.0" encoding="UTF-8"?>
<svg width="48px" height="48px" viewBox="0 0 48 48" version="1.1" xmlns="http://www.w3.org/2000/svg" xmlns:xlink="http://www.w3.org/1999/xlink">
    <title>C1B42BF4-2189-4C73-8EF8-F4ED674FB6FE</title>
    <g id="UI-kit" stroke="none" stroke-width="1" fill="none" fill-rule="evenodd">
        <g id="Connectors" transform="translate(-220.000000, -2888.000000)" fill="#009999" fill-rule="nonzero">
            <g id="Connector/zendesk.support-Copy" transform="translate(220.000000, 2888.000000)">
                <path d="M41,1 C44.3137085,1 47,3.6862915 47,7 L47,41 C47,44.3137085 44.3137085,47 41,47 L7,47 C3.6862915,47 1,44.3137085 1,41 L1,7 C1,3.6862915 3.6862915,1 7,1 L41,1 Z M24.372,8 C20.638,8 17.6311,8.8216 15.3855,10.4606 C13.1271,12.1125 12,14.2849 12,16.9822 C12,18.9094 12.5334,20.5957 13.6261,22.0669 C14.7015,23.5252 16.3706,24.7555 18.6334,25.7707 L18.6334,25.7707 L24.7204,28.3647 C26.0712,28.9713 26.738,29.7456 26.738,30.7049 C26.738,32.6321 25.099,33.5871 21.8038,33.5871 C19.0593,33.5871 15.9921,33.0107 12.6109,31.8707 L12.6109,31.8707 L12.6109,37.9706 C14.4606,38.4266 16.0996,38.745 17.5407,38.8998 C18.9818,39.0633 20.6079,39.1407 22.4147,39.1407 C26.3422,39.1407 29.4696,38.2761 31.8227,36.5295 C34.1586,34.8002 35.3287,32.4643 35.3287,29.5348 C35.3287,26.0116 33.1261,23.2069 28.7125,21.0947 L28.7125,21.0947 L23.232,18.4276 C21.3349,17.6532 20.3799,16.7886 20.3799,15.8164 C20.3799,15.0851 20.8058,14.4656 21.6403,13.9623 C22.4749,13.4633 23.5804,13.2052 24.9785,13.2052 C27.3316,13.2052 30.0159,13.7816 33.0358,14.9216 L33.0358,14.9216 L33.0358,9.0927 C31.5947,8.7743 30.0934,8.5162 28.5447,8.3054 C26.9789,8.1075 25.598,8 24.372,8 Z" id="Combined-Shape"></path>
            </g>
        </g>
    </g>
</svg>