<?xml version="1.0" encoding="UTF-8"?>
<svg width="48px" height="48px" viewBox="0 0 48 48" version="1.1" xmlns="http://www.w3.org/2000/svg" xmlns:xlink="http://www.w3.org/1999/xlink">
    <title>D7376B4B-5A5E-4FF8-AE3B-76E1624A3B51</title>
    <g id="UI-kit" stroke="none" stroke-width="1" fill="none" fill-rule="evenodd">
        <g id="Connectors" transform="translate(-220.000000, -2168.000000)">
            <g id="Connector/Ably-Copy-131" transform="translate(220.000000, 2168.000000)">
                <rect id="Rectangle" fill="#063E80" x="1" y="1" width="46" height="46" rx="6"></rect>
                <path d="M14.885906,34.0402685 L14.9530201,34 C17.2214765,34 19.0738255,33.4228188 20.4966443,32.2684564 C21.9194631,31.114094 22.6308725,29.704698 22.6308725,28.0268456 C22.6308725,26.5771812 22.1879195,25.4630872 21.3020134,24.6845638 C20.4161074,23.9060403 19.1275168,23.261745 17.4496644,22.7516779 L12.6711409,21.2080537 C11.4496644,20.8456376 10.8322148,20.2416107 10.8322148,19.3959732 C10.8322148,18.8187919 11.114094,18.3221477 11.6912752,17.9194631 C12.2684564,17.5167785 13.0067114,17.3154362 13.9194631,17.3154362 C14.9798658,17.3154362 15.9328859,17.557047 16.7785235,18.0402685 C17.6241611,18.5234899 18.2550336,19.1543624 18.6577181,19.9463087 L22.1610738,18.9261745 C21.6107383,17.5167785 20.590604,16.3489933 19.1006711,15.409396 C17.6107383,14.4697987 15.8657718,14 13.8657718,14 C11.8926174,14 10.2416107,14.5369128 8.9261745,15.6107383 C7.61073826,16.6845638 6.95302013,17.9865772 6.96644295,19.5033557 C6.95302013,20.6979866 7.34228188,21.704698 8.13422819,22.5369128 C8.9261745,23.3691275 9.98657718,24 11.3288591,24.4161074 L16.2416107,25.9597315 C17.1677852,26.2416107 17.8255034,26.5771812 18.2147651,26.9530201 C18.6040268,27.3288591 18.7919463,27.7718121 18.7919463,28.2818792 C18.7919463,28.9395973 18.4563758,29.5033557 17.7718121,29.9865772 C17.0872483,30.4697987 16.2013423,30.7114094 15.114094,30.7114094 C13.7852349,30.7114094 12.6308725,30.3758389 11.6644295,29.704698 C10.6979866,29.033557 10.0134228,28.1744966 9.61073826,27.114094 L6,28.2013423 C6.59060403,29.8389262 7.66442953,31.2214765 9.22147651,32.3489933 C10.7785235,33.4765101 12.6711409,34.0402685 14.885906,34.0402685 Z M29.2080537,33.6241611 L29.2080537,26.885906 L33.3020134,26.885906 L37.6510067,33.6107383 L42,33.6107383 L37.2214765,26.4966443 C38.5369128,26.0268456 39.5704698,25.261745 40.3087248,24.1879195 C41.0469799,23.114094 41.4228188,21.9328859 41.4228188,20.6308725 C41.4228188,19.0067114 40.8187919,17.557047 39.6107383,16.2818792 C38.4026846,15.0067114 36.8053691,14.3758389 34.8322148,14.3758389 L25.4630872,14.3758389 L25.4630872,33.6241611 L29.2080537,33.6241611 Z M34.5771812,23.5838926 L29.1946309,23.5838926 L29.2080537,17.7583893 L34.7248322,17.7583893 C35.6107383,17.7583893 36.3355705,18.0402685 36.9127517,18.6040268 C37.4899329,19.1677852 37.7718121,19.852349 37.7718121,20.6442953 C37.7718121,21.4765101 37.4765101,22.1744966 36.885906,22.738255 C36.295302,23.3020134 35.5302013,23.5838926 34.5771812,23.5838926 Z" id="SR" fill="#FFFFFF" fill-rule="nonzero"></path>
            </g>
        </g>
    </g>
</svg>