<?xml version="1.0" encoding="UTF-8"?>
<svg width="48px" height="48px" viewBox="0 0 48 48" version="1.1" xmlns="http://www.w3.org/2000/svg" xmlns:xlink="http://www.w3.org/1999/xlink">
    <title>9060263D-6481-4580-9426-2D97DB8964D0</title>
    <defs>
        <linearGradient x1="108.63338%" y1="29.8356489%" x2="46.9265964%" y2="66.0370504%" id="linearGradient-1">
            <stop stop-color="#0052CC" offset="18%"></stop>
            <stop stop-color="#2684FF" offset="100%"></stop>
        </linearGradient>
    </defs>
    <g id="UI-kit" stroke="none" stroke-width="1" fill="none" fill-rule="evenodd">
        <g id="Connectors" transform="translate(-720.000000, -328.000000)">
            <g id="Connector/Ably-Copy-6" transform="translate(720.000000, 328.000000)">
                <g id="Logo/Circle" transform="translate(0.000000, 2.000000)">
                    <polygon id="Path" points="19.3403152 28.6666667 28.8939502 28.6666667 31.2 14.3333333 16.8 14.3333333"></polygon>
                    <path d="M1.5577745,0.000122224276 C1.10344308,-0.00558780276 0.669773744,0.189019101 0.373098083,0.531867407 C0.0764224216,0.874715713 -0.0528911253,1.33071063 0.0198457352,1.77753176 L6.54835334,41.2607676 C6.71625679,42.2581102 7.57873981,42.9913683 8.5937986,42.9998747 L39.9137179,42.9998747 C40.6755967,43.0095149 41.3297991,42.4620535 41.4516467,41.7127488 L47.9801543,1.78519246 C48.0528911,1.33837133 47.9235776,0.88237641 47.6269019,0.539528105 C47.3302263,0.196679799 46.8965569,0.00207289491 46.4422255,0.00791059545 L1.5577745,0.000122224276 Z M29.0482512,28.5363488 L19.0517142,28.5363488 L16.3449596,14.4483257 L31.470489,14.4483257 L29.0482512,28.5363488 Z" id="Shape" fill="#2684FF" fill-rule="nonzero"></path>
                    <path d="M45.6,14.3333333 L31.2620648,14.3333333 L28.8558584,28.4781582 L18.9254824,28.4781582 L7.2,42.4922262 C7.57164598,42.8158132 8.04547804,42.9957516 8.53678138,43 L39.6570519,43 C40.4138883,43.0096791 41.0637609,42.4600104 41.1848021,41.7076845 L45.6,14.3333333 Z" id="Path" fill="url(#linearGradient-1)" fill-rule="nonzero"></path>
                </g>
            </g>
        </g>
    </g>
</svg>