<?xml version="1.0" encoding="UTF-8"?>
<svg width="49px" height="48px" viewBox="0 0 49 48" version="1.1" xmlns="http://www.w3.org/2000/svg" xmlns:xlink="http://www.w3.org/1999/xlink">
    <title>34A3777B-ED49-4B30-BAB8-9144174EC8C0</title>
    <g id="UI-kit" stroke="none" stroke-width="1" fill="none" fill-rule="evenodd">
        <g id="Connectors" transform="translate(-220.000000, -1024.000000)" fill="#13B5EA">
            <g id="Connector/Ably-Copy-51" transform="translate(220.000000, 1024.000000)">
                <path d="M10.8885244,4.0447313 C14.917591,1.40757179 19.6544002,0 24.5000482,0 C30.9977709,0 37.229475,2.52856426 41.8241568,7.02943975 C46.418742,11.5302768 49,17.6348234 49,24.0000101 C49,28.7467321 47.5630946,33.386894 44.8709714,37.3336477 C42.1789447,41.2804973 38.3525037,44.3566266 33.8757308,46.1731394 C29.3989579,47.9896522 24.4728385,48.4648524 19.7203017,47.538836 C14.967765,46.6128196 10.6022433,44.3270586 7.17589148,40.9706092 C3.74951076,37.6140638 1.41611218,33.337742 0.470771783,28.682124 C-0.474566685,24.0266021 0.0106154557,19.2010641 1.86496663,14.8155902 C3.71930989,10.4302124 6.85953492,6.68188121 10.8885244,4.0447313 Z M15.3034482,29.2847163 C15.4025418,29.3273403 15.509258,29.3501883 15.6174215,29.3520687 C15.771417,29.3443323 15.9201056,29.2940283 16.046216,29.2070523 C16.1723263,29.1200762 16.270648,28.9997882 16.3298919,28.8603001 C16.3891358,28.7208121 16.4067932,28.567692 16.3809343,28.4187959 C16.3550754,28.2698039 16.2866651,28.1310838 16.1836155,28.0186678 L12.0758143,23.930698 L16.1890188,19.8506963 C16.2639903,19.7788883 16.3234272,19.6929683 16.3636629,19.5980242 C16.4038985,19.5031762 16.4240646,19.4014161 16.4232231,19.2986961 C16.4232231,19.089224 16.3394443,18.8881039 16.1897907,18.7385359 C16.0401372,18.5889678 15.8365467,18.5028558 15.6228248,18.4986318 C15.5170735,18.4992078 15.4124801,18.5204238 15.3152198,18.5612238 C15.2179594,18.6020238 15.1300585,18.6614478 15.0566308,18.7360399 L10.9406281,22.7946336 L6.80828992,18.7279759 C6.73492014,18.6553998 6.64757882,18.5977038 6.55132198,18.5583438 C6.45507479,18.5189838 6.35181289,18.4986318 6.24750892,18.4986318 C6.03424058,18.5035278 5.83137369,18.5900238 5.68231839,18.7394959 C5.53326309,18.8889679 5.44983921,19.089704 5.44989711,19.2986961 C5.45081375,19.5098002 5.53692001,19.7120723 5.68945854,19.8613523 L9.79453875,23.914666 L5.68400694,27.9866998 C5.60556186,28.0593718 5.54311456,28.1470198 5.50051493,28.2442679 C5.45791529,28.3415159 5.43606067,28.4462519 5.43629042,28.552044 C5.43629042,28.7609401 5.51964858,28.9616762 5.66870388,29.1111482 C5.81776883,29.2607163 6.02062607,29.3471163 6.2338944,29.3520687 C6.33936589,29.3532603 6.44400757,29.3337723 6.54171174,29.2948923 C6.63940626,29.2559163 6.72818524,29.1983163 6.80283833,29.1253562 L10.9324266,25.0506345 L15.0403243,29.1040442 C15.1149098,29.1807483 15.2043546,29.2421883 15.3034482,29.2847163 Z M26.3030307,24.4234663 C26.5212875,24.3313062 26.7161941,24.1930662 26.8737597,24.0186341 C26.9980368,23.862346 27.0862272,23.6815779 27.1322521,23.4887139 C27.1783736,23.2957538 27.1811718,23.0954017 27.1405501,22.9012896 C27.0020893,22.1754333 26.713203,21.485097 26.2918381,20.8728088 C25.8704732,20.2605205 25.3255066,19.7393363 24.6906129,19.3413201 C23.7666398,18.7679119 22.6892502,18.4772238 21.59594,18.5061198 C20.5026298,18.5351118 19.4428976,18.8825359 18.5519236,19.5040402 C17.8303832,20.0149524 17.2432512,20.6867607 16.8389648,21.463881 C16.4347748,22.2410013 16.2251055,23.1011617 16.2271172,23.9733221 C16.2261669,24.4166503 16.2820337,24.8583464 16.3931883,25.2880426 C16.6682768,26.3472111 17.2611981,27.3013555 18.0953404,28.0272118 C18.9294827,28.7529721 19.9665402,29.2172283 21.0727798,29.3599803 C21.2868876,29.3842683 21.5023462,29.3967483 21.7179014,29.3973243 C22.1682128,29.3970363 22.6164979,29.3397243 23.0517572,29.2266363 C23.6382137,29.0859962 24.1965922,28.8507961 24.7042177,28.530636 C25.2419476,28.1717878 25.7156093,27.7285556 26.1060979,27.2186994 L26.1415091,27.1813554 C26.2970484,26.9893553 26.3685463,26.7448432 26.3402752,26.5012911 C26.3294685,26.4000111 26.2981098,26.301899 26.2481288,26.212619 C26.1980513,26.123243 26.1304129,26.0446189 26.0489767,25.9813549 C25.9028933,25.8664429 25.7217845,25.8026028 25.5345005,25.8000108 C25.4031798,25.8036588 25.2747537,25.8383149 25.1601255,25.9010029 C25.0454007,25.9636909 24.947851,26.0524909 24.8756776,26.160011 L24.8593711,26.181323 C24.7831452,26.282699 24.7042177,26.3866671 24.614387,26.4906351 C24.3117029,26.8283633 23.9526695,27.1132914 23.552725,27.3333235 C22.9990745,27.6271796 22.3801978,27.7828917 21.7506109,27.7866357 C20.9411696,27.7790517 20.1536312,27.5284916 19.4940364,27.0688434 C18.8345381,26.6091952 18.3347281,25.9625389 18.0619554,25.2160426 C17.9937381,25.0179945 17.9392221,24.8158184 17.8986005,24.6106663 C17.8999514,24.5911783 17.8999514,24.5714983 17.8986005,24.5520103 L25.6106299,24.5520103 C25.8482808,24.5594983 26.0846774,24.5156263 26.3030307,24.4234663 Z M30.1377697,22.9039776 C30.1377697,21.0933209 30.2956247,20.3359765 31.8826661,20.1412885 L31.8826661,20.1520405 C31.9822422,20.1437845 32.0822042,20.1411925 32.1821662,20.1439765 C32.287628,20.1475285 32.3927039,20.1303445 32.4913151,20.0934804 C32.5899262,20.0565204 32.6799499,20.0006484 32.7560793,19.9290324 C32.8322086,19.8574163 32.8928998,19.7715923 32.9345828,19.6765523 C32.9762658,19.5816082 32.9981687,19.4793682 32.9987477,19.3759761 C32.9988441,19.1666 32.9149957,18.96548 32.7654386,18.8159119 C32.6157851,18.6663438 32.4121946,18.5802318 32.1984727,18.5759612 L31.9751985,18.5759612 C31.2994902,18.5723598 30.6405708,18.7827919 30.0968586,19.1760081 C30.0406059,18.99764 29.9206708,18.8451919 29.7588597,18.7464079 C29.5971451,18.6477198 29.4044578,18.6095118 29.2163054,18.6385998 C29.0280565,18.6677838 28.856886,18.7624399 28.7341528,18.9051919 C28.6114195,19.04804 28.5453249,19.2293841 28.5479301,19.4160082 L28.5479301,28.504044 C28.5479301,28.7105401 28.6316821,28.9085881 28.7807567,29.0546042 C28.9298313,29.2006203 29.132071,29.2827003 29.3428017,29.2827003 C29.5536288,29.2827003 29.7558686,29.2006203 29.9049432,29.0546042 C30.0540178,28.9085881 30.1377697,28.7105401 30.1377697,28.504044 L30.1377697,22.9039776 Z M35.0156449,28.4035319 C35.9344076,28.9948922 37.0117972,29.3055483 38.1110897,29.2960443 L38.1110897,29.3067003 C38.837165,29.3028603 39.5553282,29.1589562 40.2246683,28.8832441 C40.893912,28.607436 41.50121,28.2052918 42.0118267,27.6996596 C42.5224434,27.1940274 42.9264404,26.5947952 43.2006605,25.9362349 C43.4748805,25.2775786 43.6139203,24.5725543 43.6100464,23.86129 C43.6100464,22.7844576 43.283351,21.7318171 42.671518,20.8370968 C42.059685,19.9423764 41.1903244,19.2458001 40.1737225,18.8359759 C39.1571205,18.4260557 38.0391093,18.3212237 36.9616232,18.5349198 C35.8841371,18.7485199 34.8957098,19.2708561 34.1217763,20.0357844 C33.3479392,20.8006167 32.8234282,21.7734811 32.6149167,22.8308256 C32.4064053,23.88817 32.5233492,24.9823785 32.9506964,25.9745389 C33.3781401,26.9667953 34.0968822,27.8121717 35.0156449,28.4035319 Z M38.1110897,20.0618004 C37.3401473,20.0544084 36.5843535,20.2715605 35.9396179,20.6858007 C35.2948824,21.0999449 34.7903445,21.6925531 34.4900725,22.3881694 C34.1898006,23.0837857 34.107303,23.851114 34.253097,24.5927143 C34.398891,25.3344106 34.7663188,26.0168749 35.3087767,26.5535152 C35.8512346,27.0902514 36.5443108,27.4568755 37.2999116,27.6069236 C38.0556088,27.7570677 38.8396737,27.6838196 39.552723,27.3964915 C40.2657724,27.1091634 40.8755792,26.6208112 41.3047596,25.9933549 C41.7338436,25.3659947 41.9630284,24.6277543 41.9630284,23.872426 C41.9666701,22.8672096 41.5632521,21.9015452 40.8411328,21.1872089 C40.11911,20.4728726 39.1373404,20.0681364 38.1110897,20.0618004 Z M38.1110897,25.2564586 C37.8311768,25.2585706 37.5569567,25.1791786 37.3232618,25.0284585 C37.0894704,24.8776424 36.9067213,24.6622184 36.7980753,24.4095463 C36.6894294,24.1568741 36.6599039,23.878186 36.7131655,23.6090979 C36.7665236,23.3399138 36.9001601,23.0923297 37.0972859,22.8976416 C37.2945082,22.7030495 37.54615,22.5701855 37.8205631,22.5158495 C38.0948796,22.4616094 38.3795204,22.4883934 38.6383024,22.5928415 C38.8970843,22.6972895 39.1184287,22.8746016 39.274161,23.1025057 C39.4298933,23.3303138 39.5130686,23.5982499 39.5130686,23.872426 C39.5137417,24.2378982 39.3666934,24.5886823 39.1038589,24.8481704 C38.841121,25.1075625 38.4841139,25.2543466 38.1110897,25.2564586 Z M21.728901,20.0982798 C20.8612772,20.1003924 20.0192229,20.3861846 19.3361814,20.9103448 C18.6532364,21.434409 18.1683821,22.1668893 17.9586163,22.9916257 L25.5045891,22.9916257 C25.2958847,22.1653533 24.8106444,21.431433 24.1262521,20.9069848 C23.4418598,20.3825366 22.5977792,20.0978004 21.728901,20.0982798 Z" id="Shape"></path>
            </g>
        </g>
    </g>
</svg>