<?xml version="1.0" encoding="UTF-8"?>
<svg width="50px" height="50px" viewBox="0 0 50 50" version="1.1" xmlns="http://www.w3.org/2000/svg" xmlns:xlink="http://www.w3.org/1999/xlink">
    <title>C6BC4A68-C3F4-42E9-80B2-1CDBE43FE99F</title>
    <defs>
        <linearGradient x1="50%" y1="2.34%" x2="50%" y2="98.669%" id="linearGradient-1">
            <stop stop-color="#00AAFF" offset="0%"></stop>
            <stop stop-color="#0080FF" offset="100%"></stop>
        </linearGradient>
    </defs>
    <g id="UI-kit" stroke="none" stroke-width="1" fill="none" fill-rule="evenodd">
        <g id="Connectors" transform="translate(-119.000000, -1735.000000)">
            <g id="logo-v1" transform="translate(120.000000, 1736.000000)">
                <g id="a-link" transform="translate(0.533333, 0.533333)" fill="#FFFFFF" fill-rule="nonzero">
                    <circle id="a" cx="23.4666667" cy="23.4666667" r="23.4666667"></circle>
                </g>
                <circle id="Oval" stroke-opacity="0.2" stroke="#000000" stroke-width="1.06666667" cx="24" cy="24" r="24"></circle>
                <g id="b-link" transform="translate(0.533333, 0.533333)" fill="#FFFFFF" fill-rule="nonzero">
                    <circle id="b" cx="23.4666667" cy="23.4666667" r="23.4666667"></circle>
                </g>
                <g id="b-link" transform="translate(0.533333, 0.533333)" fill="#FFFFFF" fill-rule="nonzero">
                    <circle id="b" cx="23.4666667" cy="23.4666667" r="23.4666667"></circle>
                </g>
                <circle id="Oval" stroke="#E5E5E5" stroke-width="1.06666667" fill="#F9F9F9" fill-rule="nonzero" cx="24" cy="24" r="7.46666667"></circle>
                <g id="e-link" transform="translate(20.800000, 14.400000)" fill="#000000" fill-rule="nonzero">
                    <path d="M5.2544,13.3376 C5.13511765,13.2201161 5.06795226,13.0596905 5.06795226,12.8922667 C5.06795226,12.7248428 5.13511765,12.5644172 5.2544,12.4469333 L5.9456,11.7696 C6.19626667,11.5242667 6.4,11.0442667 6.4,10.6837333 L6.4,1.2768 C6.4,0.571733333 5.83253333,0 5.12,0 L1.28,0 C0.5728,0 0,0.578133333 0,1.28853333 L0,5.16266667 C0,5.51893333 0.209066667,6.01173333 0.4544,6.25066667 L1.1456,6.92906667 C1.2648065,7.04724274 1.33186332,7.20814359 1.33186332,7.376 C1.33186332,7.54385641 1.2648065,7.70475726 1.1456,7.82293333 L0.4544,8.5056 C0.180603279,8.80454822 0.0198733031,9.18977194 0,9.59466667 L0,18.992 C0,19.696 0.567466667,20.2666667 1.28,20.2666667 L5.12,20.2666667 C5.8272,20.2666667 6.4,19.6885333 6.4,18.9781333 L6.4,15.104 C6.4,14.7477333 6.19093333,14.2549333 5.9456,14.016 L5.2544,13.3376 L5.2544,13.3376 Z" id="e"></path>
                </g>
                <g id="e-link" transform="translate(20.800000, 14.400000)" fill="#434A4F" fill-rule="nonzero">
                    <path d="M5.2544,13.3376 C5.13511765,13.2201161 5.06795226,13.0596905 5.06795226,12.8922667 C5.06795226,12.7248428 5.13511765,12.5644172 5.2544,12.4469333 L5.9456,11.7696 C6.19626667,11.5242667 6.4,11.0442667 6.4,10.6837333 L6.4,1.2768 C6.4,0.571733333 5.83253333,0 5.12,0 L1.28,0 C0.5728,0 0,0.578133333 0,1.28853333 L0,5.16266667 C0,5.51893333 0.209066667,6.01173333 0.4544,6.25066667 L1.1456,6.92906667 C1.2648065,7.04724274 1.33186332,7.20814359 1.33186332,7.376 C1.33186332,7.54385641 1.2648065,7.70475726 1.1456,7.82293333 L0.4544,8.5056 C0.180603279,8.80454822 0.0198733031,9.18977194 0,9.59466667 L0,18.992 C0,19.696 0.567466667,20.2666667 1.28,20.2666667 L5.12,20.2666667 C5.8272,20.2666667 6.4,19.6885333 6.4,18.9781333 L6.4,15.104 C6.4,14.7477333 6.19093333,14.2549333 5.9456,14.016 L5.2544,13.3376 L5.2544,13.3376 Z" id="e"></path>
                </g>
                <g id="e-link" transform="translate(20.800000, 14.400000)" fill="#000000" fill-rule="nonzero">
                    <path d="M5.2544,13.3376 C5.13511765,13.2201161 5.06795226,13.0596905 5.06795226,12.8922667 C5.06795226,12.7248428 5.13511765,12.5644172 5.2544,12.4469333 L5.9456,11.7696 C6.19626667,11.5242667 6.4,11.0442667 6.4,10.6837333 L6.4,1.2768 C6.4,0.571733333 5.83253333,0 5.12,0 L1.28,0 C0.5728,0 0,0.578133333 0,1.28853333 L0,5.16266667 C0,5.51893333 0.209066667,6.01173333 0.4544,6.25066667 L1.1456,6.92906667 C1.2648065,7.04724274 1.33186332,7.20814359 1.33186332,7.376 C1.33186332,7.54385641 1.2648065,7.70475726 1.1456,7.82293333 L0.4544,8.5056 C0.180603279,8.80454822 0.0198733031,9.18977194 0,9.59466667 L0,18.992 C0,19.696 0.567466667,20.2666667 1.28,20.2666667 L5.12,20.2666667 C5.8272,20.2666667 6.4,19.6885333 6.4,18.9781333 L6.4,15.104 C6.4,14.7477333 6.19093333,14.2549333 5.9456,14.016 L5.2544,13.3376 L5.2544,13.3376 Z" id="e"></path>
                </g>
                <g id="h-link" transform="translate(4.800000, 4.800000)" fill="url(#linearGradient-1)" fill-rule="nonzero">
                    <path d="M19.2,38.4 C8.59626667,38.4 0,29.8037333 0,19.2 C0,8.59626667 8.59626667,0 19.2,0 C29.8037333,0 38.4,8.59626667 38.4,19.2 C38.4,29.8037333 29.8037333,38.4 19.2,38.4 Z M19.2,34.1333333 C27.4474667,34.1333333 34.1333333,27.4474667 34.1333333,19.2 C34.1333333,10.9525333 27.4474667,4.26666667 19.2,4.26666667 C10.9525333,4.26666667 4.26666667,10.9525333 4.26666667,19.2 C4.26666667,27.4474667 10.9525333,34.1333333 19.2,34.1333333 Z" id="h"></path>
                </g>
                <path d="M24,42.9333333 C34.4565333,42.9333333 42.9333333,34.4565333 42.9333333,24 C42.9333333,13.5434667 34.4565333,5.06666667 24,5.06666667 C13.5434667,5.06666667 5.06666667,13.5434667 5.06666667,24 C5.06666667,34.4565333 13.5434667,42.9333333 24,42.9333333 Z M24,39.2 C15.6053333,39.2 8.8,32.3946667 8.8,24 C8.8,15.6053333 15.6053333,8.8 24,8.8 C32.3946667,8.8 39.2,15.6053333 39.2,24 C39.2,32.3946667 32.3946667,39.2 24,39.2 Z" id="Shape" stroke="#0073E6" stroke-width="0.533333333"></path>
            </g>
        </g>
    </g>
</svg>