<?xml version="1.0" encoding="UTF-8"?>
<svg width="48px" height="48px" viewBox="0 0 48 48" version="1.1" xmlns="http://www.w3.org/2000/svg" xmlns:xlink="http://www.w3.org/1999/xlink">
    <title>5560E170-8817-4621-896C-6F0BF6B22793</title>
    <defs>
        <linearGradient x1="50.0005452%" y1="99.9896397%" x2="50.0005452%" y2="-0.0105082593%" id="linearGradient-1">
            <stop stop-color="#20B038" offset="0%"></stop>
            <stop stop-color="#60D66A" offset="100%"></stop>
        </linearGradient>
    </defs>
    <g id="UI-kit" stroke="none" stroke-width="1" fill="none" fill-rule="evenodd">
        <g id="Connectors" transform="translate(-820.000000, -888.000000)">
            <g id="Connector/Ably-Copy-47" transform="translate(820.000000, 888.000000)">
                <g id="WhatsApp_logo" transform="translate(0.000276, 0.000000)">
                    <path d="M13.256406,40.3825416 L13.982088,40.8107459 C17.0313438,42.6121089 20.5272791,43.5647712 24.0923106,43.5666913 L24.1000876,43.5666913 C35.0486954,43.5666913 43.9595519,34.6984007 43.9636864,23.7988793 C43.9654075,18.5165135 41.9013404,13.5501473 38.1509962,9.81342324 C34.4003764,6.07738496 29.4137412,4.01844932 24.1071832,4.01625488 C13.1503086,4.01625488 4.2394521,12.8831739 4.23531724,23.7826953 C4.23387205,27.517705 5.28347244,31.1553362 7.27217445,34.3023039 L7.74485974,35.0503345 L5.73769534,42.3447983 L13.256406,40.3825416 Z M0,47.9951997 L3.39046551,35.671348 C1.29918703,32.0645075 0.199021758,27.9729695 0.200743996,23.7815844 C0.205841819,10.6684192 10.9261499,0 24.1005774,0 C30.493385,0.00274305308 36.493798,2.47944567 41.0060601,6.97489821 C45.5178399,11.4702822 48.0017886,17.4458176 47.9997232,23.8007858 C47.9941418,36.9132652 37.2715604,47.5837417 24.1005774,47.5837417 C24.099606,47.5837417 24.1010635,47.5837417 24.1005774,47.5837417 L24.09037,47.5837417 C20.0906458,47.5823702 16.1605,46.5836245 12.6698691,44.6884492 L0,47.9951997 Z" id="Shape" fill="#FFFFFF" fill-rule="nonzero"></path>
                    <path d="M1.02438683,23.7939281 C1.02294015,27.8398628 2.08494064,31.7899279 4.10429848,35.2722337 L0.830945119,47.1695407 L13.0615865,43.9771069 C16.4313852,45.8050775 20.2254054,46.7700836 24.0866617,46.771318 L24.0966259,46.771318 C36.8122493,46.771318 47.1622074,36.4711537 47.1677204,23.8119637 C47.1701297,17.6770569 44.7724308,11.9091707 40.4162034,7.56897493 C36.0606649,3.22939639 30.2680915,0.838208443 24.0955925,0.835328238 C11.3792802,0.835328238 1.02932207,11.134121 1.02381091,23.7939967" id="Shape" fill="url(#linearGradient-1)" fill-rule="nonzero"></path>
                    <path d="M17.8645632,13.1614564 C17.3668396,12.0569387 16.8431516,12.0348269 16.3697678,12.015393 C15.9823472,11.9989431 15.5392578,12 15.0966819,12 C14.6535695,12 13.933876,12.1660132 13.3253053,12.8297032 C12.7161906,13.4934238 11,15.0978054 11,18.3607847 C11,21.6240699 13.3807902,24.7771788 13.7124731,25.220103 C14.0447384,25.6622238 18.3082886,32.5726134 25.0600428,35.230847 C30.6718288,37.440112 31.8137896,37.0007074 33.0317739,36.8899954 C34.2497581,36.7795972 36.9622311,35.2861647 37.5156235,33.7374221 C38.0693147,32.188909 38.0693147,30.8615138 37.9033123,30.5843132 C37.7373099,30.307916 37.2941976,30.141917 36.6299199,29.8104775 C35.9653816,29.4787549 32.6994626,27.8741284 32.090662,27.6527811 C31.4815473,27.4317169 31.0386725,27.3213187 30.5955601,27.9853147 C30.152716,28.6484921 28.8804348,30.1419399 28.4927306,30.5843285 C28.10531,31.0275281 27.7176288,31.0828611 27.0533435,30.7511309 C26.3888052,30.4183295 24.2492131,29.7186868 21.7110882,27.4595364 C19.736165,25.7016118 18.402996,23.530679 18.0152919,22.8666371 C17.6278713,22.2034597 17.9739312,21.844216 18.3070088,21.513534 C18.6054851,21.2163563 18.9715471,20.7391627 19.30382,20.3520918 C19.635273,19.9647684 19.7458518,19.6883712 19.9672777,19.2459673 C20.1889719,18.8033033 20.0781248,18.4159723 19.9121224,18.0842191 C19.7458518,17.7524965 18.454879,14.4727307 17.8641647,13.1612498" id="Path" fill="#FFFFFF"></path>
                </g>
            </g>
        </g>
    </g>
</svg>