<?xml version="1.0" encoding="UTF-8"?>
<svg width="48px" height="48px" viewBox="0 0 48 48" version="1.1" xmlns="http://www.w3.org/2000/svg" xmlns:xlink="http://www.w3.org/1999/xlink">
    <title>FCCB451F-088F-4432-8D02-C258450B58F5</title>
    <g id="UI-kit" stroke="none" stroke-width="1" fill="none" fill-rule="evenodd">
        <g id="Connectors" transform="translate(-620.000000, -1608.000000)">
            <g id="Connector/Ably-Copy-95" transform="translate(620.000000, 1608.000000)">
                <rect id="Rectangle" fill="#0089D0" x="1" y="1" width="46" height="46" rx="6"></rect>
                <g id="SI" transform="translate(11.000000, 13.000000)" fill-rule="nonzero">
                    <path d="M9.92618224,22.3863899 L10.0011534,22.3414072 C12.5351788,22.3414072 14.6043829,21.6966551 16.1937716,20.4071511 C17.7831603,19.1176471 18.5778547,17.5432526 18.5778547,15.6689735 C18.5778547,14.0495963 18.083045,12.805075 17.0934256,11.9354095 C16.1038062,11.0657439 14.6643599,10.3460208 12.7900807,9.77623991 L7.45213379,8.05190311 C6.08765859,7.64705882 5.39792388,6.97231834 5.39792388,6.02768166 C5.39792388,5.38292964 5.71280277,4.82814302 6.35755479,4.37831603 C7.00230681,3.92848904 7.82698962,3.70357555 8.84659746,3.70357555 C10.0311419,3.70357555 11.0957324,3.97347174 12.0403691,4.51326413 C12.9850058,5.05305652 13.6897347,5.75778547 14.1395617,6.64244521 L18.0530565,5.50288351 C17.438293,3.92848904 16.2987313,2.62399077 14.6343714,1.57439446 C12.9700115,0.524798155 11.0207612,0 8.78662053,0 C6.58246828,0 4.73817762,0.599769319 3.26874279,1.79930796 C1.79930796,2.9988466 1.06459054,4.4532872 1.07958478,6.14763552 C1.06459054,7.48212226 1.4994233,8.60668973 2.38408304,9.53633218 C3.26874279,10.4659746 4.4532872,11.1707036 5.9527105,11.6355248 L11.4405998,13.3598616 C12.4752018,13.6747405 13.2099193,14.0495963 13.644752,14.4694348 C14.0795848,14.8892734 14.289504,15.384083 14.289504,15.9538639 C14.289504,16.6885813 13.9146482,17.3183391 13.1499423,17.8581315 C12.3852364,18.3979239 11.3956171,18.6678201 10.1810842,18.6678201 C8.69665513,18.6678201 7.4071511,18.2929642 6.32756632,17.5432526 C5.24798155,16.7935409 4.48327566,15.83391 4.03344867,14.6493656 L0,15.8638985 C0.659746251,17.6931949 1.85928489,19.2376009 3.59861592,20.4971165 C5.33794694,21.7566321 7.45213379,22.3863899 9.92618224,22.3863899 Z" id="S" fill="#FFFFFF"></path>
                    <polygon id="I" fill="#BDE3ED" points="26 21.9065744 26 0.404844291 21.7266436 0.404844291 21.7266436 21.9065744"></polygon>
                </g>
            </g>
        </g>
    </g>
</svg>