<?xml version="1.0" encoding="UTF-8"?>
<svg width="48px" height="48px" viewBox="0 0 48 48" version="1.1" xmlns="http://www.w3.org/2000/svg" xmlns:xlink="http://www.w3.org/1999/xlink">
    <title>64205B96-F044-47A3-97EF-19E91B26C20B</title>
    <g id="UI-kit" stroke="none" stroke-width="1" fill="none" fill-rule="evenodd">
        <g id="Connectors" transform="translate(-620.000000, -736.000000)">
            <g id="Connector/Ably-Copy-35" transform="translate(620.000000, 736.000000)">
                <path d="M8.37344026,13.7727596 L20.6704419,1.3846348 C22.5123855,-0.461544934 25.4886974,-0.461544934 27.330641,1.3846348 L39.6265597,13.7727596 C41.4578134,15.6290082 41.4578134,18.6266543 39.6265597,20.4829029 L37.6913117,22.4326633 L29.0774542,13.7553023 L33.2901655,9.51100026 L16.4404033,9.51100026 L16.4404033,26.4871174 L20.6531146,22.2428153 L29.2658891,30.9179941 L27.330641,32.8710277 C25.4882086,34.7160138 22.5128743,34.7160138 20.6704419,32.8710277 L8.37344026,20.4829029 C6.54218658,18.6266543 6.54218658,15.6290082 8.37344026,13.7727596 Z" id="Path" fill="#54BAEB"></path>
                <path d="M39.6265597,34.2272404 L27.330641,46.6153652 C25.4886974,48.4615449 22.5123855,48.4615449 20.6704419,46.6153652 L8.37344026,34.2272404 C6.54218658,32.3709918 6.54218658,29.3733457 8.37344026,27.5170971 L10.3097713,25.5717011 L18.9225458,34.249062 L14.7098345,38.4933641 L31.5606796,38.4933641 L31.5606796,21.5128826 L27.3479684,25.7560936 L18.7341109,17.0787326 L20.6704419,15.1289723 C22.5123855,13.2827926 25.4886974,13.2827926 27.330641,15.1289723 L39.6265597,27.5170971 C41.4578134,29.3733457 41.4578134,32.3709918 39.6265597,34.2272404 L39.6265597,34.2272404 Z" id="Path" fill="#2C7EEC"></path>
            </g>
        </g>
    </g>
</svg>