<?xml version="1.0" encoding="UTF-8"?>
<svg width="48px" height="48px" viewBox="0 0 48 48" version="1.1" xmlns="http://www.w3.org/2000/svg" xmlns:xlink="http://www.w3.org/1999/xlink">
    <title>293C403B-E160-4C97-89EB-ADC5DCB441EF</title>
    <g id="UI-kit" stroke="none" stroke-width="1" fill="none" fill-rule="evenodd">
        <g id="Connectors" transform="translate(-620.000000, -1736.000000)" fill="#000000">
            <g id="Connector/Ably-Copy-105" transform="translate(620.000000, 1736.000000)">
                <path d="M30.4854581,0.10912062 L3.88988499,2.0706979 C1.74804545,2.25629575 1,3.65627953 1,5.33466008 L1,34.4511228 C1,35.7583076 1.46513082,36.8766947 2.58560061,38.3710774 L8.83689496,46.4893833 C9.86465826,47.7965682 10.7965183,48.0765649 12.75774,47.983766 L43.640189,46.1165876 C46.2519546,45.9309898 47,44.7166039 47,42.6638276 L47,9.90740711 C47,8.8466194 46.579624,8.54102294 45.3424719,7.63543343 L45.1314848,7.48183521 L36.644046,1.5091044 C34.5901178,0.0179216769 33.7509642,-0.170876136 30.4838598,0.10912062 L30.4854581,0.10912062 Z M13.4594322,9.37141332 C10.9371764,9.54101135 10.3649536,9.57941091 8.93279822,8.41622439 L5.29167101,5.5234579 C4.92084506,5.14906223 5.10625804,4.68186765 6.03971646,4.58906872 L31.6059279,2.72349033 C33.7509642,2.5362925 34.8698356,3.28348385 35.7105876,3.93627628 L40.0949651,7.11063951 C40.2819764,7.20343843 40.7471073,7.76183197 40.1876716,7.76183197 L13.7839049,9.34901358 L13.4594322,9.37141332 Z M10.5168004,42.3838309 L10.5168004,14.576153 C10.5168004,13.3617671 10.8892248,12.8017736 12.0080962,12.7073747 L42.3311095,10.9345952 C43.3604712,10.8417963 43.825602,11.4945887 43.825602,12.7073747 L43.825602,40.3294547 C43.825602,41.5438406 43.6385906,42.5710287 41.9586852,42.6638276 L12.9415546,44.3438082 C11.2632475,44.4366071 10.5168004,43.8782136 10.5168004,42.3838309 Z M39.163105,16.0673357 C39.3501164,16.907326 39.163105,17.7473163 38.3223531,17.8433152 L36.9237639,18.120112 L36.9237639,38.6510741 C35.7089892,39.3038666 34.5901178,39.6766622 33.6582578,39.6766622 C32.1653636,39.6766622 31.7913409,39.2094677 30.6724695,37.8110839 L21.526495,23.4400503 L21.526495,37.3438893 L24.4195768,37.9982817 C24.4195768,37.9982817 24.4195768,39.6782622 22.0859307,39.6782622 L15.6492234,40.0510579 C15.462212,39.6766622 15.6492234,38.743873 16.302964,38.5582752 L17.9812711,38.0926806 L17.9812711,19.7088936 L15.6492234,19.5200958 C15.462212,18.6801055 15.9289412,17.4673195 17.2364224,17.3745206 L24.1414573,16.907326 L33.6582578,31.4671573 L33.6582578,18.5873066 L31.2319052,18.3089098 C31.0448938,17.2801217 31.7913409,16.5345303 32.7232009,16.4417314 L39.1647034,16.0673357 L39.163105,16.0673357 Z" id="Shape"></path>
            </g>
        </g>
    </g>
</svg>