<?xml version="1.0" encoding="UTF-8"?>
<svg width="48px" height="48px" viewBox="0 0 48 48" version="1.1" xmlns="http://www.w3.org/2000/svg" xmlns:xlink="http://www.w3.org/1999/xlink">
    <title>2F1D705C-8B6B-47BD-9307-FF8F147D476B</title>
    <g id="UI-kit" stroke="none" stroke-width="1" fill="none" fill-rule="evenodd">
        <g id="Connectors" transform="translate(-420.000000, -736.000000)" fill="#6B2C81">
            <g id="Connector/Ably-Copy-33" transform="translate(420.000000, 736.000000)">
                <path d="M33.4960833,34.6410163 L35.908971,32.9447505 C38.6392361,31.0254024 38.8146311,29.3519071 38.9342378,26.7439008 C39.0894091,22.9575321 39.1877114,20.0147574 39.3277322,16.4612786 L48,10.3524317 L40.6095097,10.3524317 L23.8653339,22.1302328 L23.7788914,22.191075 L23.6924376,22.1302328 L19.4240372,19.1278068 L19.0711791,18.8782452 L18.6388488,18.5727539 L18.2066927,18.8782452 L17.8542249,19.1278068 L17.8538168,19.1284088 L12.6432774,22.7576442 C12.5711707,20.8381893 12.5076298,19.050296 12.4185933,16.8850724 C12.3024613,14.0694726 13.3595548,13.5296869 14.9499715,13.1948167 C17.8731469,12.5847259 20.8352061,12.1800306 23.8145592,11.9836804 C26.7939421,12.1800304 29.7560314,12.5847251 32.6792373,13.194815 C32.9687633,13.2521429 33.2540388,13.3292794 33.5330642,13.4256839 L37.9002604,10.3524317 C37.3579731,10.0076616 36.6912977,9.81515739 35.9367651,9.65641575 C31.9393677,8.82204898 27.8887905,8.26856557 23.8145592,8 C19.7403291,8.26857148 15.6897528,8.82205484 11.6923549,9.65641575 C9.51761934,10.1142683 8.07219835,10.8523641 8.23066204,14.702664 C8.39478779,18.6846341 8.49507737,21.7335122 8.64645944,25.5414572 L0.724441376,31.0591537 L0.724147787,31.0589708 L0,31.5714648 L7.40591818,31.5714648 L18.5541855,23.8528808 L18.6403377,23.7932425 L18.7258801,23.8535702 L23.0008653,26.8562971 L23.3541299,27.1053636 L23.7871587,27.4104681 L24.2183953,27.1053636 L24.5703791,26.8562971 L35.1100307,19.4322122 C35.0314473,21.5004378 34.9657092,23.3809262 34.8712027,25.6905191 C34.7836568,27.5977765 34.6554828,28.8216022 32.6590039,30.225165 L30.8944068,31.4655767 L30.8935164,31.4655767 L25.1405477,35.5110897 C23.9975037,36.3150068 23.6363686,36.3184049 22.4930246,35.5140913 L16.0182165,30.9612575 L16.0203135,30.9612575 L14.9702,30.2251634 C14.5017782,29.9098672 14.0792511,29.5308771 13.7147132,29.0990412 L10.1436746,31.5714632 C10.6123033,32.0910819 11.1416397,32.5521667 11.7202394,32.9447489 L13.1559994,33.9513888 L13.1532974,33.9513888 L22.0075209,40.1774072 C23.5708548,41.2772604 24.0648274,41.2724561 25.6276678,40.1734169 L33.4949106,34.6410163 L33.4960833,34.6410163 Z" id="Path"></path>
            </g>
        </g>
    </g>
</svg>