<?xml version="1.0" encoding="UTF-8"?>
<svg width="48px" height="48px" viewBox="0 0 48 48" version="1.1" xmlns="http://www.w3.org/2000/svg" xmlns:xlink="http://www.w3.org/1999/xlink">
    <title>4E4E3626-3AC6-4BC3-A168-80F694C27877</title>
    <g id="UI-kit" stroke="none" stroke-width="1" fill="none" fill-rule="evenodd">
        <g id="Connectors" transform="translate(-620.000000, -1024.000000)" fill-rule="nonzero">
            <g id="Connector/Ably-Copy-55" transform="translate(620.000000, 1024.000000)">
                <g id="Group" transform="translate(1.000000, 1.000000)">
                    <path d="M5.25608368,45.8189233 C4.39526112,45.5920861 3.65246901,45.2583887 2.96738939,44.7907247 C2.38907748,44.3959607 1.54382658,43.5798139 1.22238064,43.1058867 C0.829788346,42.5270501 0.378519836,41.5357635 0.194606705,40.8482956 C0.00702371664,40.1470434 0.00398343841,39.8677901 0.000617480143,23.0352708 C-0.00272900394,6.2877416 0.00107871072,5.91947832 0.184939312,5.19975213 C0.835151433,2.65451651 2.84861534,0.717988533 5.44542754,0.140271111 C6.19206812,-0.0258357391 39.5456883,-0.0548879455 40.3510741,0.109871281 C42.5314132,0.555893752 44.2453253,1.86722174 45.2371048,3.84821104 C46.0255836,5.42312145 45.9550948,3.69003335 45.9912066,22.3891685 C46.0141912,34.2867401 45.9930002,39.2815865 45.917197,39.9038807 C45.5621109,42.8158266 43.5570599,45.0744188 40.6719411,45.8124547 C39.9339205,46.0012247 39.6771875,46.00392 22.9209389,45.9987862 C6.71965235,45.9939091 5.88757163,45.9854383 5.25608368,45.8189233 Z" id="path4195" fill="#F06A35"></path>
                    <path d="M29.5089371,37.1776502 C31.5754418,36.8952652 33.194818,36.0655396 34.7140082,34.5107408 C35.8130179,33.3859728 36.500972,32.1685139 36.9505612,30.5527794 C37.1373347,29.88156 37.1529947,29.5547496 37.1872204,25.6136759 C37.2130516,22.6391591 37.191497,21.2460548 37.114173,20.8943531 C37.0021083,20.3845842 36.6844316,19.9111883 36.3219615,19.7138063 C36.2104209,19.6530708 35.4957607,19.5756581 34.733827,19.5417853 C33.4570688,19.4850182 33.3142221,19.4600756 32.9112309,19.2234893 C32.2719958,18.8482133 32.0959484,18.4429738 32.0942009,17.3427787 C32.0908595,15.2406392 31.2175842,13.2890307 29.4921196,11.5276271 C28.2628727,10.272771 26.891576,9.42338541 25.3265507,8.94744825 C24.9518862,8.83350857 24.1129749,8.7947355 21.3029903,8.76147101 C16.8938883,8.70928074 15.9152013,8.79981797 14.414184,9.39874314 C11.6468689,10.5029426 9.65849624,12.83003 8.93318835,15.8134128 C8.7969598,16.3737549 8.77051617,17.2717987 8.73833714,22.4305418 C8.69802379,28.8933563 8.74249334,29.8423891 9.14560937,31.1231375 C9.47866859,32.1812996 9.81470709,32.8297275 10.5069868,33.7500751 C11.8258,35.5033622 13.8022835,36.7696153 15.7783413,37.1272106 C16.7187195,37.2974219 28.3207203,37.3400068 29.5089371,37.1776502 Z" id="path4163" fill="#FFFFFF"></path>
                    <path d="M17.3153662,19.4359391 C16.258907,19.1442208 15.8641635,17.6258131 16.6406301,16.8405205 C17.1369028,16.3385986 17.2740996,16.319488 20.3805052,16.319488 C23.1692482,16.319488 23.2629887,16.3255972 23.6726348,16.532872 C24.2646122,16.8324578 24.5218387,17.2548468 24.5218387,17.9273471 C24.5218387,18.5347251 24.2802643,18.9603715 23.741425,19.3024139 C23.4520943,19.4860732 23.279192,19.4975037 20.5468288,19.5135802 C18.8596268,19.5235141 17.5155558,19.4911968 17.3153662,19.4359391 L17.3153662,19.4359391 Z" id="path4168" fill="#F06A35"></path>
                    <path d="M17.1829976,29.6544148 C16.7295187,29.4564732 16.307217,28.9066067 16.2342327,28.4190594 C16.1647101,27.9546323 16.3977038,27.3161408 16.7548559,26.9923517 C17.2050619,26.5842065 17.4026472,26.5705916 22.9391234,26.5662253 C28.6343865,26.5617589 28.6047466,26.559346 29.1448032,27.0644945 C29.907583,27.7779498 29.7466935,29.0481714 28.8274861,29.5696993 L27.8829056,29.72358 L22.9597506,29.7813071 C18.6336481,29.8320342 17.4081637,29.7527118 17.1829976,29.6544173 L17.1829976,29.6544148 Z" id="path4166" fill="#F06A35"></path>
                </g>
            </g>
        </g>
    </g>
</svg>