<?xml version="1.0" encoding="UTF-8"?>
<svg width="48px" height="48px" viewBox="0 0 48 48" version="1.1" xmlns="http://www.w3.org/2000/svg" xmlns:xlink="http://www.w3.org/1999/xlink">
    <title>CEB05FEB-16F6-4CA6-A0DE-10E3B54BB23B</title>
    <g id="UI-kit" stroke="none" stroke-width="1" fill="none" fill-rule="evenodd">
        <g id="Connectors" transform="translate(-920.000000, -1876.000000)">
            <g id="Connector/Ably-Copy-118" transform="translate(920.000000, 1876.000000)">
                <rect id="Rectangle" fill="#67AD98" x="1" y="1" width="46" height="46" rx="6"></rect>
                <path d="M9.80730147,33.7952578 L9.80730147,21.1674821 L19.5762138,33.7952578 L22.7060595,33.7952578 L22.7060595,14.3658261 L18.898758,14.3658261 L18.898758,26.9665036 L9.14339481,14.3658261 L6,14.3658261 L6,33.7952578 L9.80730147,33.7952578 Z M34.1821603,34.2288295 L34.2499059,34.1881822 C36.5397064,34.1881822 38.4094844,33.6055702 39.8456906,32.4403463 C41.2818969,31.2751223 42,29.8524652 42,28.1588257 C42,26.6955213 41.5528792,25.5709447 40.6586376,24.785096 C39.7643959,23.9992473 38.4636808,23.3488897 36.7700414,22.8340233 L31.9465563,21.275875 C30.7135868,20.9100489 30.0903274,20.3003387 30.0903274,19.4467444 C30.0903274,18.8641325 30.3748589,18.3628152 30.9574708,17.9563417 C31.5400828,17.5498683 32.2852842,17.3466315 33.206624,17.3466315 C34.2770041,17.3466315 35.2389913,17.5905156 36.0925856,18.0782838 C36.9461799,18.5660519 37.5829883,19.2028604 37.9894618,20.0022582 L41.525781,18.9725254 C40.9702672,17.5498683 39.9405344,16.3710952 38.4365826,15.4226571 C36.9326308,14.474219 35.1712458,14 33.1524275,14 C31.1607076,14 29.4941664,14.5419646 28.166353,15.6258939 C26.8385397,16.7098231 26.174633,18.0240873 26.1881822,19.5551374 C26.174633,20.7610087 26.5675574,21.7771923 27.3669552,22.6172375 C28.166353,23.4572826 29.2367332,24.0940911 30.5916447,24.5141137 L35.550621,26.0722619 C36.48551,26.3567934 37.1494166,26.6955213 37.542341,27.0748965 C37.9352653,27.4542717 38.124953,27.9013925 38.124953,28.4162589 C38.124953,29.0801656 37.7862251,29.6492285 37.0952202,30.1369966 C36.4042153,30.6247648 35.5099737,30.8686489 34.4124953,30.8686489 C33.0711329,30.8686489 31.9059089,30.529921 30.9303726,29.8524652 C29.9548363,29.1750094 29.2638314,28.307866 28.8573579,27.2374859 L25.2126458,28.3349642 C25.8088069,29.9879563 26.8927362,31.3835152 28.4644336,32.5216409 C30.036131,33.6597667 31.9465563,34.2288295 34.1821603,34.2288295 Z" id="NS" fill="#FFFFFF" fill-rule="nonzero"></path>
            </g>
        </g>
    </g>
</svg>