<?xml version="1.0" encoding="UTF-8"?>
<svg width="48px" height="48px" viewBox="0 0 48 48" version="1.1" xmlns="http://www.w3.org/2000/svg" xmlns:xlink="http://www.w3.org/1999/xlink">
    <title>3D0E04A6-CFCF-45C5-B56E-5E0DCE1B2FDD</title>
    <g id="UI-kit" stroke="none" stroke-width="1" fill="none" fill-rule="evenodd">
        <g id="Connectors" transform="translate(-920.000000, -1608.000000)" fill-rule="nonzero">
            <g id="Connector/Ably-Copy-98" transform="translate(920.000000, 1608.000000)">
                <path d="M11.0085101,4.1989964 C10.6199836,4.2122617 10.2312724,4.33794469 9.89308342,4.58302416 C8.99409496,5.23712847 8.79116064,6.49803201 9.44621455,7.40126572 C10.1018829,8.3017065 11.3635332,8.50272778 12.2635829,7.84638912 C13.1647499,7.19451915 13.3685364,5.93113684 12.7121977,5.0290203 C12.302789,4.46589581 11.656054,4.17688752 11.0085101,4.1989964 L11.0085101,4.1989964 Z M36.9923639,4.1989964 C36.3450315,4.17688752 35.6992371,4.46589581 35.2904218,5.0290203 C34.6335246,5.93057825 34.8336731,7.19228481 35.7346725,7.84638912 C36.6356719,8.50049344 37.8977623,8.30282367 38.5546595,7.40126572 C39.2087638,6.49803201 39.0085456,5.23712847 38.1086634,4.58302416 C37.7697411,4.33794469 37.3807636,4.2122617 36.9923639,4.1989964 Z M32.5428767,5.77525646 C31.8812087,5.727576 31.2245157,6.07238941 30.9037755,6.69954216 C30.4780212,7.53630413 30.8095492,8.56179804 31.6482662,8.98799922 C32.487095,9.41699334 33.5132453,9.08393661 33.9349778,8.24438171 C34.3622962,7.40650258 34.0312991,6.38275369 33.1939785,5.95766968 C32.9846486,5.85070044 32.7634324,5.79115025 32.5428767,5.77525646 Z M28.6545938,7.88653761 C28.1037823,7.93385119 27.6085993,8.3029984 27.4274499,8.86144462 C27.1856938,9.60492271 27.5930639,10.4061796 28.3377705,10.6480474 C29.0829243,10.8893566 29.8856478,10.4820776 30.1261191,9.73859951 C30.3682662,8.99288708 29.9583476,8.19187462 29.2149253,7.95112401 C29.028581,7.89051742 28.8381975,7.87076627 28.6545938,7.88653761 Z M10.8854465,9.18175869 C10.4496447,9.18196847 10.014087,9.348916 9.68186817,9.68099498 C9.01635752,10.3457124 9.0170037,11.422876 9.68097443,12.088152 C10.3469208,12.7506351 11.4228693,12.7511937 12.0898774,12.088152 C12.7510199,11.422876 12.7538687,10.3451543 12.0898774,9.68099498 C11.7574628,9.34807812 11.3212276,9.18154931 10.8854259,9.18175869 L10.8854465,9.18175869 Z M25.9611614,10.0973163 C25.4124511,10.1210585 24.9385158,10.528161 24.8500988,11.0931708 C24.7471514,11.7361034 25.1870169,12.3434607 25.8284972,12.4451234 C26.4728262,12.5473447 27.0807426,12.1064111 27.1804502,11.4623613 C27.2851851,10.8166358 26.8437622,10.2123851 26.1994332,10.111281 C26.1188851,10.098362 26.0395484,10.0939246 25.9611614,10.0973163 Z M24.0008732,12.3744274 C23.4615025,12.3744274 23.0224748,12.8126033 23.0224748,13.3510803 C23.0224748,13.8917917 23.4615025,14.3277333 24.0008732,14.3277333 C24.5415845,14.3277333 24.979272,13.8917917 24.979272,13.3510803 C24.979272,12.8126033 24.5415845,12.3744274 24.0008732,12.3744274 Z M11.5461492,13.4968364 C11.0911121,13.4815893 10.6362125,13.6853593 10.3495528,14.0833518 C9.88804899,14.7139955 10.030307,15.601121 10.662012,16.0602229 C11.2958397,16.5216709 12.1845711,16.3794338 12.6441199,15.7468909 C13.1034453,15.1138453 12.9635963,14.2281655 12.3290425,13.7656562 C12.0923204,13.5936814 11.8191714,13.5059843 11.5461492,13.4968364 L11.5461492,13.4968364 Z M22.6681216,14.5459308 C22.6147364,14.5435624 22.560685,14.5467352 22.5057827,14.5555296 C22.0650024,14.6253528 21.7656699,15.0364021 21.8372253,15.4754507 C21.9048696,15.9140525 22.3144321,16.210983 22.7562737,16.1440086 C23.1953223,16.0739619 23.491827,15.661837 23.4239588,15.2223415 C23.3640363,14.8411065 23.0418184,14.5623635 22.6681216,14.5459286 L22.6681216,14.5459308 Z M12.6083356,16.9731621 C12.1488319,16.9404647 11.6927222,17.178624 11.4693437,17.6155361 C11.1765328,18.1968567 11.4065376,18.9083765 11.9869085,19.2031424 C12.571022,19.5029355 13.2797837,19.2699216 13.5753875,18.6899416 C13.8721643,18.1058282 13.6412587,17.3945036 13.0604408,17.098844 C12.9149015,17.0249851 12.7615034,16.9840617 12.6083356,16.9731621 L12.6083356,16.9731621 Z M31.7468915,19.2214712 C31.6430906,19.2287506 31.5389925,19.2565504 31.4405419,19.3070045 C31.0433872,19.5079838 30.8862989,19.9927807 31.0896801,20.3892651 C31.2914973,20.7807245 31.7771249,20.9382784 32.1675766,20.7392541 C32.566407,20.537437 32.7254294,20.0545952 32.5193111,19.6569936 C32.3680741,19.3627724 32.0582943,19.199634 31.7468915,19.2214712 Z M13.7909669,19.7346719 C13.4117271,19.7681156 13.0691901,20.0228049 12.9461054,20.4067211 C12.7785296,20.9186094 13.0588839,21.4702132 13.5745148,21.6356105 C14.0861796,21.8036332 14.6377485,21.5249613 14.8025314,21.0115649 C14.9701073,20.5000676 14.6890406,19.9452732 14.1758676,19.7783118 C14.0480631,19.7368513 13.9173803,19.7235239 13.7909669,19.7346706 L13.7909669,19.7346719 Z M34.2107799,19.7346719 C34.0840591,19.7235225 33.9523288,19.7368616 33.8241333,19.7783131 C33.3130271,19.9452745 33.032128,20.5000689 33.1974695,21.0115662 C33.3656039,21.5249627 33.9181854,21.8036346 34.4298502,21.6356119 C34.9426323,21.4702145 35.2211572,20.9186108 35.0530227,20.4067225 C34.9327873,20.0228063 34.5909411,19.7681178 34.2107799,19.7346732 L34.2107799,19.7346719 Z M36.7776573,20.8029678 C36.6993234,20.7993929 36.6190189,20.8042637 36.5385127,20.8169325 C35.89167,20.919042 35.4520976,21.5256526 35.5548775,22.1697583 C35.6559816,22.8125791 36.2625364,23.2552658 36.9077033,23.151648 C37.5517531,23.0493151 37.9909411,22.4447153 37.8887199,21.7988222 C37.7987875,21.2356209 37.3259958,20.8279661 36.7776573,20.8029678 Z M15.3122412,21.8258788 C14.9416024,21.8449601 14.6188755,22.1204213 14.5555318,22.5022917 C14.4857086,22.9441333 14.7855366,23.3530393 15.2267079,23.423086 C15.6631312,23.4905074 16.0724421,23.1915937 16.1422653,22.7580191 C16.2127589,22.3168478 15.915996,21.9037806 15.4737075,21.8337339 C15.4194339,21.8255294 15.3651898,21.823152 15.3122412,21.8258779 L15.3122412,21.8258788 Z M39.4562523,22.5817155 C38.675349,22.5817155 38.0388401,23.2155431 38.0388401,23.9991277 C38.0388401,24.783997 38.675349,25.4174127 39.4562523,25.4174127 C40.2410658,25.4174127 40.8736645,24.783997 40.8736645,23.9991277 C40.8736645,23.2155431 40.2410658,22.5817155 39.4562523,22.5817155 Z M42.2430732,25.2000878 C41.4510558,25.2357837 40.7656827,25.8211238 40.6371382,26.6340829 C40.4919058,27.5622858 41.1259359,28.4350766 42.0554231,28.5821523 C42.982676,28.729842 43.8531628,28.0970829 44.0017467,27.1691038 C44.146979,26.2395607 43.5161955,25.3663092 42.5878254,25.2192893 C42.4716395,25.20099 42.3562186,25.1949886 42.2430732,25.2000874 L42.2430732,25.2000878 Z M3.26598308,28.7820211 C3.00506139,28.7598162 2.73630377,28.7882281 2.47174346,28.87541 C1.41104433,29.2177674 0.831560144,30.3550134 1.17564918,31.4161036 C1.51973821,32.473898 2.65829025,33.054744 3.71547029,32.7113253 C4.77549907,32.3654488 5.35501829,31.229976 5.01243744,30.1688858 C4.75386794,29.3748695 4.04874809,28.8486377 3.26598308,28.7820211 Z M44.73489,28.7820211 C43.9529673,28.8486377 43.249017,29.3748695 42.9884366,30.1688858 C42.6471405,31.229976 43.2237757,32.3654488 44.2845306,32.7113253 C45.3430517,33.054744 46.4796985,32.473898 46.8243506,31.4161036 C47.1695523,30.3550134 46.5921217,29.2177674 45.5291324,28.87541 C45.2647782,28.7882286 44.9955308,28.7598158 44.73489,28.7820211 Z M30.192451,29.3886108 C29.9872685,29.3886108 29.7826651,29.4670501 29.6260099,29.6242644 C29.3102411,29.9373519 29.3098573,30.4492612 29.6233733,30.7615108 C29.9410971,31.0746542 30.4473084,31.0746542 30.7606198,30.7615108 C31.074824,30.4470827 31.074824,29.9386925 30.7606198,29.6242644 C30.603182,29.4670501 30.3976152,29.3886108 30.1924327,29.3886108 L30.192451,29.3886108 Z M7.35238944,30.7222351 C7.13164068,30.7374509 6.91075742,30.7960381 6.70128763,30.9020301 C5.8640788,31.3290691 5.53065161,32.3545563 5.95679694,33.1931058 C6.38338914,34.0303146 7.40845048,34.3632945 8.24699992,33.937596 C9.08381774,33.5097191 9.41875311,32.4846372 8.99149061,31.6482662 C8.67204908,31.0211975 8.01463615,30.6765914 7.35238944,30.7222351 Z M20.0820427,31.0015281 C19.7682152,30.9802169 19.4593171,31.1426967 19.30875,31.4379233 C19.1058157,31.8354694 19.2631278,32.3174939 19.6596122,32.5193111 C20.0552029,32.7191732 20.539371,32.5642634 20.7401269,32.1684493 C20.9445694,31.7726352 20.785072,31.2897375 20.3918833,31.0861888 C20.2917847,31.0361117 20.1866521,31.0086315 20.0820427,31.0015281 Z M17.7770024,31.6360471 C17.4636141,31.6256171 17.1502339,31.7665815 16.9522152,32.0401492 C16.6347148,32.4763491 16.7304985,33.0866183 17.1669218,33.4034483 C17.6026189,33.7200549 18.2177617,33.624446 18.5319663,33.1861235 C18.8479026,32.7521021 18.7507994,32.1400664 18.316387,31.8219517 C18.152812,31.7030564 17.9650354,31.6423037 17.7770024,31.6360471 Z M30.2247444,31.6360471 C30.0366041,31.6423166 29.8490184,31.703224 29.6853598,31.8219517 C29.2489919,32.140066 29.1525246,32.7521021 29.4689073,33.1861235 C29.7835593,33.624446 30.397571,33.7198105 30.8322068,33.404321 C31.2686301,33.0863738 31.3683377,32.4745616 31.0486589,32.0401492 C30.8516175,31.7665815 30.5383114,31.6255975 30.2247444,31.6360471 Z M11.4466508,31.666595 C11.1733918,31.6754162 10.8996976,31.7626298 10.662012,31.9345421 C10.030307,32.3962693 9.88849586,33.2845329 10.3495528,33.9175227 C10.8082079,34.5538081 11.6977844,34.6931963 12.3290425,34.2308542 C12.9635963,33.7693503 13.1045066,32.8838868 12.6441199,32.2522377 C12.3569021,31.855537 11.902083,31.6518953 11.4466508,31.666595 Z M14.8933017,31.9258134 C14.5903804,31.9257092 14.2875781,32.0406873 14.0562953,32.2714392 L14.0554015,32.2714392 C13.5956852,32.7324403 13.5956852,33.4806802 14.0554015,33.9419606 C14.5179667,34.4049726 15.2677081,34.4034086 15.7285416,33.9419606 C16.1911179,33.4806802 16.1911206,32.7320493 15.7302844,32.2714392 C15.4990253,32.0411055 15.1962229,31.9259184 14.8933017,31.9258134 L14.8933017,31.9258134 Z M29.7639109,34.297186 C29.6106201,34.3081209 29.456849,34.348576 29.3109324,34.4228679 C28.7276568,34.7185275 28.5005219,35.4301175 28.7924948,36.0122201 C29.0913943,36.5941551 29.8038498,36.8252073 30.3853379,36.5280395 C30.9640331,36.2308158 31.1981084,35.5219629 30.8985387,34.9386873 C30.6784281,34.5034089 30.2237832,34.2643778 29.7639109,34.297186 Z M28.8972297,37.2856216 C28.7134066,37.2697355 28.5240589,37.2891072 28.3377705,37.3493353 C27.5930639,37.5917617 27.1856938,38.3925856 27.4274499,39.1376835 C27.6689825,39.8799886 28.4695481,40.2906544 29.2149253,40.0480046 C29.9583476,39.8045169 30.3682662,39.0054242 30.1261191,38.2596564 C29.9457655,37.7012937 29.4486981,37.3332838 28.8972297,37.2856216 Z M26.980581,40.6170639 C26.8679946,40.6119473 26.7530827,40.617913 26.6375743,40.6362659 C25.7083104,40.7849057 25.0746084,41.6552735 25.2219075,42.5852076 C25.3685364,43.5136336 26.2391907,44.1468396 27.168231,43.9982557 C28.096657,43.8525206 28.7276497,42.9810427 28.5804064,42.0536781 C28.4528396,41.2399858 27.7686861,40.6528832 26.980581,40.6170644 L26.980581,40.6170639 Z M24.0008732,43.9642164 C22.8865498,43.9642164 21.9838537,44.8697774 21.9838537,45.9829814 C21.9838537,47.0962435 22.8865498,48 24.0008732,48 C25.1165372,48 26.0178927,47.0962435 26.0178927,45.9829814 C26.0178927,44.8697774 25.1165372,43.9642164 24.0008732,43.9642164 Z" id="Shape" fill="#4E5D6E"></path>
                <path d="M24.0008732,0 C22.8865498,0 21.9838537,0.90319881 21.9838537,2.01701948 C21.9838537,3.13028156 22.8865498,4.03403896 24.0008732,4.03403896 C25.1165372,4.03403896 26.0178927,3.13028156 26.0178927,2.01701948 C26.0178927,0.90319881 25.1165372,0 24.0008732,0 Z M21.1773952,3.97905313 C21.0645903,3.9740835 20.9494362,3.9806261 20.8335158,3.99912737 C19.9038051,4.14771127 19.2688183,5.01596324 19.417849,5.94545094 C19.5651482,6.87493775 20.435537,7.50938698 21.365918,7.3602445 C22.2935061,7.21445353 22.9262586,6.33949813 22.7815848,5.41392097 C22.6488857,4.60061962 21.967029,4.01383932 21.1773952,3.97905317 L21.1773952,3.97905313 Z M19.3454076,7.88653761 C19.1618142,7.8707408 18.9722367,7.8906488 18.7859483,7.95112401 C18.0412418,8.19187462 17.6338926,8.99288708 17.8747549,9.73859951 C18.1169579,10.4820776 18.9170766,10.8893566 19.6622304,10.6480474 C20.4045355,10.4061796 20.8164999,9.60492271 20.574297,8.86144462 C20.392142,8.3029984 19.8961873,7.93392984 19.3454076,7.88653761 Z M18.0685146,11.3445345 C17.9152431,11.3557509 17.761341,11.3967972 17.6155361,11.4710891 C17.0362265,11.7660226 16.8027585,12.4771375 17.0979713,13.0569499 C17.3951391,13.6406724 18.1065195,13.8703907 18.6890689,13.577133 C19.2688254,13.2777308 19.5044299,12.5666507 19.2083792,11.9851626 C18.9841628,11.5482089 18.5283293,11.3108884 18.0685146,11.3445345 L18.0685146,11.3445345 Z M36.4564703,13.4968364 C36.1835085,13.5059839 35.910662,13.5936814 35.6727043,13.7656562 C35.0359162,14.224814 34.8956762,15.1138453 35.3576269,15.7468909 C35.8195776,16.3794338 36.7064724,16.5221106 37.3371161,16.0628411 C37.9722285,15.5998849 38.1124689,14.7139955 37.6521935,14.0833518 C37.3655692,13.6853593 36.9114069,13.4815897 36.4564703,13.4968364 Z M33.1075724,13.7097975 C32.8048884,13.709937 32.5030424,13.8259134 32.2731842,14.057168 C31.8092785,14.5163258 31.8092785,15.2673028 32.2731842,15.7276894 C32.7345763,16.1893608 33.4811963,16.1893608 33.9437056,15.7276894 C34.4039806,15.2673028 34.4046093,14.5185601 33.9454484,14.057168 C33.7136352,13.8253548 33.4102528,13.7096577 33.1075693,13.7097975 L33.1075724,13.7097975 Z M40.404976,13.8799917 C40.1846924,13.8954757 39.9640768,13.9549816 39.7547469,14.0615321 C38.9163092,14.4871747 38.5839853,15.5136674 39.0085107,16.3526078 C39.4347119,17.1889788 40.4627548,17.5212955 41.297841,17.0944799 C42.1368373,16.6657092 42.4705223,15.6419818 42.043204,14.8068956 C41.7214584,14.1789049 41.0658267,13.8335419 40.404976,13.8799917 Z M17.7071791,14.408903 C17.5186219,14.4153826 17.3303082,14.4760379 17.1669218,14.5948071 C16.7304985,14.9109669 16.6347148,15.5250277 16.9522152,15.9607248 C17.2690452,16.3949138 17.8801871,16.494419 18.316387,16.1763042 C18.7507994,15.8596976 18.8479026,15.2489463 18.5319663,14.812132 C18.3355885,14.5380758 18.021441,14.3981021 17.7071791,14.408903 Z M30.2928218,14.408903 C29.9793165,14.3981021 29.665879,14.5380758 29.4697805,14.812132 C29.1496548,15.2489463 29.2489919,15.8597186 29.6853598,16.1754315 C30.1217827,16.49444 30.7333929,16.3949138 31.0486589,15.9607248 C31.3683377,15.5250277 31.2686301,14.9098497 30.8322068,14.5948071 C30.6692181,14.4760379 30.4809254,14.4153835 30.2928218,14.408903 Z M2.92123071,15.1961599 C2.13841069,15.2650863 1.43371595,15.7893855 1.17564918,16.5830246 C0.831560144,17.6441147 1.41104433,18.781396 2.47174346,19.1245913 C3.52998481,19.4706913 4.66812497,18.8900482 5.01243744,17.8302428 C5.35546516,16.7693761 4.77525464,15.6340565 3.71634307,15.2860574 C3.45176881,15.200873 3.18217072,15.1731846 2.92123071,15.1961599 Z M45.078769,15.1961599 C44.8180925,15.1731864 44.5484635,15.2008744 44.2845306,15.2860574 C43.2237757,15.6329394 42.643789,16.7693761 42.9884366,17.8302428 C43.3358772,18.8900482 44.4717294,19.4706913 45.5291324,19.1245913 C46.5921217,18.781396 47.1695568,17.6441147 46.8243506,16.5830246 C46.5658637,15.7893855 45.8607985,15.2650863 45.078769,15.1961599 Z M28.0331668,15.3925378 C27.7218211,15.3703865 27.4108111,15.5335808 27.2607468,15.8289334 C27.0578124,16.2267025 27.2159973,16.7093768 27.6124817,16.9111939 C28.0074021,17.1130111 28.4887983,16.9543436 28.6921236,16.5585867 C28.8950579,16.1645042 28.737921,15.6799446 28.3386436,15.4780716 C28.2407235,15.427659 28.1369485,15.3999218 28.0331668,15.3925378 L28.0331668,15.3925378 Z M17.8075499,17.0010914 C17.6015786,17.0010914 17.3949366,17.0797542 17.2367451,17.2367451 C16.9240597,17.5527372 16.9242859,18.0582576 17.2384878,18.3748642 C17.5533628,18.6871138 18.0619555,18.6892923 18.376607,18.3748642 C18.6896945,18.0617767 18.6903648,17.5505587 18.376607,17.2367451 C18.219281,17.0797542 18.0135189,17.0010914 17.8075472,17.0010914 L17.8075499,17.0010914 Z M5.60418969,19.396902 C4.81197832,19.432656 4.12963395,20.0174563 3.9982545,20.8300244 C3.85386,21.7602378 4.48616533,22.6310735 5.41392097,22.7780934 C6.34234691,22.9267331 7.21471182,22.2932478 7.36111723,21.3650453 C7.50813709,20.4366193 6.87736782,19.5638496 5.94894188,19.4161036 C5.83256024,19.3978311 5.71736236,19.3917939 5.60418969,19.3969016 L5.60418969,19.396902 Z M8.54462174,22.5817155 C7.76064616,22.5817155 7.12459088,23.2155431 7.12459088,23.9991277 C7.12678054,24.783997 7.76064616,25.4174127 8.54462174,25.4174127 C9.32731257,25.4174127 9.96290668,24.783997 9.96290668,23.9991277 C9.96290668,23.2155431 9.32731257,22.5817155 8.54462174,22.5817155 Z M32.6144454,24.5673143 C32.2421152,24.5821146 31.9197042,24.8601113 31.8586088,25.2419818 C31.7887855,25.6824828 32.0859461,26.0944749 32.5245479,26.1645216 C32.9619209,26.2308816 33.3738432,25.9349565 33.4453423,25.4959642 C33.5162827,25.0541226 33.218626,24.6443715 32.7767844,24.577788 C32.7221829,24.5686809 32.6676354,24.5651998 32.6144454,24.5673134 L32.6144454,24.5673143 Z M11.3314426,24.8343886 C11.2527611,24.8308584 11.1722943,24.8346889 11.0914249,24.8474819 C10.4499446,24.9483067 10.0098208,25.5535973 10.1121537,26.1994345 C10.2124758,26.843596 10.8179764,27.2828194 11.4623613,27.1813243 C12.1086454,27.0798851 12.5490204,26.4743706 12.4451234,25.8293712 C12.3569508,25.2661699 11.8822125,24.8589602 11.3314426,24.83439 L11.3314426,24.8343886 Z M13.9594154,26.3163873 C13.8331978,26.3053764 13.702431,26.318711 13.5745148,26.3600285 C13.0588839,26.5269899 12.7785296,27.078119 12.9461054,27.5924093 C13.110218,28.1055823 13.6624152,28.3849379 14.1758676,28.2182 C14.6890406,28.0528026 14.9692832,27.4977008 14.8042769,26.9884378 C14.6787626,26.6028879 14.3380689,26.3494171 13.9594154,26.316389 L13.9594154,26.3163873 Z M34.0440768,26.3163873 C33.6643867,26.3494153 33.3209871,26.6028861 33.195724,26.988436 C33.0314997,27.497699 33.3130271,28.0528008 33.8241333,28.2181982 C34.3369154,28.3849361 34.8904742,28.1055805 35.0530227,27.5924075 C35.2211572,27.0781173 34.9426323,26.5269881 34.4298502,26.3600267 C34.301934,26.3187315 34.1706399,26.3053778 34.0440768,26.3163855 L34.0440768,26.3163873 Z M16.1405199,27.1734679 C16.0371412,27.1805597 15.9337103,27.2083326 15.8359157,27.2581286 C15.4350743,27.4600016 15.2781952,27.9425989 15.4833085,28.3412618 C15.6825561,28.7355655 16.1656004,28.8913364 16.5594594,28.6912509 C16.9565583,28.4893779 17.1132904,28.0067528 16.9111939,27.6116085 C16.7594958,27.3153765 16.4506553,27.1521885 16.1405199,27.1734679 Z M35.5618598,28.6676857 C35.1031994,28.635033 34.6474544,28.8750749 34.4237407,29.3100597 C34.1254557,29.8919947 34.3595033,30.6046245 34.9404328,30.9002846 C35.5219209,31.19505 36.2357242,30.9648567 36.5306577,30.3835925 C36.8283841,29.8021043 36.5962567,29.0894741 36.0130928,28.7933676 C35.8679999,28.7189639 35.7147466,28.6785701 35.5618598,28.6676857 Z M36.5550956,31.6665946 C36.1007864,31.651897 35.6459967,31.8555365 35.3558814,32.2522372 C34.8950479,32.8838864 35.0359162,33.7715288 35.6727043,34.2308537 C36.3072581,34.6931954 37.1935944,34.5538076 37.6521935,33.9175222 C38.1124689,33.2845325 37.9722285,32.3962689 37.3371161,31.9345416 C37.1006251,31.7626294 36.8276816,31.6754149 36.5550956,31.6665946 Z M25.4069394,31.8463896 C25.3532137,31.8438871 25.2981688,31.8465571 25.2428545,31.8551169 C24.8035824,31.9251636 24.5075389,32.3371209 24.5769153,32.776784 C24.6471854,33.2140452 25.0567479,33.5142923 25.4959642,33.4444691 C25.9382526,33.3739755 26.2332696,32.9617877 26.1627761,32.5254202 C26.10476,32.1418392 25.7830171,31.8638867 25.4069394,31.8463891 L25.4069394,31.8463896 Z M24.0008732,33.6705222 C23.4615025,33.6705222 23.0224748,34.1064638 23.0224748,34.6471751 C23.0224748,35.1867693 23.4615025,35.623828 24.0008732,35.623828 C24.5415845,35.623828 24.979272,35.1867693 24.979272,34.6471751 C24.979272,34.1064638 24.5415845,33.6705222 24.0008732,33.6705222 Z M37.1163003,35.4134844 C36.6806729,35.4139771 36.2450455,35.5797346 35.9118489,35.9109761 C35.2465728,36.5758053 35.2465728,37.6532482 35.9118489,38.3181332 C36.5782421,38.9827389 37.6521238,38.9810073 38.3207514,38.3181332 C38.9860274,37.6532482 38.9860274,36.5758053 38.3207514,35.9109761 C37.9878341,35.5777795 37.5519278,35.4129966 37.1163003,35.4134844 Z M21.9323592,35.5400401 C21.3832762,35.5652167 20.9071513,35.9713803 20.8178056,36.5350214 C20.7152492,37.178904 21.1546746,37.7861286 21.8005677,37.8878472 C22.4448968,37.9895098 23.0495175,37.5520601 23.1525208,36.9042119 C23.257926,36.2611676 22.8150159,35.6555209 22.170631,35.553132 C22.0901177,35.540508 22.0107999,35.5364415 21.9323592,35.5400388 L21.9323592,35.5400401 Z M19.1027716,37.2856216 C18.5520701,37.332836 18.0564071,37.7012937 17.8747549,38.2596564 C17.6338926,39.0060945 18.0401246,39.8045169 18.7859483,40.0480046 C19.5326108,40.2906544 20.3314237,39.8799886 20.574297,39.1376835 C20.8164999,38.3925856 20.4045355,37.5915731 19.6622304,37.350208 C19.475942,37.2897132 19.2863386,37.2698834 19.1027716,37.2856216 Z M15.701506,38.827843 C15.0401128,38.7810603 14.3837733,39.1254295 14.0624049,39.753001 C13.6373208,40.5904332 13.9703012,41.6135677 14.8068956,42.039713 C15.6447747,42.4671989 16.6718116,42.1346168 17.0962254,41.2995864 C17.5223711,40.4617073 17.1911224,39.4359408 16.3517351,39.0085107 C16.142377,38.9019745 15.9219701,38.8434369 15.701506,38.827843 Z M11.1490294,39.7669656 C10.5021782,39.7448456 9.85600716,40.0332369 9.44621455,40.5969897 C8.79116064,41.4974863 8.99409496,42.7601984 9.89308342,43.4143585 C10.7949207,44.0685187 12.0554122,43.8710375 12.7121977,42.9683624 C13.3685364,42.0671954 13.1647499,40.804281 12.2635829,40.1501208 C11.9260647,39.9048108 11.5371399,39.7802385 11.1490294,39.7669656 Z M36.8492265,39.7669656 C36.4606271,39.7802913 36.0725474,39.9054811 35.7346725,40.1501208 C34.8336731,40.804281 34.6335246,42.0671954 35.2904218,42.9683624 C35.9462019,43.8710375 37.2048711,44.0706972 38.1086634,43.4143585 C39.0085456,42.7613155 39.2087638,41.4974863 38.5546595,40.5969897 C38.1444478,40.0332369 37.4968914,39.7447571 36.8492265,39.7669656 Z" id="Shape" fill="#96D325"></path>
                <path d="M30.6192456,1.08138777 C29.8358076,1.1476326 29.132045,1.67188307 28.8762828,2.46912507 C28.5315234,3.52764572 29.1097646,4.66604435 30.1706313,5.01069197 C31.2299898,5.35645676 32.3676201,4.7753525 32.7139435,3.71459751 C33.0557982,2.65719404 32.4749804,1.52054119 31.4152308,1.17477635 C31.1500561,1.08805586 30.8803918,1.05930615 30.6192456,1.08138777 Z M26.8243516,3.97905313 C26.0342785,4.01437364 25.350208,4.60061962 25.2219075,5.41392097 C25.0728768,6.34173247 25.7087086,7.21445353 26.6349561,7.3602445 C27.5620414,7.50715264 28.4341967,6.87532206 28.5838978,5.94806914 C28.727231,5.01634754 28.096657,4.14771118 27.168231,3.99912732 C27.0523731,3.9807637 26.9372191,3.97400748 26.8243516,3.97905308 L26.8243516,3.97905313 Z M24.0008732,7.12459088 C23.2164507,7.12459088 22.5825882,7.75886539 22.5825882,8.54200309 C22.5825882,9.32737513 23.2164507,9.96203395 24.0008732,9.96203395 C24.7844578,9.96203395 25.4174127,9.32737513 25.4174127,8.54200309 C25.4174127,7.75886539 24.7844578,7.12459088 24.0008732,7.12459088 Z M6.28671174,9.06131387 C5.63909373,9.03999376 4.99152532,9.33083166 4.58215142,9.89395615 C3.92905265,10.7927212 4.13157506,12.0554747 5.02989303,12.7095791 C5.93105997,13.3653591 7.19288495,13.1651409 7.84464365,12.2635829 C8.5031608,11.3625836 8.30412942,10.1016805 7.40039298,9.44534181 C7.06369114,9.19921493 6.67528299,9.0741046 6.28671174,9.06131387 L6.28671174,9.06131387 Z M22.0388395,10.0973163 C21.9603412,10.0939201 21.8803758,10.0983441 21.799695,10.111281 C21.1570975,10.2135023 20.7152488,10.8188702 20.8178056,11.4623613 C20.9199147,12.1064111 21.5265254,12.5462275 22.170631,12.4451234 C22.8150159,12.3434607 23.2532897,11.7383377 23.1525208,11.0931708 C23.0623927,10.528161 22.5883305,10.1210594 22.0388395,10.0973163 Z M20.79424,12.8989746 C20.6679142,12.8880665 20.5375768,12.9011196 20.4093393,12.9426158 C19.8946023,13.1090745 19.6146528,13.6622141 19.7826755,14.1749962 C19.9480728,14.6877782 20.4999,14.9686773 21.0115649,14.80166 C21.5247379,14.6352014 21.8075849,14.0831785 21.6408469,13.5692793 C21.514034,13.1851119 21.1732179,12.931706 20.79424,12.8989759 L20.79424,12.8989746 Z M7.59677085,13.8799917 C6.93538034,13.8335419 6.27787223,14.1789049 5.95679694,14.8068956 C5.53065161,15.6452774 5.8640788,16.6691934 6.70128763,17.0936071 C7.53916677,17.5234391 8.56556872,17.1868003 8.99149061,16.3526078 C9.41875311,15.5153431 9.08381774,14.4899677 8.24699992,14.0615321 C8.03780943,13.9549816 7.8172345,13.8954748 7.59677085,13.8799917 Z M19.9668346,15.393411 C19.8621573,15.4011284 19.7569805,15.4294375 19.6569936,15.4806898 C19.2648684,15.6816132 19.1064373,16.1645038 19.3061318,16.5585867 C19.5101274,16.9574167 19.9919079,17.1145751 20.3883924,16.9111939 C20.7828659,16.7093768 20.9426143,16.2249848 20.7401269,15.8306789 C20.5900629,15.5336925 20.2808663,15.3702618 19.9668346,15.393411 Z M32.5812793,16.7645651 C32.3932101,16.7710938 32.2046805,16.831742 32.041022,16.9504697 C31.6042076,17.2677466 31.5062526,17.8776037 31.8236971,18.3146415 C32.1432084,18.7501711 32.7536031,18.8490198 33.1887417,18.5319663 C33.6261146,18.212511 33.7220868,17.6019835 33.4025756,17.1677945 C33.2067214,16.8936682 32.8947288,16.753687 32.5812793,16.7645651 Z M35.3925385,16.9722894 C35.2393112,16.9832511 35.085805,17.0246638 34.9404328,17.098844 C34.3578275,17.3932189 34.1296799,18.1058282 34.4246134,18.6899416 C34.7217812,19.2699216 35.4299289,19.5014207 36.0130928,19.205761 C36.5962567,18.9088167 36.8266386,18.1968567 36.5289122,17.6155361 C36.3089687,17.178624 35.85222,16.9394106 35.3925385,16.9722894 Z M30.1933237,17.0019632 C29.9876733,17.0014297 29.7828885,17.0794209 29.6260099,17.2367468 C29.3109338,17.5520687 29.3100664,18.0619809 29.6286464,18.3757387 C29.9391644,18.6873181 30.4473245,18.6914516 30.7615291,18.3757387 C31.0770297,18.0598025 31.0770324,17.5503299 30.7632719,17.2393651 C30.6053038,17.0820337 30.3989898,17.002512 30.1933394,17.0019632 L30.1933237,17.0019632 Z M9.1782675,17.8101703 C8.62771835,17.856806 8.13272035,18.2265471 7.95286948,18.7850773 C7.70954938,19.5293374 8.11673764,20.3281366 8.86144462,20.5716801 C9.60592816,20.8140506 10.4075899,20.4066948 10.6497928,19.663105 C10.8898173,18.9170574 10.4850032,18.114795 9.73772677,17.8765022 C9.55170331,17.8154072 9.36178403,17.7946251 9.1782675,17.8101703 L9.1782675,17.8101703 Z M38.8217334,17.8101703 C38.6384037,17.7946238 38.4492959,17.8154076 38.2631473,17.8765022 C37.5174349,18.114795 37.1106443,18.9170574 37.351954,19.663105 C37.5921455,20.4066948 38.393961,20.8140506 39.1385563,20.5716801 C39.8820344,20.3281366 40.2933633,19.5293374 40.0514955,18.7850773 C39.8671621,18.2265471 39.3717226,17.856806 38.8217334,17.8101703 Z M42.3993026,19.3969038 C42.2864173,19.3917202 42.1713297,19.3978869 42.0554231,19.4161058 C41.1231429,19.5634049 40.4920457,20.4366216 40.6406291,21.3650475 C40.7875373,22.29325 41.658024,22.9267354 42.5869527,22.7780956 C43.5147642,22.6310757 44.1492134,21.76024 44.0017467,20.8300266 C43.8732021,20.0190226 43.1895026,19.4331887 42.3993026,19.3969043 L42.3993026,19.3969038 Z M11.2232163,20.8029696 C10.6743452,20.8273105 10.1999358,21.237529 10.1121537,21.798824 C10.0098208,22.4447171 10.4499446,23.0493169 11.0914249,23.1516498 C11.7383793,23.2552676 12.3443545,22.8125809 12.4451234,22.16976 C12.5476798,21.5256544 12.1086454,20.9190438 11.4623613,20.8169342 C11.3818132,20.803984 11.3016266,20.799493 11.2232163,20.8029696 L11.2232163,20.8029696 Z M45.9856,21.98211 C44.869545,21.98211 43.9659623,22.8859023 43.9659623,24.0000022 C43.9659623,25.1137112 44.869545,26.0170218 45.9856,26.0170218 C47.0943889,26.0170218 48,25.1141232 48,23.9991295 C48,22.8863143 47.0943889,21.98211 45.9856,21.98211 Z M13.3536985,23.0216038 C12.8136575,23.0216038 12.3744274,23.461267 12.3744274,23.9991295 C12.3744274,24.536992 12.8136575,24.9779931 13.3536985,24.9749258 C13.8915611,24.9749258 14.3294787,24.536992 14.3294787,23.9991295 C14.3294787,23.461267 13.8915611,23.0216038 13.3536985,23.0216038 Z M15.3864286,24.5681893 C15.3330063,24.5658656 15.2781255,24.5692171 15.2232165,24.577788 C14.7870725,24.6471644 14.4834742,25.0552044 14.5555318,25.495091 C14.6257461,25.9347541 15.0368655,26.2315519 15.4771989,26.1645216 C15.912896,26.0944749 16.2123259,25.6824828 16.1440108,25.2419818 C16.0829153,24.8578144 15.7603841,24.5844969 15.3864286,24.5681875 L15.3864286,24.5681893 Z M31.8629724,27.1717242 C31.5506978,27.1495595 31.2384245,27.3133397 31.0870615,27.6098649 C30.886976,28.0035005 31.0434292,28.4880949 31.4387964,28.6912527 C31.8355043,28.8930698 32.3197216,28.7364704 32.5219297,28.3386454 C32.7230207,27.9465738 32.5642437,27.4619025 32.169322,27.2581303 C32.0711508,27.2075086 31.9670643,27.1791123 31.8629724,27.1717242 L31.8629724,27.1717242 Z M32.6493571,29.2821322 C32.3363362,29.2718006 32.0233916,29.4113399 31.8236971,29.682743 C31.5062526,30.1182726 31.6042076,30.7313838 32.041022,31.0486607 C32.4780039,31.3657142 33.0892088,31.2701611 33.4025756,30.8313359 C33.7192939,30.3958063 33.6261146,29.7853342 33.1887417,29.4671636 C33.0255648,29.3482058 32.8371698,29.2883307 32.6493571,29.2821322 Z M22.5939347,31.8455186 C22.2178548,31.8614272 21.8963442,32.1391535 21.8337339,32.5254225 C21.7671504,32.9617899 22.0665105,33.371129 22.5057827,33.4444713 C22.9449989,33.5142946 23.3552455,33.214278 23.426577,32.774168 C23.4935514,32.3373537 23.1920615,31.9280146 22.7571464,31.8551192 C22.7017838,31.8462846 22.6476604,31.8432458 22.5939347,31.8455204 L22.5939347,31.8455186 Z M33.1084451,31.9249424 C32.8056218,31.9249424 32.5030424,32.0406886 32.2731842,32.2714405 C31.8092785,32.7324416 31.8092785,33.4806815 32.2731842,33.9419619 C32.7329006,34.4049739 33.4842337,34.4049739 33.9428329,33.9419619 C34.4047612,33.4806815 34.4039806,32.7324416 33.9437266,32.2714405 C33.7135892,32.0406886 33.4112895,31.9249424 33.1084661,31.9249424 L33.1084451,31.9249424 Z M20.6266642,33.1529591 C20.2477882,33.185433 19.9067236,33.438641 19.7826755,33.8223897 C19.6146528,34.3384115 19.8917535,34.8900573 20.4093393,35.0565159 C20.9222889,35.2223601 21.4717629,34.9397714 21.6408469,34.4281066 C21.8075849,33.9142632 21.5247379,33.362869 21.0115649,33.1974712 C20.8836486,33.1558409 20.752956,33.1421341 20.6266642,33.1529586 L20.6266642,33.1529591 Z M18.2360904,34.2963151 C17.7758879,34.264145 17.3208471,34.5034107 17.0979713,34.9386891 C16.8044901,35.5219647 17.0362265,36.2308172 17.6155361,36.5280413 C18.1970243,36.8252091 18.909424,36.5941426 19.2083792,36.0104759 C19.5022514,35.430105 19.2690278,34.7191648 18.6899416,34.421997 C18.5438571,34.3480822 18.3894911,34.3070391 18.2360904,34.2963151 Z M6.14531975,34.9037775 C5.75690445,34.9170182 5.36783092,35.0425164 5.02989303,35.2878054 C4.12939657,35.9419656 3.92905967,37.2051173 4.58651555,38.1077924 C5.24067572,39.0061106 6.50034321,39.2088282 7.40039298,38.5520427 C8.30412942,37.8967653 8.5031675,36.6345006 7.84900733,35.7346743 C7.43893542,35.1714448 6.79267902,34.8817106 6.14531975,34.9037775 Z M14.9657431,35.085318 C14.510954,35.0700216 14.0562953,35.2743645 13.7682744,35.6709606 C13.3072175,36.3028332 13.4494755,37.1892043 14.0807336,37.6513226 C14.7156785,38.1114858 15.603139,37.9709804 16.064587,37.3379911 C16.5245826,36.7041072 16.3829462,35.8149851 15.7495096,35.3558832 C15.5118031,35.1824212 15.2386169,35.0944971 14.9657431,35.085318 Z M33.0351305,35.085318 C32.7619953,35.0944966 32.4882398,35.1824212 32.2504918,35.3558832 C31.6186192,35.8149851 31.4785396,36.7041076 31.9380325,37.3379911 C32.3986985,37.9709809 33.2835967,38.1108714 33.9192677,37.6513226 C34.5532629,37.1909359 34.693119,36.3028332 34.2317269,35.6709606 C33.9444041,35.2743645 33.4903563,35.0700194 33.0351305,35.085318 Z M10.8845737,35.4117418 C10.4489883,35.4117418 10.0138636,35.5777813 9.68186817,35.9109779 C9.0163687,36.5758071 9.0163687,37.6543671 9.68186817,38.318135 C10.3463063,38.9827407 11.4228899,38.9827407 12.089898,38.318135 C12.7532185,37.6532499 12.7532185,36.5758071 12.089898,35.9109779 C11.7563939,35.5777813 11.3201592,35.4117418 10.8845737,35.4117418 Z M32.2984953,38.8278448 C32.0775772,38.8434405 31.8554387,38.9019763 31.6456476,39.0085125 C30.8095001,39.4359426 30.476513,40.4588603 30.9037755,41.2995882 C31.3314291,42.1367971 32.356658,42.4672007 33.1939785,42.0397148 C34.0290647,41.6146866 34.3634134,40.590435 33.9349778,39.7530028 C33.6178408,39.1254313 32.9612497,38.7810621 32.2984953,38.8278448 Z M30.9666165,42.8967954 C30.7055865,42.8742599 30.4354708,42.9025288 30.1706313,42.9884384 C29.1123899,43.3336446 28.5306922,44.4691241 28.8736641,45.5282565 C29.2164684,46.5884529 30.3580508,47.1686854 31.4152308,46.8234792 C32.4749804,46.4787198 33.0557982,45.3412509 32.7139435,44.282787 C32.4542009,43.4884355 31.7497064,42.9643991 30.9666165,42.8967954 Z" id="Shape" fill="#C53753"></path>
                <path d="M17.3790098,1.08226055 C17.1176393,1.0604408 16.8482971,1.08952217 16.5830246,1.17652196 C15.5269059,1.51781806 14.9437281,2.65719404 15.2895488,3.71459751 C15.633191,4.7753525 16.7731043,5.35645676 17.8284969,5.01069197 C18.8889726,4.66604435 19.4693507,3.52764572 19.1245913,2.46912507 C18.8684935,1.67188307 18.1631208,1.14771987 17.3790098,1.08226055 Z M15.4579974,5.77525646 C15.2374309,5.79115159 15.0161419,5.85070044 14.8068956,5.95766968 C13.9696309,6.38275369 13.6371256,7.40650258 14.0658958,8.24438171 C14.4907005,9.08393661 15.5143028,9.41699334 16.3517351,8.98799922 C17.1852573,8.56179804 17.5230553,7.53853847 17.0979713,6.69954216 C16.7772311,6.07238941 16.1196967,5.727576 15.4579974,5.77525646 Z M41.7141619,9.06131387 C41.3259656,9.07419263 40.93661,9.19921493 40.5987352,9.44534181 C39.6960605,10.1016805 39.4997523,11.3625836 40.1527395,12.2635829 C40.8068438,13.1651409 42.0691085,13.3648703 42.9701079,12.7113245 C43.8733416,12.0549863 44.0729315,10.7926515 43.4143585,9.89221068 C43.0065907,9.33013321 42.3611565,9.03984853 41.7141619,9.06131387 Z M37.1163003,9.18173788 C36.6810219,9.18173788 36.2450455,9.34779838 35.9118489,9.68099498 C35.24769,10.3445953 35.24769,11.422876 35.9118489,12.088152 C36.5782421,12.7511937 37.6537299,12.7514382 38.3190059,12.0872583 C38.9859577,11.4230994 38.9859577,10.34625 38.3190059,9.68097398 C37.9863679,9.34777738 37.5515783,9.18173788 37.1163003,9.18173788 L37.1163003,9.18173788 Z M33.134629,10.0763694 C32.679565,10.061006 32.2259488,10.2654159 31.9380325,10.662012 C31.4785396,11.2965658 31.6189333,12.1822738 32.2513645,12.6397558 C32.8848011,13.1028237 33.7720106,12.9627236 34.2317269,12.3281698 C34.693119,11.693616 34.5532629,10.8088853 33.9192677,10.3469346 C33.6808909,10.1743315 33.4076672,10.085586 33.134629,10.0763694 Z M14.8653724,10.0772631 C14.5920361,10.0865133 14.3188379,10.1747712 14.0807336,10.3469556 C13.4494755,10.8089063 13.3072175,11.693881 13.7682744,12.327318 C14.229108,12.962989 15.1156261,13.1001219 15.7495096,12.6415223 C16.3829462,12.1818059 16.5245826,11.2965868 16.064587,10.662033 C15.7761819,10.2654369 15.3209333,10.0618475 14.8653724,10.0772631 Z M29.9323595,11.3436828 C29.4735369,11.3105072 29.0172627,11.5482299 28.7968585,11.9851836 C28.4961716,12.5689061 28.7300798,13.2807195 29.3100597,13.5745358 C29.8943966,13.8728207 30.6053091,13.6405186 30.9020301,13.0595891 C31.1970752,12.4769838 30.9644661,11.7640537 30.3835925,11.4702374 C30.2385974,11.3962247 30.0853003,11.354741 29.9323595,11.3436828 Z M27.2075068,12.8989956 C26.8278926,12.9310987 26.4861903,13.1851316 26.3626453,13.5692989 C26.1952929,14.0831981 26.4776091,14.6352211 26.988436,14.8016797 C27.5016091,14.9664626 28.0537089,14.6877979 28.2199441,14.1750158 C28.385118,13.6622338 28.1060622,13.1097224 27.5932802,12.9443809 C27.4650847,12.9023485 27.3340449,12.8882953 27.2075068,12.8989956 Z M14.8924289,13.7106888 C14.5893191,13.711317 14.2861535,13.8273308 14.0562953,14.057189 C13.5937301,14.5163468 13.5959086,15.2673658 14.0562953,15.725965 C14.5181901,16.1894238 15.2677291,16.1894238 15.7285626,15.725965 C16.1911389,15.2673658 16.1911416,14.5159629 15.7303054,14.0545708 C15.4990226,13.8244333 15.1955361,13.7100626 14.8924263,13.7106888 L14.8924289,13.7106888 Z M25.3336247,14.5450791 C24.9589891,14.561649 24.6378848,14.8383717 24.5742971,15.2249829 C24.5095007,15.6602332 24.8071435,16.0711363 25.241109,16.1440318 C25.6842912,16.2110063 26.0969116,15.9139363 26.1653943,15.471983 C26.2337094,15.0362859 25.932143,14.6253059 25.4968369,14.5538069 C25.441746,14.5450796 25.3871444,14.5427111 25.3336247,14.5450796 L25.3336247,14.5450791 Z M15.4204671,16.7645861 C15.1067012,16.7537093 14.7944668,16.8936892 14.5991712,17.1678155 C14.2814475,17.6020045 14.3770144,18.212965 14.8112592,18.5302419 C15.2476267,18.8494738 15.8581894,18.7501921 16.1763042,18.3146625 C16.4946424,17.8776247 16.3951162,17.2677676 15.9615976,16.9504907 C15.7974573,16.831763 15.6087271,16.7711131 15.4204671,16.7645861 Z M16.2531098,19.2206194 C15.9415341,19.1982894 15.6316828,19.3614738 15.4798171,19.6596332 C15.2779441,20.0546095 15.4346413,20.537458 15.8306789,20.7392751 C16.2277777,20.9450583 16.7117438,20.7842065 16.9103212,20.3892861 C17.1132555,19.9915169 16.9565583,19.5092896 16.5594594,19.3070255 C16.4609945,19.2565714 16.3569684,19.2280625 16.2531098,19.2206194 Z M32.6868869,21.8267725 C32.6333936,21.8242701 32.579499,21.8262363 32.5245479,21.8346285 C32.0881246,21.9059599 31.7887855,22.316409 31.8586088,22.7562956 C31.9269238,23.1933333 32.3399701,23.4905293 32.7767844,23.4231079 C33.2135987,23.3530612 33.5134898,22.9439456 33.4453423,22.5040591 C33.3852245,22.1185717 33.0613407,21.8444453 32.6868869,21.8267734 L32.6868869,21.8267725 Z M2.01789226,21.9821082 C0.903736438,21.9821082 0,22.8863125 0,23.9991277 C0,25.1141214 0.902898559,26.01702 2.01789226,26.01702 C3.13221565,26.01702 4.03316613,25.1141214 4.03316613,23.9991277 C4.03316613,22.8863125 3.13221565,21.9821082 2.01789226,21.9821082 Z M34.6489206,23.0216021 C34.1093264,23.0216021 33.6722676,23.4612652 33.6722676,23.9991277 C33.6722676,24.5369903 34.1093264,24.9779913 34.6489206,24.974924 C35.1896319,24.974924 35.6255735,24.5369903 35.6255735,23.9991277 C35.6255735,23.4612652 35.1896319,23.0216021 34.6489206,23.0216021 Z M36.6668128,24.8335159 C36.1186044,24.8574994 35.6433437,25.2668809 35.5548775,25.8319885 C35.4520976,26.4748094 35.8921589,27.0798837 36.5367673,27.181323 C37.1830514,27.2841028 37.7859401,26.8435947 37.8887199,26.1994332 C37.9909411,25.5535959 37.5522419,24.9483054 36.9059578,24.8474806 C36.8255911,24.8345303 36.7451284,24.8300884 36.6668128,24.8335159 Z M5.7586736,25.2000878 C5.64568549,25.194989 5.52997416,25.2009815 5.41392097,25.2192898 C4.48616533,25.3663096 3.85274282,26.2391563 3.9982545,27.1673588 C4.14622396,28.0958406 5.01808586,28.72964 5.94545094,28.5812796 C6.8775631,28.4348742 7.50880739,27.5622863 7.36111723,26.6340833 C7.23301244,25.8211243 6.54958816,25.2357832 5.7586736,25.2000883 L5.7586736,25.2000878 Z M9.42090345,27.361118 C9.23728234,27.3450799 9.0475655,27.3644695 8.86144462,27.4248316 C8.11673764,27.6685428 7.70954938,28.4684309 7.95286948,29.2149253 C8.19546342,29.9587386 8.99363424,30.3656686 9.73772677,30.1226277 C10.4850032,29.8823799 10.8893704,29.0820726 10.6497928,28.336025 C10.4678055,27.7788354 9.9717672,27.4092328 9.42090345,27.361118 Z M38.5790974,27.361118 C38.0280089,27.4093351 37.5320278,27.7798198 37.350208,28.3386436 C37.1111332,29.0825127 37.5174349,29.8823799 38.2631473,30.1226277 C39.0077426,30.3656686 39.8055782,29.9587386 40.0480046,29.2149253 C40.2932239,28.4684309 39.8820344,27.6685428 39.1385563,27.4248316 C38.9524077,27.3644485 38.7627936,27.3450454 38.5790974,27.361118 Z M12.4390143,28.666813 C12.2857878,28.6773591 12.1323921,28.7177627 11.9869085,28.7916221 C11.4054204,29.0876723 11.1721759,29.8021043 11.4693437,30.3835925 C11.7671818,30.9674825 12.4778776,31.197229 13.0586954,30.9002846 C13.6441495,30.604625 13.8736725,29.8915617 13.5753875,29.3118052 C13.3544806,28.8751861 12.8986931,28.6351805 12.4390143,28.666813 Z M15.351517,29.2821304 C15.1635152,29.2883285 14.9748973,29.348204 14.8112592,29.4671618 C14.3763441,29.7853325 14.2809935,30.3958045 14.5948071,30.8313341 C14.9133688,31.2701593 15.5238895,31.3657124 15.9615976,31.0486589 C16.3951162,30.731382 16.4950683,30.1182708 16.177177,29.6827412 C15.9780759,29.4113381 15.6648525,29.2717992 15.351517,29.2821304 Z M17.8075499,29.3886076 C17.6019553,29.3885272 17.3959278,29.4659472 17.2384905,29.6225185 C16.9242859,29.9390692 16.9242859,30.4466215 17.2384905,30.7597649 C17.5548737,31.0742042 18.0617209,31.0724757 18.3748642,30.7615077 C18.6901302,30.4451245 18.6901302,29.936888 18.3748642,29.6225153 C18.2182925,29.4662788 18.0131444,29.3886912 17.8075499,29.3886076 L17.8075499,29.3886076 Z M40.6493574,30.7213623 C39.9886108,30.6751087 39.3310942,31.0200245 39.0085107,31.6482662 C38.581751,32.4846372 38.9163092,33.5097195 39.7547469,33.937596 C40.5920674,34.3632949 41.6138957,34.0303146 42.0423312,33.1931058 C42.4702082,32.3545563 42.1365928,31.3290691 41.2987137,30.9020301 C41.0899419,30.7956051 40.8696061,30.7367802 40.6493574,30.7213623 Z M27.9179582,31.0006554 C27.8133403,31.008203 27.7079508,31.0364406 27.6081176,31.0870615 C27.2182245,31.2902193 27.0591182,31.7726562 27.259874,32.1675766 C27.4606299,32.5642844 27.9467325,32.7230833 28.3412618,32.5193111 C28.734006,32.3159299 28.8944435,31.8335139 28.6921236,31.4379233 C28.5407611,31.1405602 28.231812,30.9780089 27.9179582,31.0006554 Z M27.3733367,33.1529573 C27.2467571,33.1421341 27.1167294,33.1558619 26.988436,33.1974699 C26.4782794,33.3628677 26.1952929,33.9142619 26.3626453,34.4281052 C26.5273724,34.9397701 27.0804982,35.2201803 27.5932802,35.0565146 C28.1060622,34.8882684 28.385118,34.3362317 28.2199441,33.8223883 C28.0952677,33.4386397 27.7530769,33.1854335 27.3733367,33.1529577 L27.3733367,33.1529573 Z M41.8555539,34.9046484 C41.2084779,34.8829351 40.5622528,35.1725253 40.1527395,35.7346725 C39.4958422,36.6344988 39.6960605,37.8978807 40.5987352,38.5520409 C41.5025275,39.2088264 42.76193,39.0061088 43.4143585,38.1077907 C44.0729315,37.2051155 43.8722244,35.9419638 42.9701079,35.2878036 C42.632233,35.0425146 42.2437998,34.9176755 41.8555539,34.9046484 Z M26.0676417,35.5409128 C25.9891666,35.5374719 25.9090381,35.54203 25.8284972,35.5548775 C25.1870169,35.6554788 24.7471514,36.2611676 24.8500988,36.9042119 C24.951147,37.5487644 25.5535401,37.9917442 26.1994332,37.8878472 C26.8437622,37.7855142 27.2841238,37.1806352 27.1804502,36.5350214 C27.0932058,35.9713803 26.61697,35.5648914 26.0676417,35.5409128 Z M24.0008732,38.0370947 C23.2164507,38.0370947 22.5825882,38.6722978 22.5825882,39.4553796 C22.5825882,40.2385173 23.2164507,40.8745373 24.0008732,40.8745373 C24.7844578,40.8745373 25.4174127,40.2385173 25.4174127,39.4553796 C25.4174127,38.6722978 24.7844578,38.0370947 24.0008732,38.0370947 Z M21.0229113,40.6170639 C20.2319525,40.652885 19.5467358,41.2399853 19.417849,42.0536777 C19.2701589,42.9781935 19.9038051,43.8525202 20.8335158,43.9982553 C21.7587019,44.1468392 22.6321,43.5136193 22.7772206,42.5834617 C22.9262514,41.6556502 22.2939109,40.7849052 21.3676635,40.6362655 C21.2516662,40.617917 21.1359052,40.6119469 21.0229113,40.6170635 L21.0229113,40.6170639 Z M17.0342576,42.8967937 C16.2521262,42.9643973 15.5472804,43.4884337 15.2895488,44.2827852 C14.9437281,45.3412509 15.524113,46.4787198 16.5830246,46.8234792 C17.6441147,47.1686854 18.7831276,46.5884529 19.1245913,45.5282565 C19.4693507,44.4691223 18.8889726,43.3336428 17.8284969,42.9884366 C17.5642159,42.9025261 17.2949681,42.874259 17.0342576,42.8967937 Z" id="Shape" fill="#65CBB8"></path>
            </g>
        </g>
    </g>
</svg>