<?xml version="1.0" encoding="UTF-8"?>
<svg width="48px" height="48px" viewBox="0 0 48 48" version="1.1" xmlns="http://www.w3.org/2000/svg" xmlns:xlink="http://www.w3.org/1999/xlink">
    <title>A4B8C6B8-92DA-461C-923C-0551251DAC94</title>
    <g id="UI-kit" stroke="none" stroke-width="1" fill="none" fill-rule="evenodd">
        <g id="Connectors" transform="translate(-721.000000, -1736.000000)" fill-rule="nonzero">
            <g id="Connector/Ably-Copy-106" transform="translate(721.000000, 1736.000000)">
                <g id="10184-icon-service-IoT-Central-Applications" transform="translate(3.000000, 0.000000)">
                    <polygon id="Path" fill="#A3A3A3" points="21 0 0 11.9733333 0 19.9733333 8.15923567 24.9066667 8.15923567 20.1066667 3.87898089 17.6533333 3.87898089 14.3466667 21 4.48 38.1210191 14.3733333 38.1210191 33.52 21 43.3866667 0 31.4133333 0 35.8933333 21 48 42 36.0266667 42 12.0266667"></polygon>
                    <polygon id="Path" fill="#949494" points="21 0 21 0 0 11.9733333 3.87898089 14.3466667 21 4.48 21 4.48 38.1210191 14.3466667 42 11.9733333"></polygon>
                    <polygon id="Path" fill="#32BEDD" points="32.3694268 17.44 32.3694268 30.56 21 37.1466667 21 24.0266667"></polygon>
                    <polygon id="Path" fill="#9CEBFF" points="32.3694268 17.44 21 24.0266667 9.63057325 17.44 21 10.8533333"></polygon>
                    <polygon id="Path" fill="#50E6FF" points="21 24.0266667 21 37.1466667 9.63057325 30.56 9.63057325 17.44"></polygon>
                    <polygon id="Path" fill="#9CEBFF" points="9.63057325 30.56 21 24.0266667 21 37.1466667"></polygon>
                    <polygon id="Path" fill="#50E6FF" points="32.3694268 30.56 21 24.0266667 21 37.1466667"></polygon>
                </g>
            </g>
        </g>
    </g>
</svg>