<?xml version="1.0" encoding="UTF-8"?>
<svg width="48px" height="48px" viewBox="0 0 48 48" version="1.1" xmlns="http://www.w3.org/2000/svg" xmlns:xlink="http://www.w3.org/1999/xlink">
    <title>F030AE2A-56C8-47DB-8CBC-20BFB579E9AC</title>
    <defs>
        <linearGradient x1="50%" y1="0%" x2="50%" y2="100%" id="linearGradient-1">
            <stop stop-color="#00B8F1" offset="0%"></stop>
            <stop stop-color="#01B6F0" offset="2%"></stop>
            <stop stop-color="#0D90D9" offset="31%"></stop>
            <stop stop-color="#1775C8" offset="58%"></stop>
            <stop stop-color="#1C65BF" offset="82%"></stop>
            <stop stop-color="#1E5FBB" offset="100%"></stop>
        </linearGradient>
    </defs>
    <g id="UI-kit" stroke="none" stroke-width="1" fill="none" fill-rule="evenodd">
        <g id="Connectors" transform="translate(-620.000000, -2616.000000)">
            <g id="Connector/saps4hana" transform="translate(620.000000, 2616.000000)">
                <g id="sap" transform="translate(0.000000, 12.000000)">
                    <polyline id="Path" fill="url(#linearGradient-1)" points="0 24 24.26 24 48 0 0 0 0 24"></polyline>
                    <path d="M28.4866667,4.5143178 L23.7666667,4.5143178 L23.7666667,15.8607524 L19.6333333,4.50758001 L15.5466667,4.50758001 L12.0333333,14.0078608 C11.66,11.6159461 9.20666667,10.7871982 7.28,10.1673217 C5.99333333,9.74957889 4.64,9.12296463 4.65333333,8.44918585 C4.65333333,7.89668725 5.38,7.38461538 6.79333333,7.46546884 C8.00714343,7.51393003 9.19254696,7.85095362 10.2533333,8.44918585 L11.8933333,5.5586749 C10.2280988,4.7470997 8.40846879,4.3103272 6.56,4.27849523 L6.56,4.27849523 C4.81652073,4.19520817 3.11315592,4.82409107 1.83333333,6.02358226 C1.12006002,6.76414965 0.714506321,7.75268428 0.7,8.78607524 C0.616687335,10.1094738 1.23308174,11.3784872 2.32,12.1212802 C3.30545271,12.7864826 4.39044782,13.2869917 5.53333333,13.6035935 C6.86666667,14.0145985 7.91333333,14.3717013 7.90666667,15.1330713 C7.88596521,15.4096982 7.76488176,15.6688457 7.56666667,15.8607524 C7.14384174,16.220039 6.59697086,16.3945774 6.04666667,16.3458731 C4.65697248,16.4013305 3.28602775,16.0071393 2.13333333,15.2206625 L0.7,18.1650758 C2.32674894,19.0973895 4.16325456,19.5915756 6.03333333,19.6002246 L6.28,19.6002246 C7.74775565,19.6316176 9.18223422,19.1562793 10.3466667,18.252667 L10.52,18.1044357 L10.0333333,19.3509264 L14.3266667,19.3509264 L15.0466667,17.1341943 C15.8591601,17.4072395 16.7104508,17.5438066 17.5666667,17.5384615 C18.4034325,17.5449537 19.2359459,17.4176075 20.0333333,17.1611454 L20.7,19.3509264 L27.7,19.3509264 L27.7,14.7692308 L29.2266667,14.7692308 C32.92,14.7692308 35.1002484,12.8691746 35.1002484,9.6889388 C35.1266667,6.13812465 33.0066667,4.5143178 28.4866667,4.5143178 Z M17.5666667,14.2302551 C17.0503272,14.2326409 16.5377504,14.1413554 16.0533333,13.9606962 L17.5533333,9.18360472 L17.5533333,9.18360472 L19.0266667,13.9741718 C18.5576268,14.141571 18.0640882,14.2281215 17.5666667,14.2302551 Z M28.7666667,11.4811903 L27.7266667,11.4811903 L27.7266667,7.63391353 L28.7666667,7.63391353 C30.1533333,7.63391353 31.26,8.09882089 31.26,9.53396968 C31.26,10.9691185 30.1533333,11.4811903 28.7666667,11.4811903" id="Shape" fill="#FFFFFF"></path>
                </g>
            </g>
        </g>
    </g>
</svg>