<?xml version="1.0" encoding="UTF-8"?>
<svg width="48px" height="48px" viewBox="0 0 48 48" version="1.1" xmlns="http://www.w3.org/2000/svg" xmlns:xlink="http://www.w3.org/1999/xlink">
    <title>99D8C6FA-4486-41D2-A3FE-6FAA692D0E03</title>
    <defs>
        <linearGradient x1="50.0002151%" y1="0%" x2="50.0002151%" y2="100.000566%" id="linearGradient-1">
            <stop stop-color="#F79810" offset="0%"></stop>
            <stop stop-color="#F8310E" offset="100%"></stop>
        </linearGradient>
    </defs>
    <g id="UI-kit" stroke="none" stroke-width="1" fill="none" fill-rule="evenodd">
        <g id="Connectors" transform="translate(-920.000000, -736.000000)" fill="url(#linearGradient-1)" fill-rule="nonzero">
            <g id="Connector/Ably-Copy-38" transform="translate(920.000000, 736.000000)">
                <path d="M0.543571544,25.5595424 C0.443426359,25.5595424 0.363929666,25.6375455 0.351024359,25.74883 L0,28.4347374 L0.351024359,31.074363 C0.363929666,31.1856474 0.443426359,31.2631305 0.543571544,31.2631305 C0.640619455,31.2631305 0.719599935,31.1861674 0.735086304,31.075403 L1.15115341,28.4347374 L0.735086304,25.7483099 C0.720116148,25.6375455 0.640103242,25.5595424 0.543571544,25.5595424 Z M2.51756735,24.0920437 C2.50104856,23.9765991 2.4189708,23.8970359 2.31779319,23.8970359 C2.21609937,23.8970359 2.13195677,23.9791992 2.11801904,24.0920437 C2.11801904,24.0930837 1.646201,28.4347374 1.646201,28.4347374 L2.11801904,32.6812272 C2.13144055,32.7951118 2.21558316,32.8772751 2.31779319,32.8772751 C2.41845459,32.8772751 2.50053234,32.7971919 2.51705114,32.6822673 L3.05391192,28.4347374 L2.51756735,24.0920437 Z M9.95308921,20.0863235 C9.7595096,20.0863235 9.59948379,20.2459698 9.59019197,20.448778 L9.21438942,28.4383775 L9.59019197,33.6016641 C9.6,33.8034321 9.7595096,33.9625585 9.95308921,33.9625585 C10.1456364,33.9625585 10.305146,33.8029121 10.3165027,33.600624 L10.7413454,28.4383775 L10.3165027,20.448778 C10.305146,20.2459698 10.1456364,20.0863235 9.95308921,20.0863235 Z M6.10472657,22.8632345 C5.95605743,22.8632345 5.83474754,22.9828393 5.82287466,23.1424857 L5.39958058,28.4362975 L5.82287466,33.5579823 C5.83423133,33.7165887 5.95605743,33.8361934 6.10472657,33.8361934 C6.25184707,33.8361934 6.37315696,33.7165887 6.38606227,33.5579823 L6.86717212,28.4362975 L6.38606227,23.1414457 C6.37315696,22.9828393 6.25184707,22.8632345 6.10472657,22.8632345 Z M13.8639135,33.9620385 C14.1039523,33.9620385 14.2990805,33.7670307 14.3088885,33.5174207 L14.6774641,28.4409776 L14.3094047,17.8039522 C14.2995967,17.5543422 14.1044685,17.3593344 13.8644297,17.3593344 C13.6223262,17.3593344 13.4266817,17.5548622 13.4189385,17.8044722 C13.4189385,17.8049922 13.0921762,28.4404576 13.0921762,28.4404576 L13.4189385,33.5189808 C13.4266817,33.7665107 13.6223262,33.9620385 13.8639135,33.9620385 Z M21.8703662,33.9859594 C22.2007421,33.9859594 22.4733021,33.7119085 22.4794967,33.374935 L22.4794967,33.3785751 L22.4794967,33.374935 L22.7365704,28.4440978 L22.4794967,16.1591264 C22.4738184,15.8226729 22.2007421,15.5481019 21.8703662,15.5481019 C21.5394741,15.5481019 21.2663978,15.8221529 21.2612357,16.1596464 L21.0315212,28.4399376 C21.0315212,28.4477379 21.2612357,33.3780551 21.2612357,33.3780551 C21.2663978,33.7119085 21.5399903,33.9859594 21.8703662,33.9859594 Z M17.8366833,33.9667187 C18.1242136,33.9667187 18.3559929,33.7342694 18.3637361,33.4378575 L18.6765607,28.4420177 L18.3632199,17.7280291 C18.3554767,17.4316173 18.1236974,17.199688 17.8361671,17.199688 C17.546572,17.199688 17.3147927,17.4316173 17.3085982,17.7280291 L17.0303597,28.4425377 L17.3091144,33.4409776 C17.3153089,33.7342694 17.5470882,33.9667187 17.8366833,33.9667187 Z M8.02142281,33.9199168 C8.19228908,33.9199168 8.33063397,33.7821113 8.34353928,33.600624 L8.79677367,28.4362975 L8.34353928,23.5236609 C8.33115019,23.3421737 8.19280529,23.2054082 8.02142281,23.2054082 C7.84797548,23.2054082 7.70963059,23.3432137 7.69879013,23.525741 L7.29975803,28.4362975 L7.69879013,33.600104 C7.7101468,33.7821113 7.84797548,33.9199168 8.02142281,33.9199168 Z M4.2035167,33.6370255 C4.32844007,33.6370255 4.42961768,33.5377015 4.44407162,33.400416 L4.95305694,28.4352574 L4.44458784,23.2828913 C4.42961768,23.1450858 4.32844007,23.0457618 4.2035167,23.0457618 C4.07704468,23.0457618 3.97586708,23.1456058 3.96296177,23.2828913 C3.96296177,23.2834113 3.5148895,28.4352574 3.5148895,28.4352574 L3.96296177,33.399376 C3.97535086,33.5371815 4.07652847,33.6370255 4.2035167,33.6370255 Z M19.8457816,17.549662 C19.5334731,17.549662 19.2831102,17.799792 19.2769156,18.1201248 L19.0229392,28.4430577 L19.2769156,33.4102964 C19.2831102,33.7264691 19.5329569,33.9765991 19.8457816,33.9765991 C20.1575738,33.9765991 20.4063881,33.7269891 20.4136151,33.4066563 L20.4136151,33.4108164 L20.6985643,28.4435777 L20.4136151,18.1190848 C20.4063881,17.799792 20.1575738,17.549662 19.8457816,17.549662 Z M11.9012744,33.9724389 C12.1170511,33.9724389 12.2951444,33.7951118 12.3054686,33.5689028 L12.7019197,28.4399376 L12.3054686,18.6229849 C12.2946282,18.3962559 12.1170511,18.2194488 11.9012744,18.2194488 C11.6834328,18.2194488 11.5058558,18.3967759 11.496564,18.6229849 C11.496564,18.6235049 11.1455396,28.4399376 11.1455396,28.4399376 L11.4970802,33.5709828 C11.5058558,33.7951118 11.6834328,33.9724389 11.9012744,33.9724389 Z M16.328311,33.4856994 L16.6690111,28.4414977 L16.328311,17.4461778 C16.3200516,17.1731669 16.1063397,16.9589184 15.8425553,16.9589184 C15.5772221,16.9589184 15.3635102,17.1726469 15.3562833,17.4461778 L15.0537829,28.4409776 L15.3567995,33.4877795 C15.3640265,33.7581903 15.5777383,33.9719189 15.8425553,33.9719189 C16.1068559,33.9719189 16.3195354,33.7581903 16.328311,33.4862194 L16.328311,33.4882995 L16.328311,33.4856994 Z M42.0965962,22.1034841 C41.2876916,22.1034841 40.5159542,22.2683307 39.812873,22.5652626 C39.3431199,17.2048882 34.8809808,13 29.4380384,13 C28.1062107,13 26.8079368,13.2641706 25.6614293,13.7108684 C25.2159381,13.8845554 25.0972092,14.0634425 25.0930795,14.4102964 L25.0930795,33.2870515 C25.0977254,33.651066 25.3780287,33.9542382 25.7306017,33.9901196 C25.7455719,33.9916797 41.9907727,34 42.09608,34 C45.3564769,34 48,31.3369735 48,28.0520021 C48,24.7670307 45.3569931,22.1034841 42.0965962,22.1034841 Z M23.8861752,14.3936557 C23.5315373,14.3936557 23.2403936,14.6869475 23.2352315,15.0473219 L22.9688659,28.4456578 L23.2357477,33.3083723 C23.2403936,33.6635465 23.5315373,33.9563183 23.8861752,33.9563183 C24.2397806,33.9563183 24.5309243,33.6635465 24.5360865,33.3031721 L24.5360865,33.3088924 L24.8256816,28.4456578 L24.5360865,15.0462819 C24.5309243,14.6869475 24.2397806,14.3936557 23.8861752,14.3936557 Z" id="Shape"></path>
            </g>
        </g>
    </g>
</svg>