<?xml version="1.0" encoding="UTF-8"?>
<svg width="20px" height="20px" viewBox="0 0 20 20" version="1.1" xmlns="http://www.w3.org/2000/svg" xmlns:xlink="http://www.w3.org/1999/xlink">
    <title>AEA1DF08-4218-4A40-BAAB-AF1E65F57833</title>
    <g id="Page-1" stroke="none" stroke-width="1" fill="none" fill-rule="evenodd">
        <g id="adding-new-API-Calls" transform="translate(-1178.000000, -634.000000)" fill="#000000" fill-rule="nonzero">
            <g id="Logo/Circle" transform="translate(1178.000000, 634.000000)">
                <path d="M5.64069642,5 C8.75597674,5 11.2812012,7.46257023 11.2812012,10.5000928 C11.2812012,13.5376154 8.7557851,16 5.64069642,16 C2.52560773,16 0,13.5376154 0,10.5000928 C0,7.46257023 2.5254161,5 5.64069642,5 Z M14.6484865,5.32218117 C16.2061267,5.32218117 17.4688347,7.64017816 17.4688347,10.5000928 L17.4690264,10.5000928 C17.4690264,13.3592651 16.2063183,15.6780044 14.6486782,15.6780044 C13.091038,15.6780044 11.82833,13.3592651 11.82833,10.5000928 C11.82833,7.64092052 13.0908464,5.32218117 14.6484865,5.32218117 Z M19.0080776,5.86150057 C19.5557813,5.86150057 20,7.93823286 20,10.5000928 C20,13.0612104 19.5559729,15.138685 19.0080776,15.138685 C18.4601822,15.138685 18.0163468,13.0617671 18.0163468,10.5000928 C18.0163468,7.93841845 18.4603739,5.86150057 19.0080776,5.86150057 Z" id="Combined-Shape"></path>
            </g>
        </g>
    </g>
</svg>