<?xml version="1.0" encoding="UTF-8"?>
<svg width="48px" height="48px" viewBox="0 0 48 48" version="1.1" xmlns="http://www.w3.org/2000/svg" xmlns:xlink="http://www.w3.org/1999/xlink">
    <title>169C04CC-C602-45F9-8C1D-7FD6D71D9196</title>
    <g id="UI-kit" stroke="none" stroke-width="1" fill="none" fill-rule="evenodd">
        <g id="Connectors" transform="translate(-720.000000, -600.000000)" fill="#000000" fill-rule="nonzero">
            <g id="Logo/Circle" transform="translate(720.000000, 600.000000)">
                <path d="M13.5376714,12 C21.0143442,12 27.0748829,17.9101685 27.0748829,25.2002227 C27.0748829,32.4902769 21.0138842,38.4 13.5376714,38.4 C6.06145856,38.4 0,32.4902769 0,25.2002227 C0,17.9101685 6.06099863,12 13.5376714,12 Z M35.1563677,12.7732348 C38.8947041,12.7732348 41.9252034,18.3364276 41.9252034,25.2002227 C41.9256633,32.0622362 38.895164,37.6272106 35.1568276,37.6272106 C31.4184912,37.6272106 28.3879919,32.0622362 28.3879919,25.2002227 C28.3879919,18.3382092 31.4180313,12.7732348 35.1563677,12.7732348 Z M45.6193862,14.0676014 C46.933875,14.0676014 48,19.0517589 48,25.2002227 C48,31.3469049 46.934335,36.3328441 45.6193862,36.3328441 C44.3044374,36.3328441 43.2392323,31.3482411 43.2392323,25.2002227 C43.2392323,19.0522043 44.3048973,14.0676014 45.6193862,14.0676014 Z" id="Combined-Shape"></path>
            </g>
        </g>
    </g>
</svg>