<?xml version="1.0" encoding="UTF-8"?>
<svg width="48px" height="48px" viewBox="0 0 48 48" version="1.1" xmlns="http://www.w3.org/2000/svg" xmlns:xlink="http://www.w3.org/1999/xlink">
    <title>50C470DA-F15F-46F1-968D-42745401FB6D</title>
    <defs>
        <linearGradient x1="50.0029099%" y1="-0.0113895065%" x2="50.0029099%" y2="100.016585%" id="linearGradient-1">
            <stop stop-color="#B3B2B3" offset="0%"></stop>
            <stop stop-color="#AFAEAF" offset="21.6%"></stop>
            <stop stop-color="#A2A2A2" offset="44%"></stop>
            <stop stop-color="#979797" offset="57.7%"></stop>
        </linearGradient>
    </defs>
    <g id="UI-kit" stroke="none" stroke-width="1" fill="none" fill-rule="evenodd">
        <g id="Connectors" transform="translate(-1020.000000, -888.000000)" fill-rule="nonzero">
            <g id="Connector/Ably-Copy-49" transform="translate(1020.000000, 888.000000)">
                <g id="10181-icon-service-Time-Series-Insights-Environments" transform="translate(0.500000, 0.000000)">
                    <path d="M0.336888492,17.5978416 C3.21616043,7.20008056 12.6899389,0 23.4919146,0 C34.2938903,0 43.7676688,7.20008056 46.6469408,17.5978416 L42.065256,17.5978416 C39.3313252,9.68078997 31.8692845,4.3677843 23.4838293,4.3677843 C15.0983741,4.3677843 7.63633345,9.68078997 4.90240258,17.5978416 L0.336888492,17.5978416 Z M41.9790125,30.6872743 C39.1605043,38.4593594 31.7700491,43.6362607 23.4932622,43.6362607 C15.2164753,43.6362607 7.8260201,38.4593594 5.00751182,30.6872743 L0.417741752,30.6872743 C3.39473716,40.9431779 12.7999767,48 23.4919146,48 C34.1838526,48 43.5890921,40.9431779 46.5660875,30.6872743 L41.9790125,30.6872743 Z" id="Shape" fill="url(#linearGradient-1)"></path>
                    <path d="M25.2208268,35.1473174 L19.4532943,22.1978499 L17.0276965,26.3833461 L2.18573304,26.3833461 C0.978585999,26.383346 0,25.4060204 0,24.2004281 C0,22.9948359 0.978585999,22.0175103 2.18573304,22.0175102 L14.510465,22.0175102 L19.96806,12.5967793 L26.2530535,26.7171091 L29.9642181,21.9717524 L44.8142669,22.004052 C46.0214139,22.004052 47,22.9813777 47,24.18697 C47,25.3925622 46.0214139,26.3698879 44.8142669,26.3698879 L44.8142669,26.3698879 L32.1041344,26.3402799 L25.2208268,35.1473174 Z" id="Path" fill="#50E6FF"></path>
                </g>
            </g>
        </g>
    </g>
</svg>