<?xml version="1.0" encoding="UTF-8"?>
<svg width="48px" height="48px" viewBox="0 0 48 48" version="1.1" xmlns="http://www.w3.org/2000/svg" xmlns:xlink="http://www.w3.org/1999/xlink">
    <title>C57AAA08-6A22-40CE-A156-037D46BD6A9F</title>
    <g id="UI-kit" stroke="none" stroke-width="1" fill="none" fill-rule="evenodd">
        <g id="Connectors" transform="translate(-120.000000, -2616.000000)">
            <g id="Connector/pushcut" transform="translate(120.000000, 2616.000000)">
                <rect id="Rectangle" fill="#26282A" x="1" y="1" width="46" height="46" rx="6"></rect>
                <path d="M8.0969163,34.4537445 L8.0969163,28.0220264 L13.69163,28.0220264 C15.9676946,28.0220264 17.7885463,27.287812 19.1395007,25.8193833 C20.4904552,24.3509545 21.1659325,22.6475771 21.1659325,20.7239354 C21.1659325,18.8443465 20.4904552,17.1556535 19.1395007,15.6578561 C17.7885463,14.1600587 16.0264317,13.4111601 13.8384728,13.4111601 L13.8678414,13.3964758 L4,13.3964758 L4,34.4537445 L8.0969163,34.4537445 Z M13.5301028,24.3656388 L8.06754772,24.3656388 L8.06754772,17.1409692 L13.7209985,17.1409692 C14.7048458,17.1409692 15.5124816,17.5080764 16.1585903,18.2276065 C16.804699,18.9471366 17.1277533,19.784141 17.1277533,20.7386197 C17.1277533,21.6930984 16.7900147,22.5301028 16.1145374,23.2496329 C15.4390602,23.969163 14.5726872,24.3362702 13.5007342,24.3362702 L13.5301028,24.3656388 Z M33.8678414,34.8942731 L33.9118943,34.8795888 C36.5110132,34.8795888 38.7136564,34.2187959 40.5051395,32.8825257 C42.2966226,31.5462555 43.4566814,29.9603524 43.9706314,28.1248164 L39.9765051,27.0969163 C39.6093979,28.1982379 38.8751836,29.123348 37.773862,29.8722467 C36.6725404,30.6211454 35.3509545,31.0029369 33.8237885,31.0029369 C31.8120411,31.0029369 30.1820852,30.3127753 28.9192364,28.917768 C27.6563877,27.5227606 27.0249633,25.8487518 27.0249633,23.8810573 C27.0249633,21.928047 27.6563877,20.2687225 28.9045521,18.9030837 C30.1527166,17.5374449 31.7973568,16.8619677 33.8237885,16.8619677 C35.3509545,16.8619677 36.6578561,17.2437592 37.7591777,18.0073421 C38.8604993,18.7709251 39.5947137,19.7107195 39.9618209,20.8120411 L44,19.8281938 C43.4566814,17.9779736 42.2819383,16.3773862 40.4904552,15.0264317 C38.6989721,13.6754772 36.4669604,13 33.8091043,13 C30.681351,13 28.0675477,14.0425844 25.9676946,16.1277533 C23.8678414,18.2129222 22.825257,20.8120411 22.825257,23.9104258 C22.825257,27.0381791 23.8678414,29.6519824 25.9676946,31.7518355 C28.0675477,33.8516887 30.6960352,34.8942731 33.8678414,34.8942731 Z" id="PC" fill="#EDF0F6" fill-rule="nonzero"></path>
            </g>
        </g>
    </g>
</svg>