<?xml version="1.0" encoding="UTF-8"?>
<svg width="49px" height="48px" viewBox="0 0 49 48" version="1.1" xmlns="http://www.w3.org/2000/svg" xmlns:xlink="http://www.w3.org/1999/xlink">
    <title>E739AB67-8CEB-430A-953C-86AAA369D37B</title>
    <g id="UI-kit" stroke="none" stroke-width="1" fill="none" fill-rule="evenodd">
        <g id="Connectors" transform="translate(-320.000000, -1024.000000)" fill-rule="nonzero">
            <g id="Connector/Ably-Copy-52" transform="translate(320.000000, 1024.000000)">
                <g id="YNAB_logo" transform="translate(1.000000, 18.000000)">
                    <path d="M7.61697391,7.53706057 L7.61697391,11.811097 L4.07624348,11.811097 L4.07624348,7.53748412 L0,0 L4.05662609,0 L5.91276522,3.61160525 C6.53634783,2.44091487 7.15533913,1.13595934 7.73968696,0 L11.6243478,0 L7.61697391,7.53706057 Z M18.6962087,11.811097 L15.3762783,6.29648454 L15.3762783,11.811097 L12.0221217,11.811097 L12.0221217,0 L15.0473739,0 L18.366887,5.42481999 L18.366887,0 L21.7018435,0 L21.7018435,11.811097 L18.6962087,11.811097 Z M30.1289739,9.71410419 L26.7059478,9.71410419 L26.0185043,11.806438 L22.2369391,11.806438 L26.4997565,0 L30.576,0 L34.7353043,11.811097 L30.7968,11.811097 L30.1289739,9.71410419 Z M28.4297739,4.30919102 L27.5353043,7.01397713 L29.3229913,7.01397713 L28.4297739,4.30919102 Z M40.0048696,11.811097 L35.2612174,11.811097 L35.2612174,0 L39.7648696,0 C42.4311652,0 43.9784348,1.15078357 43.9784348,3.24311732 C43.9784348,4.2892842 43.4429217,5.14612452 42.5689043,5.78864888 C43.4821565,6.31173232 44.046887,7.3578992 44.046887,8.42397289 C44.0422957,10.6056756 42.5296696,11.811097 40.005287,11.811097 L40.0048696,11.811097 Z M39.504,2.75476493 L38.6441739,2.75476493 L38.6441739,4.67259636 L39.5582609,4.67259636 C40.0048696,4.67259636 40.4026435,4.30410843 40.4026435,3.66158407 C40.3976348,3.15840745 40.0737391,2.75518848 39.504,2.75518848 L39.504,2.75476493 Z M39.4351304,7.098687 L38.6445913,7.098687 L38.6445913,9.07157984 L39.3862957,9.07157984 C40.1275826,9.07157984 40.5207652,8.70309191 40.5207652,8.11012283 C40.5207652,7.4824227 40.2110609,7.098687 39.4355478,7.098687 L39.4351304,7.098687 Z" id="Shape" fill="#25384F"></path>
                    <path d="M44.1499826,10.0478611 C44.1499826,8.96696315 45.0093913,8.0952986 46.0749913,8.0952986 C47.1405913,8.0952986 48,8.9665396 48,10.0474375 C48,11.1283355 47.1405913,12 46.0749913,12 C45.0093913,12 44.1499826,11.1283355 44.1499826,10.0474375 L44.1499826,10.0478611 Z" id="Path" fill="#85C3E9"></path>
                </g>
            </g>
        </g>
    </g>
</svg>