<?xml version="1.0" encoding="UTF-8"?>
<svg width="48px" height="48px" viewBox="0 0 48 48" version="1.1" xmlns="http://www.w3.org/2000/svg" xmlns:xlink="http://www.w3.org/1999/xlink">
    <title>7123C076-7CFC-4511-8D2C-C70D86659395</title>
    <defs>
        <linearGradient x1="100%" y1="100%" x2="0%" y2="5.55111512e-15%" id="linearGradient-1">
            <stop stop-color="#89C249" offset="0%"></stop>
            <stop stop-color="#79A74B" offset="100%"></stop>
        </linearGradient>
    </defs>
    <g id="UI-kit" stroke="none" stroke-width="1" fill="none" fill-rule="evenodd">
        <g id="Connectors" transform="translate(-320.000000, -1312.000000)" fill-rule="nonzero">
            <g id="Connector/Ably-Copy-72" transform="translate(320.000000, 1312.000000)">
                <g id="cdnlogo_google-manufacturer-center" transform="translate(1.000000, 1.000000)">
                    <path d="M0,11.0207959 L46,11.0207959 L46,42.167041 C46,44.2839844 44.284209,46 42.167041,46 L3.83295898,46 C1.71601563,46 0,44.2833105 0,42.167041 L0,11.0207959 Z" id="Path" fill="#93C757"></path>
                    <path d="M12.0182861,36.9028711 L34.0667285,16.7444043 L46,29.791626 L46,42.1664795 C46,44.2836475 44.2834229,46 42.1667041,46 L21.2387256,46 L12.0182861,36.9028711 Z" id="Path" fill="url(#linearGradient-1)"></path>
                    <path d="M0,3.8332959 C0,1.71624023 1.71579102,3.5437111e-31 3.83295898,3.5437111e-31 L42.167041,3.5437111e-31 C44.2839844,3.5437111e-31 46,1.71601563 46,3.8332959 L46,11.0207959 L0,11.0207959 L0,3.8332959 Z" id="Path" fill="#18A15E"></path>
                    <g id="c-link" transform="translate(11.499999, 16.463193)" fill="#000000">
                        <path d="M0.00898510971,6.05760254 L23.0000004,6.05760254 L23.0000004,19.474082 C23.0000004,20.2680762 22.3562703,20.9118066 21.5633992,20.9118066 L1.43570386,20.9118066 C0.642271243,20.9118066 -0.00056078873,20.26875 3.67113325e-07,19.474082 L0.00898510971,6.05760254 Z M7.50689527,6.05760254 L7.34708497e-07,6.05760254 L5.65375562,0.479204102 C5.65375562,0.479204102 6.09836988,0 6.5685896,0 C7.50689527,0 7.50689527,0.923144531 7.50689527,0.923144531 L7.50689527,6.05760254 Z M15.1735994,6.05760254 L7.66670484,6.05760254 L13.3204597,0.479204102 C13.3204597,0.479204102 13.765074,0 14.2352937,0 C15.1735994,0 15.1735994,0.923144531 15.1735994,0.923144531 L15.1735994,6.05760254 Z M23.0000007,6.05760254 L15.3332966,6.05760254 L21.1074421,0.479204102 C21.1074421,0.479204102 21.56149,0 22.0417048,0 C23.0000007,0 23.0000007,0.923144531 23.0000007,0.923144531 L23.0000007,6.05760254 Z" id="c"></path>
                    </g>
                    <g id="Group" transform="translate(11.499999, 2.875000)" fill="#FFFFFF">
                        <path d="M0.00898510971,19.6457959 L23.0000004,19.6457959 L23.0000004,33.0622754 C23.0000004,33.8562695 22.3562703,34.5 21.5633992,34.5 L1.43570386,34.5 C0.642271243,34.5 -0.00056078873,33.8569434 3.67113325e-07,33.0622754 L0.00898510971,19.6457959 Z M7.50689527,19.6457959 L7.34708497e-07,19.6457959 L5.65375562,14.0673975 C5.65375562,14.0673975 6.09836988,13.5881934 6.5685896,13.5881934 C7.50689527,13.5881934 7.50689527,14.5113379 7.50689527,14.5113379 L7.50689527,19.6457959 Z M15.1735994,19.6457959 L7.66670484,19.6457959 L13.3204597,14.0673975 C13.3204597,14.0673975 13.765074,13.5881934 14.2352937,13.5881934 C15.1735994,13.5881934 15.1735994,14.5113379 15.1735994,14.5113379 L15.1735994,19.6457959 Z M23.0000007,19.6457959 L15.3332966,19.6457959 L21.1074421,14.0673975 C21.1074421,14.0673975 21.56149,13.5881934 22.0417048,13.5881934 C23.0000007,13.5881934 23.0000007,14.5113379 23.0000007,14.5113379 L23.0000007,19.6457959 Z" id="c"></path>
                        <path d="M9.58329663,2.3957959 L5.03057691,2.3957959 C4.10462476,2.3957959 3.35420484,3.14666504 3.35420484,4.0729541 C3.35420484,4.99935547 4.10473706,5.75 5.03057691,5.75 L17.9694246,5.75 C18.8953767,5.75 19.6457966,4.99913086 19.6457966,4.0729541 C19.6457966,3.14644043 18.8952644,2.3957959 17.9694246,2.3957959 L13.4165925,2.3957959 L13.4165925,1.9167041 C13.4165925,0.857670898 12.5585847,0 11.5000007,0 C10.4411921,0 9.58329663,0.858120117 9.58329663,1.9167041 L9.58329663,2.3957959 Z" id="Path"></path>
                    </g>
                </g>
            </g>
        </g>
    </g>
</svg>