<?xml version="1.0" encoding="UTF-8"?>
<svg width="48px" height="48px" viewBox="0 0 48 48" version="1.1" xmlns="http://www.w3.org/2000/svg" xmlns:xlink="http://www.w3.org/1999/xlink">
    <title>58156A70-FF63-4C63-9D48-22E550A33032</title>
    <g id="UI-kit" stroke="none" stroke-width="1" fill="none" fill-rule="evenodd">
        <g id="Connectors" transform="translate(-920.000000, -2472.000000)" fill-rule="nonzero">
            <g id="Connector/optitune" transform="translate(920.000000, 2472.000000)">
                <g id="logo" transform="translate(0.000000, 4.000000)">
                    <polygon id="path18" fill="#FCE077" points="10.6666651 24.671915 5.33333325 24.6719157 0 24.671915 2.66666663 20.0000032 5.33333255 15.3280908 7.99999918 20.0000025"></polygon>
                    <polygon id="path18-6" fill="#FFB54F" points="21.3333302 24.6719157 15.9999976 24.6719157 10.6666644 24.6719157 13.333331 20.0000032 15.9999976 15.3280901 18.6666636 20.0000025"></polygon>
                    <polygon id="path18-6-4" fill="#FFCC4D" transform="translate(10.666665, 20.000003) scale(-1, 1) rotate(-180.000000) translate(-10.666665, -20.000003) " points="15.9999991 24.6719157 10.6666658 24.671915 5.33333184 24.671915 7.99999918 20.0000025 10.6666658 15.3280893 13.3333324 20.0000025"></polygon>
                    <polygon id="path18-68" fill="#FF9F59" transform="translate(15.999997, 29.343829) scale(-1, 1) rotate(-180.000000) translate(-15.999997, -29.343829) " points="21.3333302 34.0157414 15.9999976 34.0157414 10.6666644 34.0157414 13.333331 29.3438289 15.9999976 24.6719164 18.6666636 29.3438289"></polygon>
                    <polygon id="path18-6-8" fill="#EA3087" transform="translate(26.666665, 29.343829) scale(-1, 1) rotate(-180.000000) translate(-26.666665, -29.343829) " points="31.9999988 34.0157419 26.6666649 34.0157411 21.3333316 34.0157419 23.9999982 29.3438287 26.6666649 24.6719157 29.3333315 29.3438287"></polygon>
                    <polygon id="path18-6-4-2" fill="#FF5257" points="26.6666649 34.0157419 21.3333316 34.0157416 15.9999976 34.0157419 18.666665 29.3438288 21.3333316 24.6719157 23.9999975 29.3438288"></polygon>
                    <polygon id="path18-5" fill="#D631AA" points="31.9999981 24.6719157 26.6666649 24.6719157 21.3333323 24.6719157 23.9999982 20.0000032 26.6666649 15.3280901 29.3333315 20.0000025"></polygon>
                    <polygon id="path18-9-46" fill="#4D80F6" points="37.3333328 15.3280901 31.9999988 15.3280893 26.6666656 15.3280893 29.3333322 10.6561769 31.9999988 5.98426374 34.6666654 10.6561769"></polygon>
                    <polygon id="path18-6-41" fill="#6874FF" points="42.666666 24.6719157 37.3333328 24.6719157 31.9999995 24.6719157 34.6666662 20.0000032 37.3333328 15.3280901 39.9999994 20.0000025"></polygon>
                    <polygon id="path18-6-4-4" fill="#4C5BF9" transform="translate(31.999999, 20.000003) scale(-1, 1) rotate(-180.000000) translate(-31.999999, -20.000003) " points="37.3333328 24.6719157 31.9999988 24.671915 26.6666656 24.671915 29.3333322 20.0000025 31.9999988 15.3280893 34.6666654 20.0000025"></polygon>
                    <polygon id="path18-6-4-4-1" fill="#8AC4FF" transform="translate(21.333331, 20.000003) scale(-1, 1) rotate(-180.000000) translate(-21.333331, -20.000003) " points="26.6666649 24.6719157 21.3333316 24.671915 15.9999976 24.671915 18.666665 20.0000025 21.3333316 15.3280893 23.9999975 20.0000025"></polygon>
                    <polygon id="path18-6-4-4-7" fill="#619AFF" transform="translate(26.666665, 10.656177) scale(-1, 1) rotate(-180.000000) translate(-26.666665, -10.656177) " points="31.9999988 15.3280901 26.6666649 15.3280901 21.3333316 15.3280901 23.9999982 10.6561776 26.6666649 5.98426374 29.3333315 10.6561769"></polygon>
                    <polygon id="path18-9-2" fill="#78B2FF" points="26.6666649 15.3280901 21.3333316 15.3280893 15.9999976 15.3280893 18.666665 10.6561769 21.3333316 5.98426374 23.9999975 10.6561769"></polygon>
                    <polygon id="path18-6-4-4-9" fill="#8487FF" transform="translate(42.666667, 20.000003) scale(-1, 1) rotate(-180.000000) translate(-42.666667, -20.000003) " points="48 24.6719157 42.6666667 24.671915 37.3333335 24.671915 40.0000001 20.0000025 42.6666667 15.3280893 45.3333334 20.0000025"></polygon>
                    <path d="M26.6392514,0 C25.5682585,0.00567858473 24.5675211,0.531472024 23.9463694,1.40632369 L21.3333486,5.98428233 L26.6666585,5.98428233 L32.0000052,5.98428233 L31.8971534,5.80408728 L29.5475746,1.68767677 C29.5474332,1.68739078 29.5472212,1.68717628 29.5470798,1.68687599 C28.9786125,0.691971986 27.9489335,0.0578141352 26.8140962,0.00375669494 C26.7556332,0.00097538866 26.6973447,-0.000261541896 26.6392436,0 L26.6392514,0 Z" id="path18-9-46-1" fill="#78B2FF"></path>
                    <path d="M21.3059174,40 C20.2349252,39.9943248 19.2341872,39.4685326 18.6130362,38.5936813 L16.0000153,34.0157223 L21.3333252,34.0157223 L26.6666712,34.0157223 L26.5638202,34.1959174 L24.2142413,38.3123277 C24.2141,38.3126209 24.2138879,38.3128425 24.2137465,38.3131264 C23.6452786,39.3080304 22.6155995,39.9421881 21.480763,39.9962455 C21.4222999,39.9990304 21.3640108,40.0002616 21.3059104,40 L21.3059174,40 Z" id="path18-9-46-1-9" fill="#F4315A"></path>
                    <path d="M10.6392516,9.34382704 C9.56825941,9.34950563 8.56752137,9.87529906 7.94637036,10.7501507 L5.33334951,15.3281094 L10.6666594,15.3281094 L16.0000054,15.3281094 L15.8971544,15.1479143 L13.5475755,11.0315038 C13.5474342,11.0312178 13.5472221,11.0310033 13.5470807,11.030703 C12.9786128,10.035799 11.9489337,9.40164118 10.8140972,9.34758374 C10.7556341,9.34480243 10.697345,9.3435655 10.6392446,9.34382704 L10.6392516,9.34382704 Z" id="path18-9-46-1-0" fill="#FFB94F"></path>
                    <path d="M37.3059137,30.656178 C36.2349214,30.6505001 35.2341834,30.124706 34.6130324,29.249855 L32.0000115,24.6718957 L37.3333208,24.6718957 L42.6666675,24.6718957 L42.5638164,24.8520907 L40.2142376,28.9685012 C40.2140962,28.9687872 40.2138841,28.9690017 40.2137428,28.969302 C39.6452748,29.9642067 38.6155958,30.5983638 37.4807592,30.6524213 C37.4222962,30.6552026 37.364007,30.6564395 37.3059066,30.656178 L37.3059137,30.656178 Z" id="path18-9-46-1-9-8" fill="#797BFF"></path>
                </g>
            </g>
        </g>
    </g>
</svg>