<?xml version="1.0" encoding="UTF-8"?>
<svg width="48px" height="48px" viewBox="0 0 48 48" version="1.1" xmlns="http://www.w3.org/2000/svg" xmlns:xlink="http://www.w3.org/1999/xlink">
    <title>B449B648-988A-4E39-AF24-41A0AE250556</title>
    <g id="UI-kit" stroke="none" stroke-width="1" fill="none" fill-rule="evenodd">
        <g id="Connectors" transform="translate(-820.000000, -2888.000000)" fill="#58B1E4" fill-rule="nonzero">
            <g id="Connector/zendesk.support-Copy-7" transform="translate(820.000000, 2888.000000)">
                <path d="M48,12.0001167 C48,5.37285823 42.6277116,1.09580906e-05 36.0004117,1.09580906e-05 L12.0012618,1.09580906e-05 C10.4251614,-0.00212229589 8.86412819,0.307231338 7.40793241,0.91031382 C5.95173661,1.51340703 4.62906485,2.39833622 3.51592853,3.51424846 L3.51592853,3.51424846 C-1.16987357,8.20083754 -1.1698725,15.8013261 3.51592853,20.4855452 L7.78943728,24.7592517 C3.23912168,26.4648951 0,30.8537768 0,35.9998761 C0,42.6270595 5.37248192,47.9999902 11.9997604,47.9999902 L36.0004117,47.9999902 C37.5765121,48.0020078 39.1374917,47.692622 40.5935909,47.0894002 C42.0496902,46.4862855 43.3722761,45.6012383 44.485316,44.4851974 L44.485316,44.4851974 C49.1715791,39.798619 49.1715791,32.1981305 44.4852087,27.5139114 L40.2117107,23.2402049 C44.7611362,21.5349904 48,17.1456799 48,12.0001167 Z M6.80799119,41.1939115 C5.79972448,40.1853245 5.10693522,38.9048855 4.81421401,37.5090569 C4.52148208,36.1132282 4.64148319,34.6623857 5.15956841,33.3335817 C5.67764293,32.0048849 6.57138846,30.855707 7.73165658,30.0265316 C8.89193542,29.197249 10.2684844,28.7237868 11.6933769,28.6639471 L26.3738346,43.3459249 L11.9993315,43.3459249 C11.0347113,43.3481375 10.0793137,43.1590744 9.18820626,42.7897417 C8.29713098,42.4203018 7.48812617,41.877992 6.80799119,41.1939115 L6.80799119,41.1939115 Z M41.1931675,30.8076638 C42.5704457,32.18494 43.3441793,34.0529439 43.3441793,36.0008413 C43.3441793,37.9486313 42.5704457,39.8166353 41.1931675,41.1939115 C39.8159966,42.5711878 37.9480972,43.3450276 36.0004117,43.3450276 C34.052726,43.3450276 32.1848267,42.5711878 30.8076557,41.1939115 L6.80799119,17.1932941 C5.43927074,15.8140876 4.67281861,13.9487647 4.67644952,12.0055859 C4.68014307,10.0625143 5.45360868,8.20002251 6.8275088,6.82603854 C8.20140892,5.45204384 10.063764,4.6785257 12.006731,4.67484288 C13.949698,4.67121197 15.8150236,5.43770593 17.1940176,6.80651023 L41.1931675,30.8076638 Z M41.1931675,17.1932941 C39.894067,18.4990416 38.1488498,19.2647313 36.3082965,19.3364745 L21.6273026,4.65554429 L36.001913,4.65554429 C37.4541516,4.65594108 38.8737895,5.08695787 40.0812001,5.89410629 C41.2886108,6.70126544 42.2296383,7.8483093 42.7852466,9.19022867 C43.3408549,10.5321159 43.4861646,12.0086958 43.2028376,13.4331575 C42.9194033,14.8577263 42.2200939,16.1661547 41.1931675,17.1932941 L41.1931675,17.1932941 Z" id="Shape"></path>
            </g>
        </g>
    </g>
</svg>