<?xml version="1.0" encoding="UTF-8"?>
<svg width="48px" height="48px" viewBox="0 0 48 48" version="1.1" xmlns="http://www.w3.org/2000/svg" xmlns:xlink="http://www.w3.org/1999/xlink">
    <title>6EF614A9-D785-4D93-B3E8-35B5EF8417CE</title>
    <g id="UI-kit" stroke="none" stroke-width="1" fill="none" fill-rule="evenodd">
        <g id="Connectors" transform="translate(-220.000000, -1736.000000)">
            <g id="Connector/Ably-Copy-101" transform="translate(220.000000, 1736.000000)">
                <rect id="Rectangle" fill="#02BDD5" x="1" y="1" width="46" height="46" rx="6"></rect>
                <path d="M9.83472328,33.9514784 L9.83472328,26.1865049 L18.8006065,26.1865049 L18.8006065,22.747536 L9.83472328,22.747536 L9.83472328,17.8756634 L20.2335102,17.8756634 L20.2335102,14.3821077 L6,14.3821077 L6,33.9514784 L9.83472328,33.9514784 Z M32.0924943,34.3472328 C35.0265353,34.3472328 37.4147081,33.4874905 39.2433662,31.7680061 C41.0720243,30.0485216 41.9863533,27.8104625 41.9863533,25.0538287 L42,23.0750569 L32.0106141,23.0750569 L32.0106141,26.3775588 L38.0288097,26.3775588 C37.8514026,27.646702 37.2645944,28.6974981 36.2547384,29.5299469 C35.2448825,30.3623958 33.9484458,30.7854435 32.3654284,30.7854435 C30.2638362,30.7854435 28.5989386,30.1440485 27.3707354,28.8612585 C26.1425322,27.5784685 25.5284306,26.0090978 25.5284306,24.1394996 C25.5284306,22.3244882 26.1288855,20.7824109 27.3297953,19.5132676 C28.5307051,18.2441243 30.0591357,17.616376 31.9287339,17.616376 C34.6990144,17.616376 36.6368461,18.7490523 37.742229,21.0007582 L41.2903715,19.9909022 C40.6489765,18.257771 39.5026535,16.8248673 37.8514026,15.6921911 C36.2001516,14.5595148 34.2213798,14 31.9150872,14 C29.0083397,14 26.5792267,14.9689158 24.6141016,16.9203942 C22.6489765,18.8718726 21.6664139,21.2736922 21.6664139,24.1394996 C21.6664139,27.0462472 22.6489765,29.4753601 24.6277483,31.4268385 C26.6065201,33.3783169 29.0902199,34.3472328 32.0924943,34.3472328 Z" id="FG" fill="#FFFFFF" fill-rule="nonzero"></path>
            </g>
        </g>
    </g>
</svg>