<?xml version="1.0" encoding="UTF-8"?>
<svg width="48px" height="49px" viewBox="0 0 48 49" version="1.1" xmlns="http://www.w3.org/2000/svg" xmlns:xlink="http://www.w3.org/1999/xlink">
    <title>50D296C6-40F1-418A-AD3B-CBD5D59A1BAA</title>
    <defs>
        <linearGradient x1="0%" y1="50%" x2="100%" y2="50%" id="linearGradient-1">
            <stop stop-color="#005BA1" offset="0%"></stop>
            <stop stop-color="#0060A9" offset="7%"></stop>
            <stop stop-color="#0071C8" offset="36%"></stop>
            <stop stop-color="#0078D4" offset="52%"></stop>
            <stop stop-color="#0074CD" offset="64%"></stop>
            <stop stop-color="#006ABB" offset="82%"></stop>
            <stop stop-color="#005BA1" offset="100%"></stop>
        </linearGradient>
        <radialGradient cx="50.3435013%" cy="50.1177378%" fx="50.3435013%" fy="50.1177378%" r="134.383889%" gradientTransform="translate(0.503435,0.501177),scale(0.512245,1.000000),translate(-0.503435,-0.501177)" id="radialGradient-2">
            <stop stop-color="#F2F2F2" offset="0%"></stop>
            <stop stop-color="#EEEEEE" offset="58%"></stop>
            <stop stop-color="#E6E6E6" offset="100%"></stop>
        </radialGradient>
    </defs>
    <g id="UI-kit" stroke="none" stroke-width="1" fill="none" fill-rule="evenodd">
        <g id="Connectors" transform="translate(-920.000000, -2888.000000)" fill-rule="nonzero">
            <g id="Connector/zendesk.support-Copy-8" transform="translate(920.000000, 2888.000000)">
                <g id="10130-icon-service-SQL-Database" transform="translate(6.000000, 1.000000)">
                    <path d="M18,13.1011765 C8.05928237,13.1011765 0,10.2776471 0,6.55058824 L0,41.4494118 C0,45.0352941 7.91887676,47.9435294 17.7472699,48 L18,48 C27.9407176,48 36,45.1764706 36,41.4494118 L36,6.55058824 C36,10.1929412 27.9407176,13.1011765 18,13.1011765 Z" id="Path" fill="url(#linearGradient-1)"></path>
                    <path d="M36,6.55058824 C36,10.1929412 27.9407176,13.1011765 18,13.1011765 C8.05928237,13.1011765 0,10.2776471 0,6.55058824 C0,2.82352941 8.05928237,0 18,0 C27.9407176,0 36,2.82352941 36,6.55058824" id="Path" fill="#E8E8E8"></path>
                    <path d="M31.8159126,6.01411765 C31.8159126,8.32941176 25.6099844,10.1929412 18,10.1929412 C10.3900156,10.1929412 4.18408736,8.32941176 4.18408736,6.01411765 C4.18408736,3.69882353 10.3900156,1.86352941 18,1.86352941 C25.6099844,1.86352941 31.8159126,3.72705882 31.8159126,6.01411765" id="Path" fill="#50E6FF"></path>
                    <path d="M18,7.05882353 C14.2940976,6.96365341 10.5993972,7.50800854 7.07644306,8.66823529 C10.6027441,9.80691418 14.2985686,10.3227759 18,10.1929412 C21.708928,10.3021857 25.4076425,9.74767866 28.9235569,8.55529412 C25.3905645,7.44872548 21.6986368,6.94295055 18,7.05882353 Z" id="Path" fill="#198AB3"></path>
                    <path d="M28.9516381,30.7764706 L28.9516381,21.1764706 L26.424337,21.1764706 L26.424337,32.8376471 L33.3322933,32.8376471 L33.3322933,30.7764706 L28.9516381,30.7764706 Z M8.90171607,26.0611765 C8.37991716,25.850177 7.8961053,25.5544808 7.46957878,25.1858824 C7.24076339,24.942663 7.11926195,24.6168803 7.1326053,24.2823529 C7.11509287,23.9451662 7.2750382,23.6235193 7.55382215,23.4352941 C7.89920162,23.1950103 8.31373338,23.0759225 8.73322933,23.0964706 C9.7333752,23.0512809 10.7204149,23.3390939 11.5413417,23.9152941 L11.5413417,21.4870588 C10.6441782,21.1514169 9.68975721,20.9978712 8.73322933,21.0352941 C7.63152269,20.9763164 6.54536746,21.3169772 5.6723869,21.9952941 C4.900481,22.5937074 4.46166179,23.5286915 4.49297972,24.5082353 C4.49297972,25.9482353 5.39157566,27.0776471 7.30109204,27.9247059 C7.92127622,28.1892924 8.50615004,28.530761 9.04212168,28.9411765 C9.30784895,29.1654086 9.46192026,29.4958987 9.46333853,29.8447059 C9.46348534,30.1924392 9.29602206,30.5186807 9.01404056,30.72 C8.6318768,30.9450153 8.19269597,31.05296 7.75039002,31.0305882 C6.62091508,31.0212194 5.53324203,30.5998151 4.68954758,29.8447059 L4.68954758,32.4705882 C5.61689267,32.9513948 6.65148664,33.1847273 7.69422777,33.1482353 C8.8712439,33.2184251 10.0377511,32.8904075 11.0078003,32.2164706 C11.7024954,31.554932 12.0459759,30.6025584 11.9344774,29.6470588 C11.9479739,28.9242046 11.6983087,28.221304 11.2324493,27.6705882 C10.5763523,26.9757437 9.78225593,26.4274064 8.90171607,26.0611765 L8.90171607,26.0611765 Z M23.6162246,30.5505882 C24.2537495,29.4767868 24.5750919,28.2431071 24.5429017,26.9929412 C24.4794565,25.9345887 24.16146,24.9075377 23.6162246,24 C23.1778311,23.1182713 22.4951792,22.382843 21.650546,21.8823529 C20.794617,21.3945575 19.8262636,21.1414033 18.8424337,21.1482353 C17.7818684,21.1247906 16.7344927,21.3880721 15.8096724,21.9105882 C14.942767,22.397021 14.2316882,23.121798 13.7597504,24 C13.2626321,24.9983461 13.0121883,26.1024748 13.0296412,27.2188235 C13.0355067,28.1995699 13.2661258,29.1657585 13.7035881,30.0423529 C14.1321418,30.9145 14.8058511,31.6409957 15.6411856,32.1317647 C16.4893539,32.6518894 17.4564503,32.9436112 18.449298,32.9788235 L20.8642746,35.8023529 L24.2620905,35.8023529 L20.8081123,32.6964706 C21.9712031,32.3457039 22.9686944,31.5834484 23.6162246,30.5505882 Z M20.8081123,29.8447059 C20.2897909,30.4918593 19.499963,30.8575928 18.673947,30.8329412 C17.8411612,30.8599881 17.0465247,30.4815148 16.5397816,29.8164706 C15.9462051,29.0010416 15.6578242,28.0011654 15.725429,26.9929412 C15.6602399,25.9849804 15.9483861,24.9859176 16.5397816,24.1694118 C17.0750922,23.5059065 17.880407,23.1218009 18.7301092,23.1247059 C19.5634771,23.088588 20.3575754,23.482494 20.8361934,24.1694118 C21.3894226,25.0017976 21.6557732,25.9936972 21.5943838,26.9929412 C21.6923604,28.0086157 21.4122027,29.0247324 20.8081123,29.8447059 L20.8081123,29.8447059 Z" id="Shape" fill="url(#radialGradient-2)"></path>
                </g>
            </g>
        </g>
    </g>
</svg>