<?xml version="1.0" encoding="UTF-8"?>
<svg width="48px" height="48px" viewBox="0 0 48 48" version="1.1" xmlns="http://www.w3.org/2000/svg" xmlns:xlink="http://www.w3.org/1999/xlink">
    <title>B2223782-4971-4A47-A7EB-537B2667525A</title>
    <g id="UI-kit" stroke="none" stroke-width="1" fill="none" fill-rule="evenodd">
        <g id="Connectors" transform="translate(-120.000000, -2024.000000)" fill="#333333" fill-rule="nonzero">
            <g id="Connector/Ably-Copy-120" transform="translate(120.000000, 2024.000000)">
                <path d="M28.0006844,0 L12.6237845,0 C7.86678147,0.00520440481 4.01030493,3.90372701 4,8.71780714 L4,39.2727273 C4.01028872,44.0883474 7.86526807,47.9895878 12.6237845,48 L35.5394808,48 C40.2979972,47.9895878 44.1529766,44.0883474 44.1632653,39.2727273 L44.1632653,15.6087557 L28.0006844,0 Z M14.9060008,36.9820548 L14.9060008,10.9611516 L23.5017252,10.9611516 C23.3302972,11.2744337 23.2371766,11.6253894 23.2304782,11.9834352 L23.2304782,19.9534609 C23.2304782,21.171515 24.2061973,22.158943 25.4098077,22.158943 L33.3040313,22.158943 L33.3040313,36.9157957 L14.9060008,36.9820548 Z" id="Shape"></path>
            </g>
        </g>
    </g>
</svg>