<?xml version="1.0" encoding="UTF-8"?>
<svg width="48px" height="48px" viewBox="0 0 48 48" version="1.1" xmlns="http://www.w3.org/2000/svg" xmlns:xlink="http://www.w3.org/1999/xlink">
    <title>0C78A56E-4E2B-44DE-98C0-BB941B837971</title>
    <g id="UI-kit" stroke="none" stroke-width="1" fill="none" fill-rule="evenodd">
        <g id="Connectors" transform="translate(-420.000000, -2320.000000)" fill="#F15625" fill-rule="nonzero">
            <g id="Connector/Ably-Copy-143" transform="translate(420.000000, 2320.000000)">
                <path d="M13.6742697,5.16267866 L13.6742697,11.2869761 C13.6742697,12.3170066 14.5363002,13.8461538 15.4164888,14.374177 L27.0051607,21.2972539 L33.8020133,17.2368717 L13.6742697,5.16267866 Z M27.0061164,26.7480328 L15.3983307,33.6894171 C14.5190978,34.2164766 13.6561116,35.7417697 13.6561116,36.7746909 L13.6561116,42.8411755 L33.7857666,30.8103421 L27.0061164,26.7480328 Z M12.9097193,48 C10.9668058,48 9,46.4843424 9,43.5782881 L9,36.7746909 C9,34.0815802 10.7336179,31.0252128 13.0310917,29.6531235 L22.4407951,24.0231251 L13.0416043,18.4085434 C10.7469975,17.0383812 9.02006945,13.9762325 9.02006945,11.2869761 L9.02006945,4.41978481 C9.02006945,1.51758471 10.9830525,0 12.9250104,0 C13.7574145,0 14.5965086,0.250521921 15.4174445,0.747711579 L36.6728999,13.491569 C38.1523048,14.3770676 39,15.7491569 39,17.2359081 C39,18.7332584 38.1465707,20.0976393 36.6700328,20.9831379 L31.573349,24.0231251 L36.6671657,27.0621487 C38.1494377,27.9466838 39,29.3158824 39,30.8093785 C39,32.2980568 38.1465707,33.6653284 36.6671657,34.5498635 L15.4031092,47.2619239 C14.5802619,47.7514052 13.7421235,48 12.9097193,48" id="path3017"></path>
            </g>
        </g>
    </g>
</svg>