<?xml version="1.0" encoding="UTF-8"?>
<svg width="48px" height="48px" viewBox="0 0 48 48" version="1.1" xmlns="http://www.w3.org/2000/svg" xmlns:xlink="http://www.w3.org/1999/xlink">
    <title>D8A01048-AE74-4964-A385-847FCF8526A2</title>
    <g id="UI-kit" stroke="none" stroke-width="1" fill="none" fill-rule="evenodd">
        <g id="Connectors" transform="translate(-220.000000, -1472.000000)" fill-rule="nonzero">
            <g id="getpostman-icon" transform="translate(220.000000, 1472.000000)">
                <path d="M42.9950026,9.33191565 C37.0616938,1.64874198 27.0841527,-1.70343883 17.7154063,0.838662912 C8.34665987,3.38076465 1.43197562,11.3164568 0.196016886,20.9449289 C-1.03994184,30.573401 3.64625929,39.9982299 12.0692102,44.8241462 C20.492161,49.6500625 30.9928778,48.9265542 38.6743508,42.9910292 C49.1591125,34.8882426 51.0940686,19.8203894 42.9942526,9.33191565 L42.9950026,9.33191565 Z" id="Path" fill="#FF6C37"></path>
                <path d="M32.0947504,15.2927587 L21.9752304,25.4924901 L19.1155454,22.5525675 C29.075319,12.5928298 30.0750463,13.4928061 32.0955004,15.2927587 L32.0947504,15.2927587 Z" id="Path" fill="#FFFFFF"></path>
                <path d="M21.9752304,25.7714827 C21.8856023,25.7692786 21.800022,25.7337094 21.7352358,25.6717353 L18.8553013,22.7918112 C18.7205257,22.6522992 18.7205257,22.4310863 18.8553013,22.2915743 C28.6748281,12.472083 30.0150476,12.9318208 32.3347449,15.0317655 C32.4134931,15.0947639 32.4577421,15.1907614 32.4547422,15.2920087 C32.4697419,15.3895061 32.4322427,15.4892535 32.3549945,15.5522518 L22.2354745,25.6724853 C22.1642261,25.7377336 22.0719782,25.7729827 21.9752304,25.7722444 L21.9752304,25.7714827 Z M19.615034,22.5518175 L21.9752304,24.9120053 L31.5750122,15.3122582 C30.8887332,14.4522066 29.6656181,14.2455019 28.7348267,14.8322708 C26.9948663,15.6122503 24.1951799,17.9919376 19.615034,22.5518175 L19.615034,22.5518175 Z" id="Shape" fill="#FF6C37"></path>
                <path d="M24.8754145,28.3124158 L22.1154772,25.4924901 L32.2349972,15.4922534 C34.9551854,18.1524334 30.9150272,22.5923164 24.8754145,28.3116658 L24.8754145,28.3124158 Z" id="Path" fill="#FFFFFF"></path>
                <path d="M24.8754145,28.6724063 C24.7868821,28.6653682 24.7028595,28.6304464 24.6354199,28.5726589 L21.815484,25.8127316 C21.7731893,25.7101738 21.7731893,25.5950478 21.815484,25.4924901 C21.7854847,25.4084923 21.7854847,25.3162447 21.815484,25.2322469 L31.935004,15.1127634 C32.0812507,14.975517 32.3084955,14.975517 32.4547422,15.1127634 C33.1184771,15.7232473 33.4822188,16.5917245 33.4544695,17.4924507 C33.4544695,20.1923796 30.3742895,23.5920401 25.1349086,28.5524095 C25.064912,28.6216825 24.9727982,28.6641555 24.8746645,28.6724063 L24.8754145,28.6724063 Z M22.6352154,25.4924901 L24.894914,27.7514306 C28.8945731,23.9715301 32.7149863,20.0716328 32.7344858,17.4317023 C32.7562386,16.8720499 32.5712311,16.3239704 32.2147477,15.8919929 L22.6352154,25.4924901 Z" id="Shape" fill="#FF6C37"></path>
                <path d="M19.1950436,22.6125659 L21.1952481,24.6127632 C21.2210776,24.6355426 21.2358746,24.6683217 21.2358746,24.7027608 C21.2358746,24.7372 21.2210776,24.7699791 21.1952481,24.7927585 L16.975094,25.6927348 C16.800348,25.7302338 16.622602,25.646236 16.5386039,25.4887402 C16.4546059,25.3312443 16.4861051,25.1362494 16.6151022,25.0125027 L19.0750463,22.5728169 C19.0750463,22.5728169 19.1552945,22.5728169 19.1950436,22.6125659 L19.1950436,22.6125659 Z" id="Path" fill="#FFFFFF"></path>
                <path d="M16.8753463,26.0924743 C16.6042128,26.089063 16.3543068,25.9450835 16.2153613,25.7122343 C16.0578649,25.4144921 16.1141136,25.0477518 16.3556081,24.812258 L18.7953027,22.3523227 C18.9774684,22.1895039 19.2528724,22.1895039 19.4350381,22.3523227 L21.4352427,24.3525201 C21.55374,24.4650171 21.6002389,24.6352626 21.5552399,24.7927585 C21.5102409,24.9502543 21.3782439,25.075501 21.2154976,25.113 L16.9953436,26.0129763 L16.8753463,26.0924743 Z M19.1155454,23.0528043 L16.8558467,25.3124948 L20.5960117,24.5122659 L19.1155454,23.0528043 Z" id="Shape" fill="#FF6C37"></path>
                <path d="M37.4751281,9.67240668 C36.027661,8.27594346 33.7537127,8.217445 32.2357472,9.5351603 C30.7177817,10.8528756 30.4582876,13.114816 31.6402607,14.7422732 C32.8222338,16.3697303 35.0504332,16.8257183 36.775394,15.7922455 L34.0552058,13.0720672 L37.4751281,9.67240668 Z" id="Path" fill="#FFFFFF"></path>
                <path d="M34.7751895,16.7117213 C33.0751302,16.6899302 31.5527087,15.6541204 30.9082773,14.0807906 C30.263292,12.507332 30.6202839,10.7013796 31.8082569,9.49241142 C33.4739894,7.85726736 36.142388,7.85726736 37.8081205,9.49241142 C37.8846188,9.55690972 37.9281178,9.65215722 37.9281178,9.75265457 C37.9277449,9.8526978 37.8839616,9.94765237 37.8081205,10.0128977 L34.5681942,13.0728171 L37.0281382,15.4930034 C37.1090634,15.5702817 37.1464245,15.6826456 37.127886,15.7929955 C37.1158893,15.8991488 37.0573651,15.9944907 36.9681396,16.0532386 C36.3072686,16.4663139 35.5475565,16.6942526 34.7684396,16.7132213 L34.7751895,16.7117213 Z M34.7751895,8.95167566 C33.3502218,8.95917547 32.0752508,9.81640289 31.540513,11.1266184 C31.0057751,12.4368339 31.2967685,13.9450442 32.2957458,14.9515177 C33.3127227,15.9737407 34.8456879,16.267733 36.1754076,15.6917482 L33.8152113,13.3315603 C33.7364631,13.268562 33.6922141,13.1725645 33.695214,13.0713172 C33.6982139,12.9775696 33.7417129,12.8898219 33.8152113,12.8313235 L36.9351404,9.69115619 C36.3149045,9.21566871 35.5566717,8.95617554 34.7751895,8.95092568 L34.7751895,8.95167566 Z" id="Shape" fill="#FF6C37"></path>
                <path d="M37.5351267,9.7324051 L34.1152045,13.1320656 L36.8353926,15.8522439 C37.1091686,15.6950757 37.3640694,15.507109 37.5951254,15.2920087 C39.0770917,13.7170502 39.0500923,11.2661147 37.5351267,9.7324051 L37.5351267,9.7324051 Z" id="Path" fill="#FFFFFF"></path>
                <path d="M36.774644,16.152236 C36.6836479,16.1571644 36.595345,16.1204636 36.5346495,16.0524887 L33.8144613,13.3323103 C33.7357131,13.269312 33.6914641,13.1733145 33.694464,13.0720672 C33.697464,12.9783196 33.740963,12.8905719 33.8144613,12.8320735 L37.214134,9.49241142 C37.2808313,9.3918618 37.3934672,9.33141315 37.5141272,9.33141315 C37.6347872,9.33141315 37.7474231,9.3918618 37.8141204,9.49241142 C38.6203655,10.2823642 39.074704,11.3635933 39.074704,12.4923324 C39.074704,13.6210715 38.6203655,14.7023006 37.8141204,15.4922534 C37.5786901,15.7419622 37.3093075,15.9573161 37.0138886,16.1319866 C36.9395074,16.1694765 36.8535054,16.1767329 36.773894,16.152236 L36.774644,16.152236 Z M34.574944,13.0728171 L36.8346426,15.3325076 C36.9900855,15.2235571 37.1372356,15.1032304 37.2748826,14.9725171 C37.9391619,14.3100489 38.3133021,13.4109825 38.3151147,12.4728329 C38.3166378,11.6332625 38.0106221,10.8222038 37.4548785,10.192893 L34.574944,13.0728171 Z" id="Shape" fill="#FF6C37"></path>
                <path d="M32.5147408,15.7127476 C31.9522536,15.1847615 31.0770235,15.1847615 30.5145363,15.7127476 L21.4554922,24.7515096 L22.9554581,26.2717195 L32.5349904,17.8719407 C32.8312336,17.5891982 32.9969799,17.1969585 32.9925693,16.7874693 C32.9879801,16.3779801 32.815484,15.9887403 32.5147408,15.7119976 L32.5147408,15.7127476 Z" id="Path" fill="#FFFFFF"></path>
                <path d="M22.8752099,26.63246 C22.7855818,26.6302559 22.7000015,26.5946867 22.6352154,26.5327127 L21.1149999,25.0125027 C20.9802243,24.8729907 20.9802243,24.6517779 21.1149999,24.5122659 L30.174794,15.4922534 C30.8932777,14.7752723 32.0572512,14.7752723 32.7749849,15.4922534 C33.1349767,15.8522439 33.3299723,16.343481 33.3149726,16.8519676 C33.2939731,17.3574543 33.0704782,17.8329418 32.6947367,18.1719328 L23.1152045,26.5717116 C23.0454561,26.6212103 22.959958,26.6422098 22.8752099,26.63171 L22.8752099,26.63246 Z M21.815484,24.7515096 L22.8152113,25.7714827 L32.2147477,17.5914481 C32.4472424,17.3889535 32.5859892,17.0994611 32.594989,16.7912192 C32.6039888,16.4829773 32.4824916,16.1814853 32.2552467,15.9714908 C31.8180067,15.5365022 31.1122727,15.5365022 30.6750326,15.9714908 L21.815484,24.7515096 Z" id="Shape" fill="#FF6C37"></path>
                <path d="M14.4356517,35.0517383 C14.3831386,35.1231184 14.3831386,35.2203519 14.4356517,35.291732 L14.8353927,37.0316862 C14.8698919,37.2394307 14.7701441,37.4464252 14.5863983,37.5566723 C14.4035838,37.6636105 14.1726363,37.6402734 14.0149113,37.4989239 L11.2752236,34.8589934 L19.8152795,26.2514701 L22.7754622,26.2514701 L24.7756667,28.2516674 C21.6555121,30.9796599 18.1765316,33.267598 14.4356517,35.0517383 L14.4356517,35.0517383 Z" id="Path" fill="#FFFFFF"></path>
                <path d="M14.2556558,37.9916609 C14.029161,37.987161 13.8056661,37.8941634 13.6556695,37.7314177 L11.035979,35.1117367 C10.9572308,35.0487384 10.9129818,34.9527409 10.9159817,34.8514936 C10.9189817,34.757746 10.9624807,34.6699984 11.035979,34.6114999 L19.6352836,25.9919769 C19.6834351,25.9408004 19.7463598,25.9059298 19.8152795,25.8922295 L22.7949617,25.8922295 C22.872605,25.8647786 22.957313,25.8647786 23.0349563,25.8922295 L25.0351608,27.8924268 C25.1124091,27.963675 25.1499082,28.0686722 25.1349086,28.1721695 C25.1377669,28.2729009 25.0933739,28.3691778 25.0149113,28.4324126 L24.8551649,28.5726589 C21.7224246,31.1843266 18.2758423,33.3946159 14.5953981,35.1522357 L14.9756395,36.772193 C15.0351682,37.0252815 14.9773499,37.2917189 14.8182725,37.497369 C14.659195,37.7030191 14.4158385,37.8259349 14.1559081,37.8319151 L14.2556558,37.9916609 Z M11.8159613,34.8514936 L14.1754077,37.2311809 C14.2209201,37.271774 14.2896416,37.271774 14.335154,37.2311809 C14.3653159,37.1892972 14.3653159,37.1328183 14.335154,37.0909346 L13.9354131,35.3509804 C13.8709146,35.0937372 13.9954117,34.8259942 14.2354063,34.7112473 C17.8168999,32.9770929 21.1746343,30.8145817 24.234929,28.2711669 L22.5947163,26.6309601 L19.9150272,26.6309601 L11.8159613,34.8514936 Z" id="Shape" fill="#FF6C37"></path>
                <path d="M9.21577038,36.9116893 L11.2159749,34.911492 L14.2961549,37.9916609 L9.39651627,37.6519198 C9.22402019,37.6391702 9.07777352,37.5169234 9.03652446,37.3474278 C8.99527539,37.1779323 9.06802374,37.0024369 9.21652037,36.9124393 L9.21577038,36.9116893 Z" id="Path" fill="#FFFFFF"></path>
                <path d="M14.3554036,38.291653 L9.47526448,37.9519119 C9.18577106,37.9249126 8.93677672,37.7269179 8.83477904,37.4621748 C8.73278136,37.1974318 8.79502995,36.8831901 8.99527539,36.6716956 L10.9954799,34.6714983 C11.1349924,34.5367232 11.3562061,34.5367232 11.4957186,34.6714983 L14.555649,37.7314177 C14.642647,37.8514146 14.642647,38.0119103 14.555649,38.1311572 C14.5091501,38.2061552 14.4386517,38.2624037 14.3554036,38.290903 L14.3554036,38.291653 Z M9.47526448,37.1719325 L13.4749236,37.4321756 L11.2752236,35.3719799 L9.47526448,37.1719325 Z" id="Shape" fill="#FF6C37"></path>
                <polygon id="Path" fill="#FFFFFF" points="23.0552058 26.4929637 19.0150477 27.1131974 21.3549945 24.7935085"></polygon>
                <path d="M19.0150477,27.4919374 C18.8778008,27.4956873 18.7525536,27.4169394 18.6948049,27.2916927 C18.6074055,27.1727779 18.6074055,27.010868 18.6948049,26.8919532 L21.0145022,24.5520148 C21.1607489,24.4147684 21.3879937,24.4147684 21.5342404,24.5520148 L23.2352017,26.2514701 C23.3045428,26.3614497 23.3045428,26.501481 23.2352017,26.6114606 C23.201132,26.7456052 23.0917112,26.8473985 22.9554581,26.8717037 L18.955799,27.4919374 L19.0150477,27.4919374 Z M21.3549945,25.3117448 L20.055274,26.6114606 L22.2954731,26.2717195 L21.3549945,25.3117448 Z" id="Shape" fill="#FF6C37"></path>
                <path d="M23.0552058,26.4914637 L20.2352699,26.8514543 C20.0803135,26.8866256 19.9206253,26.8160431 19.8423303,26.6777742 C19.7640353,26.5395054 19.7856543,26.3662581 19.8955276,26.2514701 L21.3557445,24.7912585 L23.0552058,26.4914637 Z" id="Path" fill="#FFFFFF"></path>
                <path d="M20.1550217,27.2324442 C19.8887778,27.2301943 19.6450333,27.0846981 19.5152863,26.8522042 C19.3583503,26.5709035 19.4073565,26.2195916 19.6352836,25.9919769 L21.0955004,24.5317654 C21.241747,24.394519 21.4689919,24.394519 21.6152386,24.5317654 L23.3154499,26.2319706 C23.4187488,26.3298433 23.4546995,26.4793808 23.4071775,26.6135126 C23.3596554,26.7476443 23.2375802,26.8411946 23.0957049,26.8522042 L20.2960185,27.2121948 L20.1550217,27.2324442 Z M20.1550217,26.4922137 L22.2752236,26.2319706 L21.3354949,25.2922453 L20.1355222,26.4922137 L20.1550217,26.4922137 Z M37.5546263,12.0325945 C37.4766423,11.9019661 37.3132234,11.8503942 37.1743849,11.9125977 C37.1075046,11.9464917 37.0571865,12.0060075 37.0348881,12.0775933 C37.0123886,12.1488415 37.0198884,12.2260894 37.0543877,12.2928377 C37.1946345,12.5875799 37.1556354,12.9363207 36.9546399,13.192814 C36.9021411,13.2423127 36.8796416,13.3105609 36.8796416,13.382559 C36.8803685,13.4528953 36.9070812,13.5204782 36.9546399,13.572304 C37.005961,13.592567 37.0630652,13.592567 37.1143863,13.572304 C37.2093112,13.5961662 37.3096282,13.5652328 37.3746304,13.4920561 C37.7107332,13.0805568 37.7807379,12.5126458 37.5546263,12.0318445 L37.5546263,12.0325945 Z" id="Shape" fill="#FF6C37"></path>
            </g>
        </g>
    </g>
</svg>