<?xml version="1.0" encoding="UTF-8"?>
<svg width="48px" height="48px" viewBox="0 0 48 48" version="1.1" xmlns="http://www.w3.org/2000/svg" xmlns:xlink="http://www.w3.org/1999/xlink">
    <title>8F83F1A1-2636-4379-82D4-03B6E35FF850</title>
    <g id="UI-kit" stroke="none" stroke-width="1" fill="none" fill-rule="evenodd">
        <g id="Connectors" transform="translate(-120.000000, -736.000000)" fill="#EB6D4A">
            <g id="Connector/Ably-Copy-30" transform="translate(120.000000, 736.000000)">
                <path d="M21.0696724,4.8 C31.3223105,4.8 39.6337159,13.1114054 39.6337159,23.3640435 C39.6337159,24.4771828 39.5357438,25.5674396 39.3479522,26.6266612 L44.1298516,26.6261327 C44.994918,26.6261327 45.6961928,27.3274075 45.6961928,28.1924739 C45.6961928,29.0575402 44.994918,29.758815 44.1298516,29.758815 L28.3575426,29.758815 C27.4924762,29.758815 26.7912014,30.4600899 26.7912014,31.3251562 C26.7912014,32.1421633 27.4167212,32.8130724 28.2149736,32.8850962 L28.3575426,32.8914974 L28.9039215,32.8914974 C29.7689878,32.8914974 30.4702626,33.5927722 30.4702626,34.4578385 C30.4702626,35.3229049 29.7689878,36.0241797 28.9039215,36.0241797 L27.1114606,36.0241797 C26.2463943,36.0241797 25.5451194,36.7254545 25.5451194,37.5905209 C25.5451194,38.407528 26.1706393,39.0784371 26.9688916,39.1504609 L27.1114606,39.156862 L37.408067,39.156862 C38.2731333,39.156862 38.9744082,39.8581369 38.9744082,40.7232032 C38.9744082,41.5882695 38.2731333,42.2895444 37.408067,42.2895444 L10.3066068,42.2895444 C9.44154042,42.2895444 8.74026559,41.5882695 8.74026559,40.7232032 C8.74026559,39.8581369 9.44154042,39.156862 10.3066068,39.156862 L16.5235181,39.156862 C17.3885844,39.156862 18.0898593,38.4555872 18.0898593,37.5905209 C18.0898593,36.7735138 17.4643394,36.1026047 16.6660871,36.0305808 L16.5235181,36.0241797 L6.86306252,36.0241797 C5.99799618,36.0241797 5.29672135,35.3229049 5.29672135,34.4578385 C5.29672135,33.5927722 5.99799618,32.8914974 6.86306252,32.8914974 L7.17392442,32.8914974 C8.03899076,32.8914974 8.74026559,32.1902225 8.74026559,31.3251562 C8.74026559,30.5081491 8.11474576,29.83724 7.3164934,29.7652161 L7.17392442,29.758815 L1.56634117,29.758815 C0.701274828,29.758815 1.05940072e-16,29.0575402 0,28.1924739 C-1.05940072e-16,27.3274075 0.701274828,26.6261327 1.56634117,26.6261327 L2.79139263,26.6266612 C2.60360103,25.5674396 2.50562895,24.4771828 2.50562895,23.3640435 C2.50562895,13.1114054 10.8170343,4.8 21.0696724,4.8 Z M37.408067,32.8914974 C38.2731333,32.8914974 38.9744082,33.5927722 38.9744082,34.4578385 C38.9744082,35.3229049 38.2731333,36.0241797 37.408067,36.0241797 L34.2009728,36.0241797 C33.3359064,36.0241797 32.6346316,35.3229049 32.6346316,34.4578385 C32.6346316,33.5927722 33.3359064,32.8914974 34.2009728,32.8914974 L37.408067,32.8914974 Z M46.4336588,32.8914974 C47.2987252,32.8914974 48,33.5927722 48,34.4578385 C48,35.3229049 47.2987252,36.0241797 46.4336588,36.0241797 L43.2265646,36.0241797 C42.3614983,36.0241797 41.6602234,35.3229049 41.6602234,34.4578385 C41.6602234,33.5927722 42.3614983,32.8914974 43.2265646,32.8914974 L46.4336588,32.8914974 Z" id="Combined-Shape"></path>
            </g>
        </g>
    </g>
</svg>