<?xml version="1.0" encoding="UTF-8"?>
<svg width="20px" height="20px" viewBox="0 0 20 20" version="1.1" xmlns="http://www.w3.org/2000/svg" xmlns:xlink="http://www.w3.org/1999/xlink">
    <title>28C64933-A716-47BB-854E-4EDE8BCB2EFF</title>
    <g id="Page-1" stroke="none" stroke-width="1" fill="none" fill-rule="evenodd">
        <g id="adding-new-API-Calls" transform="translate(-713.000000, -610.000000)" fill="#EB6D4A">
            <g id="Dropdown/Select/Default-Copy-8" transform="translate(703.000000, 600.000000)">
                <g id="Logo/Circle" transform="translate(10.000000, 10.000000)">
                    <path d="M8.77903018,2 C13.0509627,2 16.5140483,5.46308557 16.5140483,9.73501811 C16.5140483,10.1987344 16.4732428,10.65292 16.3950266,11.0941801 L18.3874382,11.094222 C18.7478825,11.094222 19.0400803,11.3864198 19.0400803,11.7468641 C19.0400803,12.1073084 18.7478825,12.3995063 18.3874382,12.3995063 L11.8156427,12.3995063 C11.4551984,12.3995063 11.1630006,12.6917041 11.1630006,13.0521484 C11.1630006,13.3798251 11.4044864,13.6510997 11.7192001,13.6977142 L11.8156427,13.7047906 L12.0433006,13.7047906 C12.4037449,13.7047906 12.6959428,13.9969884 12.6959428,14.3574327 C12.6959428,14.717877 12.4037449,15.0100749 12.0433006,15.0100749 L11.2964419,15.0100749 C10.9359976,15.0100749 10.6437998,15.3022727 10.6437998,15.662717 C10.6437998,15.9903937 10.8852856,16.2616683 11.1999992,16.3082829 L11.2964419,16.3153592 L15.5866946,16.3153592 C15.9471389,16.3153592 16.2393367,16.607557 16.2393367,16.9680013 C16.2393367,17.3284456 15.9471389,17.6206435 15.5866946,17.6206435 L4.29441948,17.6206435 C3.93397517,17.6206435 3.64177733,17.3284456 3.64177733,16.9680013 C3.64177733,16.607557 3.93397517,16.3153592 4.29441948,16.3153592 L6.88479921,16.3153592 C7.24524352,16.3153592 7.53744136,16.0231613 7.53744136,15.662717 C7.53744136,15.3350404 7.29595554,15.0637658 6.98124188,15.0171512 L6.88479921,15.0100749 L2.85960938,15.0100749 C2.49916508,15.0100749 2.20696723,14.717877 2.20696723,14.3574327 C2.20696723,13.9969884 2.49916508,13.7047906 2.85960938,13.7047906 L2.98913518,13.7047906 C3.34957948,13.7047906 3.64177733,13.4125927 3.64177733,13.0521484 C3.64177733,12.7244718 3.40029151,12.4531972 3.08557785,12.4065826 L2.98913518,12.3995063 L0.652642153,12.3995063 C0.292197845,12.3995063 4.41416969e-17,12.1073084 0,11.7468641 C-4.41416969e-17,11.3864198 0.292197845,11.094222 0.652642153,11.094222 L1.1630338,11.0941801 C1.0848176,10.65292 1.04401206,10.1987344 1.04401206,9.73501811 C1.04401206,5.46308557 4.50709763,2 8.77903018,2 Z M15.5866946,13.7047906 C15.9471389,13.7047906 16.2393367,13.9969884 16.2393367,14.3574327 C16.2393367,14.717877 15.9471389,15.0100749 15.5866946,15.0100749 L14.2504053,15.0100749 C13.889961,15.0100749 13.5977632,14.717877 13.5977632,14.3574327 C13.5977632,13.9969884 13.889961,13.7047906 14.2504053,13.7047906 L15.5866946,13.7047906 Z M19.3473578,13.7047906 C19.7078022,13.7047906 20,13.9969884 20,14.3574327 C20,14.717877 19.7078022,15.0100749 19.3473578,15.0100749 L18.0110686,15.0100749 C17.6506243,15.0100749 17.3584264,14.717877 17.3584264,14.3574327 C17.3584264,13.9969884 17.6506243,13.7047906 18.0110686,13.7047906 L19.3473578,13.7047906 Z" id="Combined-Shape"></path>
                </g>
            </g>
        </g>
    </g>
</svg>