<?xml version="1.0" encoding="UTF-8"?>
<svg width="48px" height="48px" viewBox="0 0 48 48" version="1.1" xmlns="http://www.w3.org/2000/svg" xmlns:xlink="http://www.w3.org/1999/xlink">
    <title>27CF2B30-D40D-4BA9-A2E4-F820761F4310</title>
    <g id="UI-kit" stroke="none" stroke-width="1" fill="none" fill-rule="evenodd">
        <g id="Connectors" transform="translate(-520.000000, -2168.000000)" fill-rule="nonzero">
            <g id="Connector/Ably-Copy-134" transform="translate(520.000000, 2168.000000)">
                <g id="google_cloud-icon" transform="translate(0.000000, 4.000000)">
                    <path d="M30.546,10.7787879 L32.0835,10.805303 L36.261,6.58560606 L36.4635,4.79772727 C33.15,1.81590909 28.77525,0 23.99475,0 C15.33975,0 8.03475,5.94848485 5.8725,14.0060606 C6.3285,13.6848485 7.3035,13.9257576 7.3035,13.9257576 L15.651,12.5393939 C15.651,12.5393939 16.08,11.8219697 16.2975,11.8575758 C18.2712028,9.66727455 21.0678588,8.41931015 24,8.42045455 C26.475,8.42575758 28.755,9.30909091 30.546,10.7704545 L30.546,10.7787879 Z" id="Path" fill="#EA4335"></path>
                    <path d="M42.1275,14.0227273 C41.15775,10.4090909 39.159,7.21818182 36.46125,4.79772727 L30.546,10.7727273 C32.916,12.7045455 34.43625,15.6606061 34.43625,18.969697 L34.43625,20.0242424 C37.314,20.0242424 39.65175,22.3909091 39.65175,25.2924242 C39.65175,28.1992424 37.30875,30.5606061 34.43625,30.5606061 L24.00525,30.5606061 L22.96125,31.6212121 L22.96125,37.9439394 L24.00525,38.9931818 L34.43625,38.9931818 C41.9227278,38.9827505 47.989259,32.85528 48,25.2931818 C47.99475,20.630303 45.675,16.505303 42.1275,14.0234848 L42.1275,14.0227273 Z" id="Path" fill="#4285F4"></path>
                    <path d="M13.56375,39 L23.98875,39 L23.98875,30.5606061 L13.56375,30.5606061 C12.8230863,30.5607345 12.0910498,30.4000336 11.41725,30.0893939 L9.912,30.555303 L5.7345,34.775 L5.3685,36.1992424 C7.72266379,38.0133423 10.6019945,38.9953249 13.563,38.9939394 L13.56375,39 Z" id="Path" fill="#34A853"></path>
                    <path d="M13.56375,11.5984848 C6.07727222,11.6089162 0.0107410058,17.7363867 0,25.2984848 C0,29.7477273 2.10975,33.7037879 5.3745,36.2098485 L11.4225,30.1007576 C9.55269863,29.2491081 8.34995474,27.370307 8.34825,25.2984848 C8.34825,22.3916667 10.69125,20.030303 13.56375,20.030303 C15.67875,20.030303 17.49675,21.3181818 18.31875,23.1363636 L24.36675,17.0272727 C21.8865,13.7295455 17.96925,11.5984848 13.5645,11.5984848 L13.56375,11.5984848 Z" id="Path" fill="#FBBC05"></path>
                </g>
            </g>
        </g>
    </g>
</svg>