<?xml version="1.0" encoding="UTF-8"?>
<svg width="48px" height="48px" viewBox="0 0 48 48" version="1.1" xmlns="http://www.w3.org/2000/svg" xmlns:xlink="http://www.w3.org/1999/xlink">
    <title>E4DFCC66-5425-4658-B245-CD646BACFE75</title>
    <g id="UI-kit" stroke="none" stroke-width="1" fill="none" fill-rule="evenodd">
        <g id="Connectors" transform="translate(-720.000000, -2024.000000)">
            <g id="Connector/Ably-Copy-126" transform="translate(720.000000, 2024.000000)">
                <circle id="Oval" fill="#028EF5" cx="24" cy="24" r="24"></circle>
                <path d="M38.1827276,14.0000002 L29.9349783,14.0000002 C27.0937087,13.9991963 24.6311719,15.9882084 24.0056686,18.7891546 C23.3801653,15.9882084 20.9176284,13.9991963 18.0763588,14.0000002 L9.83427809,14.0000002 C8.26894953,14.0000002 7,15.2824032 7,16.8643271 L7,31.5296794 C7,33.1116033 8.26894953,34.394006 9.83427809,34.394006 L15.1287096,34.394006 C21.1600534,34.394006 22.9626542,35.8605412 23.8242748,38.8795414 C23.8428078,38.9522358 23.9087506,39.0022172 23.9829943,38.9999243 L24.0170057,38.9999243 C24.0912494,39.0022172 24.1571922,38.9522358 24.1757252,38.8795414 C25.0430143,35.8605412 26.8456152,34.394006 32.8712904,34.394006 L38.1657219,34.394006 C39.7310505,34.394006 41,33.1116033 41,31.5296794 L41,16.8643271 C41,15.2890905 39.7414109,14.0094519 38.1827276,14.0000002 Z M21.2847616,29.8282694 C21.2847616,29.8829653 21.2632616,29.9354211 21.2249914,29.9740971 C21.1867213,30.012773 21.1348158,30.0345009 21.0806936,30.0345009 L11.6142047,30.0345009 C11.5600825,30.0345009 11.508177,30.012773 11.4699069,29.9740971 C11.4316367,29.9354211 11.4101367,29.8829653 11.4101367,29.8282694 L11.4101367,28.4648499 C11.4101367,28.3509514 11.5015011,28.2586184 11.6142047,28.2586184 L21.0806936,28.2586184 C21.1933972,28.2586184 21.2847616,28.3509514 21.2847616,28.4648499 L21.2847616,29.8282694 L21.2847616,29.8282694 Z M21.2847616,26.1963032 C21.2847616,26.3102017 21.1933972,26.4025347 21.0806936,26.4025347 L11.6142047,26.4025347 C11.5600825,26.4025347 11.508177,26.3808068 11.4699069,26.3421309 C11.4316367,26.303455 11.4101367,26.2509992 11.4101367,26.1963032 L11.4101367,24.8328837 C11.4101367,24.7189852 11.5015011,24.6266522 11.6142047,24.6266522 L21.0806936,24.6266522 C21.1933972,24.6266522 21.2847616,24.7189852 21.2847616,24.8328837 L21.2847616,26.1963032 L21.2847616,26.1963032 Z M21.2847616,22.5643371 C21.2847616,22.6782356 21.1933972,22.7705686 21.0806936,22.7705686 L11.6142047,22.7705686 C11.5015011,22.7705686 11.4101367,22.6782356 11.4101367,22.5643371 L11.4101367,21.2009176 C11.4101367,21.0870191 11.5015011,20.9946861 11.6142047,20.9946861 L21.0806936,20.9946861 C21.1933972,20.9946861 21.2847616,21.0870191 21.2847616,21.2009176 L21.2847616,22.5643371 Z M36.5898633,29.8225407 C36.5898633,29.8772367 36.5683633,29.9296925 36.5300931,29.9683684 C36.491823,30.0070443 36.4399175,30.0287722 36.3857953,30.0287722 L26.9193064,30.0287722 C26.8651842,30.0287722 26.8132787,30.0070443 26.7750086,29.9683684 C26.7367384,29.9296925 26.7152384,29.8772367 26.7152384,29.8225407 L26.7152384,28.4591212 C26.7152384,28.4044252 26.7367384,28.3519694 26.7750086,28.3132935 C26.8132787,28.2746176 26.8651842,28.2528897 26.9193064,28.2528897 L36.3857953,28.2528897 C36.4984989,28.2528897 36.5898633,28.3452227 36.5898633,28.4591212 L36.5898633,29.8225407 L36.5898633,29.8225407 Z M36.5898633,26.1905746 C36.5898633,26.3044731 36.4984989,26.3968061 36.3857953,26.3968061 L26.9193064,26.3968061 C26.8651842,26.3968061 26.8132787,26.3750782 26.7750086,26.3364023 C26.7367384,26.2977263 26.7152384,26.2452706 26.7152384,26.1905746 L26.7152384,24.8271551 C26.7152384,24.7724591 26.7367384,24.7200033 26.7750086,24.6813274 C26.8132787,24.6426515 26.8651842,24.6209236 26.9193064,24.6209236 L36.3857953,24.6209236 C36.4984989,24.6209236 36.5898633,24.7132566 36.5898633,24.8271551 L36.5898633,26.1905746 L36.5898633,26.1905746 Z M36.5898633,22.5586084 C36.5898633,22.6725069 36.4984989,22.7648399 36.3857953,22.7648399 L26.9193064,22.7648399 C26.8066028,22.7648399 26.7152384,22.6725069 26.7152384,22.5586084 L26.7152384,21.2009176 C26.7152384,21.0870191 26.8066028,20.9946861 26.9193064,20.9946861 L36.3857953,20.9946861 C36.4984989,20.9946861 36.5898633,21.0870191 36.5898633,21.2009176 L36.5898633,22.5643371 L36.5898633,22.5586084 Z" id="Shape" fill="#FFFFFF" fill-rule="nonzero"></path>
            </g>
        </g>
    </g>
</svg>