<?xml version="1.0" encoding="UTF-8"?>
<svg width="48px" height="48px" viewBox="0 0 48 48" version="1.1" xmlns="http://www.w3.org/2000/svg" xmlns:xlink="http://www.w3.org/1999/xlink">
    <title>2D18538A-8480-4B22-82E8-D33310C051F9</title>
    <defs>
        <linearGradient x1="0%" y1="49.9998771%" x2="99.9699247%" y2="49.9998771%" id="linearGradient-1">
            <stop stop-color="#90CEA1" offset="0%"></stop>
            <stop stop-color="#3CBEC9" offset="56%"></stop>
            <stop stop-color="#00B3E5" offset="100%"></stop>
        </linearGradient>
    </defs>
    <g id="UI-kit" stroke="none" stroke-width="1" fill="none" fill-rule="evenodd">
        <g id="Connectors" transform="translate(-320.000000, -888.000000)" fill="url(#linearGradient-1)" fill-rule="nonzero">
            <g id="Connector/Ably-Copy-42" transform="translate(320.000000, 888.000000)">
                <path d="M13.2411461,23.4999161 L13.2411461,23.4999161 C13.2390871,22.269 13.7209495,21.0877833 14.5805175,20.2166551 C15.4400855,19.3455268 16.6067866,18.8560103 17.8234317,18.8560103 L17.7974992,18.8560103 C19.0141443,18.8560103 20.1808454,19.3455268 21.0404134,20.2166551 C21.8999814,21.0877833 22.3818438,22.269 22.3797848,23.4999161 L22.3797848,23.4999161 C22.3797848,26.0603273 20.328222,28.1359508 17.7974992,28.1359508 L17.8234317,28.1359508 C15.2927089,28.1359508 13.2411461,26.0603273 13.2411461,23.4999161 Z M34.6795798,15.2799405 L43.2113841,15.2799405 C45.7421069,15.2799405 47.7936697,13.204317 47.7936697,10.6439058 L47.7936697,10.6439058 C47.7957287,9.41298972 47.3138663,8.23177305 46.4542983,7.36064478 C45.5947303,6.48951651 44.4280292,6 43.2113841,6 L34.6795798,6 C33.4629348,6 32.2962336,6.48951651 31.4366656,7.36064478 C30.5770976,8.23177305 30.0952352,9.41298972 30.0972942,10.6439058 L30.0972942,10.6439058 C30.0972942,13.204317 32.148857,15.2799405 34.6795798,15.2799405 L34.6795798,15.2799405 Z M5.37581463,40.9919611 L21.9467049,40.9919611 C24.4774277,40.9919611 26.5289905,38.9163376 26.5289905,36.3559264 L26.5289905,36.3559264 C26.5310495,35.1250103 26.0491871,33.9437936 25.1896191,33.0726654 C24.3300511,32.2015371 23.16335,31.7120206 21.9467049,31.7120206 L5.37581463,31.7120206 C4.15916953,31.7120206 2.99246838,32.2015371 2.13290038,33.0726654 C1.27333238,33.9437936 0.791469978,35.1250103 0.793528975,36.3559264 L0.793528975,36.3559264 C0.793528975,38.9163376 2.8450918,40.9919611 5.37581463,40.9919611 Z M27.1383985,28.1359508 L28.759182,28.1359508 L32.5453322,18.8560103 L30.3799654,18.8560103 L28.0719698,24.9429376 L28.0460372,24.9429376 L25.7769404,18.8560103 L23.4689447,18.8560103 L27.1383985,28.1359508 Z M35.5535063,28.1359508 L37.5762441,28.1359508 L37.5762441,18.8560103 L35.5535063,18.8560103 L35.5535063,28.1359508 Z M41.3105292,28.1359508 L47.7806968,28.1359508 L47.7806968,26.2547754 L43.333267,26.2547754 L43.333267,24.365729 L47.3139112,24.365729 L47.3139112,22.4766826 L43.333267,22.4766826 L43.333267,20.7450567 L47.547304,20.7450567 L47.547304,18.8560103 L41.3234955,18.8560103 L41.3105292,28.1359508 Z M2.61918609,15.2878115 L4.64192387,15.2878115 L4.64192387,7.81033614 L7.26110997,7.81033614 L7.26110997,6 L0,6 L0,7.81033614 L2.61918609,7.81033614 L2.61918609,15.2878115 Z M10.1136889,15.2878115 L12.1364267,15.2878115 L12.1364267,11.2735879 L16.0522395,11.2735879 L16.0522395,15.2878115 L18.0749773,15.2878115 L18.0749773,6 L16.0522395,6 L16.0522395,9.46325175 L12.1234604,9.46325175 L12.1234604,6 L10.1136889,6 L10.1136889,15.2878115 Z M20.8108598,15.2878115 L27.2939937,15.2878115 L27.2939937,13.3987651 L22.8206313,13.3987651 L22.8206313,11.5097187 L26.8012755,11.5097187 L26.8012755,9.62067229 L22.8206313,9.62067229 L22.8206313,7.88904641 L27.0346684,7.88904641 L27.0346684,6 L20.8108598,6 L20.8108598,15.2878115 Z M0.324156695,28.1438218 L2.3339282,28.1438218 L2.3339282,21.0205426 L2.35986074,21.0205426 L4.69378894,28.1438218 L6.22380854,28.1438218 L8.63553435,21.0205426 L8.66146689,21.0205426 L8.66146689,28.1438218 L10.6842047,28.1438218 L10.6842047,18.8560103 L7.63713173,18.8560103 L5.51066381,24.9167009 L5.48473128,24.9167009 L3.37122963,18.8560103 L0.311190427,18.8560103 L0.324156695,28.1438218 Z M29.3919358,40.9999181 L32.6749948,40.9999181 C33.3400478,41.0033066 34.0015445,40.9015016 34.6354945,40.6981094 C35.2337705,40.5090681 35.7921431,40.2092586 36.2822105,39.8139308 C36.7587212,39.4215584 37.1453731,38.9292168 37.4154624,38.3709092 C37.7147563,37.7520269 37.8674701,37.0711259 37.861502,36.3821631 C37.8826422,35.6363647 37.7335597,34.8956747 37.4258354,34.2176308 C37.1554179,33.6461258 36.7534578,33.1485779 36.2536848,32.7667382 C35.7302261,32.3870786 35.1367406,32.1176355 34.5084251,31.9743881 C33.8239393,31.8013831 33.1211905,31.7132798 32.4156695,31.7120206 L29.3789696,31.7120206 L29.3919358,40.9999181 Z M31.4172669,33.601038 L32.6101635,33.601038 C33.0192626,33.5995918 33.4266659,33.6543141 33.8212129,33.7637349 C34.1839549,33.863556 34.525161,34.0308221 34.8273953,34.2569859 C35.1145948,34.4781981 35.3471665,34.7637912 35.5068277,35.0913147 C35.6849713,35.4602257 35.7738578,35.8667059 35.7661531,36.2772161 C35.7772747,36.7353486 35.6887448,37.1903563 35.5068277,37.6100433 C35.3517728,37.9559334 35.1137681,38.2571548 34.814429,38.4863509 C34.5046164,38.7162435 34.1516229,38.8796325 33.7771276,38.9664835 C33.3519603,39.0655813 32.9167932,39.1140112 32.4805008,39.1107857 L31.4043006,39.1107857 L31.4172669,33.601038 Z M40.7892852,40.9998321 L44.5495029,40.9998321 C44.9617439,40.9989029 45.37279,40.9549422 45.7761118,40.8686483 C46.1670577,40.7897739 46.5416453,40.6433289 46.8834311,40.4357419 C47.207972,40.239821 47.4831569,39.970389 47.6873397,39.6486392 C47.9060022,39.2782992 48.0140783,38.8518576 47.9985301,38.420759 C48.0007829,38.1345401 47.9524813,37.8502156 47.8559012,37.5811828 C47.7663522,37.3271116 47.6279792,37.0934873 47.4487604,36.8937798 C47.2683277,36.6937837 47.0529315,36.5292295 46.8134133,36.4083999 C46.5549738,36.2748792 46.2762166,36.1861914 45.9887586,36.1460323 L45.9887586,36.1197955 C46.4341188,35.9902207 46.8330303,35.7333071 47.1375699,35.379919 C47.4357677,35.0110095 47.5898577,34.5442502 47.5706433,34.0680813 C47.5912889,33.6406568 47.4876035,33.2164888 47.2724191,32.8480721 C47.079314,32.5447246 46.8111028,32.2977891 46.4944431,32.1318087 C46.1557647,31.9567516 45.7900612,31.8414059 45.4130563,31.7907309 C45.0151537,31.7354469 44.6140166,31.7073973 44.2123799,31.7067732 L40.7892852,31.7067732 L40.7892852,40.9998321 Z M42.812023,33.4436465 L44.1864474,33.4436465 C44.3473347,33.4445318 44.5078468,33.4594546 44.6661993,33.488249 C44.820101,33.515379 44.968854,33.5667254 45.1070524,33.6404221 C45.2365441,33.7102266 45.3463207,33.8122613 45.4260226,33.9368975 C45.5126878,34.0802599 45.5551239,34.2465149 45.5479055,34.4144064 C45.5524853,34.5786981 45.5149634,34.7413929 45.4389889,34.886668 C45.3688411,35.0147352 45.2680941,35.1229783 45.1459512,35.2015091 C45.0213939,35.2825003 44.8835019,35.3402591 44.7388104,35.372048 C44.5873134,35.4066237 44.4325147,35.4242208 44.2772113,35.4245215 L42.7886837,35.4245215 L42.812023,33.4436465 Z M42.812023,37.1561474 L44.3420426,37.1561474 C44.5199255,37.1570501 44.6975415,37.1701989 44.8736596,37.1955025 C45.0521033,37.2201199 45.2265169,37.2686464 45.3923103,37.3398047 C45.5520033,37.4060473 45.6928351,37.5115576 45.8020444,37.6467747 C45.9135913,37.7978249 45.9703638,37.9831103 45.9628261,38.1715098 C45.9694005,38.3501362 45.9272316,38.5271451 45.8409432,38.6831266 C45.7614461,38.8197333 45.6523935,38.9363443 45.521973,39.0242044 C45.3904996,39.1127808 45.2435047,39.1751182 45.0888996,39.2078617 C44.9329262,39.2418837 44.7738892,39.2594687 44.6143342,39.2603352 L42.7990567,39.2603352 L42.812023,37.1561474 Z" id="Shape"></path>
            </g>
        </g>
    </g>
</svg>