<?xml version="1.0" encoding="UTF-8"?>
<svg width="48px" height="48px" viewBox="0 0 48 48" version="1.1" xmlns="http://www.w3.org/2000/svg" xmlns:xlink="http://www.w3.org/1999/xlink">
    <title>985F4DB7-6F91-4C62-95C5-B46DCD994DC9</title>
    <g id="UI-kit" stroke="none" stroke-width="1" fill="none" fill-rule="evenodd">
        <g id="Connectors" transform="translate(-220.000000, -1160.000000)" fill-rule="nonzero">
            <g id="Connector/Ably-Copy-61" transform="translate(220.000000, 1160.000000)">
                <g id="cdnlogo_google-apps-script" transform="translate(0.000000, 5.000000)">
                    <path d="M0,32.2841765 C0,29.128389 2.53381283,26.5700457 5.65907573,26.5700457 L33.3307224,26.5700457 C36.456195,26.5700457 38.9897982,29.1276483 38.9897982,32.2841765 C38.9897982,35.439964 36.4559854,37.9983073 33.3307224,37.9983073 L5.65907573,37.9983073 C2.5336032,37.9983073 0,35.4407047 0,32.2841765 Z M5.65980941,35.0354247 C7.16489947,35.0354247 8.38490284,33.803712 8.38490284,32.2841765 C8.38490284,30.764641 7.16489947,29.5329283 5.65980941,29.5329283 C4.15471935,29.5329283 2.93471599,30.764641 2.93471599,32.2841765 C2.93471599,33.803712 4.15471935,35.0354247 5.65980941,35.0354247 Z M33.3299888,35.0354247 C34.8350788,35.0354247 36.0550822,33.803712 36.0550822,32.2841765 C36.0550822,30.764641 34.8350788,29.5329283 33.3299888,29.5329283 C31.8248987,29.5329283 30.6048953,30.764641 30.6048953,32.2841765 C30.6048953,33.803712 31.8248987,35.0354247 33.3299888,35.0354247 Z" id="Shape" fill="#EA4335"></path>
                    <path d="M6.3655038,12.5052418 C8.20284563,9.95218931 11.7421131,9.38606709 14.2703709,11.2407258 L36.6573278,27.6617621 C39.1859001,29.5165267 39.7466405,33.0891282 37.9087746,35.6428156 C36.0715376,38.1959739 32.5322701,38.7620961 30.0039074,36.9074374 L7.61695055,20.4862953 C5.0884831,18.6316366 4.52774272,15.0589292 6.3655038,12.5052418 L6.3655038,12.5052418 Z M9.34256355,18.0897465 C10.5601563,18.982844 12.2643878,18.7103646 13.148995,17.4810857 C14.0336023,16.2518069 13.7637132,14.5312186 12.5461205,13.6381211 C11.3285278,12.7450237 9.62429629,13.017503 8.73968904,14.2467819 C7.85508179,15.4760607 8.12497085,17.196649 9.34256355,18.0897465 L9.34256355,18.0897465 Z M31.7281579,34.5099363 C32.9458554,35.4030338 34.6499821,35.1305544 35.5345893,33.9012755 C36.4191966,32.6719967 36.1493075,30.9515142 34.9317148,30.0584167 C33.7141221,29.1653193 32.0099954,29.4377986 31.1253882,30.6670775 C30.2407809,31.8963563 30.51067,33.6168388 31.7282627,34.5099363 L31.7281579,34.5099363 Z" id="Shape" fill="#FBBC04"></path>
                    <path d="M23.0304982,0.281234555 C26.0032607,-0.693977103 29.1962317,0.948412235 30.1619629,3.94917745 L38.7130964,30.519145 C39.6789324,33.5201218 38.0525757,36.7433149 35.0790795,37.7186324 C32.1062122,38.693844 28.9132412,37.0514547 27.94751,34.0506895 L19.3963765,7.48072192 C18.4306453,4.47974507 20.057002,1.25665785 23.0304982,0.281234555 L23.0304982,0.281234555 Z M22.1877106,6.56593191 C22.6527583,8.0109721 24.1901302,8.80185013 25.621538,8.33233905 C27.0529457,7.86272215 27.8362004,6.31059491 27.3711528,4.86555472 C26.9061051,3.42040871 25.3687332,2.6296365 23.9373254,3.09914758 C22.5059177,3.56865866 21.722663,5.1207859 22.1877106,6.56593191 L22.1877106,6.56593191 Z M30.7382153,33.1343122 C31.2033678,34.5794582 32.7407397,35.3702304 34.1720426,34.9007193 C35.6034504,34.4312082 36.3867051,32.879081 35.9216574,31.4340408 C35.4566098,29.9888948 33.9192378,29.1981226 32.4879349,29.6676337 C31.0565272,30.1371448 30.2732724,31.689272 30.7383201,33.1343122 L30.7382153,33.1343122 Z" id="Shape" fill="#34A853"></path>
                    <path d="M44.1811012,0.467578709 C47.1367794,1.49506408 48.7076909,4.74672196 47.690183,7.73002733 L38.6812338,34.1451843 C37.663621,37.1287013 34.4435039,38.71469 31.4873016,37.686993 C28.5318329,36.6595076 26.9608166,33.4078497 27.9782197,30.4245444 L36.9872738,4.00938746 C38.0048865,1.02587045 41.2250037,-0.560118298 44.181206,0.467684527 L44.1811012,0.467578709 Z M39.7619429,4.97465229 C39.2719502,6.41133292 40.0282684,7.97711058 41.4512912,8.47180616 C42.874314,8.96650175 44.4252066,8.20281875 44.9150946,6.7660323 C45.4050873,5.32945749 44.6487691,3.76378565 43.2257463,3.26909006 C41.8027235,2.77439448 40.2518309,3.53797166 39.7619429,4.97465229 Z M30.7534129,31.3884336 C30.2634202,32.8251142 31.0197384,34.3908919 32.4427612,34.8854816 C33.8657841,35.3801772 35.4166767,34.6166 35.9065646,33.1799194 C36.3965574,31.7432388 35.6402391,30.1774611 34.2172163,29.6828714 C32.7941935,29.1881758 31.2433009,29.951753 30.7534129,31.3884336 Z" id="Shape" fill="#4285F4"></path>
                </g>
            </g>
        </g>
    </g>
</svg>