<?xml version="1.0" encoding="UTF-8"?>
<svg width="48px" height="48px" viewBox="0 0 48 48" version="1.1" xmlns="http://www.w3.org/2000/svg" xmlns:xlink="http://www.w3.org/1999/xlink">
    <title>16483DE8-1F76-4CA6-8809-D2AAE9217E09</title>
    <g id="UI-kit" stroke="none" stroke-width="1" fill="none" fill-rule="evenodd">
        <g id="Connectors" transform="translate(-720.000000, -1160.000000)">
            <g id="Connector/Ably-Copy-66" transform="translate(720.000000, 1160.000000)">
                <rect id="Rectangle" fill="#232323" x="1" y="1" width="46" height="46" rx="6"></rect>
                <path d="M10.2929688,32.1210938 L10.2929688,21.0585938 L15.6367188,28.4765625 L20.9921875,21.0585938 L20.9921875,32.1210938 L24.2851562,32.1210938 L24.2851562,15.3164062 L21.1328125,15.3164062 L15.6367188,23.2617188 L10.140625,15.3164062 L7,15.3164062 L7,32.1210938 L10.2929688,32.1210938 Z M34.1992188,32.4960938 L34.2578125,32.4609375 C36.2382812,32.4609375 37.8554688,31.9570312 39.0976562,30.9492188 C40.3398438,29.9414062 40.9609375,28.7109375 40.9609375,27.2460938 C40.9609375,25.9804688 40.5742188,25.0078125 39.8007812,24.328125 C39.0273438,23.6484375 37.9023438,23.0859375 36.4375,22.640625 L32.265625,21.2929688 C31.1992188,20.9765625 30.6601562,20.4492188 30.6601562,19.7109375 C30.6601562,19.2070312 30.90625,18.7734375 31.4101562,18.421875 C31.9140625,18.0703125 32.5585938,17.8945312 33.3554688,17.8945312 C34.28125,17.8945312 35.1132812,18.1054688 35.8515625,18.5273438 C36.5898438,18.9492188 37.140625,19.5 37.4921875,20.1914062 L40.5507812,19.3007812 C40.0703125,18.0703125 39.1796875,17.0507812 37.8789062,16.2304688 C36.578125,15.4101562 35.0546875,15 33.3085938,15 C31.5859375,15 30.1445312,15.46875 28.9960938,16.40625 C27.8476562,17.34375 27.2734375,18.4804688 27.2851562,19.8046875 C27.2734375,20.8476562 27.6132812,21.7265625 28.3046875,22.453125 C28.9960938,23.1796875 29.921875,23.7304688 31.09375,24.09375 L35.3828125,25.4414062 C36.1914062,25.6875 36.765625,25.9804688 37.1054688,26.3085938 C37.4453125,26.6367188 37.609375,27.0234375 37.609375,27.46875 C37.609375,28.0429688 37.3164062,28.5351562 36.71875,28.9570312 C36.1210938,29.3789062 35.3476562,29.5898438 34.3984375,29.5898438 C33.2382812,29.5898438 32.2304688,29.296875 31.3867188,28.7109375 C30.5429688,28.125 29.9453125,27.375 29.59375,26.4492188 L26.4414062,27.3984375 C26.9570312,28.828125 27.8945312,30.0351562 29.2539062,31.0195312 C30.6132812,32.0039062 32.265625,32.4960938 34.1992188,32.4960938 Z" id="MS" fill="#FFFFFF" fill-rule="nonzero"></path>
            </g>
        </g>
    </g>
</svg>