<?xml version="1.0" encoding="UTF-8"?>
<svg width="50px" height="50px" viewBox="0 0 50 50" version="1.1" xmlns="http://www.w3.org/2000/svg" xmlns:xlink="http://www.w3.org/1999/xlink">
    <title>04BAC317-E0A2-4341-BDDD-E9CDD6B412E0</title>
    <g id="UI-kit" stroke="none" stroke-width="1" fill="none" fill-rule="evenodd" stroke-linecap="round" stroke-linejoin="round">
        <g id="Connectors" transform="translate(-919.000000, -1159.000000)">
            <g id="Connector/Ably-Copy-68" transform="translate(920.000000, 1160.000000)">
                <g id="Group" transform="translate(0.299727, 0.301884)">
                    <g transform="translate(0.000000, 7.138347)">
                        <path d="M10.6827354,31.4236968 C6.71554305,31.4236968 3.49946767,28.1844828 3.49946767,24.1887478 C3.49946767,20.1930127 6.71554305,16.9537987 10.6827354,16.9537987 C14.6499277,16.9537987 17.8660031,20.1930127 17.8660031,24.1887478 C17.8660031,28.1844828 14.6499277,31.4236968 10.6827354,31.4236968 Z M19.3742316,30.4588759 C21.9578821,26.6756672 21.852378,21.6529232 19.1122698,17.9832227 C16.3721616,14.3135223 11.6100921,12.8173858 7.28442573,14.2676359 C2.95875938,15.7178861 0.0370163383,19.7902996 0.0274250603,24.3819534 C-0.00914168678,24.9199105 -0.00914168678,25.4596789 0.0274250603,25.997636 C0.0759809049,26.3556703 0.147915489,26.7100819 0.242629359,27.0590597 L0.386498528,27.5656208 C0.598106097,28.2249352 0.870858063,28.8631178 1.20055824,29.4711119 C1.68491778,30.3616693 2.29816011,31.1743407 3.02050323,31.8825603 L3.3795767,32.2442172 L4.16965822,32.8950789 C4.71456269,33.308056 5.3002301,33.6636752 5.91766862,33.9565026 C9.39330796,35.7527117 13.5679117,35.484035 16.7881832,33.2573395 L23.8042031,40.3232336 C23.9528393,40.474595 24.1554225,40.5597695 24.3667914,40.5597695 C24.5781604,40.5597695 24.7807436,40.474595 24.9293798,40.3232336 L26.5095429,38.7558525 C26.659823,38.6061469 26.7443891,38.4021062 26.7443891,38.1892165 C26.7443891,37.9763267 26.659823,37.772286 26.5095429,37.6225804 L19.3742316,30.4588759 Z" id="Shape" fill="#4285F4"></path>
                        <path d="M23.493086,27.4207166 C23.8224225,26.2357629 23.9836749,25.0098431 23.9720504,23.7793932 C23.8281812,16.4418036 17.8252402,10.6003506 10.5394657,10.708425 C8.97069228,10.7271418 7.4163058,11.0127239 5.94224627,11.5524923 L5.94224627,1.49492897 C5.94224627,1.09825356 6.09870399,0.717879866 6.37685105,0.437731626 C6.65499811,0.157583385 7.03265468,0 7.42649653,0 L46.1920441,0 C47.0156951,0 47.687684,0.665352071 47.7002726,1.49492897 L47.7002726,26.0211829 C47.7002726,26.8604201 47.0246869,27.5402626 46.1920441,27.5402626 L23.493086,27.4207166 Z" id="Path" fill="#AECBFA"></path>
                    </g>
                    <path d="M32.5430562,7.13834663 L32.5430562,3.56947541 L21.9123235,3.56947541 L21.9123235,7.1389504 L18.3443681,7.1389504 L18.3443681,1.49492938 C18.3575561,0.665352482 19.0289456,-0.000603357545 19.8525965,0 L34.6021836,0 C34.9960255,0 35.3736821,0.157583796 35.6518291,0.437732036 C35.9299762,0.717880277 36.0864339,1.09825397 36.0864339,1.49492938 L36.0864339,7.13834663 L32.5430562,7.13834663 Z" id="Path" fill="#669DF6"></path>
                    <path d="M32.5436556,7.13834663 L36.0876328,6.00507455 L36.0876328,7.13834663 L32.5436556,7.13834663 Z M18.3203899,7.13834663 L21.8883453,5.83601958 L21.8883453,7.13834663 L18.3203899,7.13834663 L18.3203899,7.13834663 Z" id="Shape" fill="#4285F4"></path>
                </g>
                <g id="Group">
                    <g transform="translate(0.000000, 7.138347)">
                        <path d="M10.6827354,31.4236968 C6.71554305,31.4236968 3.49946767,28.1844828 3.49946767,24.1887478 C3.49946767,20.1930127 6.71554305,16.9537987 10.6827354,16.9537987 C14.6499277,16.9537987 17.8660031,20.1930127 17.8660031,24.1887478 C17.8660031,28.1844828 14.6499277,31.4236968 10.6827354,31.4236968 Z M19.3742316,30.4588759 C21.9578821,26.6756672 21.852378,21.6529232 19.1122698,17.9832227 C16.3721616,14.3135223 11.6100921,12.8173858 7.28442573,14.2676359 C2.95875938,15.7178861 0.0370163383,19.7902996 0.0274250603,24.3819534 C-0.00914168678,24.9199105 -0.00914168678,25.4596789 0.0274250603,25.997636 C0.0759809049,26.3556703 0.147915489,26.7100819 0.242629359,27.0590597 L0.386498528,27.5656208 C0.598106097,28.2249352 0.870858063,28.8631178 1.20055824,29.4711119 C1.68491778,30.3616693 2.29816011,31.1743407 3.02050323,31.8825603 L3.3795767,32.2442172 L4.16965822,32.8950789 C4.71456269,33.308056 5.3002301,33.6636752 5.91766862,33.9565026 C9.39330796,35.7527117 13.5679117,35.484035 16.7881832,33.2573395 L23.8042031,40.3232336 C23.9528393,40.474595 24.1554225,40.5597695 24.3667914,40.5597695 C24.5781604,40.5597695 24.7807436,40.474595 24.9293798,40.3232336 L26.5095429,38.7558525 C26.659823,38.6061469 26.7443891,38.4021062 26.7443891,38.1892165 C26.7443891,37.9763267 26.659823,37.772286 26.5095429,37.6225804 L19.3742316,30.4588759 Z" id="Shape" fill="#4285F4"></path>
                        <path d="M23.493086,27.4207166 C23.8224225,26.2357629 23.9836749,25.0098431 23.9720504,23.7793932 C23.8281812,16.4418036 17.8252402,10.6003506 10.5394657,10.708425 C8.97069228,10.7271418 7.4163058,11.0127239 5.94224627,11.5524923 L5.94224627,1.49492897 C5.94224627,1.09825356 6.09870399,0.717879866 6.37685105,0.437731626 C6.65499811,0.157583385 7.03265468,0 7.42649653,0 L46.1920441,0 C47.0156951,0 47.687684,0.665352071 47.7002726,1.49492897 L47.7002726,26.0211829 C47.7002726,26.8604201 47.0246869,27.5402626 46.1920441,27.5402626 L23.493086,27.4207166 Z" id="Path" fill="#AECBFA"></path>
                    </g>
                    <path d="M32.5430562,7.13834663 L32.5430562,3.56947541 L21.9123235,3.56947541 L21.9123235,7.1389504 L18.3443681,7.1389504 L18.3443681,1.49492938 C18.3575561,0.665352482 19.0289456,-0.000603357545 19.8525965,0 L34.6021836,0 C34.9960255,0 35.3736821,0.157583796 35.6518291,0.437732036 C35.9299762,0.717880277 36.0864339,1.09825397 36.0864339,1.49492938 L36.0864339,7.13834663 L32.5430562,7.13834663 Z" id="Path" fill="#669DF6"></path>
                    <path d="M32.5436556,7.13834663 L36.0876328,6.00507455 L36.0876328,7.13834663 L32.5436556,7.13834663 Z M18.3203899,7.13834663 L21.8883453,5.83601958 L21.8883453,7.13834663 L18.3203899,7.13834663 L18.3203899,7.13834663 Z" id="Shape" fill="#4285F4"></path>
                </g>
            </g>
        </g>
    </g>
</svg>