<?xml version="1.0" encoding="UTF-8"?>
<svg width="48px" height="48px" viewBox="0 0 48 48" version="1.1" xmlns="http://www.w3.org/2000/svg" xmlns:xlink="http://www.w3.org/1999/xlink">
    <title>982F8B17-8CB2-4900-800C-508D8D73ABB3</title>
    <defs>
        <linearGradient x1="50.003%" y1="1.385%" x2="50.003%" y2="101.042%" id="linearGradient-1">
            <stop stop-color="#BF360C" stop-opacity="0.2" offset="0%"></stop>
            <stop stop-color="#BF360C" stop-opacity="0.02" offset="100%"></stop>
        </linearGradient>
        <radialGradient cx="3.44242148%" cy="2.344%" fx="3.44242148%" fy="2.344%" r="483.044553%" gradientTransform="translate(0.034424,0.023440),scale(0.854167,1.000000),translate(-0.034424,-0.023440)" id="radialGradient-2">
            <stop stop-color="#FFFFFF" stop-opacity="0.1" offset="0%"></stop>
            <stop stop-color="#FFFFFF" stop-opacity="0" offset="100%"></stop>
        </radialGradient>
    </defs>
    <g id="UI-kit" stroke="none" stroke-width="1" fill="none" fill-rule="evenodd">
        <g id="Connectors" transform="translate(-1020.000000, -1024.000000)" fill-rule="nonzero">
            <g id="Connector/Ably-Copy-59" transform="translate(1020.000000, 1024.000000)">
                <g id="google-classroom" transform="translate(0.000000, 3.000000)">
                    <polygon id="Path" fill="#0F9D58" points="4.36363636 4.31578947 43.6363636 4.31578947 43.6363636 36.6842105 4.36363636 36.6842105"></polygon>
                    <path d="M32.7272727,21.5789474 C34.0818182,21.5789474 35.1818182,20.4910088 35.1818182,19.1513158 C35.1818182,17.8116228 34.0818182,16.7236842 32.7272727,16.7236842 C31.3727273,16.7236842 30.2727273,17.8116228 30.2727273,19.1513158 C30.2727273,20.4910088 31.3727273,21.5789474 32.7272727,21.5789474 Z M32.7272727,23.1973684 C30.1,23.1973684 27.2727273,24.5730263 27.2727273,26.2813596 L27.2727273,28.0526316 L38.1818182,28.0526316 L38.1818182,26.2813596 C38.1818182,24.5730263 35.3545455,23.1973684 32.7272727,23.1973684 Z M15.2727273,21.5789474 C16.6272727,21.5789474 17.7272727,20.4910088 17.7272727,19.1513158 C17.7272727,17.8116228 16.6272727,16.7236842 15.2727273,16.7236842 C13.9181818,16.7236842 12.8181818,17.8116228 12.8181818,19.1513158 C12.8181818,20.4910088 13.9181818,21.5789474 15.2727273,21.5789474 Z M15.2727273,23.1973684 C12.6454545,23.1973684 9.81818182,24.5730263 9.81818182,26.2813596 L9.81818182,28.0526316 L20.7272727,28.0526316 L20.7272727,26.2813596 C20.7272727,24.5730263 17.9,23.1973684 15.2727273,23.1973684 Z" id="Shape" fill="#57BB8A"></path>
                    <path d="M24,19.4210526 C25.8090909,19.4210526 27.2727273,17.9734649 27.2727273,16.1842105 C27.2727273,14.3949561 25.8090909,12.9473684 24,12.9473684 C22.1909091,12.9473684 20.7272727,14.3949561 20.7272727,16.1842105 C20.7272727,17.9734649 22.1909091,19.4210526 24,19.4210526 Z M24,21.5789474 C20.3181818,21.5789474 16.3636364,23.5120614 16.3636364,25.8947368 L16.3636364,28.0526316 L31.6363636,28.0526316 L31.6363636,25.8947368 C31.6363636,23.5120614 27.6818182,21.5789474 24,21.5789474 Z" id="Shape" fill="#F7F7F7"></path>
                    <polygon id="Path" fill="#F1F1F1" points="28.3636364 34.5263158 38.1818182 34.5263158 38.1818182 36.6842105 28.3636364 36.6842105"></polygon>
                    <path d="M44.7272727,0 L3.27272727,0 C1.46363636,0 0,1.44758772 0,3.23684211 L0,37.7631579 C0,39.5524123 1.46363636,41 3.27272727,41 L44.7272727,41 C46.5363636,41 48,39.5524123 48,37.7631579 L48,3.23684211 C48,1.44758772 46.5363636,0 44.7272727,0 Z M43.6363636,36.6842105 L4.36363636,36.6842105 L4.36363636,4.31578947 L43.6363636,4.31578947 L43.6363636,36.6842105 Z" id="Shape" fill="#F4B400"></path>
                    <path d="M44.7272727,0 L3.27272727,0 C1.46363636,0 0,1.44758772 0,3.23684211 L0,3.50657895 C0,1.71732456 1.46363636,0.269736842 3.27272727,0.269736842 L44.7272727,0.269736842 C46.5363636,0.269736842 48,1.71732456 48,3.50657895 L48,3.23684211 C48,1.44758772 46.5363636,0 44.7272727,0 Z" id="Path" fill="#FFFFFF" opacity="0.2"></path>
                    <path d="M44.7272727,40.7302632 L3.27272727,40.7302632 C1.46363636,40.7302632 0,39.2826754 0,37.4934211 L0,37.7631579 C0,39.5524123 1.46363636,41 3.27272727,41 L44.7272727,41 C46.5363636,41 48,39.5524123 48,37.7631579 L48,37.4934211 C48,39.2826754 46.5363636,40.7302632 44.7272727,40.7302632 Z" id="Path" fill="#BF360C" opacity="0.2"></path>
                    <polygon id="Path" fill="url(#linearGradient-1)" points="38.1636364 36.6842105 28.3454545 36.6842105 32.7090909 41 42.5181818 41"></polygon>
                    <polygon id="Path" fill="#263238" opacity="0.2" points="4.36363636 4.04605263 43.6363636 4.04605263 43.6363636 4.31578947 4.36363636 4.31578947"></polygon>
                    <polygon id="Path" fill="#FFFFFF" opacity="0.2" points="4.36363636 36.6842105 43.6363636 36.6842105 43.6363636 36.9539474 4.36363636 36.9539474"></polygon>
                    <path d="M44.7272727,0 L3.27272727,0 C1.46363636,0 0,1.44758772 0,3.23684211 L0,37.7631579 C0,39.5524123 1.46363636,41 3.27272727,41 L44.7272727,41 C46.5363636,41 48,39.5524123 48,37.7631579 L48,3.23684211 C48,1.44758772 46.5363636,0 44.7272727,0 Z" id="Path" fill="url(#radialGradient-2)"></path>
                </g>
            </g>
        </g>
    </g>
</svg>