<?xml version="1.0" encoding="UTF-8"?>
<svg width="48px" height="48px" viewBox="0 0 48 48" version="1.1" xmlns="http://www.w3.org/2000/svg" xmlns:xlink="http://www.w3.org/1999/xlink">
    <title>6ABA20AE-E6C9-4F5A-801F-CC048C2F86CA</title>
    <g id="UI-kit" stroke="none" stroke-width="1" fill="none" fill-rule="evenodd">
        <g id="Connectors" transform="translate(-820.000000, -2616.000000)" fill="#0074AA" fill-rule="nonzero">
            <g id="Connector/wordpress" transform="translate(820.000000, 2616.000000)">
                <path d="M24,0 C37.248,0 48,10.752 48,24 C48,37.248 37.248,48 24,48 C10.752,48 0,37.248 0,24 C0,10.752 10.752,0 24,0 Z M24,1.44 C21,1.44 18,2.04 15.24,3.216 C11.208,4.92 7.752,7.776 5.304,11.4 C1.032,17.712 0.24,25.752 3.216,32.784 C4.92,36.816 7.776,40.272 11.4,42.72 C17.712,46.992 25.752,47.784 32.784,44.808 C36.816,43.104 40.272,40.248 42.72,36.624 C46.992,30.312 47.784,22.272 44.808,15.24 C43.104,11.208 40.248,7.752 36.624,5.304 C32.904,2.784 28.512,1.44 24,1.44 Z M24.331,25.741 L30.4762766,42.6110433 L30.6202998,42.8750201 C26.6596601,44.266898 22.3629661,44.3628895 18.3303147,43.1869927 L18.3303147,43.1869927 L24.331,25.741 Z M5.72827916,15.8773892 L15.2818223,42.0110959 C8.36870566,38.6753886 4,31.6680036 4,24.0126753 C4,21.2049217 4.57609305,18.4451639 5.72827916,15.8773892 L5.72827916,15.8773892 Z M41.542064,14.4135177 C46.7509053,23.9166838 43.4143664,35.8436371 34.0528543,41.2911591 L34.0528543,41.2911591 L40.173843,23.628709 C41.3020252,20.7969575 41.6860873,18.5171576 41.6860873,16.4773366 C41.6860873,15.7813977 41.6380795,15.0854587 41.542064,14.4135177 Z M9.25684911,10.501861 C16.7220549,2.34257695 29.3720982,1.79062539 37.5094126,9.25397046 L37.5094126,9.25397046 L37.24537,9.25397046 C35.277052,9.25397046 33.8848272,11.173802 33.8848272,12.8056588 C33.8848272,14.4375156 35.085021,16.1413661 35.8531451,17.4852481 C36.6212692,18.8291302 37.5094126,20.5329807 37.5094126,23.0047638 L37.5094126,23.0047638 L37.4854087,22.9807659 C37.4854087,24.7086143 36.9333196,26.7244374 36.0211722,29.5801868 L36.0211722,29.5801868 L33.9568388,36.107614 L26.7316717,14.6055008 C27.9318656,14.5335072 29.0120401,14.4135177 29.0120401,14.4135177 C30.0922145,14.2695303 29.9721952,12.6856693 28.8920207,12.757663 C28.8920207,12.757663 27.2922935,12.8824333 25.6606569,12.9604147 L25.2160519,12.9803935 C24.6253315,13.0051413 24.0492385,13.0216398 23.5631599,13.0216398 C23.1241213,13.0216398 22.615319,13.00818 22.0906452,12.9873391 L21.6382949,12.9678095 C19.9746427,12.8906128 18.3063108,12.757663 18.3063108,12.757663 C17.2261364,12.7096672 17.106117,14.341524 18.1862914,14.4135177 C18.1862914,14.4135177 19.1944543,14.5335072 20.2746288,14.6055008 L20.2746288,14.6055008 L23.3951328,23.1487511 L19.0264271,36.2755992 L11.7532523,14.6055008 C12.9534462,14.5335072 14.0336207,14.4135177 14.0336207,14.4135177 C15.1137952,14.2695303 14.9937758,12.6856693 13.9136013,12.757663 C13.9136013,12.757663 12.3819476,12.8824333 10.7460565,12.9604147 L10.2983923,12.9803935 C9.70092084,13.0051413 9.10682488,13.0216398 8.58474055,13.0216398 L8.58474055,13.0216398 L7.28853118,13.0216398 C7.86462423,12.1337178 8.5367328,11.2937915 9.25684911,10.501861 Z" id="Combined-Shape"></path>
            </g>
        </g>
    </g>
</svg>