<?xml version="1.0" encoding="UTF-8"?>
<svg width="49px" height="48px" viewBox="0 0 49 48" version="1.1" xmlns="http://www.w3.org/2000/svg" xmlns:xlink="http://www.w3.org/1999/xlink">
    <title>C3D73076-706F-4F22-8A14-22D954620B0F</title>
    <g id="UI-kit" stroke="none" stroke-width="1" fill="none" fill-rule="evenodd">
        <g id="Connectors" transform="translate(-720.000000, -1312.000000)" fill="#1D1D1B" fill-rule="nonzero">
            <g id="Connector/Ably-Copy-76" transform="translate(720.000000, 1312.000000)">
                <path d="M39.1361748,14.8582248 L39.1361748,8.33144488 C39.1395705,8.19216271 39.0544141,8.06633149 38.9248219,8.01913956 C38.7952296,7.97194763 38.6503249,8.01400045 38.5651772,8.12351207 L28.2872206,20.0796488 C28.1687777,20.2278944 28.1687777,20.4396833 28.2872206,20.587929 C28.9855521,21.5870539 29.6224655,22.6286849 30.1943526,23.7069211 C30.2521978,23.7891631 30.3458105,23.8380057 30.4455915,23.8380057 C30.5453726,23.8380057 30.6389853,23.7891631 30.6968305,23.7069211 C32.466923,21.5813857 34.122816,20.6687917 36.1098876,20.6687917 C39.9501291,20.82402 42.9842992,24.0183221 42.9842992,27.9060088 C42.9842992,31.7936954 39.9501291,34.9879975 36.1098876,35.1432258 C32.3755634,35.1432258 30.1600927,31.8394045 26.9739262,26.4100477 C25.503704,23.7327246 23.7375101,21.2330503 21.7093284,18.9591219 C19.4577879,16.4213406 16.2526204,14.961731 12.8817056,14.9390876 C5.76733606,14.9390876 0,20.7730215 0,27.9695438 C0,35.166066 5.76733606,41 12.8817056,41 C16.2030991,40.9848474 19.3667728,39.5648607 21.6065488,37.083932 C21.6979084,36.9607126 21.6979084,36.7912859 21.6065488,36.6680664 C20.5559132,35.1894331 19.6308972,33.6645925 18.7629808,32.2090628 C18.7051356,32.1268209 18.6115229,32.0779782 18.5117419,32.0779782 C18.4119608,32.0779782 18.3183481,32.1268209 18.2605029,32.2090628 C16.6617097,34.1382172 14.9943967,35.258744 12.8474458,35.258744 C9.00720431,35.1035157 5.97303421,31.9092136 5.97303421,28.021527 C5.97303421,24.1338404 9.00720431,20.9395382 12.8474458,20.78431 L13.2814039,20.78431 L13.498383,20.78431 L13.7153621,20.78431 L13.9095013,20.78431 L14.0351208,20.78431 L14.21784,20.78431 L14.3434595,20.78431 L14.5147587,20.78431 L14.6517982,20.78431 L14.8230974,20.78431 L14.9487169,20.78431 L15.1085962,20.8536209 L15.2342157,20.8536209 L15.405515,20.9344836 L15.5197145,20.9344836 L15.7138537,21.0500019 L15.7937933,21.0500019 L16.0678722,21.2232792 L16.1363919,21.2232792 C16.2056945,21.2625315 16.2707597,21.3089903 16.3305311,21.3619011 L16.4333106,21.431212 L16.6046099,21.5582821 L16.7073895,21.6391448 L16.8672688,21.7662149 L16.9814683,21.8701813 L17.1299277,21.9972514 L17.2441272,22.1012178 L17.3811666,22.2398396 C17.4247751,22.272299 17.4632774,22.3112459 17.4953662,22.3553579 L17.6438255,22.5055316 L17.7580251,22.6210498 L19.425338,25.3357282 L19.5509575,25.5090055 L19.6879969,25.7169383 C19.6879969,25.7169383 19.7679366,25.8324566 19.8021964,25.9017675 L19.9392359,26.0981485 C19.9850919,26.1609122 20.027046,26.226499 20.0648553,26.2945295 L20.2018947,26.5024623 C20.2018947,26.5024623 20.2818344,26.6295323 20.3275142,26.6988433 L20.4645536,26.9067761 L20.5901731,27.1147089 C20.6361651,27.1813861 20.6781153,27.2508246 20.7157926,27.3226417 L20.8642519,27.5536782 L20.8642519,27.6229891 C21.2220771,28.2005802 21.6027422,28.8128269 22.0062471,29.4597289 C22.8399036,30.8690513 23.68498,32.3014774 24.6099961,33.6530406 C24.6670959,33.7339034 24.7127757,33.8147662 24.7698755,33.8840771 L24.9411747,34.1382172 L25.1010541,34.3577018 L25.2837733,34.6118419 L25.4322327,34.8082229 L25.6263719,35.0739149 L25.7748312,35.258744 L25.9918103,35.5359878 L26.1288497,35.6977133 L26.3572488,35.974957 L26.4828682,36.1251307 L26.7455271,36.43703 L26.8483067,36.5525482 L27.2251651,36.956862 C27.6992596,37.4495638 28.2026757,37.9124995 28.7325987,38.3430807 C29.394417,38.8614494 30.1015737,39.3177091 30.8452898,39.7061958 C31.2107283,39.891025 31.5761667,40.0643023 31.987285,40.214476 C32.3984033,40.3646497 32.7295819,40.480168 33.1292802,40.5841344 C34.1085666,40.8503005 35.1187214,40.9823989 36.1327275,40.9768964 C42.5730553,40.9690859 48.0180516,36.1510874 48.8824392,29.695329 C49.7468268,23.2395705 45.76496,17.1300525 39.5587131,15.3896087 C39.3141086,15.3313864 39.1399644,15.1123827 39.1361748,14.8582248 Z" id="Path"></path>
            </g>
        </g>
    </g>
</svg>