<?xml version="1.0" encoding="UTF-8"?>
<svg width="48px" height="48px" viewBox="0 0 48 48" version="1.1" xmlns="http://www.w3.org/2000/svg" xmlns:xlink="http://www.w3.org/1999/xlink">
    <title>15CDB17A-180F-4F2C-90CE-03C303867EFB</title>
    <g id="UI-kit" stroke="none" stroke-width="1" fill="none" fill-rule="evenodd">
        <g id="Connectors" transform="translate(-420.000000, -2168.000000)">
            <g id="Connector/Ably-Copy-133" transform="translate(420.000000, 2168.000000)">
                <circle id="Oval" fill="#2C3156" cx="24" cy="24" r="24"></circle>
                <g id="Group" transform="translate(12.000000, 9.000000)" fill="#FFFFFF" fill-rule="nonzero">
                    <path d="M18.9152542,21.7099863 C17.5728814,19.5759234 16.5559322,18.1805746 15.8644068,17.6470588 C19.3627119,16.744186 22.820339,13.7893297 22.820339,8.94664843 C22.820339,3.0369357 18.7932203,0.205198358 12.4067797,0.205198358 L12.4067797,0.205198358 L12.4067797,0.205198358 C6.79322034,0.205198358 3.53898305,2.87277702 2.80677966,7.51025992 L0,7.51025992 L5.57288136,12.3119015 L11.4711864,7.51025992 L8.29830508,7.51025992 C8.29830508,7.51025992 8.33898305,4.18604651 12.4881356,4.18604651 C16.0271186,4.18604651 17.2474576,6.8125855 17.2474576,8.9876881 C17.2474576,12.1477428 15.579661,14.5690834 11.5932203,14.5690834 L2.76610169,14.5690834 L2.76610169,30 L8.33898305,30 L8.33898305,18.3857729 L8.33898305,18.3857729 C9.55932203,18.3857729 10.7389831,18.8372093 12.8135593,21.9151847 L17.7762712,30 L24,30 L18.9152542,21.7099863 Z" id="Path"></path>
                    <path d="M12.2440678,0.205198358 L12.4067797,0.205198358 L12.4067797,0.205198358 C12.4067797,0.205198358 12.2440678,0.205198358 12.2440678,0.205198358 Z" id="Path"></path>
                    <line x1="12.2440678" y1="0.205198358" x2="12.2440678" y2="0.205198358" id="Path"></line>
                </g>
            </g>
        </g>
    </g>
</svg>