<?xml version="1.0" encoding="UTF-8"?>
<svg width="48px" height="48px" viewBox="0 0 48 48" version="1.1" xmlns="http://www.w3.org/2000/svg" xmlns:xlink="http://www.w3.org/1999/xlink">
    <title>E1F6E61A-1B18-4B2E-A9D1-4D8987F4827D</title>
    <g id="UI-kit" stroke="none" stroke-width="1" fill="none" fill-rule="evenodd">
        <g id="Connectors" transform="translate(-820.000000, -2024.000000)">
            <g id="Connector/Ably-Copy-127" transform="translate(820.000000, 2024.000000)">
                <rect id="Rectangle" fill="#F00000" x="1" y="1" width="46" height="46" rx="6"></rect>
                <path d="M6.11563981,29.8815166 L6.11563981,26.5601896 L9.00473934,26.5601896 C10.1800948,26.5601896 11.1203791,26.1810427 11.8180095,25.4227488 C12.5156398,24.664455 12.864455,23.7848341 12.864455,22.7914692 C12.864455,21.8208531 12.5156398,20.9488152 11.8180095,20.1753555 C11.1203791,19.4018957 10.2104265,19.0151659 9.08056872,19.0151659 L9.0957346,19.0075829 L4,19.0075829 L4,29.8815166 L6.11563981,29.8815166 Z M8.92132701,24.6720379 L6.10047393,24.6720379 L6.10047393,20.9412322 L9.01990521,20.9412322 C9.52796209,20.9412322 9.9450237,21.1308057 10.278673,21.5023697 C10.6123223,21.8739336 10.7791469,22.3061611 10.7791469,22.7990521 C10.7791469,23.2919431 10.6047393,23.7241706 10.2559242,24.0957346 C9.907109,24.4672986 9.45971564,24.656872 8.90616114,24.656872 L8.92132701,24.6720379 Z M18.9080569,29.8815166 C20.4777251,29.8815166 21.7364929,29.3734597 22.6843602,28.357346 C23.6322275,27.3412322 24.1023697,26.0369668 24.1023697,24.4445498 C24.1023697,22.8293839 23.6246445,21.5175355 22.6767773,20.5090047 C21.72891,19.5004739 20.4701422,19 18.9004739,19 L18.9080569,19.0075829 L14.1838863,19.0075829 L14.1838863,29.8815166 L18.9080569,29.8815166 Z M18.8473934,27.9554502 L18.8549763,27.9478673 L16.2919431,27.9478673 L16.2919431,20.9109005 L18.8549763,20.9109005 C19.7876777,20.9109005 20.5383886,21.2293839 21.107109,21.8739336 C21.6758294,22.5184834 21.9563981,23.3601896 21.9563981,24.3990521 C21.9563981,25.4530806 21.6682464,26.3099526 21.0995261,26.9696682 C20.5308057,27.6293839 19.7800948,27.9554502 18.8473934,27.9554502 Z M27.8028436,29.8815166 L27.8028436,25.5668246 L32.7848341,25.5668246 L32.7848341,23.6559242 L27.8028436,23.6559242 L27.8028436,20.9488152 L33.5810427,20.9488152 L33.5810427,19.0075829 L25.6720379,19.0075829 L25.6720379,29.8815166 L27.8028436,29.8815166 Z M40.307109,29.8890995 C41.4521327,29.8890995 42.3545024,29.6085308 43.014218,29.0549763 C43.6739336,28.5014218 44,27.7507109 44,26.8104265 C44,26.2113744 43.8483412,25.6881517 43.5374408,25.2331754 C43.2265403,24.7781991 42.7943128,24.4293839 42.2407583,24.1791469 L42.2559242,24.1791469 C43.1582938,23.6938389 43.6056872,22.935545 43.6056872,21.9118483 C43.5981043,21.0549763 43.264455,20.357346 42.6047393,19.8189573 C41.9450237,19.2805687 41.0805687,19.0151659 40.0113744,19.0151659 L34.8246445,19.0151659 L34.8246445,29.8890995 L40.307109,29.8890995 Z M40.0341232,23.5345972 L36.9023697,23.5345972 L36.9023697,20.850237 L39.9886256,20.842654 C40.436019,20.8350711 40.8,20.9563981 41.0805687,21.2066351 C41.3611374,21.456872 41.4976303,21.7753555 41.4976303,22.1620853 C41.5052133,22.5488152 41.3687204,22.8748815 41.0957346,23.1402844 C40.8227488,23.4056872 40.4663507,23.5345972 40.0341232,23.5345972 Z M40.2995261,28.0388626 L36.9023697,28.0388626 L36.9023697,25.2180095 L40.2995261,25.2180095 C40.7848341,25.2180095 41.171564,25.3469194 41.4597156,25.6123223 C41.7478673,25.8777251 41.8919431,26.2113744 41.8919431,26.6132701 C41.8919431,27.0303318 41.7478673,27.371564 41.4597156,27.6369668 C41.171564,27.9023697 40.7848341,28.0388626 40.2995261,28.0388626 Z" id="PDFB" fill="#FFFFFF" fill-rule="nonzero"></path>
            </g>
        </g>
    </g>
</svg>