<?xml version="1.0" encoding="UTF-8"?>
<svg width="48px" height="48px" viewBox="0 0 48 48" version="1.1" xmlns="http://www.w3.org/2000/svg" xmlns:xlink="http://www.w3.org/1999/xlink">
    <title>C37EAC51-DD0A-4574-BBEA-D13877D62B71</title>
    <g id="UI-kit" stroke="none" stroke-width="1" fill="none" fill-rule="evenodd">
        <g id="Connectors" transform="translate(-220.000000, -600.000000)">
            <g id="Connector/Ably-Copy-21" transform="translate(220.000000, 600.000000)">
                <rect id="Rectangle" fill="#068ACA" x="1" y="1" width="46" height="46" rx="6"></rect>
                <path d="M6.50488281,29.8408203 L6.50488281,17.2373047 L4,17.2373047 L4,29.8408203 L6.50488281,29.8408203 Z M13.9404297,30.1220703 L13.984375,30.0957031 C15.4697266,30.0957031 16.6826172,29.7177734 17.6142578,28.9619141 C18.5458984,28.2060547 19.0117188,27.2832031 19.0117188,26.1845703 C19.0117188,25.2353516 18.7216797,24.5058594 18.1416016,23.9960938 C17.5615234,23.4863281 16.7177734,23.0644531 15.6191406,22.7304688 L12.4902344,21.7197266 C11.6904297,21.4824219 11.2861328,21.0869141 11.2861328,20.5332031 C11.2861328,20.1552734 11.4707031,19.8300781 11.8486328,19.5664062 C12.2265625,19.3027344 12.7099609,19.1708984 13.3076172,19.1708984 C14.0019531,19.1708984 14.6259766,19.3291016 15.1796875,19.6455078 C15.7333984,19.9619141 16.1464844,20.375 16.4101562,20.8935547 L18.7041016,20.2255859 C18.34375,19.3027344 17.6757812,18.5380859 16.7001953,17.9228516 C15.7246094,17.3076172 14.5820312,17 13.2724609,17 C11.9804688,17 10.8994141,17.3515625 10.0380859,18.0546875 C9.17675781,18.7578125 8.74609375,19.6103516 8.75488281,20.6035156 C8.74609375,21.3857422 9.00097656,22.0449219 9.51953125,22.5898438 C10.0380859,23.1347656 10.7324219,23.5478516 11.6113281,23.8203125 L14.828125,24.8310547 C15.4345703,25.015625 15.8652344,25.2353516 16.1201172,25.4814453 C16.375,25.7275391 16.4980469,26.0175781 16.4980469,26.3515625 C16.4980469,26.7822266 16.2783203,27.1513672 15.8300781,27.4677734 C15.3818359,27.7841797 14.8017578,27.9423828 14.0898438,27.9423828 C13.2197266,27.9423828 12.4638672,27.7226562 11.8310547,27.2832031 C11.1982422,26.84375 10.75,26.28125 10.4863281,25.5869141 L8.12207031,26.2988281 C8.50878906,27.3710938 9.21191406,28.2763672 10.2314453,29.0146484 C11.2509766,29.7529297 12.4902344,30.1220703 13.9404297,30.1220703 Z M27.203125,29.8496094 C28.5302734,29.8496094 29.5761719,29.5244141 30.3408203,28.8828125 C31.1054688,28.2412109 31.4833984,27.3710938 31.4833984,26.28125 C31.4833984,25.5869141 31.3076172,24.9804688 30.9472656,24.453125 C30.5869141,23.9257812 30.0859375,23.5214844 29.4443359,23.2314453 L29.4619141,23.2314453 C30.5078125,22.6689453 31.0263672,21.7900391 31.0263672,20.6035156 C31.0175781,19.6103516 30.6308594,18.8017578 29.8662109,18.1777344 C29.1015625,17.5537109 28.0996094,17.2460938 26.8603516,17.2460938 L20.8486328,17.2460938 L20.8486328,29.8496094 L27.203125,29.8496094 Z M26.8867188,22.484375 L23.2568359,22.484375 L23.2568359,19.3730469 L26.8339844,19.3642578 C27.3525391,19.3554688 27.7744141,19.4960938 28.0996094,19.7861328 C28.4248047,20.0761719 28.5830078,20.4453125 28.5830078,20.8935547 C28.5917969,21.3417969 28.4335938,21.7197266 28.1171875,22.0273438 C27.8007812,22.3349609 27.3876953,22.484375 26.8867188,22.484375 Z M27.1943359,27.7050781 L23.2568359,27.7050781 L23.2568359,24.4355469 L27.1943359,24.4355469 C27.7568359,24.4355469 28.2050781,24.5849609 28.5390625,24.8925781 C28.8730469,25.2001953 29.0400391,25.5869141 29.0400391,26.0527344 C29.0400391,26.5361328 28.8730469,26.9316406 28.5390625,27.2392578 C28.2050781,27.546875 27.7568359,27.7050781 27.1943359,27.7050781 Z M35.78125,29.8408203 L35.78125,21.6494141 L42.1181641,29.8408203 L44.1484375,29.8408203 L44.1484375,17.2373047 L41.6787109,17.2373047 L41.6787109,25.4111328 L35.3505859,17.2373047 L33.3115234,17.2373047 L33.3115234,29.8408203 L35.78125,29.8408203 Z" id="ISBN" fill="#FFFFFF" fill-rule="nonzero"></path>
            </g>
        </g>
    </g>
</svg>