<?xml version="1.0" encoding="UTF-8"?>
<svg width="48px" height="48px" viewBox="0 0 48 48" version="1.1" xmlns="http://www.w3.org/2000/svg" xmlns:xlink="http://www.w3.org/1999/xlink">
    <title>1FC7E61D-E218-4C42-B173-6AF557EEE7BA</title>
    <g id="UI-kit" stroke="none" stroke-width="1" fill="none" fill-rule="evenodd">
        <g id="Connectors" transform="translate(-520.000000, -1736.000000)">
            <g id="Connector/Ably-Copy-104" transform="translate(520.000000, 1736.000000)">
                <rect id="Rectangle" fill="#4C1356" x="1" y="1" width="46" height="46" rx="6"></rect>
                <path d="M14.65625,32.3515625 L14.6914062,32.3398438 C16.765625,32.3398438 18.5234375,31.8125 19.953125,30.7460938 C21.3828125,29.6796875 22.3085938,28.4140625 22.71875,26.9492188 L19.53125,26.1289062 C19.2382812,27.0078125 18.6523438,27.7460938 17.7734375,28.34375 C16.8945312,28.9414062 15.8398438,29.2460938 14.6210938,29.2460938 C13.015625,29.2460938 11.7148438,28.6953125 10.7070312,27.5820312 C9.69921875,26.46875 9.1953125,25.1328125 9.1953125,23.5625 C9.1953125,22.0039062 9.69921875,20.6796875 10.6953125,19.5898438 C11.6914062,18.5 13.0039062,17.9609375 14.6210938,17.9609375 C15.8398438,17.9609375 16.8828125,18.265625 17.7617188,18.875 C18.640625,19.484375 19.2265625,20.234375 19.5195312,21.1132812 L22.7421875,20.328125 C22.3085938,18.8515625 21.3710938,17.5742188 19.9414062,16.4960938 C18.5117188,15.4179688 16.7304688,14.8789062 14.609375,14.8789062 C12.1132812,14.8789062 10.0273438,15.7109375 8.3515625,17.375 C6.67578125,19.0390625 5.84375,21.1132812 5.84375,23.5859375 C5.84375,26.0820312 6.67578125,28.1679688 8.3515625,29.84375 C10.0273438,31.5195312 12.125,32.3515625 14.65625,32.3515625 Z M33.40625,32.3398438 C35.9257812,32.3398438 37.9765625,31.6015625 39.546875,30.125 C41.1171875,28.6484375 41.9023438,26.7265625 41.9023438,24.359375 L41.9140625,22.6601562 L33.3359375,22.6601562 L33.3359375,25.4960938 L38.5039062,25.4960938 C38.3515625,26.5859375 37.8476562,27.4882812 36.9804688,28.203125 C36.1132812,28.9179688 35,29.28125 33.640625,29.28125 C31.8359375,29.28125 30.40625,28.7304688 29.3515625,27.6289062 C28.296875,26.5273438 27.7695312,25.1796875 27.7695312,23.5742188 C27.7695312,22.015625 28.2851562,20.6914062 29.3164062,19.6015625 C30.3476562,18.5117188 31.6601562,17.9726562 33.265625,17.9726562 C35.6445312,17.9726562 37.3085938,18.9453125 38.2578125,20.8789062 L41.3046875,20.0117188 C40.7539062,18.5234375 39.7695312,17.2929688 38.3515625,16.3203125 C36.9335938,15.3476562 35.234375,14.8671875 33.2539062,14.8671875 C30.7578125,14.8671875 28.671875,15.6992188 26.984375,17.375 C25.296875,19.0507812 24.453125,21.1132812 24.453125,23.5742188 C24.453125,26.0703125 25.296875,28.15625 26.9960938,29.8320312 C28.6953125,31.5078125 30.828125,32.3398438 33.40625,32.3398438 Z" id="CG" fill="#FFFFFF" fill-rule="nonzero"></path>
            </g>
        </g>
    </g>
</svg>