<?xml version="1.0" encoding="UTF-8"?>
<svg width="48px" height="48px" viewBox="0 0 48 48" version="1.1" xmlns="http://www.w3.org/2000/svg" xmlns:xlink="http://www.w3.org/1999/xlink">
    <title>240C339F-D30C-4F08-890A-F89D9C809A68</title>
    <defs>
        <path d="M47.4235977,19.2963575 L37.561377,2.19803529 C36.8067336,0.863960185 35.4001013,0.0277425191 33.8639817,0 L14.1357903,0 C12.5994546,0.0269875312 11.1924747,0.863411894 10.438395,2.19803529 L0.572424347,19.2514995 C-0.190808116,20.5754589 -0.190808116,22.2039899 0.572424347,23.5279493 L10.4346451,40.7234633 C11.1809954,42.0765039 12.5842322,42.9404959 14.1320404,43 L33.8602318,43 C35.4079579,42.9470397 36.8137142,42.0866325 37.561377,40.7346779 L47.4235977,23.6363557 C48.1921341,22.2911222 48.1921341,20.641591 47.4235977,19.2963575 Z" id="path-1"></path>
        <path d="M47.4235977,19.2963575 L37.561377,2.19803529 C36.8067336,0.863960185 35.4001013,0.0277425191 33.8639817,0 L14.1357903,0 C12.5994546,0.0269875312 11.1924747,0.863411894 10.438395,2.19803529 L0.572424347,19.2514995 C-0.190808116,20.5754589 -0.190808116,22.2039899 0.572424347,23.5279493 L10.4346451,40.7234633 C11.1809954,42.0765039 12.5842322,42.9404959 14.1320404,43 L33.8602318,43 C35.4079579,42.9470397 36.8137142,42.0866325 37.561377,40.7346779 L47.4235977,23.6363557 C48.1921341,22.2911222 48.1921341,20.641591 47.4235977,19.2963575 Z" id="path-3"></path>
        <path d="M47.4235977,19.2963575 L37.561377,2.19803529 C36.8067336,0.863960185 35.4001013,0.0277425191 33.8639817,0 L14.1357903,0 C12.5994546,0.0269875312 11.1924747,0.863411894 10.438395,2.19803529 L0.572424347,19.2514995 C-0.190808116,20.5754589 -0.190808116,22.2039899 0.572424347,23.5279493 L10.4346451,40.7234633 C11.1809954,42.0765039 12.5842322,42.9404959 14.1320404,43 L33.8602318,43 C35.4079579,42.9470397 36.8137142,42.0866325 37.561377,40.7346779 L47.4235977,23.6363557 C48.1921341,22.2911222 48.1921341,20.641591 47.4235977,19.2963575 Z" id="path-5"></path>
        <path d="M47.4235977,19.2963575 L37.561377,2.19803529 C36.8067336,0.863960185 35.4001013,0.0277425191 33.8639817,0 L14.1357903,0 C12.5994546,0.0269875312 11.1924747,0.863411894 10.438395,2.19803529 L0.572424347,19.2514995 C-0.190808116,20.5754589 -0.190808116,22.2039899 0.572424347,23.5279493 L10.4346451,40.7234633 C11.1809954,42.0765039 12.5842322,42.9404959 14.1320404,43 L33.8602318,43 C35.4079579,42.9470397 36.8137142,42.0866325 37.561377,40.7346779 L47.4235977,23.6363557 C48.1921341,22.2911222 48.1921341,20.641591 47.4235977,19.2963575 Z" id="path-7"></path>
        <path d="M47.4235977,19.2963575 L37.561377,2.19803529 C36.8067336,0.863960185 35.4001013,0.0277425191 33.8639817,0 L14.1357903,0 C12.5994546,0.0269875312 11.1924747,0.863411894 10.438395,2.19803529 L0.572424347,19.2514995 C-0.190808116,20.5754589 -0.190808116,22.2039899 0.572424347,23.5279493 L10.4346451,40.7234633 C11.1809954,42.0765039 12.5842322,42.9404959 14.1320404,43 L33.8602318,43 C35.4079579,42.9470397 36.8137142,42.0866325 37.561377,40.7346779 L47.4235977,23.6363557 C48.1921341,22.2911222 48.1921341,20.641591 47.4235977,19.2963575 Z" id="path-9"></path>
        <path d="M47.4235977,19.2963575 L37.561377,2.19803529 C36.8067336,0.863960185 35.4001013,0.0277425191 33.8639817,0 L14.1357903,0 C12.5994546,0.0269875312 11.1924747,0.863411894 10.438395,2.19803529 L0.572424347,19.2514995 C-0.190808116,20.5754589 -0.190808116,22.2039899 0.572424347,23.5279493 L10.4346451,40.7234633 C11.1809954,42.0765039 12.5842322,42.9404959 14.1320404,43 L33.8602318,43 C35.4079579,42.9470397 36.8137142,42.0866325 37.561377,40.7346779 L47.4235977,23.6363557 C48.1921341,22.2911222 48.1921341,20.641591 47.4235977,19.2963575 Z" id="path-11"></path>
        <path d="M47.4235977,19.2963575 L37.561377,2.19803529 C36.8067336,0.863960185 35.4001013,0.0277425191 33.8639817,0 L14.1357903,0 C12.5994546,0.0269875312 11.1924747,0.863411894 10.438395,2.19803529 L0.572424347,19.2514995 C-0.190808116,20.5754589 -0.190808116,22.2039899 0.572424347,23.5279493 L10.4346451,40.7234633 C11.1809954,42.0765039 12.5842322,42.9404959 14.1320404,43 L33.8602318,43 C35.4079579,42.9470397 36.8137142,42.0866325 37.561377,40.7346779 L47.4235977,23.6363557 C48.1921341,22.2911222 48.1921341,20.641591 47.4235977,19.2963575 Z" id="path-13"></path>
    </defs>
    <g id="UI-kit" stroke="none" stroke-width="1" fill="none" fill-rule="evenodd">
        <g id="Connectors" transform="translate(-820.000000, -1312.000000)">
            <g id="Connector/Ably-Copy-77" transform="translate(820.000000, 1312.000000)">
                <g id="google-cloud-functions-seeklogo.com" transform="translate(0.000000, 2.000000)">
                    <g id="Clipped">
                        <mask id="mask-2" fill="white">
                            <use xlink:href="#path-1"></use>
                        </mask>
                        <g id="path-1"></g>
                        <path d="M47.4235977,19.2963575 L37.561377,2.19803529 C36.8067336,0.863960185 35.4001013,0.0277425191 33.8639817,0 L14.1357903,0 C12.5994546,0.0269875312 11.1924747,0.863411894 10.438395,2.19803529 L0.572424347,19.2514995 C-0.190808116,20.5754589 -0.190808116,22.2039899 0.572424347,23.5279493 L10.4346451,40.7234633 C11.1809954,42.0765039 12.5842322,42.9404959 14.1320404,43 L33.8602318,43 C35.4079579,42.9470397 36.8137142,42.0866325 37.561377,40.7346779 L47.4235977,23.6363557 C48.1921341,22.2911222 48.1921341,20.641591 47.4235977,19.2963575 Z" id="Path" fill="#4285F4" fill-rule="nonzero" mask="url(#mask-2)"></path>
                    </g>
                    <g id="Clipped">
                        <mask id="mask-4" fill="white">
                            <use xlink:href="#path-3"></use>
                        </mask>
                        <g id="path-1"></g>
                        <path d="M35.093926,15.8374428 L33.7341958,17.3158027 L34.0405086,26.1003142 L32.7517536,27.9622286 L32.0046492,27.2174629 L32.6919852,27.2174629 L32.6919852,24.1713711 L29.3935191,20.8832305 L26.9003899,22.1254679 L18.6314799,13.8638137 L14.6494134,15.9901198 L14.1563245,20.1086742 L15.5534097,27.6457031 L17.5780627,29.6230562 L16.6553887,30.9301199 L28.7017684,43.2211798 L33.7341958,43.2211798 C35.2759902,43.1684225 36.9458018,42.1611738 37.690599,40.8144006 L45.8991255,26.6083695 L35.093926,15.8374428 Z" id="Path" fill="#000000" fill-rule="nonzero" opacity="0.0700000003" mask="url(#mask-4)"></path>
                    </g>
                    <g id="Clipped">
                        <mask id="mask-6" fill="white">
                            <use xlink:href="#path-5"></use>
                        </mask>
                        <g id="path-1"></g>
                        <polygon id="Path" fill="#FFFFFF" fill-rule="nonzero" mask="url(#mask-6)" points="16.6553887 30.9301199 18.6314799 28.9602146 15.6692109 26.0072186 15.6692109 16.8168097 18.6314799 13.8638137 16.6553887 11.8939084 12.6994708 15.8374428 12.6994708 26.9865855"></polygon>
                    </g>
                    <g id="Clipped">
                        <mask id="mask-8" fill="white">
                            <use xlink:href="#path-7"></use>
                        </mask>
                        <g id="path-1"></g>
                        <ellipse id="Oval" fill="#FFFFFF" fill-rule="nonzero" mask="url(#mask-8)" cx="19.7147813" cy="21.4120142" rx="1.40082079" ry="1.3964357"></ellipse>
                    </g>
                    <g id="Clipped">
                        <mask id="mask-10" fill="white">
                            <use xlink:href="#path-9"></use>
                        </mask>
                        <g id="path-1"></g>
                        <ellipse id="Oval" fill="#FFFFFF" fill-rule="nonzero" mask="url(#mask-10)" cx="23.9060372" cy="21.4120142" rx="1.40082079" ry="1.3964357"></ellipse>
                    </g>
                    <g id="Clipped">
                        <mask id="mask-12" fill="white">
                            <use xlink:href="#path-11"></use>
                        </mask>
                        <g id="path-1"></g>
                        <ellipse id="Oval" fill="#FFFFFF" fill-rule="nonzero" mask="url(#mask-12)" cx="28.097293" cy="21.4120142" rx="1.40082079" ry="1.3964357"></ellipse>
                    </g>
                    <g id="Clipped">
                        <mask id="mask-14" fill="white">
                            <use xlink:href="#path-13"></use>
                        </mask>
                        <g id="path-1"></g>
                        <polygon id="Path" fill="#FFFFFF" fill-rule="nonzero" mask="url(#mask-14)" points="31.138008 11.8939084 29.1619168 13.8638137 32.1241858 16.8168097 32.1241858 26.0072186 29.1619168 28.9602146 31.138008 30.9301199 35.093926 26.9865855 35.093926 15.8374428"></polygon>
                    </g>
                </g>
            </g>
        </g>
    </g>
</svg>