<?xml version="1.0" encoding="UTF-8"?>
<svg width="48px" height="48px" viewBox="0 0 48 48" version="1.1" xmlns="http://www.w3.org/2000/svg" xmlns:xlink="http://www.w3.org/1999/xlink">
    <title>526C6959-301A-42D1-8272-C8C1972C2F48</title>
    <g id="UI-kit" stroke="none" stroke-width="1" fill="none" fill-rule="evenodd">
        <g id="Connectors" transform="translate(-520.000000, -736.000000)">
            <g id="Connector/Ably-Copy-34" transform="translate(520.000000, 736.000000)">
                <rect id="Rectangle" fill="#FFB14C" x="1" y="1" width="46" height="46" rx="6"></rect>
                <path d="M10.0434783,34.7826087 L10.0434783,28.4347826 L15.5652174,28.4347826 C17.8115942,28.4347826 19.6086957,27.7101449 20.942029,26.2608696 C22.2753623,24.8115942 22.942029,23.1304348 22.942029,21.2318841 C22.942029,19.3768116 22.2753623,17.7101449 20.942029,16.2318841 C19.6086957,14.7536232 17.8695652,14.0144928 15.7101449,14.0144928 L15.7391304,14 L6,14 L6,34.7826087 L10.0434783,34.7826087 Z M15.4057971,24.826087 L10.0144928,24.826087 L10.0144928,17.6956522 L15.5942029,17.6956522 C16.5652174,17.6956522 17.3623188,18.057971 18,18.7681159 C18.6376812,19.4782609 18.9565217,20.3043478 18.9565217,21.2463768 C18.9565217,22.1884058 18.6231884,23.0144928 17.9565217,23.7246377 C17.2898551,24.4347826 16.4347826,24.7971014 15.3768116,24.7971014 L15.4057971,24.826087 Z M35.0289855,34.7826087 L35.0289855,17.6811594 L42,17.6811594 L42,14 L23.9855072,14 L23.9855072,17.6811594 L30.9565217,17.6811594 L30.9565217,34.7826087 L35.0289855,34.7826087 Z" id="PT" fill="#FFFFFF" fill-rule="nonzero"></path>
            </g>
        </g>
    </g>
</svg>