<?xml version="1.0" encoding="UTF-8"?>
<svg width="48px" height="48px" viewBox="0 0 48 48" version="1.1" xmlns="http://www.w3.org/2000/svg" xmlns:xlink="http://www.w3.org/1999/xlink">
    <title>E4EA833A-111A-4498-9855-8497DFD5400C</title>
    <defs>
        <linearGradient x1="92.1315002%" y1="25.556643%" x2="15.6641388%" y2="78.125%" id="linearGradient-1">
            <stop stop-color="#6E65BF" offset="0%"></stop>
            <stop stop-color="#5765D1" offset="100%"></stop>
        </linearGradient>
    </defs>
    <g id="UI-kit" stroke="none" stroke-width="1" fill="none" fill-rule="evenodd">
        <g id="Connectors" transform="translate(-720.000000, -888.000000)">
            <g id="Connector/Ably-Copy-46" transform="translate(720.000000, 888.000000)">
                <rect id="Rectangle" fill="url(#linearGradient-1)" x="0" y="6" width="48" height="36" rx="3"></rect>
                <path d="M21.9104275,32.3218665 C22.3416773,32.3218665 22.6850799,32.2180471 22.9406353,32.0104083 C23.1961908,31.8027695 23.4038296,31.4833252 23.5635517,31.0520754 L23.5635517,31.0520754 L28.6187576,16.8687491 C28.7944519,16.3576382 28.7625075,15.9263884 28.5229243,15.5749997 C28.2833411,15.223611 27.907994,15.0479166 27.3968832,15.0479166 C26.9816056,15.0479166 26.6541752,15.151736 26.414592,15.3593748 C26.1750088,15.5670136 25.9833422,15.8784718 25.8395923,16.2937494 L25.8395923,16.2937494 L21.8864692,27.8656187 L17.9333461,16.341666 C17.773624,15.894444 17.5819574,15.5670136 17.3583464,15.3593748 C17.1347354,15.151736 16.8312633,15.0479166 16.4479302,15.0479166 C15.7291806,15.0479166 15.2180697,15.4711803 14.9145976,16.3177077 L14.9145976,16.3177077 L10.8895996,27.6979104 L7.05626815,16.2937494 C6.91251822,15.8624996 6.72085165,15.5470483 6.48126843,15.3473957 C6.24168522,15.147743 5.90626872,15.0479166 5.47501893,15.0479166 C4.884047,15.0479166 4.46477637,15.223611 4.21720705,15.5749997 C3.96963772,15.9263884 3.93370024,16.3576382 4.1093946,16.8687491 L4.1093946,16.8687491 L9.11668381,31.0281171 C9.42015588,31.8906167 9.97918338,32.3218665 10.7937663,32.3218665 C11.2250161,32.3218665 11.5644257,32.2180471 11.811995,32.0104083 C12.0595643,31.8027695 12.26321,31.4833252 12.4229322,31.0520754 L12.4229322,31.0520754 L16.3520969,19.9354142 L20.2573033,31.0281171 C20.4170255,31.4753391 20.6246643,31.8027695 20.8802197,32.0104083 C21.1357751,32.2180471 21.4791777,32.3218665 21.9104275,32.3218665 Z M37.3395866,32.3697831 C38.6972248,32.3697831 39.8751756,32.1581513 40.873439,31.7348876 C41.8717024,31.3116239 42.6423618,30.7166589 43.1854171,29.9499927 C43.7284724,29.1833264 44,28.2968685 44,27.290619 C44,26.0927029 43.6126738,25.13437 42.8380214,24.4156204 C42.063369,23.6968707 40.8854182,23.1697877 39.304169,22.8343712 L39.304169,22.8343712 L36.6927119,22.2833298 C35.7663235,22.0916632 35.1114627,21.8241286 34.7281296,21.480726 C34.3447964,21.1373234 34.1531298,20.6781222 34.1531298,20.1031225 C34.1531298,19.3524284 34.464588,18.7454843 35.0875044,18.2822901 C35.7104207,17.8190958 36.5729203,17.5874987 37.6750031,17.5874987 C38.3777805,17.5874987 39.0326413,17.6593737 39.6395855,17.8031236 C40.2465296,17.9468736 40.8454877,18.1864568 41.4364596,18.5218733 C41.8517372,18.7614565 42.215105,18.8293384 42.5265632,18.725519 C42.8380214,18.6216996 43.0656255,18.430033 43.2093754,18.1505193 C43.3531253,17.8710055 43.3930559,17.5675335 43.329167,17.2401031 C43.2652781,16.9126727 43.0736116,16.637152 42.7541673,16.413541 C42.0673621,15.9503468 41.2927097,15.598958 40.4302101,15.3593748 C39.5677105,15.1197916 38.6572943,15 37.6989614,15 C36.4052121,15 35.2631987,15.2156249 34.2729214,15.6468747 C33.2826442,16.0781245 32.5079918,16.6850686 31.9489643,17.4677071 C31.3899368,18.2503456 31.110423,19.168748 31.110423,20.2229141 C31.110423,22.6666629 32.6118112,24.2079816 35.6145875,24.8468702 L35.6145875,24.8468702 L38.2500028,25.3979116 C39.2402801,25.6055503 39.9390645,25.8690919 40.346356,26.1885362 C40.7536474,26.5079805 40.9572932,26.9472164 40.9572932,27.5062439 C40.9572932,28.1770769 40.6697933,28.7241252 40.0947936,29.1473889 C39.5197939,29.5706526 38.6013915,29.7822844 37.3395866,29.7822844 C36.477087,29.7822844 35.654518,29.6864511 34.8718795,29.4947845 C34.089241,29.303118 33.346533,28.9996459 32.6437556,28.5843683 C32.2604224,28.3447851 31.9210129,28.2848893 31.6255269,28.4046809 C31.3300409,28.5244725 31.1144161,28.7400974 30.9786522,29.0515556 C30.8428884,29.3630138 30.814937,29.6944372 30.8947981,30.0458259 C30.9746592,30.3972147 31.1982702,30.6927006 31.5656311,30.9322838 C32.3163252,31.4114503 33.19879,31.7708251 34.2130256,32.0104083 C35.2272613,32.2499915 36.2694482,32.3697831 37.3395866,32.3697831 Z" id="WS" fill="#FFFFFF" fill-rule="nonzero"></path>
            </g>
        </g>
    </g>
</svg>