<?xml version="1.0" encoding="UTF-8"?>
<svg width="48px" height="48px" viewBox="0 0 48 48" version="1.1" xmlns="http://www.w3.org/2000/svg" xmlns:xlink="http://www.w3.org/1999/xlink">
    <title>4BDD8A2C-DD66-4EDF-8BA1-9F26D0F9550B</title>
    <g id="UI-kit" stroke="none" stroke-width="1" fill="none" fill-rule="evenodd">
        <g id="Connectors" transform="translate(-1020.000000, -1608.000000)">
            <g id="Connector/Ably-Copy-99" transform="translate(1020.000000, 1608.000000)">
                <rect id="Rectangle" fill="#40404B" x="1" y="1" width="46" height="46" rx="6"></rect>
                <path d="M13.1013111,32.0154946 L13.1549464,31.9833135 C14.9678188,31.9833135 16.4481526,31.5220501 17.5852205,30.5995232 C18.7222884,29.6769964 19.2908224,28.5506555 19.2908224,27.2097735 C19.2908224,26.0512515 18.9368296,25.1609058 18.2288439,24.5387366 C17.5208582,23.9165673 16.4910608,23.4016687 15.1501788,22.9940405 L11.3313468,21.7604291 C10.3551847,21.4707986 9.86174017,20.988081 9.86174017,20.3122765 C9.86174017,19.8510131 10.0870083,19.454112 10.5482718,19.1323004 C11.0095352,18.8104887 11.5995232,18.6495828 12.3289631,18.6495828 C13.1764005,18.6495828 13.9380215,18.8426698 14.613826,19.2288439 C15.2896305,19.6150179 15.7938021,20.1191895 16.1156138,20.7520858 L18.9153754,19.9368296 C18.4755662,18.8104887 17.6603099,17.8772348 16.4696067,17.1263409 C15.2789035,16.375447 13.8843862,16 12.2860548,16 C10.7091776,16 9.3897497,16.4290822 8.33849821,17.2872467 C7.28724672,18.1454112 6.76162098,19.1859356 6.77234803,20.398093 C6.76162098,21.352801 7.0727056,22.1573302 7.70560191,22.8224076 C8.33849821,23.4874851 9.18593564,23.9916567 10.2586412,24.3241955 L14.1847437,25.5578069 C14.9249106,25.7830751 15.4505364,26.0512515 15.761621,26.3516091 C16.0727056,26.6519666 16.2228844,27.0059595 16.2228844,27.4135876 C16.2228844,27.9392133 15.954708,28.3897497 15.4076281,28.7759237 C14.8605483,29.1620977 14.1525626,29.3551847 13.283671,29.3551847 C12.2216925,29.3551847 11.2991657,29.0870083 10.5268176,28.5506555 C9.75446961,28.0143027 9.20738975,27.3277712 8.88557807,26.4803337 L6,27.3492253 C6.47199046,28.6579261 7.33015495,29.7628129 8.57449344,30.6638856 C9.81883194,31.5649583 11.3313468,32.0154946 13.1013111,32.0154946 Z M28.0870083,31.6722288 L31.1227652,21.3420739 L34.1585221,31.6722288 L37.3444577,31.6722288 L42,16.2896305 L38.8355185,16.2896305 L35.6710369,27.4350417 L32.4636472,16.2896305 L29.7604291,16.2896305 L26.5530393,27.4350417 L23.3885578,16.2896305 L20.2240763,16.2896305 L24.9010727,31.6722288 L28.0870083,31.6722288 Z" id="SW" fill="#FFFFFF" fill-rule="nonzero"></path>
            </g>
        </g>
    </g>
</svg>