<?xml version="1.0" encoding="UTF-8"?>
<svg width="48px" height="48px" viewBox="0 0 48 48" version="1.1" xmlns="http://www.w3.org/2000/svg" xmlns:xlink="http://www.w3.org/1999/xlink">
    <title>309AE272-CA53-4399-8A8D-39074CD5E7DF</title>
    <g id="UI-kit" stroke="none" stroke-width="1" fill="none" fill-rule="evenodd">
        <g id="Connectors" transform="translate(-720.000000, -2168.000000)">
            <g id="Connector/Ably-Copy-136" transform="translate(720.000000, 2168.000000)">
                <rect id="Rectangle" fill="#186991" x="1" y="1" width="46" height="46" rx="6"></rect>
                <path d="M15.2267081,35.522438 C17.5714286,35.522438 19.4192547,34.9524447 20.7701863,33.8278634 C22.121118,32.703282 22.7888199,31.1781648 22.7888199,29.2679169 C22.7888199,28.0509042 22.4782609,26.9879437 21.8416149,26.0636303 C21.2049689,25.1393168 20.3198758,24.4306765 19.1863354,23.9223041 L19.2173913,23.9223041 C21.0652174,22.9363697 21.9813665,21.3958473 21.9813665,19.316142 C21.9658385,17.5753516 21.2826087,16.158071 19.931677,15.0643001 C18.5807453,13.9705291 16.810559,13.4313463 14.621118,13.4313463 L4,13.4313463 L4,35.522438 L15.2267081,35.522438 Z M14.6677019,22.61286 L8.25465839,22.61286 L8.25465839,17.1594106 L14.5745342,17.1440054 C15.4906832,17.1286001 16.2360248,17.3750837 16.810559,17.8834561 C17.3850932,18.3918285 17.6645963,19.038848 17.6645963,19.8245144 C17.6801242,20.6101808 17.4006211,21.2726055 16.8416149,21.8117883 C16.2826087,22.3509712 15.552795,22.61286 14.6677019,22.61286 Z M15.2111801,31.7635633 L8.25465839,31.7635633 L8.25465839,26.0328198 L15.2111801,26.0328198 C16.2049689,26.0328198 16.9968944,26.2947086 17.5869565,26.8338915 C18.1770186,27.3730743 18.4720497,28.0509042 18.4720497,28.8673811 C18.4720497,29.7146685 18.1770186,30.4079035 17.5869565,30.9470864 C16.9968944,31.4862693 16.2049689,31.7635633 15.2111801,31.7635633 Z M35.0403727,36 L35.1180124,35.9537843 C37.742236,35.9537843 39.8850932,35.2913597 41.5310559,33.9665104 C43.1770186,32.6416611 44,31.0241125 44,29.0984595 C44,27.4346952 43.4875776,26.1560616 42.4627329,25.2625586 C41.4378882,24.3690556 39.947205,23.6296048 38.0062112,23.0442063 L32.4782609,21.2726055 C31.0652174,20.8566644 30.3509317,20.1634293 30.3509317,19.1929002 C30.3509317,18.5304756 30.6770186,17.9604823 31.3447205,17.4983255 C32.0124224,17.0361688 32.8664596,16.8050904 33.9223602,16.8050904 C35.1490683,16.8050904 36.2515528,17.0823845 37.2298137,17.6369725 C38.2080745,18.1915606 38.9378882,18.9156062 39.4037267,19.8245144 L43.4565217,18.6537173 C42.8198758,17.0361688 41.6397516,15.6959143 39.9161491,14.6175486 C38.1925466,13.5391829 36.173913,13 33.8602484,13 C31.5776398,13 29.6677019,13.616209 28.1459627,14.8486269 C26.6242236,16.0810449 25.863354,17.5753516 25.878882,19.316142 C25.863354,20.687207 26.3136646,21.8425988 27.2298137,22.7977227 C28.1459627,23.7528466 29.3726708,24.4768922 30.9254658,24.9544541 L36.6086957,26.7260549 C37.6801242,27.0495646 38.4409938,27.4346952 38.8913043,27.8660415 C39.3416149,28.2973878 39.5590062,28.8057602 39.5590062,29.3911587 C39.5590062,30.1460147 39.1708075,30.7930342 38.378882,31.3476222 C37.5869565,31.9022103 36.5621118,32.1795044 35.3043478,32.1795044 C33.7670807,32.1795044 32.431677,31.7943737 31.3136646,31.0241125 C30.1956522,30.2538513 29.4037267,29.2679169 28.9378882,28.0509042 L24.7608696,29.2987274 C25.4440994,31.1781648 26.6863354,32.7649029 28.4875776,34.0589417 C30.2888199,35.3529806 32.4782609,36 35.0403727,36 Z" id="BS" fill="#FFFFFF" fill-rule="nonzero"></path>
            </g>
        </g>
    </g>
</svg>