<?xml version="1.0" encoding="UTF-8"?>
<svg width="68px" height="68px" viewBox="0 0 68 68" version="1.1" xmlns="http://www.w3.org/2000/svg" xmlns:xlink="http://www.w3.org/1999/xlink">
    <title>98C125CC-08B9-49EE-8194-C15FF54DF55B</title>
    <g id="UI-kit" stroke="none" stroke-width="1" fill="none" fill-rule="evenodd">
        <g id="Connectors" transform="translate(-710.000000, -2606.000000)">
            <g id="Connector/automata" transform="translate(710.765981, 2606.765981)">
                <path d="M33.2340187,9.73401872 C46.2127103,9.73401872 56.7340187,20.2553271 56.7340187,33.2340187 C56.7340187,46.0829234 46.4220844,56.5233468 33.6226342,56.7308704 L33.2340187,56.7340187 L33.2340187,51.7340187 C43.4512866,51.7340187 51.7340187,43.4512866 51.7340187,33.2340187 C51.7340187,23.0167508 43.4512866,14.7340187 33.2340187,14.7340187 C23.1290285,14.7340187 14.9162904,22.835713 14.7370109,32.897895 L14.7340187,33.2340187 L9.73401872,33.2340187 C9.73401872,20.2553271 20.2553271,9.73401872 33.2340187,9.73401872 Z" id="Path" fill="#232222" fill-rule="nonzero" transform="translate(33.234019, 33.234019) rotate(-45.000000) translate(-33.234019, -33.234019) "></path>
                <path d="M26.4870326,38.1110596 C26.4870326,48.2160498 34.5887269,56.4287879 44.6509089,56.6080674 L44.9870326,56.6110596 L44.9870326,61.6110596 C32.1381279,61.6110596 21.6977045,51.2991252 21.4901809,38.499675 L21.4870326,38.1110596 L26.4870326,38.1110596 Z" id="Path" fill="#FF7069" fill-rule="nonzero" transform="translate(33.237033, 49.861060) rotate(-45.000000) translate(-33.237033, -49.861060) "></path>
                <path d="M30.9889083,36.2444753 C30.9889083,41.40072 35.0968022,45.5975146 40.2184296,45.7406989 L40.4889083,45.7444753 L40.4889083,50.7444753 C32.5861495,50.7444753 26.1600095,44.4223189 25.9922688,36.5597868 L25.9889083,36.2444753 L30.9889083,36.2444753 Z" id="Path" fill="#FF7069" fill-rule="nonzero" transform="translate(33.238908, 43.494475) rotate(-45.000000) translate(-33.238908, -43.494475) "></path>
                <path d="M33.2340187,18.7340187 C41.2421476,18.7340187 47.7340187,25.2258898 47.7340187,33.2340187 C47.7340187,41.1367775 41.4118624,47.5629175 33.5493302,47.7306582 L33.2340187,47.7340187 L33.2340187,42.7340187 C38.4807238,42.7340187 42.7340187,38.4807238 42.7340187,33.2340187 C42.7340187,27.9873136 38.4807238,23.7340187 33.2340187,23.7340187 C28.077774,23.7340187 23.8809794,27.8419126 23.7377951,32.96354 L23.7340187,33.2340187 L18.7340187,33.2340187 C18.7340187,25.2258898 25.2258898,18.7340187 33.2340187,18.7340187 Z" id="Path" fill="#232222" fill-rule="nonzero" transform="translate(33.234019, 33.234019) rotate(-45.000000) translate(-33.234019, -33.234019) "></path>
                <circle id="Oval-Copy" fill="#FF7069" transform="translate(33.234019, 33.234019) rotate(-45.000000) translate(-33.234019, -33.234019) " cx="33.2340187" cy="33.2340187" r="4"></circle>
            </g>
        </g>
    </g>
</svg>