<?xml version="1.0" encoding="UTF-8"?>
<svg width="48px" height="48px" viewBox="0 0 48 48" version="1.1" xmlns="http://www.w3.org/2000/svg" xmlns:xlink="http://www.w3.org/1999/xlink">
    <title>9106737E-6094-44AB-8666-800C022DA865</title>
    <g id="UI-kit" stroke="none" stroke-width="1" fill="none" fill-rule="evenodd">
        <g id="Connectors" transform="translate(-520.000000, -2472.000000)" fill-rule="nonzero">
            <g id="Connector/optirtc.public" transform="translate(520.000000, 2472.000000)">
                <g id="Group" transform="translate(0.000000, 5.000000)">
                    <path d="M41.2944797,6.74063674 C40.0352628,6.74063674 38.8597789,7.10105868 37.8356587,7.69500845 C38.3262488,9.11643581 38.5613456,10.6007771 38.5613456,12.191752 C38.5613456,14.5035709 38.0063454,16.6884956 37.0026218,18.597239 C38.1555621,19.5516107 39.6509493,20.1242337 41.2944797,20.1242337 C45.0098675,20.1242337 47.9995685,17.1118314 47.9995685,13.4638922 C48.0414351,9.75197272 45.0313376,6.74063674 41.2944797,6.74063674" id="Fill-15" fill="#75A4E5"></path>
                    <path d="M24.4267694,0 C17.636874,0 12.1061956,5.47244202 12.1061956,12.238351 C12.1061956,14.9521789 13.0036426,17.4132849 14.4979564,19.4275957 L9.69403829,24.8147308 C11.3805087,25.4726608 12.7470758,26.7032138 13.6230528,28.2515353 L18.4055009,22.9059873 C20.1993215,23.9030125 22.2486353,24.4543088 24.4052993,24.4543088 C31.1951947,24.4543088 36.7258731,18.9829331 36.7258731,12.2170242 C36.7044031,5.51402917 31.2166647,0 24.4267694,0" id="Fill-17" fill="#3A5F93"></path>
                    <path d="M6.76842535,25.5534891 C10.5063567,25.5534891 13.5368507,28.5637588 13.5368507,32.2767446 C13.5368507,35.9897304 10.5063567,39 6.76842535,39 C3.03049401,39 0,35.9897304 0,32.2767446 C0,28.5637588 3.03049401,25.5534891 6.76842535,25.5534891" id="Fill-19" fill="#75A4E5"></path>
                </g>
            </g>
        </g>
    </g>
</svg>