<?xml version="1.0" encoding="UTF-8"?>
<svg width="48px" height="48px" viewBox="0 0 48 48" version="1.1" xmlns="http://www.w3.org/2000/svg" xmlns:xlink="http://www.w3.org/1999/xlink">
    <title>8B56E7DE-29CA-4E23-8DCC-5748B8F2663D</title>
    <g id="UI-kit" stroke="none" stroke-width="1" fill="none" fill-rule="evenodd">
        <g id="Connectors" transform="translate(-720.000000, -1472.000000)" fill-rule="nonzero">
            <g id="Connector/Ably-Copy-86" transform="translate(720.000000, 1472.000000)">
                <g id="YouTube_Logo_2017" transform="translate(0.000000, 7.000000)">
                    <path d="M46.9407127,5.32417582 C46.3804348,3.23001437 44.7630259,1.59414514 42.6924965,1.02747253 C38.9676114,0 23.9757182,0 23.9757182,0 C23.9757182,0 8.98382509,0.0311355311 5.25893993,1.05860806 C3.18841054,1.62528067 1.57100166,3.2611499 1.0107238,5.35531136 C-0.115976998,12.0494505 -0.55311228,22.2494505 1.04150798,28.6758242 C1.60178584,30.7699856 3.21919471,32.4058549 5.2897241,32.9725275 C9.01460926,34 24.0065024,34 24.0065024,34 C24.0065024,34 38.9983956,34 42.7232807,32.9725275 C44.7938101,32.4058549 46.411219,30.7699856 46.9714968,28.6758242 C48.159766,21.9723443 48.5260977,11.7785714 46.9407127,5.32417582 Z" id="Path" fill="#FF0000"></path>
                    <polygon id="Path" fill="#FFFFFF" points="19.2041711 24.2857143 31.6409778 17 19.2041711 9.71428571"></polygon>
                </g>
            </g>
        </g>
    </g>
</svg>