<?xml version="1.0" encoding="UTF-8"?>
<svg width="48px" height="48px" viewBox="0 0 48 48" version="1.1" xmlns="http://www.w3.org/2000/svg" xmlns:xlink="http://www.w3.org/1999/xlink">
    <title>2279554D-4930-4A52-98CE-CAB1F4DF43E0</title>
    <defs>
        <linearGradient x1="4.49192958%" y1="44.2806409%" x2="100%" y2="39.8441185%" id="linearGradient-1">
            <stop stop-color="#ED2124" offset="0%"></stop>
            <stop stop-color="#FF8D1E" offset="100%"></stop>
        </linearGradient>
        <linearGradient x1="0%" y1="100%" x2="100%" y2="100%" id="linearGradient-2">
            <stop stop-color="#FF8F1C" offset="0%"></stop>
            <stop stop-color="#EE2424" offset="100%"></stop>
        </linearGradient>
    </defs>
    <g id="UI-kit" stroke="none" stroke-width="1" fill="none" fill-rule="evenodd">
        <g id="Connectors" transform="translate(-320.000000, -736.000000)">
            <g id="Connector/Ably-Copy-32" transform="translate(319.999820, 736.000000)">
                <g id="Group" transform="translate(0.000000, 1.000000)">
                    <path d="M47.6028959,26.0689728 C46.4783412,37.8737631 38.9308645,47 29.7875851,47 C28.4707435,47 27.187003,46.8106982 25.9507841,46.4513564 C30.0410659,43.3318139 33.1110828,35.552238 33.790885,26.0690635 L47.6028959,26.0689728 Z M15.4757633,25.5461987 C18.420863,35.4446075 21.1607102,40.393812 23.6953049,40.393812 C26.7278107,40.393812 29.8600527,34.8120795 31.4224064,29.6046371 C30.5595431,38.9103395 26.1570133,46.1226813 19.4973725,46.9192587 C10.7776776,47.9622447 2.31192748,38.7948359 -3.03923553e-15,25.546054 L15.4757633,25.5461987 Z" id="Combined-Shape" fill="url(#linearGradient-1)"></path>
                    <path d="M48.0003604,21.453946 L32.5245971,21.4538013 C29.5794974,11.5553925 26.8396502,6.60618805 24.3050555,6.60618805 C21.2725497,6.60618805 18.1403076,12.1879205 16.5779539,17.3953629 C17.4408173,8.08966047 21.8433471,0.877318696 28.5029879,0.0807412895 C37.2226828,-0.962244695 45.6884329,8.20516409 48.0003604,21.453946 Z M18.2127753,3.98900113e-09 C19.5296169,3.98900113e-09 20.8133574,0.189301839 22.0495762,0.548643643 C17.9592945,3.66818606 14.8892776,11.447762 14.2094754,20.9309365 L0.397464465,20.9310272 C1.52201918,9.12623688 9.06949588,3.98900113e-09 18.2127753,3.98900113e-09 Z" id="Combined-Shape" fill="url(#linearGradient-2)"></path>
                </g>
            </g>
        </g>
    </g>
</svg>