<?xml version="1.0" encoding="UTF-8"?>
<svg width="20px" height="20px" viewBox="0 0 20 20" version="1.1" xmlns="http://www.w3.org/2000/svg" xmlns:xlink="http://www.w3.org/1999/xlink">
    <title>A9560B59-D380-4677-87BD-0CC73829CFAE</title>
    <defs>
        <radialGradient cx="95.8532534%" cy="18.8125842%" fx="95.8532534%" fy="18.8125842%" r="82.6816781%" id="radialGradient-1">
            <stop stop-color="#FFFFFF" offset="0%"></stop>
            <stop stop-color="#EBF3FC" offset="5.970375%"></stop>
            <stop stop-color="#B6D6F4" offset="18.25%"></stop>
            <stop stop-color="#61A6E8" offset="35.82%"></stop>
            <stop stop-color="#006FDA" offset="54.4%"></stop>
            <stop stop-color="#002244" offset="100%"></stop>
        </radialGradient>
    </defs>
    <g id="Page-1" stroke="none" stroke-width="1" fill="none" fill-rule="evenodd">
        <g id="adding-new-API-Calls" transform="translate(-713.000000, -570.000000)" fill="url(#radialGradient-1)" fill-rule="nonzero">
            <g id="Dropdown/Select/Default-Copy-2" transform="translate(703.000000, 560.000000)">
                <g id="Logo/Circle" transform="translate(10.000000, 10.000000)">
                    <path d="M12.2945205,16.3419511 C13.630137,16.3419511 14.8630137,16.1368268 15.9589041,15.7607657 C16.2328767,15.6582036 16.5068493,15.5556415 16.7465753,15.4530794 C16.4383562,16.2052016 15.9931507,16.8205743 15.4109589,17.2991975 C14.2465753,18.1538818 12.8767123,18.7350672 11.369863,18.9743788 C11.7808219,18.3248187 12.0890411,17.435947 12.2945205,16.3419511 M6.09589041,18.1880692 C6.06164384,18.1538818 6.02739726,18.1538818 5.99315068,18.1196945 C5.47945205,17.8803829 5.2739726,16.7180122 5.54794521,14.9402688 C6.54109589,15.3847046 7.6369863,15.7265783 8.76712329,16.0000773 C9.62328767,16.1710142 10.4794521,16.3077637 11.3356164,16.3419511 C10.9246575,18.1196945 10.3767123,19.0769409 10.0342466,19.0769409 C10,19.0769409 10,19.0769409 9.96575342,19.0769409 C8.59589041,19.0769409 7.26027397,18.7350672 6.09589041,18.1880692 M1.26712329,12.4787779 C1.19863014,12.1710915 1.16438356,11.8634052 1.13013699,11.5557188 C1.43835616,12.0001547 1.81506849,12.4445905 2.26027397,12.854839 C2.94520548,13.4702117 3.76712329,14.0513971 4.65753425,14.5300203 C4.48630137,15.5556415 4.41780822,16.4787006 4.55479452,17.2308228 C3.01369863,16.0684521 1.84931507,14.3932708 1.26712329,12.4787779 M12.8767123,9.98309965 C12.8767123,9.60703854 12.8767123,9.26516481 12.8767123,8.88910371 C14.0410959,8.82072896 15.1027397,8.5130426 15.9931507,8.000232 C16.8150685,9.60703854 17.260274,11.3164072 17.2260274,12.9232137 C17.2260274,13.401837 17.1917808,13.8462728 17.1232877,14.2565213 C16.7123288,14.5300203 16.2328767,14.7351445 15.6849315,14.9060814 C14.7260274,15.2137678 13.630137,15.418892 12.4657534,15.4530794 C12.739726,13.7778981 12.8767123,11.8292178 12.8767123,9.98309965 M8.97260274,15.0770183 C7.80821918,14.8377066 6.71232877,14.4616455 5.71917808,13.9830223 C6.02739726,12.5129653 6.64383562,10.7694092 7.60273973,8.78654159 C7.73972603,8.5130426 7.87671233,8.23954362 8.01369863,7.93185726 C8.69863014,8.23954362 9.41780822,8.47885523 10.1712329,8.64979209 C10.7534247,8.78654159 11.3356164,8.85491633 11.9178082,8.85491633 C11.9178082,9.19679006 11.9178082,9.57285117 11.9178082,9.94891228 C11.9178082,12.1369042 11.7465753,13.9830223 11.4726027,15.3847046 C10.6849315,15.3847046 9.82876712,15.2821425 8.97260274,15.0770183 M2.9109589,12.1710915 C2.12328767,11.4531567 1.57534247,10.6668471 1.30136986,9.88053753 C1.50684932,9.0258532 1.95205479,8.1369815 2.56849315,7.31648454 C3.15068493,6.53017495 3.90410959,5.81224012 4.76027397,5.1968674 C5,5.64130325 5.34246575,6.0857391 5.78767123,6.46180021 C6.19863014,6.83786131 6.67808219,7.21392242 7.2260274,7.52160878 C7.0890411,7.79510776 6.91780822,8.10279412 6.78082192,8.37629311 C5.95890411,10.0856618 5.2739726,11.8975925 4.8630137,13.5385865 C4.14383562,13.1625254 3.49315068,12.6839021 2.9109589,12.1710915 M12.260274,3.48749874 C13.3219178,4.27380832 14.2808219,5.29942952 15.1027397,6.49598758 C15.239726,6.73529919 15.4109589,6.94042343 15.5479452,7.17973505 C14.7945205,7.6241709 13.869863,7.86348251 12.8424658,7.93185726 C12.739726,6.32505072 12.5684932,4.78661892 12.260274,3.48749874 M10.4109589,7.76092039 C9.7260274,7.6241709 9.10958904,7.41904666 8.49315068,7.14554767 C9.34931507,5.64130325 10.3082192,4.3079957 11.2671233,3.31656187 C11.5753425,4.47893256 11.8150685,6.01736436 11.9178082,7.93185726 C11.4041096,7.93185726 10.890411,7.86348251 10.4109589,7.76092039 M6.40410959,5.81224012 C6.02739726,5.43617901 5.71917808,5.06011791 5.51369863,4.6840568 C6.40410959,4.1712462 7.3630137,3.72681035 8.39041096,3.41912399 C9.00684932,3.24818713 9.62328767,3.11143763 10.239726,3.00887551 C9.34931507,4.00030934 8.45890411,5.26524215 7.6369863,6.70111182 C7.19178082,6.46180021 6.78082192,6.15411385 6.40410959,5.81224012 M4.41780822,2.83793865 C4.41780822,2.87212602 4.38356164,2.94050077 4.38356164,2.97468814 C4.28082192,3.41912399 4.31506849,3.86355984 4.41780822,4.3079957 C3.42465753,4.99174316 2.53424658,5.81224012 1.84931507,6.73529919 C1.64383562,7.00879818 1.43835616,7.31648454 1.26712329,7.58998352 C1.78082192,5.709678 2.87671233,4.03449671 4.41780822,2.83793865 M5.2739726,3.17981238 C5.37671233,2.70118915 5.68493151,2.2567533 6.13013699,1.91487957 C7.2260274,1.60719321 8.49315068,1.67556796 9.82876712,2.15419118 C9.28082192,2.2567533 8.69863014,2.3935028 8.15068493,2.56443966 C7.12328767,2.87212602 6.16438356,3.2823745 5.2739726,3.7951851 C5.23972603,3.59006086 5.23972603,3.38493662 5.2739726,3.17981238 M12.8424658,1.94906694 C13.1506849,1.7439427 13.4589041,1.60719321 13.6986301,1.53881847 C14.1780822,1.70975533 14.6232877,1.94906694 15.0684932,2.2567533 C14.3835616,2.12000381 13.630137,2.01744169 12.8424658,1.94906694 M11.3013699,0.957633121 C11.6780822,0.991820494 12.0890411,1.06019524 12.5,1.16275736 C12.2260274,1.29950685 11.9863014,1.47044372 11.7123288,1.67556796 C11.5410959,1.40206897 11.4383562,1.16275736 11.3013699,0.957633121 M10.2739726,1.33369423 C9.8630137,1.16275736 9.41780822,1.06019524 9.00684932,0.957633121 C9.34931507,0.923445748 9.65753425,0.889258374 10,0.889258374 C10.1712329,0.889258374 10.3424658,1.09438261 10.5479452,1.43625635 C10.4794521,1.40206897 10.3767123,1.3678816 10.2739726,1.33369423 M0,9.98309965 C0,10.9403461 0.136986301,11.8634052 0.376712329,12.7180895 C0.376712329,12.7864643 0.410958904,12.8206516 0.410958904,12.8890264 C0.410958904,12.8890264 0.410958904,12.9232137 0.410958904,12.9232137 C1.67808219,17.0256985 5.51369863,20 10,20 C12.0890411,20 14.0068493,19.3504399 15.6164384,18.256444 C15.6164384,18.256444 15.6506849,18.256444 15.6506849,18.2222566 C15.7534247,18.1538818 15.8219178,18.0855071 15.9246575,18.0171324 C17.7739726,16.6496374 19.1438356,14.6667698 19.7260274,12.3762158 C19.760274,12.2736537 19.7945205,12.1710915 19.7945205,12.0685294 C19.7945205,12.034342 19.7945205,12.034342 19.7945205,12.0001547 C19.9315068,11.3505946 20,10.6668471 20,9.94891228 C20,8.58141735 19.7260274,7.28229717 19.2123288,6.05155173 C19.109589,5.81224012 18.8356164,5.709678 18.5958904,5.81224012 C18.3561644,5.91480224 18.2534247,6.18830122 18.3561644,6.42761283 C18.8356164,7.55579615 19.0753425,8.75235421 19.0753425,9.94891228 C19.0753425,10.7010345 18.9726027,11.4189693 18.8013699,12.1369042 C18.6643836,12.58134 18.4246575,12.9915885 18.0821918,13.3676496 C18.0821918,13.1967127 18.0821918,13.0599632 18.0821918,12.8890264 C18.0821918,11.111283 17.6027397,9.19679006 16.6780822,7.45323403 C17.3630137,6.87204869 17.7739726,6.15411385 17.9109589,5.36780427 C17.9452055,5.12849265 17.7739726,4.88918104 17.5342466,4.82080629 C17.2945205,4.78661892 17.0205479,4.95755579 16.9863014,5.1968674 C16.8835616,5.709678 16.609589,6.2224886 16.1986301,6.63273707 C16.0616438,6.42761283 15.9246575,6.18830122 15.7876712,5.98317698 C14.9657534,4.78661892 14.0068493,3.76099772 12.9452055,2.90631339 C14.3493151,3.00887551 15.6506849,3.35074925 16.7123288,3.93193459 C16.8835616,4.03449671 17.0890411,4.03449671 17.260274,3.89774722 C17.4657534,3.72681035 17.5,3.45331137 17.3287671,3.24818713 C15.8219178,1.16275736 13.2191781,0.000192236405 10,0.000192236405 C4.48630137,-0.0338007023 0,4.44474519 0,9.98309965" id="Shape"></path>
                </g>
            </g>
        </g>
    </g>
</svg>