<?xml version="1.0" encoding="UTF-8"?>
<svg width="48px" height="48px" viewBox="0 0 48 48" version="1.1" xmlns="http://www.w3.org/2000/svg" xmlns:xlink="http://www.w3.org/1999/xlink">
    <title>790F9D5B-7457-48A6-B586-C1C2489BBAD1</title>
    <defs>
        <radialGradient cx="95.8532534%" cy="18.8125842%" fx="95.8532534%" fy="18.8125842%" r="82.6816781%" id="radialGradient-1">
            <stop stop-color="#FFFFFF" offset="0%"></stop>
            <stop stop-color="#EBF3FC" offset="5.970375%"></stop>
            <stop stop-color="#B6D6F4" offset="18.25%"></stop>
            <stop stop-color="#61A6E8" offset="35.82%"></stop>
            <stop stop-color="#006FDA" offset="54.4%"></stop>
            <stop stop-color="#002244" offset="100%"></stop>
        </radialGradient>
    </defs>
    <g id="UI-kit" stroke="none" stroke-width="1" fill="none" fill-rule="evenodd">
        <g id="Connectors" transform="translate(-920.000000, -888.000000)" fill="url(#radialGradient-1)" fill-rule="nonzero">
            <g id="Connector/Ably-Copy-48" transform="translate(920.000000, 888.000000)">
                <path d="M29.5068493,39.2206826 C32.7123288,39.2206826 35.6712329,38.7283844 38.3013699,37.8258377 C38.9589041,37.5796886 39.6164384,37.3335396 40.1917808,37.0873905 C39.4520548,38.8924838 38.3835616,40.3693783 36.9863014,41.518074 C34.1917808,43.5693164 30.9041096,44.9641613 27.2876712,45.5385091 C28.2739726,43.9795649 29.0136986,41.8462728 29.5068493,39.2206826 M14.630137,43.6513661 C14.5479452,43.5693164 14.4657534,43.5693164 14.3835616,43.4872667 C13.1506849,42.9129189 12.6575342,40.1232292 13.3150685,35.856645 C15.6986301,36.9232911 18.3287671,37.743788 21.0410959,38.4001856 C23.0958904,38.8104341 25.1506849,39.1386329 27.2054795,39.2206826 C26.2191781,43.4872667 24.9041096,45.7846582 24.0821918,45.7846582 C24,45.7846582 24,45.7846582 23.9178082,45.7846582 C20.630137,45.7846582 17.4246575,44.9641613 14.630137,43.6513661 M3.04109589,29.9490669 C2.87671233,29.2106197 2.79452055,28.4721724 2.71232877,27.7337252 C3.45205479,28.8003712 4.35616438,29.8670172 5.42465753,30.8516136 C7.06849315,32.3285081 9.04109589,33.7233529 11.1780822,34.8720487 C10.7671233,37.3335396 10.6027397,39.5488813 10.9315068,41.3539746 C7.23287671,38.564285 4.43835616,34.5438499 3.04109589,29.9490669 M30.9041096,23.9594392 C30.9041096,23.0568925 30.9041096,22.2363955 30.9041096,21.3338489 C33.6986301,21.1697495 36.2465753,20.4313022 38.3835616,19.2005568 C40.3561644,23.0568925 41.4246575,27.1593773 41.3424658,31.015713 C41.3424658,32.1644087 41.260274,33.2310548 41.0958904,34.2156511 C40.109589,34.8720487 38.9589041,35.3643469 37.6438356,35.7745953 C35.3424658,36.5130426 32.7123288,37.0053408 29.9178082,37.0873905 C30.5753425,33.0669554 30.9041096,28.3901227 30.9041096,23.9594392 M21.5342466,36.1848438 C18.739726,35.6104959 16.109589,34.7079493 13.7260274,33.5592536 C14.4657534,30.0311166 15.9452055,25.8465822 18.2465753,21.0876998 C18.5753425,20.4313022 18.9041096,19.7749047 19.2328767,19.0364574 C20.8767123,19.7749047 22.6027397,20.3492525 24.4109589,20.759501 C25.8082192,21.0876998 27.2054795,21.2517992 28.6027397,21.2517992 C28.6027397,22.0722962 28.6027397,22.9748428 28.6027397,23.8773895 C28.6027397,29.12857 28.1917808,33.5592536 27.5342466,36.9232911 C25.6438356,36.9232911 23.5890411,36.677142 21.5342466,36.1848438 M6.98630137,29.2106197 C5.09589041,27.4875761 3.78082192,25.6004331 3.12328767,23.7132901 C3.61643836,21.6620477 4.68493151,19.5287556 6.16438356,17.5595629 C7.56164384,15.6724199 9.36986301,13.9493763 11.4246575,12.4724818 C12,13.5391278 12.8219178,14.6057738 13.890411,15.5083205 C14.8767123,16.4108672 16.0273973,17.3134138 17.3424658,18.0518611 C17.0136986,18.7082586 16.6027397,19.4467059 16.2739726,20.1031035 C14.3013699,24.2055882 12.6575342,28.5542221 11.6712329,32.4926075 C9.94520548,31.5900609 8.38356164,30.4413651 6.98630137,29.2106197 M29.4246575,8.36999697 C31.9726027,10.25714 34.2739726,12.7186308 36.2465753,15.5903702 C36.5753425,16.1647181 36.9863014,16.6570162 37.3150685,17.2313641 C35.5068493,18.2980102 33.2876712,18.872358 30.8219178,19.0364574 C30.5753425,15.1801217 30.1643836,11.4878854 29.4246575,8.36999697 M24.9863014,18.6262089 C23.3424658,18.2980102 21.8630137,17.805712 20.3835616,17.1493144 C22.4383562,13.5391278 24.739726,10.3391897 27.0410959,7.95974849 C27.7808219,10.7494381 28.3561644,14.4416745 28.6027397,19.0364574 C27.369863,19.0364574 26.1369863,18.872358 24.9863014,18.6262089 M15.369863,13.9493763 C14.4657534,13.0468296 13.7260274,12.144283 13.2328767,11.2417363 C15.369863,10.0109909 17.6712329,8.94434484 20.1369863,8.20589758 C21.6164384,7.7956491 23.0958904,7.46745032 24.5753425,7.22130123 C22.4383562,9.60074241 20.3013699,12.6365811 18.3287671,16.0826684 C17.260274,15.5083205 16.2739726,14.7698732 15.369863,13.9493763 M10.6027397,6.81105275 C10.6027397,6.89310245 10.5205479,7.05720184 10.5205479,7.13925154 C10.2739726,8.20589758 10.3561644,9.27254363 10.6027397,10.3391897 C8.21917808,11.9801836 6.08219178,13.9493763 4.43835616,16.1647181 C3.94520548,16.8211156 3.45205479,17.5595629 3.04109589,18.2159605 C4.2739726,13.7032272 6.90410959,9.6827921 10.6027397,6.81105275 M12.6575342,7.63154971 C12.9041096,6.48285397 13.6438356,5.41620793 14.7123288,4.59571097 C17.3424658,3.85726371 20.3835616,4.0213631 23.5890411,5.17005884 C22.2739726,5.41620793 20.8767123,5.74440671 19.5616438,6.15465519 C17.0958904,6.89310245 14.7945205,7.8776988 12.6575342,9.10844423 C12.5753425,8.61614606 12.5753425,8.12384789 12.6575342,7.63154971 M30.8219178,4.67776067 C31.5616438,4.18546249 32.3013699,3.85726371 32.8767123,3.69316432 C34.0273973,4.1034128 35.0958904,4.67776067 36.1643836,5.41620793 C34.5205479,5.08800914 32.7123288,4.84186006 30.8219178,4.67776067 M27.1232877,2.29831949 C28.0273973,2.38036919 29.0136986,2.54446858 30,2.79061766 C29.3424658,3.11881645 28.7671233,3.52906493 28.109589,4.0213631 C27.6986301,3.36496553 27.4520548,2.79061766 27.1232877,2.29831949 M24.6575342,3.20086614 C23.6712329,2.79061766 22.6027397,2.54446858 21.6164384,2.29831949 C22.4383562,2.21626979 23.1780822,2.1342201 24,2.1342201 C24.4109589,2.1342201 24.8219178,2.62651827 25.3150685,3.44701523 C25.1506849,3.36496553 24.9041096,3.28291584 24.6575342,3.20086614 M0,23.9594392 C0,26.2568306 0.328767123,28.4721724 0.904109589,30.5234148 C0.904109589,30.6875142 0.98630137,30.7695639 0.98630137,30.9336633 C0.98630137,30.9336633 0.98630137,31.015713 0.98630137,31.015713 C4.02739726,40.8616765 13.2328767,48 24,48 C29.0136986,48 33.6164384,46.4410558 37.4794521,43.8154655 C37.4794521,43.8154655 37.5616438,43.8154655 37.5616438,43.7334158 C37.8082192,43.5693164 37.9726027,43.405217 38.2191781,43.2411176 C42.6575342,39.9591298 45.9452055,35.2002475 47.3424658,29.7029179 C47.4246575,29.4567688 47.5068493,29.2106197 47.5068493,28.9644706 C47.5068493,28.8824209 47.5068493,28.8824209 47.5068493,28.8003712 C47.8356164,27.241427 48,25.6004331 48,23.8773895 C48,20.5954016 47.3424658,17.4775132 46.109589,14.5237242 C45.8630137,13.9493763 45.2054795,13.7032272 44.630137,13.9493763 C44.0547945,14.1955254 43.8082192,14.8519229 44.0547945,15.4262708 C45.2054795,18.1339108 45.7808219,21.0056501 45.7808219,23.8773895 C45.7808219,25.6824828 45.5342466,27.4055264 45.1232877,29.12857 C44.7945205,30.195216 44.2191781,31.1798124 43.3972603,32.082359 C43.3972603,31.6721106 43.3972603,31.3439118 43.3972603,30.9336633 C43.3972603,26.6670791 42.2465753,22.0722962 40.0273973,17.8877617 C41.6712329,16.4929168 42.6575342,14.7698732 42.9863014,12.8827302 C43.0684932,12.3083824 42.6575342,11.7340345 42.0821918,11.5699351 C41.5068493,11.4878854 40.8493151,11.8981339 40.7671233,12.4724818 C40.5205479,13.7032272 39.8630137,14.9339726 38.8767123,15.918569 C38.5479452,15.4262708 38.2191781,14.8519229 37.890411,14.3596248 C35.9178082,11.4878854 33.6164384,9.02639454 31.0684932,6.97515215 C34.4383562,7.22130123 37.5616438,8.04179819 40.109589,9.43664302 C40.5205479,9.6827921 41.0136986,9.6827921 41.4246575,9.35459332 C41.9178082,8.94434484 42,8.28794728 41.5890411,7.7956491 C37.9726027,2.79061766 31.7260274,0.000461367371 24,0.000461367371 C10.7671233,-0.0811216855 0,10.6673885 0,23.9594392" id="Shape"></path>
            </g>
        </g>
    </g>
</svg>