<?xml version="1.0" encoding="UTF-8"?>
<svg width="48px" height="48px" viewBox="0 0 48 48" version="1.1" xmlns="http://www.w3.org/2000/svg" xmlns:xlink="http://www.w3.org/1999/xlink">
    <title>0F81F088-F034-4D3D-B7DA-9E75699C6A9A</title>
    <g id="UI-kit" stroke="none" stroke-width="1" fill="none" fill-rule="evenodd">
        <g id="Connectors" transform="translate(-320.000000, -1472.000000)">
            <g id="Connector/Ably-Copy-82" transform="translate(320.000000, 1472.000000)">
                <rect id="Rectangle" fill="#8D91A3" x="1" y="1" width="46" height="46" rx="6"></rect>
                <path d="M8.80557834,31.3822806 L8.80557834,17.2657916 L6,17.2657916 L6,31.3822806 L8.80557834,31.3822806 Z M21.0418376,31.3921247 L21.0418376,28.8917145 L15.0664479,28.8818704 L18.2461034,25.9384742 C19.1419196,25.121411 19.7916325,24.3732568 20.2050861,23.6940115 C20.6185398,23.0147662 20.8252666,22.2567678 20.8252666,21.4200164 C20.8252666,20.0221493 20.3625923,18.9392945 19.4372436,18.1616079 C18.511895,17.3839212 17.3010664,17 15.7949139,17 C14.4462674,17 13.314192,17.4036095 12.3986874,18.2108285 C11.4831829,19.0180476 10.9515997,19.9827728 10.8039377,21.09516 L13.2846596,21.8039377 C13.4323216,21.1050041 13.7374897,20.5438884 14.2001641,20.1205906 C14.6628384,19.6972929 15.2141099,19.490566 15.8539787,19.490566 C16.5529122,19.490566 17.0943396,19.6776046 17.488105,20.0516817 C17.8818704,20.4257588 18.0787531,20.9376538 18.0787531,21.5775226 C18.0787531,22.0401969 17.9409352,22.4733388 17.6554553,22.8769483 C17.3699754,23.2805578 16.9368335,23.7629204 16.3461854,24.314192 L10.8433142,29.4922067 L10.8433142,31.3921247 L21.0418376,31.3921247 Z M29.2321575,31.3822806 L32.0180476,21.902379 L34.8039377,31.3822806 L37.7276456,31.3822806 L42,17.2657916 L39.0959803,17.2657916 L36.1919606,27.4938474 L33.2485644,17.2657916 L30.7678425,17.2657916 L27.8244463,27.4938474 L24.9204266,17.2657916 L22.0164069,17.2657916 L26.3084495,31.3822806 L29.2321575,31.3822806 Z" id="I2W" fill="#FFFFFF" fill-rule="nonzero"></path>
            </g>
        </g>
    </g>
</svg>