<?xml version="1.0" encoding="UTF-8"?>
<svg width="48px" height="48px" viewBox="0 0 48 48" version="1.1" xmlns="http://www.w3.org/2000/svg" xmlns:xlink="http://www.w3.org/1999/xlink">
    <title>7B0529BC-295C-423A-A540-00091C541D64</title>
    <g id="UI-kit" stroke="none" stroke-width="1" fill="none" fill-rule="evenodd">
        <g id="Connectors" transform="translate(-520.000000, -464.000000)" fill-rule="nonzero">
            <g id="Connector/Ably-Copy-14" transform="translate(520.000000, 464.000000)">
                <g id="Group" transform="translate(9.835959, 14.288403)" fill="#FFFFFF">
                    <path d="M8.6287003,0.18256948 C10.9860784,-0.553837538 13.7654399,1.01942745 14.2897118,3.42955042 C11.3105188,4.20130778 8.34714363,5.0224156 5.36900515,5.79329795 C4.67354962,3.45090063 6.23089899,0.738899781 8.6287003,0.18256948 Z" id="Path"></path>
                    <path d="M18.037298,1.66850864 C18.3420541,1.19145409 19.1339981,1.21175429 19.4594931,1.66028356 C19.7203109,1.94081124 19.7275168,2.38129043 19.5315519,2.69944346 C18.9840806,3.71497814 18.3459206,4.68133735 17.8147944,5.70369709 C18.096351,7.07186013 18.5232556,8.41377292 18.8730046,9.76636081 C19.9494931,9.55950884 20.9892492,9.20005541 22.0581803,8.95172805 C22.6207664,8.80385164 23.2315089,9.33165667 23.1425778,9.9119622 C23.1497837,10.3358162 22.7982772,10.6751445 22.3991416,10.7579203 C21.388912,11.0235728 20.3807915,11.2922004 19.3763618,11.571678 C19.7238259,12.9778164 19.8391201,14.4366303 19.5373518,15.8628939 C20.7507521,16.5370003 21.9474558,17.239632 23.1443353,17.9373637 C23.4533095,18.0876901 23.575458,18.4158182 23.7046366,18.708071 C23.6084996,19.2880266 23.0293927,19.9012324 22.4102141,19.6009295 C21.1820505,18.9486983 19.9922011,18.2245414 18.7788008,17.54921 C17.8592599,18.8310972 16.5681767,19.8760322 15.0368388,20.3329615 C13.904285,16.1939971 12.8035425,12.0475075 11.6825884,7.90504307 C11.1045361,8.07146966 10.5273624,8.24069627 9.9371831,8.35847239 C10.9600669,12.5268371 12.1773338,16.6483014 13.2394105,20.808791 C11.5992814,21.2377201 9.87356043,20.8579665 8.37614291,20.1413347 C7.87682799,21.2156699 7.31072683,22.2595549 6.80174548,23.3289901 C6.66290043,23.6011177 6.52528565,23.8984455 6.25251664,24.0627721 C5.76040759,24.3392747 5.05563714,24.0856973 4.91239826,23.530242 C4.75703241,22.903036 5.22963284,22.3855561 5.46338464,21.8472509 C5.93791836,20.8656666 6.48275337,19.9175075 6.90561564,18.912823 C6.02860702,17.9270386 5.44106398,16.7008019 5.13806541,15.4269648 C4.01324474,15.5667911 2.94958619,16.0118203 1.83706825,16.2151723 C1.2303681,16.3115982 0.667782009,15.6689921 0.835099084,15.0776614 C0.94371458,14.7990588 1.1518064,14.5351563 1.45023539,14.4487054 C2.49913066,14.1230273 3.57649796,13.8971002 4.63084159,13.5869972 C4.22766368,12.2379094 3.91148362,10.8669463 3.51639036,9.51418341 C2.50844558,8.93387788 1.4889011,8.37229753 0.488337962,7.77624185 C0.0844570399,7.56676485 -0.121877252,7.05348496 0.0760208848,6.63505597 C0.2646041,6.16710151 0.874292054,5.88657384 1.33125045,6.16062645 C2.39016366,6.73900696 3.41498074,7.37531302 4.476706,7.94809348 C8.36331293,6.86010812 12.2866523,5.90039897 16.164823,4.78948838 C16.855006,3.79320389 17.3657449,2.67844326 18.037298,1.66850864 Z" id="Path"></path>
                </g>
                <g id="Group" fill="#1F76D6">
                    <path d="M23.7889808,23.4406042 C22.3286336,24.9034425 20.8682864,26.2892893 19.4079392,27.7521276 C15.4111995,31.7556851 11.4913202,35.682251 7.49458055,39.6858085 C7.34085979,39.8397915 7.11027866,39.9937744 6.87969752,40.2247489 C1.11516914,33.9884383 -1.2675026,26.7512382 0.654006866,18.5901403 C2.88295784,8.88921266 9.1086485,2.72989349 18.7930562,0.574131782 C26.9402563,-1.19667248 34.0114111,1.1900637 40.1602414,6.88743393 C39.9296603,7.19539989 39.6990791,7.34938287 39.5453584,7.58035733 C34.5494338,12.5848042 29.6303695,17.5122595 24.6344449,22.5167063 C24.4038638,22.7476808 24.1732827,22.9786553 23.9427015,23.2866212 C23.8658412,23.3636127 23.7889808,23.3636127 23.7889808,23.4406042 Z" id="Path"></path>
                    <path d="M23.7889808,23.4406042 C23.8658412,23.3636127 23.8658412,23.3636127 23.9427015,23.2866212 C27.2476978,23.2096297 30.5526941,23.2096297 33.78083,23.1326382 C35.010596,23.1326382 36.2403621,23.0556467 37.3932678,23.0556467 C40.5445433,22.9786553 43.6189584,22.9786553 46.7702339,22.9016638 C47.1545358,22.9016638 47.4619774,22.9016638 48,22.9016638 C47.9231396,24.1335276 47.8462792,25.3653914 47.6925585,26.5202638 C46.3090717,34.3733957 42.1586112,40.3017404 35.1643168,44.1513149 C32.0130413,45.9221191 28.5543242,46.7690255 24.9418865,47 C24.3270034,47 24.1732827,46.846017 24.1732827,46.3070766 C24.0964223,40.2247489 24.0195619,34.2194127 23.8658412,28.1370851 C23.8658412,26.5972553 23.7889808,25.0574255 23.7889808,23.4406042 Z" id="Path"></path>
                </g>
            </g>
        </g>
    </g>
</svg>