<?xml version="1.0" encoding="UTF-8"?>
<svg width="48px" height="48px" viewBox="0 0 48 48" version="1.1" xmlns="http://www.w3.org/2000/svg" xmlns:xlink="http://www.w3.org/1999/xlink">
    <title>0526D45C-E238-441E-841A-BD39EF93F940</title>
    <defs>
        <linearGradient x1="0%" y1="49.999%" x2="99.999%" y2="49.999%" id="linearGradient-1">
            <stop stop-color="#4079D8" offset="3%"></stop>
            <stop stop-color="#4989F5" offset="100%"></stop>
        </linearGradient>
    </defs>
    <g id="UI-kit" stroke="none" stroke-width="1" fill="none" fill-rule="evenodd">
        <g id="Connectors" transform="translate(-220.000000, -1312.000000)" fill-rule="nonzero">
            <g id="Connector/Ably-Copy-71" transform="translate(220.000000, 1312.000000)">
                <g id="google-my-business-logo" transform="translate(0.000000, 3.000000)">
                    <g id="Group">
                        <rect id="Rectangle" fill="#4989F5" x="2.4112782" y="10.5170724" width="42" height="31.4829276" rx="1.6637594"></rect>
                        <path d="M42.2621053,10.2805457 L4.51398496,10.2805457 C3.34466165,10.2805457 2.43473684,19.3526796 2.43473684,20.5249114 L23.1067669,42 L42.2621053,42 C43.4350376,41.996789 44.3850677,41.0443959 44.3882707,39.868546 L44.3882707,12.4115474 C44.384797,11.2358785 43.4348571,10.2837567 42.2621053,10.2805457 Z" id="Path" fill="url(#linearGradient-1)"></path>
                        <polygon id="Path" fill="#3C4BA6" points="12.0013534 15.7894023 24.0013534 15.7894023 24.0013534 0.000452249943 13.7981955 0.000452249943"></polygon>
                        <path d="M36.0013534,15.7894023 L24.0013534,15.7894023 L24.0013534,0.000452249943 L34.2045113,0.000452249943 L36.0013534,15.7894023 Z M44.4296654,2.99344238 L44.4626654,3.09369111 C44.4546654,3.05830921 44.4386654,3.02545458 44.4296654,2.99344238 Z" id="Shape" fill="#7BABF7"></path>
                        <path d="M44.4261654,3.04680787 L44.4112782,2.99299013 C44.0308421,1.24653652 42.4888872,0.00113062486 40.7057143,0 L34.2045113,0 L36,15.7894023 L48,15.7894023 L44.4261654,3.04680787 Z" id="Path" fill="#3F51B5"></path>
                        <path d="M3.62792857,2.99344238 L3.59492857,3.09369111 C3.60292857,3.05830921 3.61892857,3.02545458 3.62792857,2.99344238 Z" id="Path" fill="#7BABF7"></path>
                        <path d="M3.57609023,3.04680787 L3.59097744,2.99299013 C3.97141353,1.24653652 5.51336842,0.00113062486 7.29654135,0 L13.7981955,0 L12,15.7894023 L0,15.7894023 L3.57609023,3.04680787 Z" id="Path" fill="#7BABF7"></path>
                    </g>
                    <path d="M12.0216541,15.785332 C12.0216541,19.1053893 9.33685714,21.7968644 6.02503759,21.7968644 C2.71321805,21.7968644 0.0284210526,19.1053893 0.0284210526,15.785332 L12.0216541,15.785332 Z" id="Path" fill="#709BE0"></path>
                    <path d="M24.0148872,15.785332 C24.0148872,19.1053893 21.3300902,21.7968644 18.0182707,21.7968644 C14.7064511,21.7968644 12.0216541,19.1053893 12.0216541,15.785332 L24.0148872,15.785332 Z" id="Path" fill="#3C4BA6"></path>
                    <path d="M36.0081203,15.785332 C36.0081203,19.1053893 33.3233233,21.7968644 30.0115038,21.7968644 C26.6996842,21.7968644 24.0148872,19.1053893 24.0148872,15.785332 L36.0081203,15.785332 Z" id="Path" fill="#709BE0"></path>
                    <path d="M48,15.785332 C48,19.1053893 45.315203,21.7968644 42.0033835,21.7968644 C38.6915639,21.7968644 36.0067669,19.1053893 36.0067669,15.785332 L48,15.785332 Z" id="Path" fill="#3C4BA6"></path>
                    <path d="M42.003609,32.0722092 C41.982406,31.785935 41.947218,31.5245346 41.8971429,31.1907741 L35.3557895,31.1907741 C35.3557895,32.107937 35.3557895,33.1087661 35.3521805,34.0263812 L39.1416541,34.0263812 C38.9790589,34.8901004 38.4798296,35.6532577 37.7544361,36.1469812 C37.7544361,36.1469812 37.7544361,36.1311525 37.7517293,36.1307002 C37.2879053,36.4360048 36.7653907,36.6404465 36.2178947,36.7308359 C35.6689901,36.8315013 35.1062059,36.8290477 34.5581955,36.7235999 C34.0017343,36.6081437 33.4748899,36.3792406 33.0103759,36.0511042 C32.3247322,35.5636834 31.7958939,34.886256 31.4887218,34.101907 C31.4652632,34.0408532 31.443609,33.9793473 31.4215038,33.9169368 L31.4215038,33.910153 L31.4273684,33.9056305 C31.1292311,33.0284265 31.1284382,32.0770691 31.4251128,31.1993669 C31.634078,30.5836529 31.9779888,30.022693 32.4315789,29.5576996 C33.4956541,28.4542549 35.0855188,28.0392251 36.5512782,28.4822492 C37.1133194,28.6550525 37.6268761,28.9580966 38.0503759,29.3668501 L39.3288722,28.0851737 C39.5544361,27.8567875 39.7885714,27.6356373 40.0055639,27.3995628 C39.357296,26.7933762 38.5963748,26.3209971 37.7661654,26.0093465 C36.2552539,25.4601265 34.6023871,25.4456042 33.0821053,25.9681918 C33.029188,25.9862818 32.9765414,26.0051406 32.9242105,26.024723 C31.2840684,26.6428475 29.9347828,27.8550934 29.1428571,29.4220246 C28.8632107,29.9766431 28.6595655,30.5665836 28.5374436,31.1758499 C27.8132932,34.7835381 30.0091579,38.3346951 33.5544361,39.2892138 C34.7133835,39.6003618 35.9454135,39.5926736 37.1133835,39.3267506 C38.1745717,39.0865519 39.1557925,38.5754032 39.9618045,37.8429185 C40.8027068,37.0673099 41.4054135,36.0339187 41.721203,34.9363081 C41.9852294,34.0061819 42.080876,33.0361553 42.003609,32.0722092 L42.003609,32.0722092 Z" id="Path" fill="#FFFFFF"></path>
                </g>
            </g>
        </g>
    </g>
</svg>