<?xml version="1.0" encoding="UTF-8"?>
<svg width="49px" height="48px" viewBox="0 0 49 48" version="1.1" xmlns="http://www.w3.org/2000/svg" xmlns:xlink="http://www.w3.org/1999/xlink">
    <title>28DDE755-110C-4F58-8FA7-82FF76334659</title>
    <g id="UI-kit" stroke="none" stroke-width="1" fill="none" fill-rule="evenodd">
        <g id="Connectors" transform="translate(-520.000000, -2024.000000)" fill-rule="nonzero">
            <g id="Connector/Ably-Copy-124" transform="translate(520.000000, 2024.000000)">
                <g id="atspoke" transform="translate(1.000000, 8.000000)">
                    <path d="M20.0941653,32.1557203 C19.900544,30.9115863 19.7983787,29.6545953 19.788544,28.3952472 C18.184064,30.8511582 15.2807253,33 10.620096,33 C3.972992,33 0,28.4721752 0,23.6372812 C0,18.1115349 4.04938667,15.041914 9.24484267,14.274348 L16.8852053,13.1232563 C18.6424747,12.8930293 19.2537173,11.9721002 19.2537173,10.8976793 C19.2537173,8.67210234 17.5728427,6.83022264 14.0582613,6.83022264 C10.3908907,6.83022264 8.40439467,9.1325562 8.17518933,11.8953436 L0.764036267,10.2837123 C1.2988608,5.44883965 5.73028267,0 14.0582613,0 C23.91424,0 27.50528,5.60233141 27.50528,11.8186084 L27.50528,27.0906851 C27.49696,28.7357447 27.6247467,30.3786616 27.88736,32.0022928 L20.0941653,32.0022928 L20.0941653,32.1557203 Z M19.1773013,18.1884629 L12.1481813,19.2628838 C10.0088747,19.5697388 8.328,20.7975872 8.328,23.1767845 C8.328,25.018557 9.62685867,26.7836158 12.3773867,26.7836158 C15.891968,26.7836158 19.1773013,25.0952707 19.1773013,19.5697388 L19.1773013,18.1884629 Z" id="Shape" fill="#36322F"></path>
                    <path d="M39.59552,33 C44.2372267,33 48,29.2204556 48,24.5580603 C48,19.8958793 44.2372267,16.1163349 39.59552,16.1163349 C34.9540267,16.1163349 31.1912533,19.8958793 31.1912533,24.5580603 C31.1912533,29.2204556 34.9540267,33 39.59552,33 Z" id="Path" fill="#EB636B"></path>
                </g>
            </g>
        </g>
    </g>
</svg>