<?xml version="1.0" encoding="UTF-8"?>
<svg width="48px" height="48px" viewBox="0 0 48 48" version="1.1" xmlns="http://www.w3.org/2000/svg" xmlns:xlink="http://www.w3.org/1999/xlink">
    <title>3819836A-20E2-4335-A4AD-C647CC42AC5A</title>
    <g id="UI-kit" stroke="none" stroke-width="1" fill="none" fill-rule="evenodd">
        <g id="Connectors" transform="translate(-820.000000, -328.000000)" fill="#A83AEE" fill-rule="nonzero">
            <g id="Connector/Ably-Copy-7" transform="translate(820.000000, 328.000000)">
                <g id="Group" transform="translate(0.000000, 8.000000)">
                    <path d="M16.8734028,18.7742915 C16.9314389,17.3048172 16.3771813,15.8765105 15.3411024,14.8255947 C14.3050234,13.774679 12.8786513,13.193993 11.3977538,13.2202302 C9.91689162,13.20185 8.49257654,13.7841367 7.45407778,14.8324789 C6.41557901,15.8808212 5.8528001,17.3044632 5.89584269,18.7742915 C5.89584269,21.7841106 8.35325323,24.2240511 11.3846227,24.2240511 C14.4159923,24.2240511 16.8734028,21.7841106 16.8734028,18.7742915 M23.1631771,18.7742915 C23.1631771,25.2018787 18.5279155,29.9345647 12.4219759,29.9345647 C9.93947356,29.9889166 7.56688603,28.9190069 5.97462901,27.0271571 L5.97462901,29.3869812 L0,29.3869812 L0,0 L6.1715948,0 L6.1715948,10.2737095 C7.78810255,8.56342395 10.0602798,7.61551468 12.4219759,7.66616901 C18.5279155,7.66616901 23.1631771,12.4379681 23.1631771,18.83948" id="Shape"></path>
                    <path d="M39.1567993,23.5721659 C36.9813916,24.6510534 34.3489624,24.1643006 32.7105449,22.3802126 C31.0721273,20.5961247 30.8262849,17.9487011 32.1085295,15.8972401 C33.3907741,13.845779 35.8891853,12.8893214 38.2266027,13.5550806 C40.5640201,14.2208398 42.1718407,16.3468623 42.1638104,18.7612538 C42.1591988,19.7166201 41.8961641,20.6532109 41.4022094,21.4730959 L45.5910152,25.6321229 C49.2755683,20.9355441 48.6707535,14.2087282 44.2065931,10.2344282 C39.7424326,6.26012825 32.9418491,6.39415391 28.6400442,10.5412132 C24.3382394,14.6882725 24.0027493,21.4336199 27.8721067,25.9813265 C31.7414641,30.5290332 38.49566,31.327675 43.3324741,27.8094192 L39.1567993,23.5721659 Z" id="Path"></path>
                </g>
            </g>
        </g>
    </g>
</svg>