<?xml version="1.0" encoding="UTF-8"?>
<svg width="48px" height="48px" viewBox="0 0 48 48" version="1.1" xmlns="http://www.w3.org/2000/svg" xmlns:xlink="http://www.w3.org/1999/xlink">
    <title>7A7C8AF3-7574-4AB6-9B54-8876065CA936</title>
    <defs>
        <path d="M0,24 C0,26.12631 1.474713,27.90816 3.45714,28.37856 C5.17173,36.4626 11.53743,42.8283 19.62147,44.5428 C20.09187,46.5252 21.87372,48 24,48 C26.12628,48 27.90813,46.5252 28.37853,44.5428 C36.4626,42.8283 42.8283,36.4626 44.5428,28.37856 C46.5252,27.90813 48,26.12631 48,24.00006 C48,21.87381 46.5252,20.09196 44.5428,19.62153 C42.8283,11.53746 36.4626,5.17173 28.37853,3.45714 C27.90813,1.474716 26.12628,0 24,0 C21.87372,0 20.09187,1.474716 19.62147,3.45714 C11.53743,5.17173 5.17173,11.53743 3.45714,19.62147 C1.47471,20.09187 0,21.87372 0,24 Z" id="path-1"></path>
        <linearGradient x1="23.648625%" y1="11.8243125%" x2="75.675625%" y2="88.175625%" id="linearGradient-3">
            <stop stop-color="#009CA8" offset="0%"></stop>
            <stop stop-color="#007D85" offset="100%"></stop>
        </linearGradient>
        <linearGradient x1="18.814976%" y1="8.21204478%" x2="84.9269499%" y2="117.983052%" id="linearGradient-4">
            <stop stop-color="#36E3EE" offset="0%"></stop>
            <stop stop-color="#00B1BE" offset="100%"></stop>
        </linearGradient>
        <linearGradient x1="-10.135%" y1="24.9999375%" x2="81.7575%" y2="66.21625%" id="linearGradient-5">
            <stop stop-color="#D2F6F9" offset="0%"></stop>
            <stop stop-color="#82EBF1" offset="100%"></stop>
            <stop stop-color="#82EBF1" offset="100%"></stop>
        </linearGradient>
        <linearGradient x1="105.406667%" y1="66.2156667%" x2="-31.53%" y2="17.567%" id="linearGradient-6">
            <stop stop-color="#9AEEF3" offset="0%"></stop>
            <stop stop-color="#82EBF1" offset="100%"></stop>
        </linearGradient>
    </defs>
    <g id="UI-kit" stroke="none" stroke-width="1" fill="none" fill-rule="evenodd">
        <g id="Connectors" transform="translate(-620.000000, -2024.000000)">
            <g id="Connector/Ably-Copy-125" transform="translate(620.000000, 2024.000000)">
                <mask id="mask-2" fill="white">
                    <use xlink:href="#path-1"></use>
                </mask>
                <g id="Path"></g>
                <circle id="Oval" fill="url(#linearGradient-3)" fill-rule="nonzero" mask="url(#mask-2)" cx="24" cy="24" r="24"></circle>
                <path d="M27,7.85415 C27.92061,7.03017 28.5,5.83275 28.5,4.5 C28.5,2.014719 26.48529,0 24,0 C21.51471,0 19.5,2.014719 19.5,4.5 C19.5,5.83275 20.07939,7.03017 21,7.85415 L21,12 L27,12 L27,7.85415 Z" id="Path" fill="#9DF3F9" mask="url(#mask-2)"></path>
                <path d="M21,40.1457 C20.07939,40.9698 19.5,42.1674 19.5,43.5 C19.5,45.9852 21.51471,48 24,48 C26.48529,48 28.5,45.9852 28.5,43.5 C28.5,42.1674 27.92061,40.9698 27,40.1457 L27,36 L21,36 L21,40.1457 Z" id="Path" fill="#82EBF1" mask="url(#mask-2)"></path>
                <path d="M7.85415,21 C7.03017,20.07939 5.83275,19.5 4.4999998,19.5 C2.014719,19.5 -1.96701876e-07,21.51471 -1.96701876e-07,24 C-1.96701876e-07,26.48529 2.014719,28.5 4.4999998,28.5 C5.83275,28.5 7.03017,27.92064 7.85415,27 L11.9999998,27 L11.9999998,21 L7.85415,21 Z" id="Path" fill="#9DF3F9" mask="url(#mask-2)"></path>
                <g id="Group" opacity="0.5" mask="url(#mask-2)">
                    <g transform="translate(11.003910, 12.509760)" id="Path">
                        <path d="M25.99989,13.00002 C25.99989,20.17974 20.17959,26.00004 13,26.00004 C5.8203,26.00004 0,20.17974 0,13.00002 C0,5.8203 5.8203,0 13,0 C20.17959,0 25.99989,5.8203 25.99989,13.00002 Z" stroke="none" fill="#000000" fill-rule="nonzero"></path>
                        <path d="M18.19728,16.00002 C17.15985,17.79354 15.2208,19.00014 12.99993,19.00014 C9.68622,19.00014 6.99993,16.31376 6.99993,13.00005 C6.99993,9.68634 9.68622,7.00005 12.99993,7.00005 C15.22077,7.00005 17.15979,8.20662 18.19722,10.00002 L30.99999,10.00002 L30.99999,16.00002 L18.19728,16.00002 Z" stroke="none" fill="#000000" fill-rule="nonzero"></path>
                        <path d="M32.49999,17.50014 C30.01479,17.50014 27.99999,15.48534 27.99999,13.00005 C27.99999,10.51479 30.01479,8.50005 32.49999,8.50005 C34.98519,8.50005 36.99999,10.51479 36.99999,13.00005 C36.99999,15.48534 34.98519,17.50014 32.49999,17.50014 Z" stroke="none" fill="#000000" fill-rule="nonzero"></path>
                        <path d="M25.99989,13.00002 C25.99989,20.17974 20.17959,26.00004 13,26.00004 C5.8203,26.00004 0,20.17974 0,13.00002 C0,5.8203 5.8203,0 13,0 C20.17959,0 25.99989,5.8203 25.99989,13.00002 Z" stroke-opacity="0.5" stroke="#000000" stroke-width="3" fill="none"></path>
                        <path d="M18.19728,16.00002 C17.15985,17.79354 15.2208,19.00014 12.99993,19.00014 C9.68622,19.00014 6.99993,16.31376 6.99993,13.00005 C6.99993,9.68634 9.68622,7.00005 12.99993,7.00005 C15.22077,7.00005 17.15979,8.20662 18.19722,10.00002 L30.99999,10.00002 L30.99999,16.00002 L18.19728,16.00002 Z" stroke-opacity="0.5" stroke="#000000" stroke-width="3" fill="none"></path>
                        <path d="M32.49999,17.50014 C30.01479,17.50014 27.99999,15.48534 27.99999,13.00005 C27.99999,10.51479 30.01479,8.50005 32.49999,8.50005 C34.98519,8.50005 36.99999,10.51479 36.99999,13.00005 C36.99999,15.48534 34.98519,17.50014 32.49999,17.50014 Z" stroke-opacity="0.5" stroke="#000000" stroke-width="3" fill="none"></path>
                    </g>
                </g>
                <circle id="Oval" fill="url(#linearGradient-4)" fill-rule="nonzero" mask="url(#mask-2)" cx="24.0039" cy="23.99952" r="12.99999"></circle>
                <path d="M29.19732,26.99997 C28.15992,28.7934 26.22087,30 24,30 C20.68629,30 18,27.31371 18,24 C18,20.68629 20.68629,18 24,18 C26.22084,18 28.15986,19.20657 29.19729,20.99997 L42,20.99997 L42,26.99997 L29.19732,26.99997 Z" id="Path" fill="url(#linearGradient-5)" mask="url(#mask-2)"></path>
                <path d="M43.5,28.5 C41.0148,28.5 39,26.48529 39,24 C39,21.51471 41.0148,19.5 43.5,19.5 C45.9852,19.5 48,21.51471 48,24 C48,26.48529 45.9852,28.5 43.5,28.5 Z" id="Path" fill="url(#linearGradient-6)" fill-rule="nonzero" mask="url(#mask-2)"></path>
            </g>
        </g>
    </g>
</svg>