<?xml version="1.0" encoding="UTF-8"?>
<svg width="49px" height="49px" viewBox="0 0 49 49" version="1.1" xmlns="http://www.w3.org/2000/svg" xmlns:xlink="http://www.w3.org/1999/xlink">
    <title>2EC59C53-69D3-448A-9017-B6E3CB2C3E20</title>
    <defs>
        <radialGradient cx="50%" cy="50%" fx="50%" fy="50%" r="50%" id="radialGradient-1">
            <stop stop-color="#5EA0EF" offset="18%"></stop>
            <stop stop-color="#5C9FEE" offset="56%"></stop>
            <stop stop-color="#559CED" offset="69%"></stop>
            <stop stop-color="#4A97E9" offset="78%"></stop>
            <stop stop-color="#3990E4" offset="86%"></stop>
            <stop stop-color="#2387DE" offset="93%"></stop>
            <stop stop-color="#087BD6" offset="99%"></stop>
            <stop stop-color="#0078D4" offset="100%"></stop>
        </radialGradient>
        <radialGradient cx="38.9701638%" cy="42.9897614%" fx="38.9701638%" fy="42.9897614%" r="93.3785733%" gradientTransform="translate(0.389702,0.429898),scale(1.000000,0.623473),translate(-0.389702,-0.429898)" id="radialGradient-2">
            <stop stop-color="#FFD70F" offset="27%"></stop>
            <stop stop-color="#FFCB12" offset="49%"></stop>
            <stop stop-color="#FEAC19" offset="88%"></stop>
            <stop stop-color="#FEA11B" offset="100%"></stop>
        </radialGradient>
    </defs>
    <g id="UI-kit" stroke="none" stroke-width="1" fill="none" fill-rule="evenodd">
        <g id="Connectors" transform="translate(-820.000000, -1472.000000)" fill-rule="nonzero">
            <g id="Connector/Ably-Copy-87" transform="translate(820.000000, 1472.000000)">
                <path d="M25,1 C11.745166,1 1,11.745166 1,25 C1,38.254834 11.745166,49 25,49 C38.254834,49 49,38.254834 49,25 C48.9844411,11.7516161 38.2483839,1.01555889 25,1 Z M25,45.7247059 C13.554061,45.7247059 4.27529412,36.445939 4.27529412,25 C4.27529412,13.554061 13.554061,4.27529412 25,4.27529412 C36.445939,4.27529412 45.7247059,13.554061 45.7247059,25 C45.7247059,30.4965337 43.5412164,35.7679438 39.6545801,39.6545801 C35.7679438,43.5412164 30.4965337,45.7247059 25,45.7247059 Z" id="aacf8311-a317-400f-b613-74bd00da5ce3" fill="url(#radialGradient-1)"></path>
                <circle id="Oval" fill="#FFFFFF" cx="25" cy="25" r="20.7247059"></circle>
                <g id="Group" transform="translate(10.958940, 2.547290)">
                    <path d="M26.5775302,17.7374161 C28.583649,15.7125147 28.583649,12.4493764 26.5775302,10.4244749 L26.5775302,10.4244749 L17.6834126,1.502122 C15.668165,-0.500707333 12.4139543,-0.500707333 10.3987067,1.502122 L10.3987067,1.502122 L1.50458906,10.4244749 C-0.501529687,12.4493764 -0.501529687,15.7125147 1.50458906,17.7374161 L8.90223612,25.2762396 C9.17250362,25.5455713 9.32483083,25.9111566 9.32576553,26.2927102 L9.32576553,40.0715338 C9.32643575,40.5361322 9.50884882,40.9820308 9.83400083,41.3138867 L13.2222361,44.702122 C13.4393568,44.9193719 13.7339132,45.0414325 14.0410597,45.0414325 C14.3482061,45.0414325 14.6427625,44.9193719 14.8598832,44.702122 L18.1351773,41.4268279 L18.1351773,41.4268279 L20.0551773,39.5068279 C20.3062718,39.2360845 20.3062718,38.8175713 20.0551773,38.5468279 L18.6716479,37.1632985 C18.3955429,36.869792 18.3955429,36.4120991 18.6716479,36.1185926 L20.0551773,34.7350632 C20.3062718,34.4643198 20.3062718,34.0458066 20.0551773,33.7750632 L18.6716479,32.3915338 C18.3955429,32.0980273 18.3955429,31.6403344 18.6716479,31.3468279 L20.0551773,29.9632985 C20.3062718,29.6925551 20.3062718,29.2740419 20.0551773,29.0032985 L18.1351773,27.0550632 L18.1351773,26.3491808 L26.5775302,17.7374161 Z M14.0410597,3.67623964 C15.6550306,3.67623964 16.9634126,4.98462162 16.9634126,6.59859259 C16.9634126,8.21256355 15.6550306,9.52094553 14.0410597,9.52094553 C12.4270887,9.52094553 11.1187067,8.21256355 11.1187067,6.59859259 C11.1187067,4.98462162 12.4270887,3.67623964 14.0410597,3.67623964 Z" id="bd983c41-db73-40ec-a4f4-da1213fc9924" fill="url(#radialGradient-2)"></path>
                    <path d="M11.7257655,40.2409455 L11.7257655,40.2409455 C11.9164949,40.405109 12.1848972,40.4443049 12.4146073,40.3415399 C12.6443173,40.2387749 12.793979,40.0125504 12.7987067,39.7609455 L12.7987067,28.4668279 C12.7970433,28.2382575 12.6802622,28.0259282 12.4881185,27.902122 L12.4881185,27.902122 C12.2904501,27.7725905 12.0364029,27.7664458 11.8327033,27.8862691 C11.6290036,28.0060924 11.5109427,28.2311243 11.5281185,28.4668279 L11.5281185,39.7609455 C11.5380978,39.9386307 11.6077359,40.1077517 11.7257655,40.2409455 Z" id="ad2e7e44-9bfd-4775-8bf4-8ef26a544921" fill="#FF9300" opacity="0.75"></path>
                    <rect id="a996fbff-3936-4b24-b407-369336c143ba" fill="#FF9300" opacity="0.75" x="6.92576553" y="13.3891808" width="14.5976471" height="1.72235294" rx="0.790588235"></rect>
                    <rect id="bb12d31c-3352-4a18-87dd-a169a4a8721d" fill="#FF9300" opacity="0.75" x="6.92576553" y="16.1844749" width="14.5976471" height="1.72235294" rx="0.790588235"></rect>
                </g>
            </g>
        </g>
    </g>
</svg>