<?xml version="1.0" encoding="UTF-8"?>
<svg width="49px" height="48px" viewBox="0 0 49 48" version="1.1" xmlns="http://www.w3.org/2000/svg" xmlns:xlink="http://www.w3.org/1999/xlink">
    <title>380E7592-9BE6-4C20-9C94-1E70615AFB24</title>
    <g id="UI-kit" stroke="none" stroke-width="1" fill="none" fill-rule="evenodd">
        <g id="Connectors" transform="translate(-820.000000, -736.000000)" fill="#81B5A1" fill-rule="nonzero">
            <g id="Connector/Ably-Copy-37" transform="translate(820.000000, 736.000000)">
                <path d="M25,2 C11.56,2 1,12.4954542 1,25.853305 C1,32.8502744 3.88,39.2111558 8.36,43.6637727 C9.96,45.253993 12.84,45.253993 14.76,43.9818167 C17.32,41.7555083 21.16,40.483332 25,40.483332 C29.16,40.483332 32.36,41.7555083 35.24,43.9818167 C37.16,45.5720371 39.72,45.253993 41.64,43.3457286 C46.12,38.8931117 49,32.8502744 49,25.853305 C48.68,12.8134983 38.12,2 25,2 M24.68,38.2570236 C17.32,38.2570236 12.52,32.8502744 12.52,26.171349 C12.52,19.4924236 17.32,14.0856745 24.68,14.0856745 C32.04,14.0856745 36.84,19.4924236 36.84,26.171349 C36.84,32.8502744 32.04,38.2570236 24.68,38.2570236" id="Shape"></path>
            </g>
        </g>
    </g>
</svg>