<?xml version="1.0" encoding="UTF-8"?>
<svg width="48px" height="48px" viewBox="0 0 48 48" version="1.1" xmlns="http://www.w3.org/2000/svg" xmlns:xlink="http://www.w3.org/1999/xlink">
    <title>8FF6B638-3A61-4B75-B26D-5993D4B0ADE2</title>
    <g id="UI-kit" stroke="none" stroke-width="1" fill="none" fill-rule="evenodd">
        <g id="Connectors" transform="translate(-420.000000, -1024.000000)" fill="#4392FF">
            <g id="Connector/Ably-Copy-53" transform="translate(420.000000, 1024.000000)">
                <path d="M24,0 C37.254834,0 48,10.745166 48,24 C48,37.254834 37.254834,48 24,48 C10.745166,48 0,37.254834 0,24 C0,10.745166 10.745166,0 24,0 Z M38.1539297,15.9182106 C37.7994745,15.5239182 37.1924947,15.4916236 36.7982022,15.8460788 L36.7982022,15.8460788 L31.4425574,20.660616 C31.2906586,20.7971678 31.2039058,20.9918095 31.2039058,21.1960633 L31.2039058,21.1960633 L31.2039058,26.8348719 C31.2039058,27.0394991 31.290975,27.2344603 31.4433549,27.371035 L31.4433549,27.371035 L36.7992655,32.1714165 C36.975364,32.3292495 37.2035218,32.4165324 37.44,32.4165324 C37.9701934,32.4165324 38.4,31.9867257 38.4,31.4565324 L38.4,31.4565324 L38.4,16.5600084 C38.4,16.3230377 38.312354,16.0944403 38.1539297,15.9182106 Z M25.7630208,15.6149937 L11.0403745,15.6149937 C10.2451017,15.615038 9.60039894,16.259721 9.60033018,17.0549937 L9.6,27.7895803 C9.60936183,30.3532065 11.5573724,32.416505 13.9330317,32.4061186 L28.655678,32.4061186 C29.450968,32.4061186 30.095678,31.7614086 30.095678,30.9661186 L30.095678,20.231532 C30.0863161,17.6679057 28.1383055,15.6046073 25.7630208,15.6149937 Z" id="Combined-Shape"></path>
            </g>
        </g>
    </g>
</svg>