<?xml version="1.0" encoding="UTF-8"?>
<svg width="20px" height="20px" viewBox="0 0 20 20" version="1.1" xmlns="http://www.w3.org/2000/svg" xmlns:xlink="http://www.w3.org/1999/xlink">
    <title>CCE67626-A868-42C8-AB26-79F77B1C0A95</title>
    <g id="Page-1" stroke="none" stroke-width="1" fill="none" fill-rule="evenodd">
        <g id="adding-new-API-Calls" transform="translate(-1008.000000, -594.000000)" fill="#4392FF">
            <g id="Logo/Circle" transform="translate(1008.000000, 594.000000)">
                <path d="M10,0 C15.5228475,0 20,4.4771525 20,10 C20,15.5228475 15.5228475,20 10,20 C4.4771525,20 0,15.5228475 0,10 C0,4.4771525 4.4771525,0 10,0 Z M15.8974707,6.63258776 C15.7497811,6.46829923 15.4968728,6.45484318 15.3325842,6.60253282 L15.3325842,6.60253282 L13.1010656,8.60859002 C13.0377744,8.66548656 13.0016274,8.74658729 13.0016274,8.83169304 L13.0016274,8.83169304 L13.0016274,11.1811966 C13.0016274,11.266458 13.0379062,11.3476918 13.1013979,11.4045979 L13.1013979,11.4045979 L15.3330273,13.4047569 C15.4064016,13.4705206 15.5014674,13.5068885 15.6,13.5068885 C15.8209139,13.5068885 16,13.3278024 16,13.1068885 L16,13.1068885 L16,6.90000351 C16,6.8012657 15.9634808,6.70601678 15.8974707,6.63258776 Z M10.734592,6.50624738 L4.60015603,6.50624738 C4.26879239,6.50626584 4.00016622,6.77488374 4.00013758,7.10624738 L4,11.5789918 C4.00390076,12.6471694 4.81557185,13.5068771 5.80542986,13.5025494 L11.9398658,13.5025494 C12.2712367,13.5025494 12.5398658,13.2339203 12.5398658,12.9025494 L12.5398658,8.42980499 C12.535965,7.3616274 11.724294,6.50191969 10.734592,6.50624738 Z" id="Combined-Shape"></path>
            </g>
        </g>
    </g>
</svg>