<?xml version="1.0" encoding="UTF-8"?>
<svg width="48px" height="48px" viewBox="0 0 48 48" version="1.1" xmlns="http://www.w3.org/2000/svg" xmlns:xlink="http://www.w3.org/1999/xlink">
    <title>1693819E-5DE7-4BE7-9F13-8BA6B8257999</title>
    <g id="UI-kit" stroke="none" stroke-width="1" fill="none" fill-rule="evenodd">
        <g id="Connectors" transform="translate(-120.000000, -1608.000000)" fill="#2AC4EA" fill-rule="nonzero">
            <g id="Connector/Ably-Copy-90" transform="translate(120.000000, 1608.000000)">
                <path d="M47.4888009,22.9011224 L47.3524038,18.1122394 C47.3524038,8.27792624 39.1174289,0.701229289 29.3650362,0.239444148 L27.2849805,0.10261892 C25.1026269,-0.0342063068 22.9032236,-0.0342063068 20.72087,0.10261892 L18.6578639,0.239444148 C8.76907417,0.80384821 1.14788622,8.3292357 0.670496375,18.1122394 L0.653446737,18.4885088 C0.448851088,22.1143773 0.448851088,25.7402459 0.653446737,29.3661144 L0.670496375,29.7423838 C0.670496375,39.576697 8.64972671,46.9823624 18.6578639,47.7862106 L20.1070831,47.8717263 C22.698628,48.0427579 25.2901729,48.0427579 27.8646681,47.8717263 L29.3479866,47.7691074 C39.1515281,47.7691074 46.8409146,40.1239979 47.3353541,29.7252806 L47.4717512,24.9363976 C47.5058505,24.2693747 47.5058505,23.5852485 47.4888009,22.9011224 Z M16.1004183,31.9828968 C15.3672839,33.1630144 13.7987172,33.5221807 12.6222922,32.7867451 C11.4458673,32.0513095 11.0878249,30.4778193 11.8209593,29.2977018 L21.9313943,13.1352218 C22.6645287,11.9551042 24.2330954,11.595938 25.4095203,12.3313736 C26.5859453,13.0668092 26.9439877,14.6402993 26.2108533,15.8204169 L16.1004183,31.9828968 L16.1004183,31.9828968 Z M25.3583714,31.9144842 C24.625237,33.0946018 23.0566704,33.453768 21.8802454,32.7183324 C20.7038204,31.9828968 20.345778,30.4094067 21.0789124,29.2292892 L27.2679308,19.3949759 C28.0010652,18.2148584 29.5696319,17.8556921 30.7460569,18.5911277 C31.9224819,19.3265633 32.2805242,20.9000534 31.5473898,22.080171 L25.3583714,31.9144842 Z M35.9461963,30.2041689 L34.8720691,32 C34.1389347,33.1801176 32.5703681,33.5392838 31.3939431,32.8038482 C30.2175181,32.0684126 29.8594757,30.4949225 30.5926101,29.3148049 L31.6667373,27.5189738 C32.3998717,26.3388562 33.9684384,25.97969 35.1448633,26.7151256 C36.338358,27.4505612 36.6963804,29.0240513 35.9461963,30.2041689 Z" id="Shape"></path>
            </g>
        </g>
    </g>
</svg>