<?xml version="1.0" encoding="UTF-8"?>
<svg width="48px" height="48px" viewBox="0 0 48 48" version="1.1" xmlns="http://www.w3.org/2000/svg" xmlns:xlink="http://www.w3.org/1999/xlink">
    <title>83D249AC-C9A7-49E9-BAAD-6F5C1E7DA0CD</title>
    <defs>
        <radialGradient cx="50%" cy="54.6521962%" fx="50%" fy="54.6521962%" r="72.2872738%" gradientTransform="translate(0.500000,0.546522),scale(0.916667,1.000000),translate(-0.500000,-0.546522)" id="radialGradient-1">
            <stop stop-color="#FFB900" offset="0%"></stop>
            <stop stop-color="#F95D8F" offset="60%"></stop>
            <stop stop-color="#F95353" offset="99.91%"></stop>
        </radialGradient>
    </defs>
    <g id="UI-kit" stroke="none" stroke-width="1" fill="none" fill-rule="evenodd">
        <g id="Connectors" transform="translate(-420.000000, -328.000000)" fill="url(#radialGradient-1)" fill-rule="nonzero">
            <g id="Connector/Ably-Copy-3" transform="translate(420.000000, 328.000000)">
                <path d="M37.5610674,25.2939486 C31.795148,25.2939486 27.1217722,29.9288837 27.1217722,35.646615 C27.1217722,41.3647056 31.795148,46 37.5610674,46 C43.3262621,46 48,41.3647056 48,35.646615 C48,29.9288837 43.3262621,25.2939486 37.5610674,25.2939486 L37.5610674,25.2939486 Z M10.4391137,25.2946671 C4.67391922,25.2946671 0,29.9288837 0,35.6471539 C0,41.3647056 4.67391922,46 10.4391137,46 C16.2046709,46 20.8787714,41.3647056 20.8787714,35.6471539 C20.8787714,29.9288837 16.2046709,25.2946671 10.4391137,25.2946671 L10.4391137,25.2946671 Z M34.4388421,12.3526665 C34.4388421,18.0703978 29.7654663,22.7064107 24.0002715,22.7064107 C18.2345337,22.7064107 13.5609769,18.0703978 13.5609769,12.3526665 C13.5609769,6.6352944 18.2345337,2 24.0002715,2 C29.7654663,2 34.4388421,6.6352944 34.4388421,12.3526665 L34.4388421,12.3526665 Z" id="Shape"></path>
            </g>
        </g>
    </g>
</svg>