<?xml version="1.0" encoding="UTF-8"?>
<svg width="48px" height="48px" viewBox="0 0 48 48" version="1.1" xmlns="http://www.w3.org/2000/svg" xmlns:xlink="http://www.w3.org/1999/xlink">
    <title>9ABBA44E-F130-4876-BF04-061841186C51</title>
    <g id="UI-kit" stroke="none" stroke-width="1" fill="none" fill-rule="evenodd">
        <g id="Connectors" transform="translate(-120.000000, -888.000000)">
            <g id="Connector/Ably-Copy-40" transform="translate(120.000000, 888.000000)">
                <path d="M30,5 C39.9411255,5 48,13.0588745 48,23 L48,25 C48,34.9411255 39.9411255,43 30,43 L20,43 C29.9411255,43 38,34.9411255 38,25 L38,25 L38,23 C38,13.0588745 29.9411255,5 20,5 L20,5 L30,5 Z" id="Combined-Shape" fill="#424251"></path>
                <path d="M20,5 C29.9411255,5 38,13.0588745 38,23 L38,25 C38,34.9411255 29.9411255,43 20,43 L5,43 L5.33066525,42.9970237 C15.1192167,42.8206815 23,34.8306685 23,25 L23,25 L23,23 C23,13.0588745 14.9411255,5 5,5 L5,5 L20,5 Z" id="Combined-Shape-Copy" fill="#0280FD"></path>
            </g>
        </g>
    </g>
</svg>