<?xml version="1.0" encoding="UTF-8"?>
<svg width="48px" height="48px" viewBox="0 0 48 48" version="1.1" xmlns="http://www.w3.org/2000/svg" xmlns:xlink="http://www.w3.org/1999/xlink">
    <title>B889B5F9-AFB8-48EE-A065-97BC58829322</title>
    <g id="UI-kit" stroke="none" stroke-width="1" fill="none" fill-rule="evenodd">
        <g id="Connectors" transform="translate(-320.000000, -2024.000000)" fill="#000000" fill-rule="nonzero">
            <g id="Connector/Ably-Copy-122" transform="translate(320.000000, 2024.000000)">
                <path d="M8,35.2162334 L15.0103263,35.2162334 L15.0103263,48 L8,48 L8,35.2162334 Z M34.4025277,2.34369055 C30.6394088,0.334812936 28.0295038,0 21.868914,0 L8,0 L8,29.0982879 L21.8082185,29.0982879 C27.3011582,29.0982879 31.3981021,28.763475 35.0094823,26.3589093 C38.9274357,23.6598954 41.1859174,19.1295652 40.9879857,14.3665187 C40.9879857,8.91819911 38.4691239,4.56563094 34.4025277,2.34369055 Z M23.4166483,23.01078 L15.0103263,23.01078 L15.0103263,6.23969562 L22.9310846,6.17882055 C30.1538451,6.08750793 33.7652253,8.64426126 33.7652253,14.4273938 C33.7652253,20.6366519 29.3041085,23.01078 23.4166483,23.01078 Z" id="Shape"></path>
            </g>
        </g>
    </g>
</svg>