<?xml version="1.0" encoding="UTF-8"?>
<svg width="48px" height="48px" viewBox="0 0 48 48" version="1.1" xmlns="http://www.w3.org/2000/svg" xmlns:xlink="http://www.w3.org/1999/xlink">
    <title>362EFE83-8B1D-469B-A5BE-6183A3F86C00</title>
    <g id="UI-kit" stroke="none" stroke-width="1" fill="none" fill-rule="evenodd">
        <g id="Connectors" transform="translate(-420.000000, -2616.000000)">
            <g id="Connector/sinch" transform="translate(420.000000, 2616.000000)">
                <circle id="Oval" fill="#FFBE3C" cx="24" cy="24" r="24"></circle>
                <path d="M43.9979913,24.0305658 C44.0118511,25.5397698 43.5671345,27.0168201 42.724302,28.2616571 C41.8814696,29.5064941 40.6810963,30.4589595 39.2856824,30.9900525 C36.8411471,31.956083 33.9768024,31.600177 31.2148993,30.0199546 L29.2062424,28.8485156 C28.758312,29.3691144 28.2388733,29.8218472 27.663594,30.1928232 L21.2359725,34 L21.2239206,34 L21.2239206,30.7154965 L21.2359725,30.7154965 L30.8955228,24.98236 C30.8394813,25.4601485 30.7358346,25.9309613 30.5861897,26.3876801 L32.5948465,27.5509841 C35.1739619,29.0356204 37.0982551,28.8017393 38.2572501,28.344146 C38.8877675,28.1008487 39.4572217,27.7194395 39.9250379,27.2272114 C40.3926532,26.734963 40.7471811,26.1440981 40.9629109,25.4968984 C41.1109489,25.0274889 41.1854701,24.5375386 41.1838631,24.0448021 C41.1828588,23.1105998 40.8962235,22.1996432 40.3631259,21.4370893 C39.8300284,20.6745354 39.076983,20.0978051 38.2070337,19.7861331 C37.0400041,19.3407422 35.1157108,19.1292324 32.5546734,20.6464087 L16.8711612,29.9426721 L16.8530833,29.9548746 C15.1135865,30.985985 13.3258819,31.5167933 11.6305755,31.5269621 C10.6647129,31.5369274 9.70529805,31.3667027 8.80037806,31.0246262 C7.02534811,30.3642682 5.57119305,29.0346645 4.74199742,27.3138694 C3.91280178,25.5930743 3.7727763,23.6143186 4.35120319,21.7914089 C4.69608354,20.7420762 5.26587922,19.7829401 6.01977433,18.9827009 C6.7736835,18.1824616 7.69304573,17.5609278 8.71199716,17.1625978 C11.1565325,16.1965674 14.0208772,16.5402708 16.7827803,18.1326958 L18.7914371,19.3041348 C19.2396689,18.7830071 19.7599311,18.3302337 20.3360942,17.9598272 L20.4706742,17.8784772 L21.2199032,17.4351201 L18.0261389,15.6047466 C17.732413,15.4046461 17.5240751,15.0997059 17.4427044,14.7508774 C17.3613136,14.4020285 17.412896,14.034937 17.5871469,13.7229193 C17.7613979,13.4109017 18.0454822,13.1769189 18.3826755,13.0677066 C18.7198486,12.958474 19.0853237,12.9820655 19.4060861,13.1337424 L23.995867,15.7918515 L28.4931693,13.1479787 C28.8109388,12.994512 29.1741039,12.9673615 29.5107548,13.0718758 C29.8474057,13.1763698 30.1330367,13.4049428 30.3112046,13.7123845 C30.4893724,14.0198262 30.5472217,14.3837858 30.4731023,14.7322889 C30.3991837,15.080792 30.1987198,15.3884982 29.911281,15.5945779 L17.1142087,23.0747041 C17.1726003,22.629659 17.2721293,22.1911625 17.4114899,21.7649702 L15.4028331,20.6016662 C12.8257263,19.1170299 10.9034418,19.350911 9.74243812,19.8105381 C8.87741005,20.1352057 8.1319975,20.7214946 7.60735643,21.4898041 C7.08269526,22.2581135 6.80421508,23.1712665 6.80969871,24.1053061 C6.81518235,25.039366 7.10436867,25.949082 7.63800853,26.7110258 C8.17164839,27.4729696 8.92389037,28.050249 9.79265454,28.3644835 C10.9576755,28.8098743 12.8839774,29.0213842 15.4450149,27.5042079 L31.1546396,18.195742 C32.8941364,17.1646316 34.681841,16.635857 36.3771473,16.6256883 C37.3425078,16.6159263 38.3010388,16.786212 39.2053361,17.1280241 C40.606776,17.6426438 41.818197,18.5806898 42.6756926,19.8152361 C43.5331882,21.0498026 43.995581,22.5212602 44,24.0305658" id="Path" fill="#FFFFFF" fill-rule="nonzero"></path>
            </g>
        </g>
    </g>
</svg>