<?xml version="1.0" encoding="UTF-8"?>
<svg width="48px" height="48px" viewBox="0 0 48 48" version="1.1" xmlns="http://www.w3.org/2000/svg" xmlns:xlink="http://www.w3.org/1999/xlink">
    <title>B089B616-D76A-4B33-89D4-C05605387E25</title>
    <g id="UI-kit" stroke="none" stroke-width="1" fill="none" fill-rule="evenodd">
        <g id="Connectors" transform="translate(-520.000000, -2616.000000)">
            <g id="Connector/adp" transform="translate(520.000000, 2616.000000)">
                <rect id="Rectangle" fill="#D0261D" x="1" y="1" width="46" height="46" rx="6"></rect>
                <path d="M5.85094472,31 L7.01679496,27.9658537 L13.3358992,27.9658537 L14.4821554,31 L17.3526942,31 L11.9545136,17.0097561 L8.37858642,17.0097561 L3,31 L5.85094472,31 Z M12.4149755,25.5463415 L7.91812456,25.5463415 L10.1616515,19.6341463 L12.4149755,25.5463415 Z M24.8082575,31 C26.8362491,31 28.4625612,30.3463415 29.6871938,29.0390244 C30.9118265,27.7317073 31.5192442,26.0536585 31.5192442,24.004878 C31.5192442,21.9268293 30.9020294,20.2390244 29.6773968,18.9414634 C28.4527642,17.6439024 26.8264521,17 24.7984605,17 L24.8082575,17.0097561 L18.7046886,17.0097561 L18.7046886,31 L24.8082575,31 Z M24.729881,28.5219512 L24.7396781,28.5121951 L21.4282715,28.5121951 L21.4282715,19.4585366 L24.7396781,19.4585366 C25.9447166,19.4585366 26.9146256,19.8682927 27.6494052,20.697561 C28.3841847,21.5268293 28.746676,22.6097561 28.746676,23.9463415 C28.746676,25.302439 28.3743877,26.404878 27.6396081,27.2536585 C26.9048286,28.102439 25.9349195,28.5219512 24.729881,28.5219512 Z M36.2806158,31 L36.2806158,26.7268293 L40.013296,26.7268293 C41.5318404,26.7268293 42.746676,26.2390244 43.6480056,25.2634146 C44.5493352,24.2878049 45,23.1560976 45,21.8780488 C45,20.6292683 44.5493352,19.5073171 43.6480056,18.5121951 C42.746676,17.5170732 41.5710287,17.0195122 40.1112666,17.0195122 L40.1308607,17.0097561 L33.5472358,17.0097561 L33.5472358,31 L36.2806158,31 Z M39.9055283,24.297561 L36.2610217,24.297561 L36.2610217,19.497561 L40.0328901,19.497561 C40.6892932,19.497561 41.2281316,19.7414634 41.6592022,20.2195122 C42.0902729,20.697561 42.3058083,21.2536585 42.3058083,21.8878049 C42.3058083,22.5219512 42.0804759,23.0780488 41.6298111,23.5560976 C41.1791463,24.0341463 40.6011197,24.2780488 39.8859342,24.2780488 L39.9055283,24.297561 Z" id="ADP" fill="#FFFFFF" fill-rule="nonzero"></path>
            </g>
        </g>
    </g>
</svg>