<?xml version="1.0" encoding="UTF-8"?>
<svg width="48px" height="48px" viewBox="0 0 48 48" version="1.1" xmlns="http://www.w3.org/2000/svg" xmlns:xlink="http://www.w3.org/1999/xlink">
    <title>563AC70D-482F-46A2-ADA3-018E2C2A2626</title>
    <g id="UI-kit" stroke="none" stroke-width="1" fill="none" fill-rule="evenodd">
        <g id="Connectors" transform="translate(-320.000000, -1608.000000)">
            <g id="Connector/Ably-Copy-92" transform="translate(320.000000, 1608.000000)">
                <g id="owler" transform="translate(0.000000, 8.000000)">
                    <g id="Group">
                        <g transform="translate(12.497392, 0.000000)" fill-rule="nonzero">
                            <g id="Path">
                                <path d="M16.5287869,30.9345657 C13.0329654,32.4060107 9.23168383,32.3033518 6.38072264,30.9345657 C2.6473211,29.1209241 0,27.3757218 0,14.7144505 C0,8.28115586 0.509100211,0 0.509100211,0 C0.509100211,0 1.4594206,3.18242766 11.6414248,3.18242766 C21.619789,3.18242766 22.3664693,0 22.3664693,0 C22.3664693,0 22.8416295,8.28115586 22.8416295,14.7144505 C22.8755695,26.9308664 20.3300684,29.326242 16.5287869,30.9345657 Z" fill="#FF9D48"></path>
                                <path d="M9.46926392,15.2961846 L10.7250444,13.6878609 L12.6596252,14.372254 L11.946885,18.204855 C11.946885,18.204855 11.9129449,17.6915602 11.4717248,16.8702886 C10.8608045,15.6726008 9.46926392,15.2961846 9.46926392,15.2961846 Z" fill="#F1CF93"></path>
                            </g>
                            <g transform="translate(2.986721, 6.809711)" id="Oval">
                                <ellipse fill="#FFFFFF" cx="3.49582145" cy="3.11398836" rx="3.49582145" ry="3.11398836"></ellipse>
                                <ellipse fill="#E6AC4C" cx="3.49582145" cy="3.11398836" rx="2.61338108" ry="2.32693636"></ellipse>
                            </g>
                            <ellipse id="Oval" fill="#272525" transform="translate(6.447734, 9.923599) rotate(-1.298368) translate(-6.447734, -9.923599) " cx="6.44773401" cy="9.92359933" rx="2.17207611" ry="1.84777357"></ellipse>
                            <ellipse id="Oval" fill="#FFFFFF" cx="7.229223" cy="9.41040438" rx="1" ry="1"></ellipse>
                            <g transform="translate(12.829325, 6.946589)" id="Oval">
                                <ellipse fill="#FFFFFF" cx="3.49582145" cy="3.11398836" rx="3.49582145" ry="3.11398836"></ellipse>
                                <ellipse fill="#E6AC4C" cx="3.49582145" cy="3.11398836" rx="2.61338108" ry="2.32693636"></ellipse>
                            </g>
                            <ellipse id="Oval" fill="#272525" transform="translate(16.289918, 10.060478) rotate(-1.298368) translate(-16.289918, -10.060478) " cx="16.2899183" cy="10.0604784" rx="2.17207611" ry="1.84777357"></ellipse>
                            <ellipse id="Oval" fill="#FFFFFF" cx="17.0718271" cy="9.54728299" rx="1" ry="1"></ellipse>
                        </g>
                        <g transform="translate(0.000000, 8.800619)" fill="#FF9D48" fill-rule="nonzero" id="Path">
                            <path d="M12.3616323,3.21047937 C7.84761043,0.472907184 -1.24831334,-1.03275752 0.14322724,0.815103707 C8.11913055,11.3889763 16.1968539,11.4916352 16.1968539,11.4916352 C16.400494,11.320537 16.570194,11.1494387 16.6720141,10.9099011 C17.6902145,8.89094165 16.9435342,5.98227121 12.3616323,3.21047937 Z"></path>
                            <path d="M9.51067112,3.79221346 C13.0404326,5.36631746 18.0296147,11.217878 16.434434,11.1494387 C7.10093012,10.7045832 3.36752858,5.94805155 3.36752858,5.94805155 C3.36752858,5.77695329 3.40146859,5.60585503 3.46934862,5.43475677 C4.08026887,3.99753137 5.91302963,2.1838898 9.51067112,3.79221346 Z"></path>
                        </g>
                        <g transform="translate(18.810235, 20.839768)" id="Path" stroke="#C66524" stroke-width="0.577794799">
                            <polyline points="0 1.67676296 1.08608045 0.0342196523 2.13822089 1.64254331"></polyline>
                            <polyline points="4.37826181 1.64254331 5.49828228 0 6.55042271 1.60832366"></polyline>
                            <polyline points="8.38318347 1.60832366 9.46926392 0 10.5214044 1.60832366"></polyline>
                            <polyline points="2.07034086 5.20138715 3.15642131 3.55884384 4.20856174 5.1671675"></polyline>
                            <polyline points="6.07526252 5.1671675 7.16134297 3.55884384 8.2134834 5.13294785"></polyline>
                        </g>
                    </g>
                    <g id="Group" transform="translate(30.885403, 8.534336)" fill="#FF9D48" fill-rule="nonzero">
                        <path d="M4.72513855,3.16878482 C9.27310044,0.431212634 18.3350842,-1.00601276 16.9774836,0.80762881 C8.96764031,11.3472817 0.889916961,11.415721 0.889916961,11.415721 C0.686276876,11.2446228 0.516576806,11.0735245 0.414756764,10.8339869 C-0.637383672,8.81502745 0.143236651,5.906357 4.72513855,3.16878482 Z" id="Path"></path>
                        <path d="M7.47427969,3.71629926 C3.94451823,5.35884257 -0.942843799,11.3130621 0.686276876,11.1761835 C10.0197807,10.5602297 13.6513622,5.73525874 13.6513622,5.73525874 C13.6513622,5.56416048 13.6174222,5.39306222 13.5495422,5.22196396 C12.9046819,3.85317786 11.0379812,2.07375594 7.47427969,3.71629926 Z" id="Path"></path>
                    </g>
                </g>
            </g>
        </g>
    </g>
</svg>