<?xml version="1.0" encoding="UTF-8"?>
<svg width="48px" height="48px" viewBox="0 0 48 48" version="1.1" xmlns="http://www.w3.org/2000/svg" xmlns:xlink="http://www.w3.org/1999/xlink">
    <title>A2945337-FDC7-4F37-A4AA-341310C73A00</title>
    <g id="UI-kit" stroke="none" stroke-width="1" fill="none" fill-rule="evenodd">
        <g id="Connectors" transform="translate(-920.000000, -2024.000000)" fill="#A973EC" fill-rule="nonzero">
            <g id="Connector/Ably-Copy-128" transform="translate(920.000000, 2024.000000)">
                <path d="M13.4758735,4.436457 C19.4214698,-1.478819 29.0830638,-1.478819 35.0905935,4.436457 L38.9923911,8.31835687 C40.1691237,9.48908858 40.1691237,11.3992298 38.9923911,12.6315789 C37.8156585,13.8023107 35.8957263,13.8023107 34.6570604,12.6315789 L30.7552628,8.74967908 C27.1631317,5.1758665 21.4033352,5.1758665 17.8112041,8.74967908 C14.219073,12.3234917 14.219073,18.0539153 17.8112041,21.6277279 L26.8534652,30.6238768 C28.0301978,31.7946085 28.0301978,33.7047497 26.8534652,34.9370988 C25.6767326,36.1078306 23.7568005,36.1078306 22.5181346,34.9370988 L13.4758735,25.9409499 C9.94567564,22.4287548 8.52120985,17.6225931 9.1405428,13.0629012 C9.63600917,9.92041078 11.060475,6.83953787 13.4758735,4.436457 Z M35.5241265,43.563543 C29.5785302,49.478819 19.9169362,49.478819 13.9094065,43.563543 L10.0076089,39.6816431 C8.83087633,38.5109114 8.83087633,36.6007702 10.0076089,35.3684211 C11.1843415,34.1976893 13.1042737,34.1976893 14.3429396,35.3684211 L18.2447372,39.2503209 C21.8368683,42.8241335 27.5966648,42.8241335 31.1887959,39.2503209 C34.780927,35.6765083 34.780927,29.9460847 31.1887959,26.3722721 L22.1465348,17.3145058 C20.9698022,16.1437741 20.9698022,14.2336329 22.1465348,13.0012837 C23.3232674,11.830552 25.2431995,11.830552 26.4818654,13.0012837 L35.5241265,21.9974326 C39.0543244,25.5096277 40.4787901,30.3157895 39.8594572,34.8754814 C39.3639908,38.0795892 37.939525,41.1604621 35.5241265,43.563543 Z" id="Shape"></path>
            </g>
        </g>
    </g>
</svg>