<?xml version="1.0" encoding="UTF-8"?>
<svg width="48px" height="48px" viewBox="0 0 48 48" version="1.1" xmlns="http://www.w3.org/2000/svg" xmlns:xlink="http://www.w3.org/1999/xlink">
    <title>9126A72D-74BC-47CF-87BB-D255ED7793DD</title>
    <defs>
        <linearGradient x1="49.984033%" y1="-26.4989011%" x2="49.984033%" y2="107.04898%" id="linearGradient-1">
            <stop stop-color="#FEEC7F" offset="0%"></stop>
            <stop stop-color="#FEE97B" offset="18.94%"></stop>
            <stop stop-color="#FCDF6E" offset="39.37%"></stop>
            <stop stop-color="#FACF58" offset="60.52%"></stop>
            <stop stop-color="#F6B93A" offset="82.01%"></stop>
            <stop stop-color="#F3A21B" offset="100%"></stop>
        </linearGradient>
        <linearGradient x1="-31.4426415%" y1="49.9509615%" x2="46.8643396%" y2="49.9509615%" id="linearGradient-2">
            <stop stop-color="#FEEC7F" offset="0%"></stop>
            <stop stop-color="#FDE373" offset="11.05%"></stop>
            <stop stop-color="#F6B434" offset="71.42%"></stop>
            <stop stop-color="#F3A21B" offset="100%"></stop>
        </linearGradient>
        <linearGradient x1="50.0284293%" y1="-9.40345868%" x2="50.0284293%" y2="98.3441465%" id="linearGradient-3">
            <stop stop-color="#FEEC7F" offset="0%"></stop>
            <stop stop-color="#F7BC3F" offset="61.44%"></stop>
            <stop stop-color="#F3A21B" offset="100%"></stop>
        </linearGradient>
        <linearGradient x1="49.929378%" y1="0.983496732%" x2="49.929378%" y2="101.602778%" id="linearGradient-4">
            <stop stop-color="#F9C32E" offset="0%"></stop>
            <stop stop-color="#F19819" offset="51.69%"></stop>
            <stop stop-color="#E96C04" offset="100%"></stop>
        </linearGradient>
        <linearGradient x1="-25.3022107%" y1="50.059542%" x2="74.7074122%" y2="50.059542%" id="linearGradient-5">
            <stop stop-color="#F7B425" offset="0%"></stop>
            <stop stop-color="#F3A620" offset="6.246364%"></stop>
            <stop stop-color="#EC8816" offset="21.31%"></stop>
            <stop stop-color="#E6720E" offset="37.36%"></stop>
            <stop stop-color="#E26208" offset="54.66%"></stop>
            <stop stop-color="#E05805" offset="74.07%"></stop>
            <stop stop-color="#DF5504" offset="100%"></stop>
        </linearGradient>
        <linearGradient x1="49.9370892%" y1="-34.3625%" x2="49.9370892%" y2="144.109375%" id="linearGradient-6">
            <stop stop-color="#FEEC7F" offset="0%"></stop>
            <stop stop-color="#F7BD40" offset="60.58%"></stop>
            <stop stop-color="#F3A21B" offset="100%"></stop>
        </linearGradient>
        <linearGradient x1="49.9730679%" y1="-109.742063%" x2="49.9730679%" y2="69.4626984%" id="linearGradient-7">
            <stop stop-color="#FEEC7F" offset="0%"></stop>
            <stop stop-color="#FEEA7C" offset="23.01%"></stop>
            <stop stop-color="#FCE271" offset="42.38%"></stop>
            <stop stop-color="#FBD560" offset="60.43%"></stop>
            <stop stop-color="#F8C347" offset="77.68%"></stop>
            <stop stop-color="#F4AC28" offset="94.21%"></stop>
            <stop stop-color="#F3A21B" offset="100%"></stop>
        </linearGradient>
        <linearGradient x1="50.0645365%" y1="7.12208955%" x2="50.0645365%" y2="136.783582%" id="linearGradient-8">
            <stop stop-color="#F9C32E" offset="0%"></stop>
            <stop stop-color="#F19819" offset="51.69%"></stop>
            <stop stop-color="#E96C04" offset="100%"></stop>
        </linearGradient>
        <linearGradient x1="63.2925997%" y1="18.4266667%" x2="37.1717393%" y2="69.8472222%" id="linearGradient-9">
            <stop stop-color="#E66A09" offset="0%"></stop>
            <stop stop-color="#E66A09" offset="100%"></stop>
        </linearGradient>
        <linearGradient x1="50.1907514%" y1="-28.7940476%" x2="50.1907514%" y2="101.965476%" id="linearGradient-10">
            <stop stop-color="#F7B425" offset="0%"></stop>
            <stop stop-color="#F3A620" offset="6.246364%"></stop>
            <stop stop-color="#EC8816" offset="21.31%"></stop>
            <stop stop-color="#E6720E" offset="37.36%"></stop>
            <stop stop-color="#E26208" offset="54.66%"></stop>
            <stop stop-color="#E05805" offset="74.07%"></stop>
            <stop stop-color="#DF5504" offset="100%"></stop>
        </linearGradient>
        <linearGradient x1="50.3122923%" y1="-14.9196078%" x2="50.3122923%" y2="65.629902%" id="linearGradient-11">
            <stop stop-color="#F7B425" offset="0%"></stop>
            <stop stop-color="#EF961A" offset="35.26%"></stop>
            <stop stop-color="#DF5504" offset="100%"></stop>
        </linearGradient>
    </defs>
    <g id="UI-kit" stroke="none" stroke-width="1" fill="none" fill-rule="evenodd">
        <g id="Connectors" transform="translate(-720.000000, -1876.000000)" fill-rule="nonzero">
            <g id="Connector/Ably-Copy-116" transform="translate(720.000000, 1876.000000)">
                <g id="Cloud" transform="translate(0.000000, 12.000000)">
                    <path d="M48,13.6809666 C48,9.10018215 44.1483283,4.6911771 39.5671733,4.6911771 C36.0364742,4.6911771 32.0389058,5.12062565 24.393921,14.6543833 C14.5021277,26.9079817 9.36656535,20.924332 9.07477204,20.5235134 C9.80425532,21.9263786 11.2632219,22.9284252 12.9848024,22.9284252 L39.5671733,22.9284252 C44.2066869,22.9284252 48,18.2617511 48,13.6809666 Z" id="Path" fill="url(#linearGradient-1)"></path>
                    <path d="M13.0139818,22.9284252 C10.5920973,22.9284252 8.60790274,21.0102217 8.60790274,18.6339398 C8.60790274,16.2576579 10.6212766,13.9958955 12.9848024,13.9958955 C17.6243161,13.9958955 18.2662614,18.1186016 25.5027356,20.1513247 C30.2006079,21.4683002 39.5379939,22.9284252 39.5379939,22.9284252 L13.0139818,22.9284252 Z" id="Path" fill="url(#linearGradient-2)"></path>
                    <path d="M39.5379939,22.9284252 C38.6042553,22.5562365 34.9568389,21.3824105 34.3440729,17.4887437 C33.731307,13.5378171 36.1531915,11.4192043 35.3945289,6.86704972 C34.7234043,2.85886332 31.3094225,0.883400018 27.8954407,0.196282348 C26.1446809,-0.147276486 24.218845,-0.0613867775 22.2638298,0.625730892 C16.7781155,2.57256429 14.9398176,8.69936351 15.9610942,12.9079592 C16.8072948,16.3721775 20.3088146,19.7791359 28.712462,21.239261 C35.8905775,22.4703468 36.4741641,22.5848664 39.5379939,22.9284252 Z" id="Path" fill="url(#linearGradient-3)"></path>
                    <path d="M34.3440729,17.4887437 C33.731307,13.5378171 36.1531915,11.4192043 35.3945289,6.86704972 C35.3069909,6.35171147 35.1610942,5.86500312 35.0151976,5.40692467 C32.3598784,6.43760118 29.0334347,8.84251302 24.393921,14.6257534 C14.5021277,26.9079817 9.36656535,20.924332 9.07477204,20.5235134 C9.80425532,21.9263786 11.2924012,22.9284252 13.0139818,22.9284252 L39.5671733,22.9284252 C38.6042553,22.5562365 34.9568389,21.3824105 34.3440729,17.4887437 Z" id="Path" fill="url(#linearGradient-4)"></path>
                    <path d="M17.0990881,15.4273907 C18.2954407,17.6032633 23.3142857,21.1247414 39.5379939,22.9284252 L39.5379939,22.9284252 C26.6990881,21.2965208 20.7173252,18.9202388 17.0990881,15.4273907 Z" id="Path" fill="url(#linearGradient-5)"></path>
                    <path d="M0.875379939,22.9284252 C0.379331307,22.9284252 0,22.5276066 0,22.0408983 C0,21.5541899 0.408510638,21.0961115 0.875379939,21.0961115 C1.80911854,21.0961115 1.9550152,22.0981581 3.41398176,22.4989767 C4.34772036,22.7566458 6.21519757,22.8997953 6.21519757,22.8997953 L0.875379939,22.8997953 L0.875379939,22.9284252 Z" id="Path" fill="url(#linearGradient-6)"></path>
                    <path d="M13.0139818,22.9284252 C11.7592705,22.9284252 10.5629179,22.3558272 9.74589666,21.52556 C7.44072948,20.6666629 7.06139818,19.3210575 5.33981763,19.3210575 C4.3768997,19.3210575 3.58905775,20.2372144 3.58905775,21.1820012 C3.58905775,22.126788 4.3768997,22.9284252 5.33981763,22.9284252 L10.6212766,22.9284252 C11.7300912,22.9284252 16.0486322,22.9284252 16.0486322,22.9284252 C16.0486322,22.9284252 16.0194529,22.9284252 15.9610942,22.9284252 L13.0139818,22.9284252 L13.0139818,22.9284252 Z" id="Path" fill="url(#linearGradient-7)"></path>
                    <path d="M44.1775076,6.26582176 C43.8857143,6.03678254 43.5647416,5.83637322 43.2729483,5.6645938 C42.9519757,5.49281438 42.6018237,5.32103497 42.1933131,5.20651535 C41.4346505,4.92021633 40.6468085,4.77706681 39.8881459,4.6911771 C39.7714286,4.6911771 39.6838906,4.6911771 39.5671733,4.6911771 C38.1957447,4.6911771 36.7367781,4.74843691 35.0151976,5.40692467 C35.1902736,5.86500312 35.3361702,6.35171147 35.3945289,6.86704972 C35.9197568,10.016339 34.8984802,12.0490621 34.4316109,14.2821946 C36.6784195,12.5071406 40.9969605,12.4498808 43.418845,12.5930303 L43.681459,12.5930303 C43.9440729,12.5930303 44.1775076,12.5644004 44.3817629,12.5071406 C46.7452888,11.9059126 46.8911854,8.38443457 44.1775076,6.26582176 Z" id="Path" fill="url(#linearGradient-8)"></path>
                    <path d="M34.4607903,14.2535647 C34.256535,15.2269814 34.168997,16.2862878 34.3440729,17.4887437 C34.9568389,21.3824105 38.5458967,22.4703468 39.5379939,22.9284252 L39.5671733,22.9284252 C41.1720365,22.9284252 42.6601824,22.3558272 43.9148936,21.4683002 C43.6231003,21.2106311 42.0474164,19.8363957 41.5805471,18.4335305 C40.0924012,13.9958955 43.4772036,12.67892 43.681459,12.5930303 C42.0474164,12.5644004 36.7075988,12.5071406 34.4607903,14.2535647 Z" id="Path" fill="#E35702" opacity="0.47"></path>
                    <path d="M34.3440729,17.4887437 C34.8693009,20.8670722 37.7580547,22.413087 39.5379939,22.9284252 C38.5167173,22.4417169 35.8905775,20.8670722 35.9197568,18.1472315 C36.0072948,12.8220695 41.6972644,12.6216602 41.6972644,12.6216602 L41.6972644,12.6216602 C39.3045593,12.6216602 36.2407295,12.8793293 34.4316109,14.2535647 C34.1981763,15.2556113 34.1398176,16.2862878 34.3440729,17.4887437 Z" id="Path" fill="url(#linearGradient-9)"></path>
                    <path d="M14.093617,22.9284252 C13.0723404,22.8997953 10.4462006,22.5848664 9.04559271,20.5235134 C9.80425532,22.0408983 11.3215805,22.9284252 13.0431611,22.9284252 L14.093617,22.9284252 Z" id="Path" fill="url(#linearGradient-10)"></path>
                    <path d="M34.0231003,17.4887437 C33.4103343,13.5378171 36.0364742,11.4192043 35.2778116,6.86704972 C35.1902736,6.35171147 34.9860182,5.40692467 34.9860182,5.40692467 C35.1610942,5.86500312 35.3069909,6.35171147 35.3653495,6.86704972 C36.1240122,11.4192043 33.7021277,13.5378171 34.3148936,17.4887437 C34.9276596,21.3824105 38.575076,22.5562365 39.5088146,22.9284252 C39.5379939,22.9284252 34.6942249,21.7832291 34.0231003,17.4887437 Z" id="Path" fill="url(#linearGradient-11)"></path>
                    <path d="M12.5179331,22.9284252 L5.98176292,22.9284252 L0.846200608,22.9284252 C0.496048632,22.9284252 0.291793313,22.699386 0.291793313,22.699386 C0.612765957,22.7280159 12.5179331,22.9284252 12.5179331,22.9284252 Z" id="Path" fill="#EB7808"></path>
                    <path d="M12.9556231,22.9284252 L5.89422492,22.9284252 C5.07720365,22.9284252 4.66869301,22.7852757 4.66869301,22.7852757 C8.1118541,22.8425355 12.9556231,22.9284252 12.9556231,22.9284252 Z" id="Path" fill="#E35702"></path>
                    <path d="M34.4607903,14.2535647 C36.7075988,12.4785107 41.2012158,12.4212509 43.7106383,12.5930303 C43.7106383,12.5930303 40.2091185,12.5071406 37.787234,13.0224788 C35.3361702,13.566447 34.4607903,14.2535647 34.4607903,14.2535647 Z" id="Path" fill="#E35702"></path>
                </g>
            </g>
        </g>
    </g>
</svg>