<?xml version="1.0" encoding="UTF-8"?>
<svg width="48px" height="48px" viewBox="0 0 48 48" version="1.1" xmlns="http://www.w3.org/2000/svg" xmlns:xlink="http://www.w3.org/1999/xlink">
    <title>D1CBF3ED-0922-47EE-9267-9CD6E4036179</title>
    <g id="UI-kit" stroke="none" stroke-width="1" fill="none" fill-rule="evenodd">
        <g id="Connectors" transform="translate(-520.000000, -600.000000)" fill-rule="nonzero">
            <g id="livestorm" transform="translate(520.000000, 600.000000)">
                <path d="M47.9978554,24 C47.9978554,30.6288567 48.2201404,38.3484275 43.2864412,43.2989986 C38.3525991,48.2495696 30.6287655,47.9978554 24.0000714,47.9978554 C17.3712345,47.9978554 9.65154377,48.2202839 4.70098744,43.2864271 C-0.24956889,38.3525704 0.0021446281,30.6288567 0.0021446281,24 C0.0021446281,17.3712862 -0.215997564,9.65157249 4.71784453,4.70100143 C9.65168662,-0.249569633 17.3753773,0.00214463448 24.0000714,0.00214463448 C30.6246227,0.00214463448 38.3483134,-0.215998207 43.2990126,4.71785857 C48.2495689,9.65157249 47.9978554,17.3754291 47.9978554,24 Z" id="Path" fill="#12262B"></path>
                <path d="M26.7057775,11.4554295 L11.3548243,11.4554295 C9.99697128,11.4554295 8.89626036,12.5561437 8.89626036,13.9140007 C8.89626036,15.2718578 9.99697128,16.372572 11.3548243,16.372572 L26.7057775,16.372572 C28.0636305,16.372572 29.1643414,15.2718578 29.1643414,13.9140007 C29.1643414,12.5561437 28.0636305,11.4554295 26.7057775,11.4554295 L26.7057775,11.4554295 Z M31.7320478,21.5412859 L16.3809518,21.5412859 C15.0232417,21.5412859 13.9223879,22.6420001 13.9223879,23.9997143 C13.9223879,25.3575713 15.0232417,26.4582855 16.3809518,26.4582855 L31.7320478,26.4582855 C33.0899008,26.4582855 34.1906118,25.3575713 34.1906118,23.9997143 C34.1906118,22.6420001 33.0899008,21.5412859 31.7320478,21.5412859 Z M26.7057775,31.6312851 L21.4069365,31.6312851 C20.0492263,31.6312851 18.9485154,32.7319994 18.9485154,34.0897135 C18.9485154,35.4475706 20.0492263,36.5482848 21.4069365,36.5482848 L26.7057775,36.5482848 C28.0636305,36.5482848 29.1643414,35.4475706 29.1643414,34.0897135 C29.1643414,32.7319994 28.0636305,31.6312851 26.7057775,31.6312851 Z M39.1074539,13.9140007 C39.1074539,12.5561437 38.006743,11.4554295 36.64889,11.4554295 C35.291037,11.4554295 34.1903261,12.5561437 34.1903261,13.9140007 C34.1903261,15.2718578 35.291037,16.372572 36.64889,16.372572 C38.006743,16.372572 39.1074539,15.2718578 39.1074539,13.9140007 L39.1074539,13.9140007 Z" id="Shape" fill="#FFFFFF"></path>
            </g>
        </g>
    </g>
</svg>