<?xml version="1.0" encoding="UTF-8"?>
<svg width="48px" height="48px" viewBox="0 0 48 48" version="1.1" xmlns="http://www.w3.org/2000/svg" xmlns:xlink="http://www.w3.org/1999/xlink">
    <title>C6FA8F2F-73F8-4292-9B1E-6977D4A4553A</title>
    <g id="UI-kit" stroke="none" stroke-width="1" fill="none" fill-rule="evenodd">
        <g id="Connectors" transform="translate(-320.000000, -328.000000)" fill="#000000" fill-rule="nonzero">
            <g id="Connector/Ably-Copy-2" transform="translate(320.000000, 328.000000)">
                <path d="M43.1616619,37.4065742 C42.4435033,39.0835603 41.5934371,40.6272164 40.608533,42.0464336 C39.2660142,43.981187 38.1667913,45.3204068 37.3196564,46.064089 C36.0064516,47.2847924 34.5994456,47.9099581 33.0927765,47.9455134 C32.0111412,47.9455134 30.7067292,47.6344103 29.1883356,47.0033214 C27.6649593,46.375188 26.2649881,46.064089 24.9849057,46.064089 C23.6423877,46.064089 22.2025513,46.375188 20.6624666,47.0033214 C19.1200351,47.6344103 17.8774738,47.9632911 16.9274513,47.9958828 C15.4826322,48.0581026 14.0425042,47.4151592 12.6050122,46.064089 C11.6875281,45.2552234 10.5399392,43.8685978 9.16517645,41.9042123 C7.69016593,39.8065012 6.47750278,37.3739824 5.52748066,34.6007333 C4.51003965,31.6052683 4,28.7046156 4,25.8964055 C4,22.6796144 4.68767415,19.9051798 6.06507414,17.5802129 C7.14758922,15.7127151 8.58771822,14.2395741 10.3901505,13.1581248 C12.1925843,12.0766771 14.140115,11.5255828 16.2374335,11.4903239 C17.3850216,11.4903239 18.8899327,11.8491278 20.7600774,12.5542919 C22.6249464,13.261826 23.8223673,13.62063 24.3473555,13.62063 C24.7398514,13.62063 26.0700582,13.2010863 28.3250783,12.3646684 C30.4575725,11.5889881 32.2573667,11.2678115 33.7317915,11.3943261 C37.7271023,11.7202424 40.7287146,13.3121945 42.7249044,16.1802555 C39.1516963,18.368634 37.3841448,21.4337259 37.4193196,25.3657545 C37.4515636,28.4284759 38.5507864,30.9771389 40.7111266,33.0007827 C41.6901675,33.9400119 42.7835292,34.665916 44,35.1814565 C43.7361901,35.954766 43.4577202,36.6954845 43.1616619,37.4065742 Z M33.9985374,0.960273298 C33.9985374,3.36082134 33.1308825,5.60220622 31.401439,7.67680883 C29.3143788,10.1431055 26.7899772,11.5682468 24.0524708,11.3433652 C24.0175892,11.0553735 23.9973632,10.7522722 23.9973632,10.4337637 C23.9973632,8.12924011 24.9898889,5.66294463 26.7524576,3.64641304 C27.6324209,2.6254078 28.751577,1.77645574 30.1087518,1.0992306 C31.4629946,0.432110059 32.7439566,0.0631780326 33.9487042,0 C33.9838818,0.320915771 33.9985374,0.64185174 33.9985374,0.960242166 L33.9985374,0.960273298 Z" id="path4"></path>
            </g>
        </g>
    </g>
</svg>