<?xml version="1.0" encoding="UTF-8"?>
<svg width="48px" height="48px" viewBox="0 0 48 48" version="1.1" xmlns="http://www.w3.org/2000/svg" xmlns:xlink="http://www.w3.org/1999/xlink">
    <title>5E7B3562-AB2B-406A-87C5-A8F16CBC3E59</title>
    <g id="UI-kit" stroke="none" stroke-width="1" fill="none" fill-rule="evenodd">
        <g id="Connectors" transform="translate(-320.000000, -2320.000000)">
            <g id="5f39f489fb8e3e51d7d3cb23_brand%20combo%20black" transform="translate(320.000000, 2320.000000)">
                <rect id="Rectangle" fill="#000000" fill-rule="nonzero" x="0" y="0" width="48" height="48" rx="24"></rect>
                <path d="M23.6702857,25.5668571 C24.1797714,25.2690286 25.2688,24.6493714 25.2797714,24.6430857 C25.3266286,24.6164571 25.3694857,24.5857143 25.4100571,24.5529143 C25.6885714,24.3942857 26.5091429,23.9262857 26.9453714,23.6712 C29.3236571,22.2803429 32.3441143,22.6816 34.2902857,24.6464 C36.6613714,27.0402286 36.6613714,30.9352 34.2902857,33.3289143 C31.9192,35.7227429 28.0611429,35.7226286 25.6901714,33.3290286 C24.9984,32.6306286 24.2477714,31.3964571 24.2154286,30.0266286 C24.2026286,29.4830857 23.7536,29.0517714 23.2174857,29.0660571 C22.6792,29.0789714 22.2531429,29.5300571 22.2659429,30.0734857 C22.3050286,31.7301714 23.0694857,33.4675429 24.3110857,34.7211429 C27.4426286,37.8824 32.5378286,37.8825143 35.6693714,34.7210286 C38.8006857,31.5596571 38.8006857,26.4157714 35.6692571,23.2542857 C34.1226286,21.6929143 32.0622857,20.8795429 29.9819429,20.8795429 C28.6050286,20.8795429 27.2192,21.2358857 25.9681143,21.9675429 C25.4586286,22.2653714 24.3696,22.8850286 24.3586286,22.8913143 C24.3117714,22.9179429 24.2689143,22.9486857 24.2283429,22.9814857 C23.9497143,23.1401143 23.1291429,23.6081143 22.6929143,23.8632 C20.3145143,25.2539429 17.2942857,24.8528 15.348,22.888 C12.9769143,20.4941714 12.9769143,16.5992 15.348,14.2054857 C17.7190857,11.8116571 21.5771429,11.8117714 23.9482286,14.2053714 C24.64,14.9037714 25.3906286,16.1380571 25.4228571,17.5076571 C25.4355429,18.0433143 25.8694857,18.4686857 26.3972571,18.4686857 C26.9592,18.4554286 27.3852571,18.0043429 27.3724571,17.4609143 C27.3333714,15.8042286 26.5689143,14.0668571 25.3272,12.8132571 C23.7614857,11.2326057 21.7048,10.44224 19.6481143,10.44224 C17.5915429,10.44224 15.5347429,11.2326057 13.9690286,12.8133714 C10.83768,15.9747429 10.8376914,21.1186286 13.9691429,24.2801143 C16.5392,26.8747429 20.5285714,27.4038857 23.6702857,25.5668571 Z M21.8472,14.9416 C22.2825143,15.2014857 22.4270857,15.7690286 22.1699429,16.2091429 C21.9128,16.6493714 21.3515429,16.7955429 20.9162286,16.5355429 C19.9381714,15.9515429 18.6932571,16.1118857 17.8886857,16.9254857 C17.0873143,17.7357714 16.9267429,18.9912 17.4981714,19.9784 C17.7536,20.4195429 17.6068571,20.9865143 17.1705143,21.2446857 C16.7342857,21.5028571 16.1734857,21.3546286 15.9180571,20.9134857 C14.9261714,19.2 15.2041143,17.0218286 16.5940571,15.6164571 C17.4277714,14.7733714 18.5349714,14.3349714 19.6530286,14.3348571 C20.4060571,14.3347429 21.164,14.5336 21.8472,14.9416 Z M27.6156571,31.6243429 C27.3585143,32.0644571 27.5029714,32.632 27.9384,32.8918857 C29.6358857,33.9054857 31.7961143,33.6281143 33.1915429,32.2170286 C34.5814857,30.8117714 34.8593143,28.6336 33.8674286,26.9201143 C33.6971429,26.6258286 33.3910857,26.4618286 33.0765714,26.4618286 C32.9195429,26.4618286 32.7603429,26.5028571 32.6149714,26.5888 C32.1787429,26.8470857 32.032,27.4139429 32.2874286,27.8552 C32.8588571,28.8424 32.6982857,30.0978286 31.8969143,30.9081143 C31.0923429,31.7216 29.8474286,31.8819429 28.8692571,31.2979429 C28.4339429,31.0379429 27.8726857,31.1841143 27.6156571,31.6243429 Z M30.4468571,27.9666286 C30.0413714,27.5572571 29.3841143,27.5572571 28.9787429,27.9666286 C28.5733714,28.3758857 28.5733714,29.0393143 28.9787429,29.4486857 C29.3841143,29.8579429 30.0413714,29.8579429 30.4468571,29.4486857 C30.8522286,29.0393143 30.8522286,28.3758857 30.4468571,27.9666286 Z M20.6590857,19.8668571 C20.2537143,20.2761143 19.5965714,20.2761143 19.1910857,19.8668571 C18.7856,19.4576 18.7856,18.7940571 19.1910857,18.3846857 C19.5965714,17.9754286 20.2537143,17.9754286 20.6590857,18.3846857 C21.0645714,18.7940571 21.0645714,19.4576 20.6590857,19.8668571 Z" id="Shape" fill="#FFFFFF"></path>
            </g>
        </g>
    </g>
</svg>