<?xml version="1.0" encoding="UTF-8"?>
<svg width="48px" height="48px" viewBox="0 0 48 48" version="1.1" xmlns="http://www.w3.org/2000/svg" xmlns:xlink="http://www.w3.org/1999/xlink">
    <title>4F2DEA14-C351-439D-9D51-B7ED0A8DF572</title>
    <g id="UI-kit" stroke="none" stroke-width="1" fill="none" fill-rule="evenodd">
        <g id="Connectors" transform="translate(-220.000000, -3032.000000)">
            <g id="Connector/zendesk.support-Copy-11" transform="translate(220.000000, 3032.000000)">
                <rect id="Rectangle" fill="#282828" x="1" y="1" width="46" height="46" rx="6"></rect>
                <path d="M24.3330577,43 C24.0408467,43 23.7486357,42.8321396 23.5821068,42.5381064 C23.4564247,42.2442318 23.4564247,41.9503572 23.6653713,41.6983288 L32.5605259,29.3955387 L16.9837936,35.7778805 C16.8581115,35.8198852 16.774847,35.86189 16.6507359,35.86189 C16.2736894,35.86189 15.9406317,35.6100201 15.8573673,35.2739822 C15.7316851,34.9381029 15.898214,34.5602188 16.190425,34.3503536 L29.888209,26.2464517 L5.79336861,24.8607711 C5.29221101,24.8187663 5,24.4408822 5,24.0209934 C5,23.6431093 5.24979329,23.2232205 5.79336861,23.1812158 L29.888209,21.7955351 L16.190425,13.6917283 C15.898214,13.4817681 15.7316851,13.1038681 15.8573673,12.7679571 C15.9814784,12.432046 16.2736894,12.1801127 16.6507359,12.1801127 C16.774847,12.1801127 16.8581115,12.2221016 16.9837936,12.2640905 L32.5605259,18.6464165 L23.6653713,6.30165805 C23.4988424,6.04972476 23.4564247,5.7138137 23.5821068,5.46187882 C23.707789,5.16795664 24,5 24.3330577,5 C24.5420043,5 24.7509509,5.08397808 24.9174797,5.2519344 L42.6245246,23.0133553 C42.8743178,23.2652252 43,23.6431093 43,23.9789887 C43,24.314868 42.8743178,24.6509059 42.6245246,24.9447805 L24.9174797,42.7481301 C24.7509509,42.9159905 24.5420043,43 24.3330577,43 Z" id="Path" fill="#FFFFFF" fill-rule="nonzero"></path>
            </g>
        </g>
    </g>
</svg>