<?xml version="1.0" encoding="UTF-8"?>
<svg width="48px" height="48px" viewBox="0 0 48 48" version="1.1" xmlns="http://www.w3.org/2000/svg" xmlns:xlink="http://www.w3.org/1999/xlink">
    <title>47DD2ACA-FE82-4836-A820-0BFBD5963DED</title>
    <g id="UI-kit" stroke="none" stroke-width="1" fill="none" fill-rule="evenodd">
        <g id="Connectors" transform="translate(-520.000000, -1024.000000)">
            <g id="Connector/Ably-Copy-54" transform="translate(520.000000, 1024.000000)">
                <rect id="Rectangle" fill="#A81E1B" x="1" y="1" width="46" height="46" rx="6"></rect>
                <path d="M8.01855469,31.4042969 L8.01855469,25.2919922 L15.0761719,25.2919922 L15.0761719,22.5849609 L8.01855469,22.5849609 L8.01855469,18.75 L16.2041016,18.75 L16.2041016,16 L5,16 L5,31.4042969 L8.01855469,31.4042969 Z M28.6650391,31.4042969 L28.6650391,28.6328125 L20.9951172,28.6328125 L20.9951172,16 L17.9765625,16 L17.9765625,31.4042969 L28.6650391,31.4042969 Z M33.5957031,31.4042969 L33.5957031,26.6992188 L37.6884766,26.6992188 C39.3535156,26.6992188 40.6855469,26.1621094 41.6738281,25.0878906 C42.6621094,24.0136719 43.15625,22.7675781 43.15625,21.3603516 C43.15625,19.9853516 42.6621094,18.75 41.6738281,17.6542969 C40.6855469,16.5585938 39.3964844,16.0107422 37.7958984,16.0107422 L37.8173828,16 L30.5986328,16 L30.5986328,31.4042969 L33.5957031,31.4042969 Z M37.5703125,24.0244141 L33.5742188,24.0244141 L33.5742188,18.7392578 L37.7099609,18.7392578 C38.4296875,18.7392578 39.0205078,19.0078125 39.4931641,19.5341797 C39.9658203,20.0605469 40.2021484,20.6728516 40.2021484,21.3710938 C40.2021484,22.0693359 39.9550781,22.6816406 39.4609375,23.2080078 C38.9667969,23.734375 38.3330078,24.0029297 37.5488281,24.0029297 L37.5703125,24.0244141 Z" id="FLP" fill="#FFFFFF" fill-rule="nonzero"></path>
            </g>
        </g>
    </g>
</svg>