<?xml version="1.0" encoding="UTF-8"?>
<svg width="48px" height="48px" viewBox="0 0 48 48" version="1.1" xmlns="http://www.w3.org/2000/svg" xmlns:xlink="http://www.w3.org/1999/xlink">
    <title>0D92B489-BD88-45FF-82C4-9A9141E16BB6</title>
    <g id="UI-kit" stroke="none" stroke-width="1" fill="none" fill-rule="evenodd">
        <g id="Connectors" transform="translate(-720.000000, -464.000000)" fill-rule="nonzero">
            <g id="Connector/Ably-Copy-16" transform="translate(720.000000, 464.000000)">
                <g id="gitlab-logo" transform="translate(0.000000, 2.000000)">
                    <path d="M2.62885638,16.9365438 L15.1577303,28.8879694 L15.1577303,16.9365438 L9.81492592,0.62944634 C9.54110086,-0.209815447 8.24414341,-0.209815447 7.97166073,0.62944634 L2.62885638,16.9365438 Z" id="Path" fill="#E24329"></path>
                    <path d="M45.3712912,16.9365438 L32.8422971,28.8879694 L32.8422971,16.9365438 L38.1851615,0.62944634 C38.4590467,-0.209815447 39.755944,-0.209815447 40.0284267,0.62944634 L45.3712912,16.9365438 Z" id="Path" fill="#E24329"></path>
                    <polygon id="Path" fill="#E24329" points="24.0000337 44 3.96454244 16.9365836 44.035525 16.9365836"></polygon>
                    <polygon id="Path" fill="#FC6D26" points="24.0000337 44 15.1577303 16.9365836 2.62885638 16.9365836 7.97166073 31.5439835"></polygon>
                    <polygon id="Path" fill="#FC6D26" points="24.0000337 44 32.8422971 16.9365836 45.3712912 16.9365836 40.0284267 31.5439835"></polygon>
                    <path d="M2.62883634,16.9365836 L0.0910123896,25.1166845 C-0.149413506,25.8670373 0.09101259,26.7102132 0.758861831,27.1882719 L24.0266809,44 L2.62883634,16.9365836 Z" id="Path" fill="#FCA326"></path>
                    <path d="M45.3712912,16.9365836 L47.9089865,25.1166845 C48.1494124,25.8670373 47.9089865,26.7102132 47.2412036,27.1882719 L24.0000337,44 L45.3712912,16.9365836 Z" id="Path" fill="#FCA326"></path>
                </g>
            </g>
        </g>
    </g>
</svg>