<?xml version="1.0" encoding="UTF-8"?>
<svg width="48px" height="48px" viewBox="0 0 48 48" version="1.1" xmlns="http://www.w3.org/2000/svg" xmlns:xlink="http://www.w3.org/1999/xlink">
    <title>5FDF17D6-F804-46B3-9BF0-4D16709908EC</title>
    <defs>
        <path d="M21.875,0 L3.28125,0 C1.4765625,0 0,1.47272727 0,3.27272727 L0,44.7272727 C0,46.5272727 1.4765625,48 3.28125,48 L31.71875,48 C33.5234375,48 35,46.5272727 35,44.7272727 L35,13.0909091 L21.875,0 Z" id="path-1"></path>
        <path d="M21.875,0 L3.28125,0 C1.4765625,0 0,1.47272727 0,3.27272727 L0,44.7272727 C0,46.5272727 1.4765625,48 3.28125,48 L31.71875,48 C33.5234375,48 35,46.5272727 35,44.7272727 L35,13.0909091 L21.875,0 Z" id="path-3"></path>
        <linearGradient x1="50.0053945%" y1="8.58610612%" x2="50.0053945%" y2="100.013939%" id="linearGradient-5">
            <stop stop-color="#1A237E" stop-opacity="0.2" offset="0%"></stop>
            <stop stop-color="#1A237E" stop-opacity="0.02" offset="100%"></stop>
        </linearGradient>
        <path d="M21.875,0 L3.28125,0 C1.4765625,0 0,1.47272727 0,3.27272727 L0,44.7272727 C0,46.5272727 1.4765625,48 3.28125,48 L31.71875,48 C33.5234375,48 35,46.5272727 35,44.7272727 L35,13.0909091 L21.875,0 Z" id="path-6"></path>
        <path d="M21.875,0 L3.28125,0 C1.4765625,0 0,1.47272727 0,3.27272727 L0,44.7272727 C0,46.5272727 1.4765625,48 3.28125,48 L31.71875,48 C33.5234375,48 35,46.5272727 35,44.7272727 L35,13.0909091 L21.875,0 Z" id="path-8"></path>
        <path d="M21.875,0 L3.28125,0 C1.4765625,0 0,1.47272727 0,3.27272727 L0,44.7272727 C0,46.5272727 1.4765625,48 3.28125,48 L31.71875,48 C33.5234375,48 35,46.5272727 35,44.7272727 L35,13.0909091 L21.875,0 Z" id="path-10"></path>
        <path d="M21.875,0 L3.28125,0 C1.4765625,0 0,1.47272727 0,3.27272727 L0,44.7272727 C0,46.5272727 1.4765625,48 3.28125,48 L31.71875,48 C33.5234375,48 35,46.5272727 35,44.7272727 L35,13.0909091 L21.875,0 Z" id="path-12"></path>
        <path d="M21.875,0 L3.28125,0 C1.4765625,0 0,1.47272727 0,3.27272727 L0,44.7272727 C0,46.5272727 1.4765625,48 3.28125,48 L31.71875,48 C33.5234375,48 35,46.5272727 35,44.7272727 L35,13.0909091 L21.875,0 Z" id="path-14"></path>
        <radialGradient cx="3.16804688%" cy="2.71743122%" fx="3.16804688%" fy="2.71743122%" r="161.248516%" gradientTransform="translate(0.031680,0.027174),scale(1.000000,0.729167),translate(-0.031680,-0.027174)" id="radialGradient-16">
            <stop stop-color="#FFFFFF" stop-opacity="0.1" offset="0%"></stop>
            <stop stop-color="#FFFFFF" stop-opacity="0" offset="100%"></stop>
        </radialGradient>
    </defs>
    <g id="UI-kit" stroke="none" stroke-width="1" fill="none" fill-rule="evenodd">
        <g id="Connectors" transform="translate(-920.000000, -1312.000000)">
            <g id="Connector/Ably-Copy-78" transform="translate(920.000000, 1312.000000)">
                <g id="Docs-icon" transform="translate(7.000000, 0.000000)">
                    <g id="Group">
                        <g id="Path-Clipped">
                            <mask id="mask-2" fill="white">
                                <use xlink:href="#path-1"></use>
                            </mask>
                            <g id="path-1"></g>
                            <path d="M21.875,0 L3.28125,0 C1.4765625,0 0,1.47272727 0,3.27272727 L0,44.7272727 C0,46.5272727 1.4765625,48 3.28125,48 L31.71875,48 C33.5234375,48 35,46.5272727 35,44.7272727 L35,13.0909091 L27.34375,7.63636364 L21.875,0 Z" id="Path" fill="#4285F4" fill-rule="nonzero" mask="url(#mask-2)"></path>
                        </g>
                        <g id="Path-Clipped">
                            <mask id="mask-4" fill="white">
                                <use xlink:href="#path-3"></use>
                            </mask>
                            <g id="path-3"></g>
                            <polygon id="Path" fill="url(#linearGradient-5)" fill-rule="nonzero" mask="url(#mask-4)" points="22.8347656 12.1336364 35 24.2645454 35 13.0909091"></polygon>
                        </g>
                        <g id="Shape-Clipped">
                            <mask id="mask-7" fill="white">
                                <use xlink:href="#path-6"></use>
                            </mask>
                            <g id="path-6"></g>
                            <path d="M8.75,34.9090909 L26.25,34.9090909 L26.25,32.7272727 L8.75,32.7272727 L8.75,34.9090909 Z M8.75,39.2727273 L21.875,39.2727273 L21.875,37.0909091 L8.75,37.0909091 L8.75,39.2727273 Z M8.75,24 L8.75,26.1818182 L26.25,26.1818182 L26.25,24 L8.75,24 Z M8.75,30.5454546 L26.25,30.5454546 L26.25,28.3636364 L8.75,28.3636364 L8.75,30.5454546 Z" id="Shape" fill="#F1F1F1" fill-rule="nonzero" mask="url(#mask-7)"></path>
                        </g>
                        <g id="Group-Clipped">
                            <mask id="mask-9" fill="white">
                                <use xlink:href="#path-8"></use>
                            </mask>
                            <g id="path-8"></g>
                            <g id="Group" mask="url(#mask-9)">
                                <g transform="translate(21.875000, 0.000000)">
                                    <g transform="translate(0.000000, -0.000000)">
                                        <path d="M0,3.27942801e-16 L0,9.81818182 C0,11.6263636 1.46835938,13.0909091 3.28125,13.0909091 L13.125,13.0909091 L0,3.27942801e-16 Z" id="Path" fill="#A1C2FA" fill-rule="nonzero"></path>
                                    </g>
                                </g>
                            </g>
                        </g>
                        <g id="Path-Clipped">
                            <mask id="mask-11" fill="white">
                                <use xlink:href="#path-10"></use>
                            </mask>
                            <g id="path-10"></g>
                            <path d="M3.28125,0 C1.4765625,0 0,1.47272727 0,3.27272727 L0,3.54545454 C0,1.74545454 1.4765625,0.272727273 3.28125,0.272727273 L21.875,0.272727273 L21.875,0 L3.28125,0 Z" id="Path" fill-opacity="0.2" fill="#FFFFFF" fill-rule="nonzero" mask="url(#mask-11)"></path>
                        </g>
                        <g id="Path-Clipped">
                            <mask id="mask-13" fill="white">
                                <use xlink:href="#path-12"></use>
                            </mask>
                            <g id="path-12"></g>
                            <path d="M31.71875,47.7272727 L3.28125,47.7272727 C1.4765625,47.7272727 0,46.2545454 0,44.4545454 L0,44.7272727 C0,46.5272727 1.4765625,48 3.28125,48 L31.71875,48 C33.5234375,48 35,46.5272727 35,44.7272727 L35,44.4545454 C35,46.2545454 33.5234375,47.7272727 31.71875,47.7272727 Z" id="Path" fill-opacity="0.2" fill="#1A237E" fill-rule="nonzero" mask="url(#mask-13)"></path>
                        </g>
                        <g id="Path-Clipped">
                            <mask id="mask-15" fill="white">
                                <use xlink:href="#path-14"></use>
                            </mask>
                            <g id="path-14"></g>
                            <path d="M25.15625,13.0909091 C23.3433594,13.0909091 21.875,11.6263636 21.875,9.81818178 L21.875,10.0909091 C21.875,11.8990909 23.3433594,13.3636364 25.15625,13.3636364 L35,13.3636364 L35,13.0909091 L25.15625,13.0909091 Z" id="Path" fill-opacity="0.1" fill="#1A237E" fill-rule="nonzero" mask="url(#mask-15)"></path>
                        </g>
                    </g>
                    <path d="M21.875,0 L3.28125,0 C1.4765625,0 0,1.47272727 0,3.27272727 L0,44.7272727 C0,46.5272727 1.4765625,48 3.28125,48 L31.71875,48 C33.5234375,48 35,46.5272727 35,44.7272727 L35,13.0909091 L21.875,0 Z" id="Path" fill="url(#radialGradient-16)" fill-rule="nonzero"></path>
                </g>
            </g>
        </g>
    </g>
</svg>