<?xml version="1.0" encoding="UTF-8"?>
<svg width="48px" height="48px" viewBox="0 0 48 48" version="1.1" xmlns="http://www.w3.org/2000/svg" xmlns:xlink="http://www.w3.org/1999/xlink">
    <title>751C7554-BC95-4C4F-9F23-1B8A0DA6789C</title>
    <defs>
        <linearGradient x1="16.1562085%" y1="25.1661685%" x2="78.5976367%" y2="74.520129%" id="linearGradient-1">
            <stop stop-color="#37BDFF" offset="0%"></stop>
            <stop stop-color="#33BFFD" offset="18%"></stop>
            <stop stop-color="#28C5F5" offset="36%"></stop>
            <stop stop-color="#15D0E9" offset="53%"></stop>
            <stop stop-color="#12D1E7" offset="55%"></stop>
            <stop stop-color="#1CD2E5" offset="59%"></stop>
            <stop stop-color="#42D8DC" offset="77%"></stop>
            <stop stop-color="#59DBD6" offset="91%"></stop>
            <stop stop-color="#62DCD4" offset="100%"></stop>
        </linearGradient>
        <linearGradient x1="0.0196167303%" y1="52.450393%" x2="100.072469%" y2="52.450393%" id="linearGradient-2">
            <stop stop-color="#39D2FF" offset="0%"></stop>
            <stop stop-color="#38CEFE" offset="15%"></stop>
            <stop stop-color="#35C3FA" offset="29%"></stop>
            <stop stop-color="#2FB0F3" offset="43%"></stop>
            <stop stop-color="#299AEB" offset="55%"></stop>
            <stop stop-color="#2692EC" offset="58%"></stop>
            <stop stop-color="#1A6CF1" offset="76%"></stop>
            <stop stop-color="#1355F4" offset="91%"></stop>
            <stop stop-color="#104CF5" offset="100%"></stop>
        </linearGradient>
        <linearGradient x1="50.243226%" y1="102.018013%" x2="50.243226%" y2="2.75186557%" id="linearGradient-3">
            <stop stop-color="#1B48EF" offset="0%"></stop>
            <stop stop-color="#1C51F0" offset="12%"></stop>
            <stop stop-color="#1E69F5" offset="32%"></stop>
            <stop stop-color="#2190FB" offset="57%"></stop>
            <stop stop-color="#26B8F4" offset="100%"></stop>
        </linearGradient>
        <linearGradient x1="19.8740288%" y1="65.0269284%" x2="81.6680979%" y2="29.4962517%" id="linearGradient-4">
            <stop stop-color="#FFFFFF" offset="0%"></stop>
            <stop stop-color="#FDFDFD" offset="37%"></stop>
            <stop stop-color="#F6F6F6" offset="51%"></stop>
            <stop stop-color="#EBEBEB" offset="60%"></stop>
            <stop stop-color="#DADADA" offset="68%"></stop>
            <stop stop-color="#C4C4C4" offset="75%"></stop>
            <stop stop-color="#A8A8A8" offset="81%"></stop>
            <stop stop-color="#888888" offset="86%"></stop>
            <stop stop-color="#626262" offset="91%"></stop>
            <stop stop-color="#373737" offset="95%"></stop>
            <stop stop-color="#090909" offset="99%"></stop>
            <stop stop-color="#000000" offset="100%"></stop>
        </linearGradient>
        <linearGradient x1="-236.301313%" y1="198.145052%" x2="-236.301313%" y2="194.054611%" id="linearGradient-5">
            <stop stop-color="#FFFFFF" offset="0%"></stop>
            <stop stop-color="#FDFDFD" offset="37%"></stop>
            <stop stop-color="#F6F6F6" offset="51%"></stop>
            <stop stop-color="#EBEBEB" offset="60%"></stop>
            <stop stop-color="#DADADA" offset="68%"></stop>
            <stop stop-color="#C4C4C4" offset="75%"></stop>
            <stop stop-color="#A8A8A8" offset="81%"></stop>
            <stop stop-color="#888888" offset="86%"></stop>
            <stop stop-color="#626262" offset="91%"></stop>
            <stop stop-color="#373737" offset="95%"></stop>
            <stop stop-color="#090909" offset="99%"></stop>
            <stop stop-color="#000000" offset="100%"></stop>
        </linearGradient>
    </defs>
    <g id="UI-kit" stroke="none" stroke-width="1" fill="none" fill-rule="evenodd">
        <g id="Connectors" transform="translate(-320.000000, -1876.000000)" fill-rule="nonzero">
            <g id="Connector/Ably-Copy-112" transform="translate(320.000000, 1876.000000)">
                <g id="bing-logo" transform="translate(8.000000, 0.000000)">
                    <path d="M33,30.8240565 C33,34.1006762 31.7480124,37.2557057 29.4963242,39.6546026 C29.7328246,39.3943906 29.9452536,39.1136366 30.131048,38.8157287 C30.2753808,38.5887855 30.4022161,38.3513615 30.5104719,38.1054821 C30.549799,38.0244678 30.5846429,37.9413893 30.6148487,37.8566162 C30.6499866,37.7753887 30.6805936,37.692308 30.706531,37.6077503 C30.7361515,37.5294554 30.7615404,37.4483642 30.7841084,37.3672731 C30.8066764,37.2861819 30.8306548,37.1994983 30.8489913,37.1142128 L30.8588648,37.0848522 C30.8786117,37.0009648 30.8941272,36.9170774 30.9110532,36.8317919 C30.9279791,36.7465064 30.9434946,36.6570265 30.9575996,36.5689447 L30.9575996,36.5689447 C30.9702941,36.4878536 30.9801676,36.4067624 30.98722,36.322875 C31.007131,36.1310351 31.0170177,35.9383026 31.0168405,35.7454502 C31.0199338,34.6868367 30.730151,33.6476449 30.179005,32.7408834 C30.0587463,32.5375789 29.9244277,32.3427737 29.7770132,32.157866 C29.6047989,31.9377469 29.4162058,31.7307124 29.2128142,31.5384975 C28.7068793,31.0515546 28.1162429,30.6593568 27.4694392,30.3808514 C27.1860724,30.2566698 26.8925737,30.1565771 26.5921098,30.0816531 L26.5794153,30.0816531 L26.4750385,30.0467 L24.9502906,29.5279963 L24.9502906,29.5279963 L20.9628142,28.1690205 C20.9501197,28.1690205 20.9331937,28.1690205 20.9233202,28.1690205 L20.6736622,28.0781425 C19.8734945,27.7634294 19.2090894,27.1819838 18.7948795,26.4339497 L17.3434775,22.7457007 L15.674859,18.5289611 L15.354676,17.7152534 L15.2728672,17.5502749 C15.1795422,17.3249182 15.1316246,17.0836324 15.1318174,16.8400283 C15.1282443,16.7771626 15.1282443,16.7141473 15.1318174,16.6512816 C15.1925278,16.0695791 15.527992,15.5508983 16.0359239,15.2533898 C16.5438559,14.9558813 17.1640435,14.9148129 17.7073859,15.1427067 L25.1392973,18.9176393 L26.6048042,19.6600428 C27.3807468,20.1168708 28.1059829,20.6534485 28.7685074,21.2608938 C31.2375686,23.5026333 32.7420794,26.5998961 32.9703796,29.9110821 C32.9873055,30.217271 33,30.5192656 33,30.8240565 Z" id="Path" fill="url(#linearGradient-1)"></path>
                    <path d="M31.0127004,35.7398577 C31.0127004,36.1066166 30.9786354,36.4726009 30.9110532,36.83319 C30.8913062,36.9268643 30.8715592,37.0219366 30.8489913,37.1128147 C30.8066764,37.2805894 30.7615404,37.4427717 30.7079415,37.6063521 C30.6783211,37.6902395 30.6487006,37.7741269 30.6162592,37.8552181 C30.5838177,37.9363092 30.5471448,38.0201966 30.5118824,38.104084 C30.4036315,38.3499657 30.276796,38.5873901 30.1324585,38.8143306 C29.9464087,39.1120657 29.7339962,39.3927977 29.4977347,39.6532045 C28.4144726,40.8402111 24.7373055,42.9569696 23.3818174,43.8182135 L20.3732262,45.6357737 C18.1686186,46.9821663 16.0839032,47.9356863 13.4617883,48 C13.3376646,48 13.2163618,48 13.095059,48 C12.9257993,48 12.7579501,48 12.5915114,47.9902131 C8.28127649,47.8258322 4.32901654,45.5684614 2.02406394,41.9545153 C0.976744987,40.3201294 0.317011653,38.4715861 0.0945033339,36.5479729 C0.422614286,38.3627283 1.60867033,39.9115033 3.2838535,40.7126882 C4.95903666,41.513873 6.92019687,41.4703078 8.55748846,40.5955395 L8.57723542,40.5857527 L8.87202941,40.4109873 L10.0695418,39.7119257 L11.5942896,38.8171268 L11.5942896,38.7751831 L11.7903488,38.6591389 L25.4312703,30.6492911 L26.4806805,30.0327188 L26.5850573,30.0676719 L26.5977518,30.0676719 C26.8983079,30.1422881 27.1918327,30.2423898 27.4750812,30.3668702 C28.1218849,30.6453755 28.7125213,31.0375734 29.2184561,31.5245162 C29.4218214,31.7167567 29.6104126,31.9237891 29.7826552,32.1438848 C29.9298937,32.3289207 30.0642038,32.5237136 30.1846469,32.7269022 C30.7322907,33.6377431 31.0185775,34.6795413 31.0127004,35.7398577 Z" id="Path" fill="url(#linearGradient-2)"></path>
                    <path d="M11.5943088,9.00634399 L11.5943088,38.8269137 L10.0638998,39.71612 L8.86497692,40.4151816 L8.57018294,40.5927433 C8.56335208,40.5936251 8.55695519,40.5965516 8.55184647,40.601132 C6.91475687,41.4758869 4.95381385,41.5196227 3.27868731,40.7187417 C1.60356076,39.9178607 0.417352126,38.3694659 0.0888613438,36.5549635 C0.0662933835,36.4305305 0.0493674132,36.3019032 0.035262438,36.1774702 C0.0169259703,35.9425855 0.00423149256,35.7118952 0,35.4784086 L0,1.92345186 C0.000658682349,1.21219496 0.396883905,0.559242686 1.03045092,0.225338705 C1.66401793,-0.108565276 2.43169588,-0.0690160053 3.02692768,0.328193294 L8.96089075,4.17023584 C8.99323066,4.19669934 9.02766357,4.22054416 9.06385707,4.24154013 C10.6515775,5.31622138 11.5992205,7.10063281 11.5943088,9.00634399 L11.5943088,9.00634399 Z" id="Path" fill="url(#linearGradient-3)"></path>
                    <g id="Group" opacity="0.149000004" transform="translate(0.094503, 30.032719)" fill="url(#linearGradient-4)">
                        <g id="Path">
                            <path d="M30.9181971,5.7071389 C30.9181971,6.07389782 30.8841321,6.43988209 30.8165498,6.80047124 C30.7968029,6.89414549 30.7770559,6.98921787 30.7544879,7.08009588 C30.712173,7.24787066 30.6670371,7.41005295 30.6134382,7.57363337 C30.5838177,7.65752076 30.5541973,7.74140815 30.5217559,7.8224993 C30.4893144,7.90359044 30.4526415,7.98747783 30.417379,8.07136523 C30.3091282,8.3172469 30.1822927,8.55467132 30.0379552,8.78161181 C29.8521608,9.07951975 29.6397317,9.36027367 29.4032313,9.62048573 C28.3199692,10.8074923 24.6428022,12.9242508 23.2873141,13.7854947 L20.2787229,15.6030549 C18.0741152,16.9494475 15.9893999,17.9029676 13.367285,17.9672812 C13.2431612,17.9672812 13.1218584,17.9672812 13.0005557,17.9672812 C12.8312959,17.9672812 12.6634467,17.9672812 12.497008,17.9574944 C8.18677316,17.7931134 4.23451321,15.5357426 1.92956061,11.9217965 C0.882241653,10.2874106 0.222508319,8.43886734 0,6.51525411 C0.328110952,8.33000954 1.514167,9.87878452 3.18935017,10.6799694 C4.86453333,11.4811542 6.82569354,11.437589 8.46298513,10.5628208 L8.48273209,10.5530339 L8.77752607,10.3782685 L9.97503847,9.6792069 L11.4997863,8.78440806 L11.4997863,8.74246436 L11.6958454,8.62642014 L25.336767,0.616572331 L26.3861771,0 L26.4905539,0.03495308 L26.5032484,0.03495308 C26.8038046,0.109569358 27.0973294,0.209671035 27.3805779,0.334151444 C28.0273815,0.612656755 28.6180179,1.0048546 29.1239528,1.49179745 C29.3273181,1.68403793 29.5159093,1.89107033 29.6881518,2.11116603 C29.8353903,2.29620193 29.9697004,2.4909948 30.0901436,2.6941834 C30.6377873,3.60502438 30.9240741,4.64682257 30.9181971,5.7071389 Z"></path>
                        </g>
                    </g>
                    <g id="Group" opacity="0.0979999974" fill="url(#linearGradient-5)">
                        <g id="Path">
                            <path d="M11.5943088,9.00634399 L11.5943088,38.8269137 L10.0638998,39.71612 L8.86497692,40.4151816 L8.57018294,40.5927433 C8.56335208,40.5936251 8.55695519,40.5965516 8.55184647,40.601132 C6.91475687,41.4758869 4.95381385,41.5196227 3.27868731,40.7187417 C1.60356076,39.9178607 0.417352126,38.3694659 0.0888613438,36.5549635 C0.0662933835,36.4305305 0.0493674132,36.3019032 0.035262438,36.1774702 C0.0169259703,35.9425855 0.00423149256,35.7118952 0,35.4784086 L0,1.92345186 C0.000658682349,1.21219496 0.396883905,0.559242686 1.03045092,0.225338705 C1.66401793,-0.108565276 2.43169588,-0.0690160053 3.02692768,0.328193294 L8.96089075,4.17023584 C8.99323066,4.19669934 9.02766357,4.22054416 9.06385707,4.24154013 C10.6515775,5.31622138 11.5992205,7.10063281 11.5943088,9.00634399 L11.5943088,9.00634399 Z"></path>
                        </g>
                    </g>
                </g>
            </g>
        </g>
    </g>
</svg>