<?xml version="1.0" encoding="UTF-8"?>
<svg width="49px" height="48px" viewBox="0 0 49 48" version="1.1" xmlns="http://www.w3.org/2000/svg" xmlns:xlink="http://www.w3.org/1999/xlink">
    <title>9ED41DFF-A13B-4317-B258-4EBFEFE5F552</title>
    <defs>
        <linearGradient x1="50%" y1="0%" x2="50%" y2="100%" id="linearGradient-1">
            <stop stop-color="#F15A22" offset="0%"></stop>
            <stop stop-color="#F99F1D" offset="100%"></stop>
        </linearGradient>
    </defs>
    <g id="UI-kit" stroke="none" stroke-width="1" fill="none" fill-rule="evenodd">
        <g id="Connectors" transform="translate(-720.000000, -1608.000000)" fill-rule="nonzero">
            <g id="Connector/Ably-Copy-96" transform="translate(720.000000, 1608.000000)">
                <path d="M23.5389655,47.9861635 C22.6384847,47.9552371 21.6093637,47.8577001 21.148201,47.7601631 C20.58267,47.6388366 20.5462624,47.6245629 20.3302441,47.4532785 C20.1069442,47.2748571 20.0584008,47.1630464 20.0171389,46.7253195 C20.0074302,46.601614 19.9807313,46.36134 19.9588867,46.1900555 C19.9394694,46.02115 19.9151977,45.8118023 19.9103433,45.7261601 C19.9030618,45.6405178 19.8860716,45.485886 19.8739357,45.3812122 C19.8278195,45.0053379 19.7380141,44.2131473 19.7185967,43.9895259 C19.7137424,43.9300521 19.6918978,43.7325992 19.6700533,43.54942 C19.623937,43.1640299 19.5996653,42.9523033 19.5584034,42.5383658 C19.5195686,42.1339442 19.5171414,42.1315652 19.2768514,42.0839862 C19.0050081,42.0268914 18.3569532,41.8460911 17.8836547,41.6890803 C17.5317147,41.5748907 17.3642399,41.513038 16.7914273,41.2965534 C16.4249243,41.1585743 15.5729869,40.7731842 15.3326969,40.6328261 C15.2428915,40.5828681 15.1555133,40.540047 15.1385231,40.540047 C15.1215329,40.540047 15.0414362,40.5852471 14.9589124,40.639963 C14.6773604,40.832658 12.4297991,42.4051446 12.0098984,42.7048924 C10.9395155,43.4637777 10.8812634,43.497083 10.650682,43.499462 C10.5220419,43.499462 10.466217,43.4875672 10.3472855,43.4280935 C10.0366075,43.2710827 9.96379236,43.2258826 9.63612414,42.9856086 C9.5002025,42.8833137 9.33515481,42.773882 9.27204833,42.7381977 C9.20894186,42.7048924 9.09971912,42.626387 9.02690396,42.5669132 C8.9540888,42.5050605 8.8327302,42.4075235 8.75506069,42.3480497 C8.15312203,41.8793964 6.83516762,40.6233103 6.25750068,39.9690988 C6.17254966,39.8715618 6.04148237,39.7240669 5.96624004,39.6455615 C5.72109566,39.379119 5.57303817,39.1959397 5.27935036,38.7867602 C5.21381671,38.698739 5.10944831,38.5560019 5.04876901,38.4727387 C4.98566254,38.3894754 4.88372132,38.2491173 4.81818767,38.163475 C4.65799432,37.9446115 4.55848027,37.7257481 4.55848027,37.58539 C4.55848027,37.5497057 4.57547047,37.4569266 4.59731502,37.3760423 C4.63129543,37.2475789 4.67255735,37.1857262 4.92498324,36.8764626 C5.119157,36.6385675 5.21381671,36.5029673 5.21381671,36.4625251 C5.21381671,36.3649881 5.23808843,36.3293039 5.31090359,36.3293039 C5.36430138,36.3293039 5.40799047,36.2912406 5.54633928,36.1223351 C6.04390954,35.5133237 7.17739888,34.1311532 7.43467911,33.8195106 C7.59729964,33.6220577 7.74535713,33.4388785 7.76234734,33.41271 C7.78904623,33.3675099 7.7744832,33.3294467 7.6264257,33.0677621 C7.42982477,32.7204353 7.22108797,32.3160136 7.11429241,32.0828764 C7.07303048,31.9924763 7.00264249,31.8426024 6.96138057,31.7498233 C6.72837205,31.2454857 6.59730476,30.9457379 6.4468201,30.5603478 C6.25750068,30.0821787 5.96624004,29.2495459 5.96624004,29.1876931 C5.96624004,29.1662826 5.95410418,29.1401141 5.93954115,29.1329773 C5.90556074,29.1115667 5.25750581,29.0045139 4.21867618,28.8475031 C4.09246324,28.8284715 3.91770685,28.8023031 3.83032866,28.7880294 C3.74295047,28.7737557 3.60702883,28.7523451 3.52693216,28.7404504 C3.44683548,28.7285556 3.28421495,28.7023871 3.16285635,28.6809766 C3.04392492,28.659566 2.87887723,28.6333976 2.79878055,28.6215028 C2.5342188,28.5858185 2.31334614,28.5501343 2.27693856,28.5358606 C2.25752119,28.5287237 2.16528865,28.51445 2.07062894,28.5025553 C1.97839641,28.4906605 1.80606719,28.464492 1.68956293,28.4454604 C1.57305868,28.4240499 1.40801098,28.3978814 1.32548713,28.3836077 C0.818208179,28.3098602 0.730829986,28.2789339 0.604617041,28.12906 C0.563355116,28.0814809 0.502675816,27.9863229 0.468695407,27.9197123 C0.393453075,27.7698384 0.286657506,27.4415431 0.286657506,27.3606588 C0.286657506,27.3273535 0.269667302,27.2203007 0.247822753,27.1227637 C0.0318044433,26.1164675 -0.0604280935,24.0420222 0.0415131314,22.4600199 C0.0754935397,21.9342717 0.187143453,20.9160807 0.238114065,20.6877014 C0.252677097,20.6234697 0.274521646,20.5045222 0.286657506,20.4260168 C0.332773774,20.1191321 0.437142171,19.8455528 0.553646428,19.7170894 C0.694422405,19.5624576 0.903159199,19.5220155 2.24053098,19.3911732 C2.38858848,19.3768995 2.5948981,19.3554889 2.70169367,19.3435941 C3.20897262,19.2841204 4.00508504,19.203236 4.52207269,19.155657 C4.79148878,19.1294886 5.18711782,19.0842885 5.44439805,19.0486042 L5.63614464,19.0224358 L5.6919696,18.8202249 C5.89342488,18.0779922 6.01478348,17.6973601 6.27206371,17.0122222 C6.35944191,16.7838429 6.43953858,16.5744952 6.45167444,16.5483268 C6.46138313,16.5221583 6.50992657,16.4151055 6.55604284,16.3104317 C6.60458628,16.2057578 6.65070255,16.0939472 6.66041124,16.0606418 C6.68711013,15.9654838 7.08273917,15.1637773 7.31817486,14.7284293 L7.46623235,14.45485 L7.23807818,14.1455863 C7.11186523,13.9766808 6.97351643,13.7863647 6.92982733,13.726891 C6.88856541,13.6674172 6.71138185,13.4223852 6.53662546,13.1844902 C6.36429625,12.9465951 6.09488016,12.5778577 5.94196832,12.366131 C5.78905648,12.1544044 5.53663059,11.8094565 5.38129158,11.6001088 C4.49051945,10.3892228 4.50508248,10.4177702 4.59246067,10.1727383 C4.65313997,10.0038327 4.76721706,9.80400086 5.1021668,9.28776851 C5.45653391,8.73823084 6.26720937,7.81995578 7.22836949,6.87789121 C7.83273532,6.28553242 8.2162285,5.94534244 9.00263224,5.29588883 C9.23321358,5.10557276 9.7089393,4.75348802 9.79389032,4.7106669 C9.8302979,4.69401424 9.90311306,4.64881418 9.95408367,4.61312991 C10.0050543,4.57744565 10.0924325,4.52748768 10.1482574,4.50369817 C10.2040824,4.47752971 10.310878,4.42995069 10.3861203,4.39664538 C10.6992255,4.25628727 10.8497101,4.30148734 11.3108728,4.66308788 C11.5050466,4.81534074 12.0487331,5.24355191 12.5220317,5.61466826 C13.500182,6.38544836 13.8739665,6.68043828 14.3399835,7.05631253 C14.5195942,7.20142854 14.6822148,7.32989189 14.699205,7.33940769 C14.7186224,7.35130244 14.7671658,7.33464979 14.8205636,7.29896552 C15.3860947,6.93260708 16.7356023,6.30694298 17.8836547,5.88111076 C18.354526,5.70744734 18.480739,5.66700518 19.0608331,5.50285756 L19.3011231,5.43386799 L19.3326764,5.24593086 C19.3496666,5.14125702 19.3787926,4.9675936 19.39821,4.85578291 C19.4176274,4.74397221 19.4467535,4.57268775 19.4613165,4.47515076 C19.4783067,4.37761377 19.5050056,4.2110872 19.524423,4.10641336 C19.5923838,3.73767596 19.6385,3.4593387 19.6918978,3.13104347 C19.7113152,3.00020117 19.7404413,2.84081146 19.7525771,2.77420083 C19.764713,2.70996916 19.7914119,2.54820049 19.8132564,2.41735819 C19.8326738,2.28651589 19.8617999,2.12712618 19.8739357,2.06051555 C19.9079161,1.87495738 20.0001487,1.33493551 20.019566,1.20409321 C20.0802454,0.794913651 20.1020899,0.690239809 20.1579149,0.561776458 C20.2210213,0.409523598 20.356943,0.252512836 20.456457,0.21207067 C20.58267,0.159733749 20.7914068,0.119291583 21.0268424,0.0978810248 C21.1603369,0.0859862701 21.4006269,0.0598178098 21.5608203,0.0407862022 C21.980721,-0.0115507185 27.3569071,-0.0139296694 27.7549633,0.0360283004 C27.8981664,0.0550599079 28.1141847,0.0764704664 28.2331162,0.0859862701 C28.3738922,0.0955020739 28.4782605,0.116912632 28.5365127,0.147838995 C28.5826289,0.171628504 28.6360267,0.193039062 28.6530169,0.193039062 C28.7064147,0.193039062 28.90787,0.416660451 28.963695,0.5403659 C29.0292286,0.687860858 29.0971894,1.01139819 29.0971894,1.1850616 C29.0971894,1.24929328 29.1068981,1.36110397 29.119034,1.4324725 C29.1408785,1.5490411 29.2015578,2.07003136 29.2306839,2.36977917 C29.2768001,2.88839048 29.288936,2.99306432 29.3010719,3.02399068 C29.3083534,3.04302229 29.3253436,3.1833804 29.3399066,3.3332543 C29.3908772,3.85662351 29.4102946,4.03742378 29.4491294,4.34430845 C29.5001,4.77489858 29.5340804,5.09605695 29.5510706,5.31967834 C29.5583521,5.42435218 29.5729151,5.52188917 29.585051,5.53616288 C29.5971869,5.55043658 29.655439,5.56946819 29.7161183,5.57660504 C30.0486408,5.62180511 31.320479,6.03098467 31.9855241,6.30694298 C32.0850382,6.3497641 32.2816391,6.42826948 32.4224151,6.4853643 C32.7937724,6.63523821 33.7889129,7.11816525 33.9927954,7.24900755 C34.0219214,7.26803916 34.058329,7.28231287 34.0704649,7.28231287 C34.0947366,7.28231287 34.354444,7.1015126 35.4515258,6.32359564 C35.6869615,6.15469012 35.9636591,5.96199509 36.0631731,5.89300552 C36.1626872,5.82401594 36.5947238,5.52188917 37.0219061,5.22214135 C37.4515155,4.92239353 37.8471446,4.64643522 37.9029695,4.60599306 C37.9587945,4.56792984 38.0558813,4.50131922 38.1141335,4.4584981 C38.2694725,4.35144531 38.4612191,4.31576104 38.6092766,4.36809796 C38.7549069,4.41805593 38.8252949,4.4489823 38.9151002,4.49418236 C39.0073328,4.54176138 39.0437404,4.55841404 39.1335457,4.59885621 C39.3519912,4.69639319 39.997619,5.16266758 40.5024707,5.5884998 C41.5097471,6.43540633 42.8131385,7.72241879 43.3689609,8.41469352 C43.4029413,8.45513568 43.5170184,8.59549379 43.6262411,8.72395714 C43.7330367,8.85479944 43.8471138,9.0022944 43.878667,9.05463132 C43.9102203,9.10696824 44.0145887,9.25684215 44.1116755,9.3900634 C44.4102177,9.79210611 44.5509937,10.0466539 44.5704111,10.2084225 C44.5849741,10.329749 44.5776926,10.3749491 44.5218676,10.5176861 C44.48546,10.6080863 44.4466253,10.6889706 44.4344894,10.6984864 C44.4102177,10.7127601 44.00488,11.2075819 43.9005116,11.34794 C43.8689583,11.3907611 43.8107062,11.4621297 43.7718715,11.5025718 C43.7136193,11.5644246 42.594693,12.9180476 42.3980921,13.1654585 C42.3641117,13.2082797 42.2500346,13.3486378 42.143239,13.4794801 C41.4709124,14.2954602 41.3544081,14.4405762 41.3544081,14.45485 C41.3544081,14.4643658 41.4029516,14.5428711 41.4587765,14.6308923 C41.6578046,14.9282612 41.8495512,15.2732091 42.0364435,15.6681149 C42.5024605,16.6625164 42.8665363,17.654539 43.1262437,18.6489405 C43.1408067,18.7036563 43.1626513,18.7488564 43.1747871,18.7488564 C43.186923,18.7488564 43.3252718,18.770267 43.483038,18.7988144 C43.6408042,18.8249828 43.8349779,18.8559092 43.9150746,18.867804 C44.1529375,18.9034882 44.9611858,19.0367095 45.5655516,19.1390044 C45.6068135,19.1461412 45.8131231,19.1794465 46.0267143,19.2127518 C46.2403054,19.2460572 46.5145758,19.2888783 46.6335073,19.3102888 C46.7548659,19.3293204 46.9223407,19.3554889 47.0097189,19.3697626 C47.0970971,19.3816574 47.2888437,19.4125837 47.434474,19.4387522 C47.5825315,19.4625417 47.8228216,19.5029839 47.9684519,19.5243944 C48.2572854,19.5672155 48.449032,19.6266893 48.548546,19.7028157 C48.5849536,19.7289842 48.6383514,19.8074896 48.6723318,19.8788581 C48.7572828,20.0525215 48.8786414,20.4307747 48.8786414,20.5187959 C48.8786414,20.5592381 48.9053403,20.7614489 48.9393207,20.9684176 L49,21.3466708 L49,23.9492432 C49,26.6184261 48.9951457,26.8087422 48.9029131,27.2345744 C48.8762142,27.3559009 48.8543697,27.5057748 48.8543697,27.5676275 C48.8543697,27.7008488 48.8009719,27.9101965 48.7500013,27.9887019 C48.6359242,28.1576074 48.4150515,28.2908286 48.1626257,28.3384076 C47.9708791,28.3764709 47.3179698,28.4502183 46.7160311,28.5001763 C46.5752551,28.5120711 46.4344792,28.5287237 46.4004988,28.5358606 C46.3689455,28.5429974 46.2281696,28.562029 46.0873936,28.5739238 C45.6602113,28.6167449 45.4102126,28.6429134 45.0679813,28.6809766 C44.8883706,28.7023871 44.6359447,28.7285556 44.5097318,28.7404504 C44.3835188,28.7523451 44.1820635,28.7737557 44.0607049,28.7856504 C43.9417735,28.7975452 43.6577944,28.8260926 43.4296402,28.8475031 C43.2039132,28.8689137 43.0097394,28.8927032 43.0024579,28.902219 C42.9927492,28.9117348 42.9636232,29.0164087 42.9344971,29.1329773 C42.7937211,29.6872728 42.4636257,30.6340953 42.2330444,31.136054 C42.1796466,31.2502436 42.0995499,31.4358018 42.0510065,31.5476125 C41.9442109,31.8021602 41.50732,32.684751 41.4053787,32.8512776 C41.3641168,32.9202672 41.3301364,32.9892567 41.3301364,33.0059094 C41.3301364,33.0225621 41.3616896,33.0677621 41.3980972,33.1058253 C41.4345048,33.1462675 41.5874166,33.3437204 41.733047,33.5459313 C41.8811045,33.7481421 42.0922684,34.0383741 42.2039183,34.188248 C42.3155682,34.3381219 42.4636257,34.5379538 42.5291594,34.6307329 C42.5971202,34.723512 42.7136245,34.8805227 42.7888668,34.9756808 C42.861682,35.0732178 42.9709047,35.2207127 43.031584,35.303976 C43.0898361,35.3872393 43.186923,35.5228395 43.2476023,35.6037238 C43.356825,35.7535977 44.1335201,36.8146099 44.2840048,37.0191996 C44.4466253,37.2380631 44.5582752,37.5021267 44.5582752,37.6638953 C44.5582752,37.8161482 44.5000231,37.920822 44.1383744,38.4156438 C44.0364332,38.5560019 43.9102203,38.7296654 43.8592497,38.8010339 C43.4611934,39.3624663 42.9272156,39.9667198 42.058288,40.832658 C41.3374179,41.5534801 40.308297,42.4574815 40.0073277,42.6335239 C39.8835419,42.7048924 39.5218933,42.9570612 39.419952,43.0403245 C39.3107293,43.1307246 38.8884014,43.401925 38.7451982,43.4732935 C38.4272387,43.6279253 38.2718997,43.5803463 37.7379218,43.1545141 C37.5364665,42.9927454 37.3325841,42.8333557 37.288895,42.8000504 C37.2452059,42.7667451 37.0461778,42.6121133 36.8495769,42.4527236 C36.5049184,42.1791442 35.7597766,41.5915433 34.5510449,40.6423419 C34.2476484,40.4020679 33.9927954,40.2069939 33.9855139,40.2069939 C33.973378,40.2069939 33.7403695,40.3425941 33.4903708,40.492468 C33.000082,40.7874579 32.0025143,41.2442165 31.0631988,41.6010591 C30.4224253,41.8437121 30.3374743,41.8746385 30.1117473,41.9436281 C29.8520399,42.0221335 29.8641758,42.0078598 29.8399041,42.2409969 C29.825341,42.3718392 29.7986421,42.5359869 29.74039,42.8595242 C29.7185455,42.9784717 29.6918466,43.1378615 29.6797107,43.2163668 C29.6675748,43.2948722 29.6408759,43.4566409 29.6190314,43.5732095 C29.5971869,43.692157 29.570488,43.8515467 29.5583521,43.9300521 C29.5462162,44.0085575 29.5243717,44.1370208 29.5122358,44.2155262 C29.4855369,44.3677791 29.3981587,44.8887693 29.3180621,45.3693174 C29.2913632,45.533465 29.2573828,45.7118864 29.2428197,45.7689812 C29.2306839,45.8236971 29.218548,45.8950656 29.218548,45.9283709 C29.218548,45.9592973 29.2015578,46.0758659 29.1821404,46.1829187 C29.1602959,46.2923504 29.133597,46.4350875 29.1214611,46.4993191 C29.1093253,46.5659298 29.0826264,46.7253195 29.0607818,46.8561618 C29.0170927,47.136878 28.9369961,47.3129204 28.8107831,47.4104573 C28.7306864,47.4723101 28.4224356,47.5960155 28.1991358,47.6578682 C28.1214663,47.6768998 27.9394284,47.7125841 27.6117601,47.7720579 C27.5486537,47.7839526 27.4297222,47.8101211 27.3471984,47.8315317 C26.8593368,47.9528582 24.8811916,48.0337425 23.5389655,47.9861635 Z" id="Shape" fill="url(#linearGradient-1)" transform="translate(24.500000, 24.000000) scale(-1, 1) rotate(-180.000000) translate(-24.500000, -24.000000) "></path>
                <path d="M32.9077417,17.1035717 C34.4166849,18.0738873 35.5026081,19.6054394 35.8611433,21.3265647 C36.1990434,22.9529034 35.9178898,24.6715343 35.0434767,26.103311 C34.4605345,27.0578288 30.8213967,30.6750913 24.1260631,36.9550982 L24.118684,36.9607642 C24.0549004,37.0097402 23.9621563,37.0126406 23.8950343,36.9707273 L23.8736842,36.9550982 C17.1785191,30.6750913 13.5394654,27.0578288 12.9565233,26.103311 C12.0821101,24.6715343 11.8009566,22.9529034 12.1388567,21.3265647 C12.4973919,19.6054394 13.5833151,18.0738873 15.0922582,17.1035717 C16.7301708,16.0484471 18.822056,15.736649 20.7179076,16.2255484 C21.6903376,16.4749868 22.5879654,16.936448 23.3617822,17.5550553 C23.585238,17.7346639 23.7948174,17.9300595 24.000163,18.129253 C24.2679034,17.8731534 24.4805883,17.6817542 24.6382177,17.5550553 C25.4120346,16.936448 26.3096623,16.4749868 27.2820924,16.2255484 C29.1779439,15.736649 31.2698292,16.0484471 32.9077417,17.1035717 Z" id="Path" fill="#000000"></path>
            </g>
        </g>
    </g>
</svg>