<?xml version="1.0" encoding="UTF-8"?>
<svg width="48px" height="48px" viewBox="0 0 48 48" version="1.1" xmlns="http://www.w3.org/2000/svg" xmlns:xlink="http://www.w3.org/1999/xlink">
    <title>FF5DCB82-C532-4B25-AC1C-8B09674A4E7A</title>
    <defs>
        <rect id="path-1" x="0" y="0" width="46" height="48"></rect>
        <rect id="path-3" x="0" y="0" width="46" height="48"></rect>
        <rect id="path-5" x="0" y="0" width="46" height="48"></rect>
        <rect id="path-7" x="0" y="0" width="46" height="48"></rect>
        <rect id="path-9" x="0" y="0" width="46" height="48"></rect>
    </defs>
    <g id="UI-kit" stroke="none" stroke-width="1" fill="none" fill-rule="evenodd">
        <g id="Connectors" transform="translate(-320.000000, -3032.000000)">
            <g id="Connector/zendesk.support-Copy-12" transform="translate(320.000000, 3032.000000)">
                <g id="Power_bi_logo_black" transform="translate(1.000000, 0.000000)">
                    <g id="Clipped">
                        <mask id="mask-2" fill="white">
                            <use xlink:href="#path-1"></use>
                        </mask>
                        <g id="SVGID_1_"></g>
                        <path d="M14.5714286,38.6548673 C14.5714286,40.2123894 13.2857143,41.6283186 11.5714286,41.6283186 C9.85714286,41.6283186 8.57142857,40.3539823 8.57142857,38.6548673 L8.57142857,25.9115044 C8.57142857,24.3539823 9.85714286,22.9380531 11.5714286,22.9380531 C13.2857143,22.9380531 14.5714286,24.2123894 14.5714286,25.9115044 L14.5714286,38.6548673 Z" id="Path" fill="#231F20" fill-rule="nonzero" mask="url(#mask-2)"></path>
                    </g>
                    <g id="Clipped">
                        <mask id="mask-4" fill="white">
                            <use xlink:href="#path-3"></use>
                        </mask>
                        <g id="SVGID_1_"></g>
                        <path d="M23.1428571,42.0530973 C23.1428571,43.6106195 21.8571429,45.0265487 20.1428571,45.0265487 C18.4285714,45.0265487 17.2857143,43.7522124 17.2857143,42.0530973 L17.2857143,22.6548673 C17.2857143,21.0973451 18.5714286,19.6814159 20.2857143,19.6814159 C22,19.6814159 23.2857143,20.9557522 23.2857143,22.6548673 L23.2857143,42.0530973 L23.1428571,42.0530973 Z" id="Path" fill="#231F20" fill-rule="nonzero" mask="url(#mask-4)"></path>
                    </g>
                    <g id="Clipped">
                        <mask id="mask-6" fill="white">
                            <use xlink:href="#path-5"></use>
                        </mask>
                        <g id="SVGID_1_"></g>
                        <path d="M5.85714286,35.8230088 C5.85714286,37.380531 4.57142857,38.7964602 2.85714286,38.7964602 C1.14285714,38.7964602 -0.142857143,37.5221239 -0.142857143,35.8230088 L-0.142857143,28.8849558 C-0.142857143,27.3274336 1.14285714,25.9115044 2.85714286,25.9115044 C4.57142857,25.9115044 5.85714286,27.3274336 5.85714286,28.8849558 L5.85714286,35.8230088 Z" id="Path" fill="#231F20" fill-rule="nonzero" mask="url(#mask-6)"></path>
                    </g>
                    <g id="Clipped">
                        <mask id="mask-8" fill="white">
                            <use xlink:href="#path-7"></use>
                        </mask>
                        <g id="SVGID_1_"></g>
                        <path d="M31.7142857,45.1681416 C31.7142857,46.7256637 30.4285714,48.1415929 28.7142857,48.1415929 C27.1428571,48.1415929 25.8571429,46.7256637 25.8571429,45.1681416 L25.8571429,19.3982301 C25.8571429,17.840708 27.1428571,16.4247788 28.8571429,16.4247788 C30.4285714,16.4247788 31.8571429,17.699115 31.8571429,19.3982301 L31.8571429,45.1681416 L31.7142857,45.1681416 Z" id="Path" fill="#231F20" fill-rule="nonzero" mask="url(#mask-8)"></path>
                    </g>
                    <g id="Clipped">
                        <mask id="mask-10" fill="white">
                            <use xlink:href="#path-9"></use>
                        </mask>
                        <g id="SVGID_1_"></g>
                        <path d="M41.1428571,43.8938053 C40.5714286,43.8938053 40.1428571,43.7522124 39.5714286,43.6106195 L36,42.4778761 C35.4285714,42.3362832 35,41.6283186 35.2857143,41.0619469 C35.4285714,40.4955752 36.1428571,40.0707965 36.7142857,40.3539823 L40.4285714,41.4867257 C41.1428571,41.7699115 42,41.6283186 42.7142857,41.0619469 C43.4285714,40.6371681 43.7142857,39.7876106 43.7142857,39.079646 L43.7142857,15.4336283 C43.7142857,14.300885 43,13.3097345 42,13.0265487 L7,2.54867257 C6.28571429,2.26548673 5.42857143,2.40707965 4.71428571,2.83185841 C4.14285714,3.39823009 3.71428571,4.10619469 3.71428571,4.95575221 L3.71428571,21.2389381 C3.71428571,21.9469027 3.14285714,22.3716814 2.57142857,22.3716814 C1.85714286,22.3716814 1.42857143,21.8053097 1.42857143,21.2389381 L1.42857143,4.95575221 C1.42857143,3.39823009 2.14285714,1.98230088 3.42857143,1.13274336 C4.71428571,0.14159292 6.28571429,-3.84969834e-14 7.71428571,0.424778761 L42.5714286,10.9026549 C44.5714286,11.4690265 46,13.4513274 46,15.5752212 L46,39.2212389 C46,40.7787611 45.2857143,42.1946903 44,43.1858407 C43.1428571,43.4690265 42.1428571,43.8938053 41.1428571,43.8938053" id="Path" fill="#231F20" fill-rule="nonzero" mask="url(#mask-10)"></path>
                    </g>
                </g>
            </g>
        </g>
    </g>
</svg>