<?xml version="1.0" encoding="UTF-8"?>
<svg width="48px" height="48px" viewBox="0 0 48 48" version="1.1" xmlns="http://www.w3.org/2000/svg" xmlns:xlink="http://www.w3.org/1999/xlink">
    <title>CA6AC935-AC10-4A97-93DE-D11443EB714A</title>
    <g id="UI-kit" stroke="none" stroke-width="1" fill="none" fill-rule="evenodd">
        <g id="Connectors" transform="translate(-220.000000, -2320.000000)" fill="#010202" fill-rule="nonzero">
            <g id="Connector/Ably-Copy-141" transform="translate(220.000000, 2320.000000)">
                <path d="M27.041435,10.4985496 L0,10.4985496 L0,43 L10.6095067,43 C13.0030493,43 15.3320179,41.8295214 16.8193722,39.880174 C18.7608969,37.2803191 19.0191928,36.5014504 20.893991,36.5014504 L48,36.5014504 L48,4 L37.3259193,4 C34.9323767,4 32.6055605,5.17047863 31.1827803,7.11982595 C29.3058296,9.65441259 28.8538117,10.4985496 27.041435,10.4985496 Z M39.5903139,28.1166462 L28.2683408,28.1166462 C25.8102242,28.1166462 23.5458296,29.1565882 22.0584753,31.1712038 C20.1169507,33.7710588 19.7295067,34.5521031 17.91713,34.5521031 L8.34511211,34.5521031 L8.34511211,18.9507977 L19.6670852,18.9507977 C22.1252018,18.9507977 24.3895964,17.7803191 25.8769507,15.8309718 C27.8184753,13.2963851 28.3350673,12.5153408 30.0807175,12.5153408 L39.5903139,12.5153408 L39.5903139,28.1166462 Z" id="Shape"></path>
            </g>
        </g>
    </g>
</svg>