<?xml version="1.0" encoding="UTF-8"?>
<svg width="48px" height="48px" viewBox="0 0 48 48" version="1.1" xmlns="http://www.w3.org/2000/svg" xmlns:xlink="http://www.w3.org/1999/xlink">
    <title>E8765096-29DE-48EF-B819-86F4C5BE0CEA</title>
    <g id="UI-kit" stroke="none" stroke-width="1" fill="none" fill-rule="evenodd">
        <g id="Connectors" transform="translate(-520.000000, -888.000000)" fill="#010202" fill-rule="nonzero">
            <g id="Connector/Ably-Copy-44" transform="translate(520.000000, 888.000000)">
                <g id="Uber_logo_2018" transform="translate(0.000000, 16.000000)">
                    <path d="M2.7616034,12.1411816 C2.96444619,12.6903663 3.24527756,13.1599337 3.60414929,13.5498839 C3.96302102,13.9398869 4.38817786,14.2383328 4.87961981,14.4452742 C5.37111354,14.6522157 5.90548546,14.75566 6.48278734,14.75566 C7.04450186,14.75566 7.57105421,14.6482005 8.06254794,14.4332814 C8.55404168,14.2183624 8.98308241,13.9159542 9.34972192,13.526004 C9.71636144,13.136001 10.0011285,12.6704488 10.2039713,12.1292417 C10.4068141,11.5880346 10.5082096,10.9832182 10.5082096,10.314634 L10.5082096,0 L12.9655747,0 L12.9655747,16.7134941 L10.5316165,16.7134941 L10.5316165,15.1615125 C9.98554113,15.7504265 9.34190235,16.2040917 8.60080375,16.5225078 C7.85965336,16.8408183 7.06008922,17 6.20195597,17 C5.32818358,17 4.51298029,16.8447807 3.75624255,16.5343949 C2.99955659,16.2240092 2.34421435,15.7823368 1.79037118,15.2092723 C1.23652802,14.6362077 0.799615926,13.9478645 0.47979027,13.1439786 C0.159912828,12.3401455 0,11.4448081 0,10.4578606 L0,0 L2.4573651,0 L2.4573651,10.314634 C2.4573651,10.9832182 2.55876061,11.5919969 2.7616034,12.1411816 Z" id="Path"></path>
                    <path d="M17.2014004,0 L17.2014004,6.08847432 C17.7474757,5.53136489 18.3794111,5.08969255 19.0971027,4.76335164 C19.8147944,4.43701072 20.5949391,4.27386668 21.4374332,4.27386668 C22.3112056,4.27386668 23.130241,4.4409731 23.8947983,4.77523875 C24.6593038,5.10950441 25.3223621,5.56316952 25.8840766,6.1362341 C26.4457911,6.70929868 26.890471,7.38575473 27.2181162,8.16570793 C27.5457614,8.94571396 27.7095582,9.77342694 27.7095582,10.6488997 C27.7095582,11.5243196 27.5457614,12.3480702 27.2181162,13.1200459 C26.890471,13.8920743 26.4457911,14.5646208 25.8840766,15.1375798 C25.3223621,15.7106443 24.6593038,16.1643094 23.8947983,16.4985751 C23.130241,16.8328408 22.3111538,16.9999472 21.4374332,16.9999472 C20.5948873,16.9999472 19.8109105,16.8368031 19.0853993,16.5104622 C18.359888,16.1841741 17.7240688,15.742449 17.1779934,15.1853395 L17.1779934,16.7134413 L14.837663,16.7134413 L14.837663,0 L17.2014004,0 Z M17.4705283,12.2963481 C17.6811388,12.8057506 17.9737255,13.2514381 18.3481845,13.6334635 C18.7226436,14.015489 19.1595039,14.31795 19.6587655,14.5407938 C20.1580788,14.7636376 20.6963346,14.8750594 21.2736365,14.8750594 C21.835351,14.8750594 22.3657872,14.7636376 22.8650487,14.5407938 C23.3643103,14.31795 23.7972349,14.0155418 24.163978,13.6334635 C24.5306175,13.2514909 24.8231523,12.8057506 25.0415825,12.2963481 C25.2600126,11.7869984 25.3692277,11.2378666 25.3692277,10.6488997 C25.3692277,10.0599328 25.2600126,9.50678576 25.0415825,8.98945854 C24.8231523,8.47213132 24.5306175,8.02248141 24.163978,7.64045597 C23.7972867,7.25848336 23.364362,6.95998471 22.8650487,6.74511851 C22.3657354,6.53025232 21.8352992,6.42273997 21.2736365,6.42273997 C20.7119737,6.42273997 20.1814857,6.53019949 19.6822242,6.74511851 C19.1829627,6.96003754 18.7461024,7.25848336 18.3715915,7.64045597 C17.9971842,8.02248141 17.7007137,8.47213132 17.4822835,8.98945854 C17.2638534,9.50678576 17.1546383,10.0599328 17.1546383,10.6488997 C17.1546383,11.2378666 17.2599177,11.7869984 17.4705283,12.2963481 Z" id="Shape"></path>
                    <path d="M29.0433389,8.18964065 C29.3553449,7.42558977 29.7844892,6.75309609 30.3305128,6.17210677 C30.8765364,5.59111745 31.5241109,5.13348996 32.2730291,4.79922431 C33.0219472,4.46495865 33.8332666,4.29785224 34.7069872,4.29785224 C35.5651205,4.29785224 36.3608525,4.45703391 37.0941833,4.77534442 C37.8274624,5.09370775 38.4593459,5.53543292 38.9898339,6.10051993 C39.5203219,6.66555409 39.9338271,7.33413824 40.230194,8.10611386 C40.5266645,8.87814232 40.6748739,9.71779524 40.6748739,10.6251255 L40.6748739,11.4130562 L30.9624481,11.4130562 C31.0404885,11.9065036 31.1965174,12.3641311 31.430535,12.7858859 C31.6646042,13.2076935 31.9570873,13.5738166 32.3081395,13.8842024 C32.6591916,14.194641 33.0570576,14.4374023 33.5017375,14.6124335 C33.9464174,14.7875174 34.4183363,14.8751123 34.9176496,14.8751123 C36.3374974,14.8751123 37.4842816,14.2781678 38.3580022,13.0843317 L40.0664491,14.3736345 C39.4735599,15.1854452 38.7402808,15.8221719 37.8665602,16.2837617 C36.9927878,16.7453516 36.0098521,16.9761729 34.9177014,16.9761729 C34.0283416,16.9761729 33.197551,16.8169384 32.4252259,16.4986279 C31.6529008,16.1803174 30.982023,15.7345771 30.4125407,15.1615125 C29.8430584,14.5884479 29.3944946,13.9159542 29.0668494,13.1439786 C28.7392041,12.372003 28.5753556,11.5322972 28.5753556,10.6250198 C28.5753556,9.7655022 28.7313328,8.95369153 29.0433389,8.18964065 Z M32.3315464,7.24649058 C31.6684364,7.81157758 31.2276922,8.56368852 31.009262,9.50282338 L38.2877814,9.50282338 C38.0849386,8.56368852 37.6519622,7.81157758 36.9888521,7.24649058 C36.3257421,6.68145641 35.5495331,6.39891291 34.6602252,6.39891291 C33.7708654,6.39891291 32.9946564,6.68145641 32.3315464,7.24649058 Z" id="Shape"></path>
                    <path d="M45.0980068,7.52105651 C44.5987453,8.07816593 44.3490886,8.83423924 44.3490886,9.78932926 L44.3490886,16.713547 L41.9852995,16.713547 L41.9852995,4.5365455 L44.3256299,4.5365455 L44.3256299,6.04076736 C44.6221004,5.54732004 45.008263,5.15731702 45.4841176,4.87081115 C45.9599722,4.58425245 46.5255706,4.4409731 47.1809128,4.4409731 L48,4.4409731 L48,6.68536595 L47.0170643,6.68536595 C46.2369714,6.68541878 45.5972683,6.96394708 45.0980068,7.52105651 Z" id="Path"></path>
                </g>
            </g>
        </g>
    </g>
</svg>