<?xml version="1.0" encoding="UTF-8"?>
<svg width="48px" height="48px" viewBox="0 0 48 48" version="1.1" xmlns="http://www.w3.org/2000/svg" xmlns:xlink="http://www.w3.org/1999/xlink">
    <title>AA6E679B-A19A-440F-BA7F-D798D92A8646</title>
    <g id="UI-kit" stroke="none" stroke-width="1" fill="none" fill-rule="evenodd">
        <g id="Connectors" transform="translate(-120.000000, -600.000000)" fill="#687DED" fill-rule="nonzero">
            <g id="Connector/Ably-Copy-20" transform="translate(120.000000, 600.000000)">
                <path d="M6.75056492,30.90056 C10.478799,30.90056 13.5011298,27.8782292 13.5011298,24.1499952 C13.5011298,20.421761 10.478799,17.3994302 6.75056492,17.3994302 C3.02233086,17.3994302 0,20.421761 0,24.1499952 C0,27.8782292 3.02233086,30.90056 6.75056492,30.90056 L6.75056492,30.90056 Z M30.5989982,41.3965684 C30.5207284,45.0568622 27.52907,48 23.850005,48 C20.1217708,48 17.09944,44.9776692 17.09944,41.249435 C17.09944,37.521201 20.1217708,34.4988702 23.850005,34.4988702 C23.859131,34.4988702 23.8685132,34.4986416 23.8781488,34.4981866 C23.9184498,34.498642 23.9588052,34.4988702 23.999214,34.4988702 C29.733573,34.4988702 34.394255,29.9019132 34.4971336,24.1921256 C34.4982884,24.1775068 34.4988702,24.1634604 34.4988702,24.1499952 C34.4988702,24.1409862 34.4986342,24.1317266 34.4981644,24.122219 C34.4986346,24.0812732 34.4988702,24.0402712 34.4988702,23.999214 C34.4988702,18.2004141 29.798014,13.4995579 23.999214,13.4995579 C23.9392308,13.4995579 23.8793652,13.5000609 23.819621,13.5010629 C20.105364,13.4846954 17.09944,10.4686658 17.09944,6.75056492 C17.09944,3.02233086 20.1217708,0 23.850005,0 C27.5681058,0 30.5841354,3.00592404 30.6005028,6.72018106 C30.599501,6.77992522 30.598998,6.83979092 30.598998,6.89977402 C30.598998,12.698574 35.2998542,17.3994302 41.098654,17.3994302 C41.1388728,17.3994302 41.179039,17.3992041 41.219151,17.398753 C41.2294856,17.3992036 41.2395812,17.3994302 41.249435,17.3994302 C44.9776692,17.3994302 48,20.421761 48,24.1499952 C48,27.8685132 44.9934014,30.8848026 41.2785686,30.9004984 C41.2187176,30.8994928 41.1587448,30.898988 41.098654,30.898988 C35.300546,30.898988 30.6001198,35.5987224 30.5989982,41.3965684 L30.5989982,41.3965684 L30.5989982,41.3965684 Z" id="Shape"></path>
            </g>
        </g>
    </g>
</svg>