<?xml version="1.0" encoding="UTF-8"?>
<svg width="48px" height="48px" viewBox="0 0 48 48" version="1.1" xmlns="http://www.w3.org/2000/svg" xmlns:xlink="http://www.w3.org/1999/xlink">
    <title>6DEA614A-6BB0-4505-B34C-9334685F4A4E</title>
    <g id="UI-kit" stroke="none" stroke-width="1" fill="none" fill-rule="evenodd">
        <g id="Connectors" transform="translate(-620.000000, -1160.000000)">
            <g id="Connector/Ably-Copy-65" transform="translate(620.000000, 1160.000000)">
                <rect id="Rectangle" fill="#436CF2" x="1" y="1" width="46" height="46" rx="6"></rect>
                <path d="M14.6671177,33.1671177 L14.7056834,33.1542625 C16.9810555,33.1542625 18.9093369,32.5757781 20.4776725,31.405954 C22.0460081,30.2361299 23.0615697,28.8477673 23.511502,27.240866 L20.014885,26.3410014 C19.6935047,27.3051421 19.0507442,28.1150203 18.0866035,28.770636 C17.1224628,29.4262517 15.9654939,29.7604871 14.6285521,29.7604871 C12.8673884,29.7604871 11.4404601,29.1562923 10.334912,27.9350474 C9.22936401,26.7138024 8.67658999,25.2483085 8.67658999,23.5257104 C8.67658999,21.8159675 9.22936401,20.3633288 10.3220568,19.1677943 C11.4147497,17.9722598 12.8545332,17.3809202 14.6285521,17.3809202 C15.9654939,17.3809202 17.1096076,17.7151556 18.0737483,18.3836265 C19.037889,19.0520974 19.6806495,19.8748309 20.0020298,20.8389716 L23.5372124,19.9776725 C23.0615697,18.3579161 22.0331529,16.9566982 20.4648173,15.7740189 C18.8964817,14.5913396 16.9424899,14 14.6156969,14 C11.8775372,14 9.58930988,14.9127199 7.75101488,16.7381597 C5.91271989,18.5635995 5,20.8389716 5,23.5514208 C5,26.2895805 5.91271989,28.5778078 7.75101488,30.4161028 C9.58930988,32.2543978 11.8903924,33.1671177 14.6671177,33.1671177 Z M34.1941813,32.7814614 C36.8552097,32.7814614 38.9891746,31.9201624 40.5960758,30.1975643 C42.202977,28.4749662 43,26.2638701 43,23.564276 C43,20.8261164 42.1901218,18.6021651 40.5832206,16.8924222 C38.9763194,15.1826793 36.8423545,14.3342355 34.1813261,14.3342355 L34.1941813,14.3470907 L26.1853857,14.3470907 L26.1853857,32.7814614 L34.1941813,32.7814614 Z M34.0913396,29.5162382 L34.1041949,29.5033829 L29.759134,29.5033829 L29.759134,17.5737483 L34.1041949,17.5737483 C35.6853857,17.5737483 36.9580514,18.1136671 37.9221922,19.2063599 C38.8863329,20.2990528 39.3619756,21.7259811 39.3619756,23.4871448 C39.3619756,25.2740189 38.8734777,26.7266576 37.9093369,27.8450609 C36.9451962,28.9634641 35.6725304,29.5162382 34.0913396,29.5162382 Z" id="CD" fill="#FFFFFF" fill-rule="nonzero"></path>
            </g>
        </g>
    </g>
</svg>