<?xml version="1.0" encoding="UTF-8"?>
<svg width="48px" height="48px" viewBox="0 0 48 48" version="1.1" xmlns="http://www.w3.org/2000/svg" xmlns:xlink="http://www.w3.org/1999/xlink">
    <title>BAFC41E8-1C3E-4BB4-8F39-F1C44BBD37A5</title>
    <g id="UI-kit" stroke="none" stroke-width="1" fill="none" fill-rule="evenodd">
        <g id="Connectors" transform="translate(-1020.000000, -600.000000)">
            <g id="Connector/Ably-Copy-29" transform="translate(1020.000000, 600.000000)">
                <path d="M8.76118352,33.1940824 L8.76118352,20.7192673 L18.4117647,33.1940824 L21.5036985,33.1940824 L21.5036985,14 L17.742515,14 L17.742515,26.4480451 L8.10531877,14 L5,14 L5,33.1940824 L8.76118352,33.1940824 Z M27.2860162,33.1940824 L28.8788306,29.0313491 L37.5121522,29.0313491 L39.0781965,33.1940824 L43,33.1940824 L35.6248679,14 L30.7393448,14 L23.3909827,33.1940824 L27.2860162,33.1940824 Z M36.2539627,25.7118704 L30.1102501,25.7118704 L33.1754139,17.6005636 L36.2539627,25.7118704 Z" id="NA" fill="#FFFFFF" fill-rule="nonzero"></path>
                <circle id="Oval" fill="#003B93" cx="24" cy="24" r="24"></circle>
                <path d="M31,7 L31,11 L26,11 L26,15 L29,15 L29,19 L26,19 L26.0010432,28.2901893 C28.8185592,29.1292038 30.8923985,31.6944641 30.995941,34.7593502 L31,35 C31,38.8659932 27.8659932,42 24,42 C20.1340068,42 17,38.8659932 17,35 C17,31.8289963 19.1084885,29.1504565 21.9999537,28.2898925 L22,7 L31,7 Z M24,32 C22.3431458,32 21,33.3431458 21,35 C21,36.6568542 22.3431458,38 24,38 C25.6568542,38 27,36.6568542 27,35 C27,33.3431458 25.6568542,32 24,32 Z" id="Combined-Shape" fill="#FFFFFF"></path>
            </g>
        </g>
    </g>
</svg>