<?xml version="1.0" encoding="UTF-8"?>
<svg width="48px" height="48px" viewBox="0 0 48 48" version="1.1" xmlns="http://www.w3.org/2000/svg" xmlns:xlink="http://www.w3.org/1999/xlink">
    <title>4CB03141-B42A-470B-AC0C-0F512C4B2932</title>
    <g id="UI-kit" stroke="none" stroke-width="1" fill="none" fill-rule="evenodd">
        <g id="Connectors" transform="translate(-120.000000, -1472.000000)">
            <g id="Connector/Ably-Copy-80" transform="translate(120.000000, 1472.000000)">
                <rect id="Rectangle" fill="#3F51B5" x="1" y="1" width="46" height="46" rx="6"></rect>
                <path d="M20.5174258,15.5475522 L25.007403,15.5475522 L25.007403,15.5475522 L25.007403,13.2375015 C25.007403,7.5874995 33.51078,7.5874995 33.51078,13.2375015 L33.51078,15.5475522 L38.5817609,15.5475522 C39.362436,15.5475522 40,16.1880074 40,16.9729835 L40,22.4145713 L37.7003779,22.4145713 C32.0766396,22.4145713 32.0766396,30.9572709 37.7003779,30.9572709 L40,30.9572709 L40,35.8235294 C40,36.9280989 39.1045695,37.8235294 38,37.8235294 L33.51078,37.8235294 L33.51078,37.8235294 L33.51078,35.5134788 C33.51078,29.8642374 25.007403,29.8642374 25.007403,35.5134788 L25.007403,37.8235294 L20.5174258,37.8235294 C19.4128563,37.8235294 18.5174258,36.9280989 18.5174258,35.8235294 L18.5174258,30.9572709 L18.5174258,30.9572709 L16.2178037,30.9572709 C10.5940654,30.9572709 10.5940654,22.4145713 16.2178037,22.4145713 L18.5174258,22.4145713 L18.5174258,17.5475522 C18.5174258,16.4429827 19.4128563,15.5475522 20.5174258,15.5475522 Z" id="Path" fill="#FFFFFF" transform="translate(26.000000, 23.411765) rotate(-270.000000) translate(-26.000000, -23.411765) "></path>
            </g>
        </g>
    </g>
</svg>