<?xml version="1.0" encoding="UTF-8"?>
<svg width="48px" height="48px" viewBox="0 0 48 48" version="1.1" xmlns="http://www.w3.org/2000/svg" xmlns:xlink="http://www.w3.org/1999/xlink">
    <title>769EFB62-7FB3-45C1-AD92-A05AEE4DE997</title>
    <g id="UI-kit" stroke="none" stroke-width="1" fill="none" fill-rule="evenodd">
        <g id="Connectors" transform="translate(-420.000000, -1472.000000)">
            <g id="Connector/Ably-Copy-83" transform="translate(420.000000, 1472.000000)">
                <g id="panda_head" transform="translate(0.000000, 6.000000)">
                    <ellipse id="Oval" fill="#231F20" fill-rule="nonzero" cx="6.32967033" cy="6.2008879" rx="6.32967033" ry="6.2008879"></ellipse>
                    <ellipse id="Oval" fill="#231F20" fill-rule="nonzero" cx="41.6703297" cy="6.2008879" rx="6.32967033" ry="6.2008879"></ellipse>
                    <path d="M46.5393068,21.436182 C46.5393068,33.3041065 35.8275571,37 24.101437,37 C12.375317,37 4.1386306,33.345172 4.1386306,21.4772475 C4.1386306,9.65038846 13.5925613,0 25.3186813,0 C37.0448014,0 46.5393068,9.56825749 46.5393068,21.436182 Z" id="Path" fill="#E7E7E7" fill-rule="nonzero"></path>
                    <g id="Group" transform="translate(7.830938, 13.058824)" fill-rule="nonzero">
                        <path d="M11.1174979,7.22752497 C11.1174979,10.5948946 8.64243449,13.3052164 5.55874894,13.3052164 C2.4750634,13.3052164 0,10.5948946 0,7.22752497 C0,3.86015538 4.62552832,0 7.70921386,0 C10.7928994,0 11.1174979,3.86015538 11.1174979,7.22752497 Z" id="Path" fill="#231F20"></path>
                        <ellipse id="Oval" fill="#FFFFFF" cx="7.34404057" cy="6.57047725" rx="1.78529163" ry="1.93007769"></ellipse>
                    </g>
                    <g id="Group" transform="translate(30.877430, 12.360710)" fill-rule="nonzero">
                        <path d="M0,7.22752497 C0,10.5948946 2.4750634,13.3052164 5.55874894,13.3052164 C8.64243449,13.3052164 11.1174979,10.5948946 11.1174979,7.22752497 C11.1174979,3.86015538 6.49196957,0 3.40828402,0 C0.324598478,0 0,3.86015538 0,7.22752497 Z" id="Path" fill="#231F20"></path>
                        <ellipse id="Oval" fill="#FFFFFF" cx="3.77345731" cy="6.61154273" rx="1.78529163" ry="1.93007769"></ellipse>
                    </g>
                    <path d="M22.8841927,23.0788013 C22.4784446,22.5038846 22.7218935,22.0110988 23.4522401,22.0110988 L26.2519019,22.0110988 C26.9416737,22.0110988 27.2256974,22.5038846 26.8199493,23.0788013 L25.602705,24.8856826 C25.1969569,25.4605993 24.5477599,25.4605993 24.1420118,24.8856826 L22.8841927,23.0788013 Z" id="Path" fill="#231F20" fill-rule="nonzero"></path>
                    <path d="M20.9771767,28.5405105 C20.9771767,28.5405105 21.6669484,31.1687014 25.6432798,31.1687014 C29.3761623,31.1687014 29.9847844,28.5405105 29.9847844,28.5405105" id="Path" stroke="#231F20" stroke-width="1.21724429" stroke-linecap="round" stroke-linejoin="round"></path>
                </g>
            </g>
        </g>
    </g>
</svg>