<?xml version="1.0" encoding="UTF-8"?>
<svg width="48px" height="48px" viewBox="0 0 48 48" version="1.1" xmlns="http://www.w3.org/2000/svg" xmlns:xlink="http://www.w3.org/1999/xlink">
    <title>ACF791E9-0CB7-4FB3-A054-807F7D7B8107</title>
    <g id="UI-kit" stroke="none" stroke-width="1" fill="none" fill-rule="evenodd">
        <g id="Connectors" transform="translate(-320.000000, -2168.000000)">
            <g id="Connector/Ably-Copy-132" transform="translate(320.000000, 2168.000000)">
                <rect id="Rectangle" fill="#E05E33" x="1" y="1" width="46" height="46" rx="6"></rect>
                <path d="M20.8754153,34.4385382 L20.8754153,30.5813953 L10.2009967,30.5813953 L10.2009967,13 L6,13 L6,34.4385382 L20.8754153,34.4385382 Z M27.7524917,34.4534884 L27.7524917,26.948505 L32.3122924,26.948505 L37.1561462,34.4385382 L42,34.4385382 L36.6777409,26.5149502 C38.1428571,25.9916944 39.2940199,25.1395349 40.1162791,23.9435216 C40.9385382,22.7475083 41.3571429,21.4318937 41.3571429,19.9817276 C41.3571429,18.1727575 40.6843854,16.5581395 39.3388704,15.1378738 C37.9933555,13.717608 36.2142857,13.0149502 34.0166113,13.0149502 L23.5813953,13.0149502 L23.5813953,34.4534884 L27.7524917,34.4534884 Z M33.7325581,23.2707641 L27.7375415,23.2707641 L27.7524917,16.782392 L33.89701,16.782392 C34.8837209,16.782392 35.6910299,17.0963455 36.333887,17.7242525 C36.9767442,18.3521595 37.2906977,19.1146179 37.2906977,19.9966777 C37.2906977,20.923588 36.961794,21.7009967 36.3039867,22.3289037 C35.6461794,22.9568106 34.7940199,23.2707641 33.7325581,23.2707641 Z" id="LR" fill="#FFFFFF" fill-rule="nonzero"></path>
            </g>
        </g>
    </g>
</svg>