<?xml version="1.0" encoding="UTF-8"?>
<svg width="48px" height="48px" viewBox="0 0 48 48" version="1.1" xmlns="http://www.w3.org/2000/svg" xmlns:xlink="http://www.w3.org/1999/xlink">
    <title>2A3C36C9-8CF9-4BC6-A3A2-2F62F398C6ED</title>
    <g id="UI-kit" stroke="none" stroke-width="1" fill="none" fill-rule="evenodd">
        <g id="Connectors" transform="translate(-620.000000, -600.000000)" fill="#000000" fill-rule="nonzero">
            <g id="Connector/Ably-Copy-25" transform="translate(620.000000, 600.000000)">
                <g id="mailchimp" transform="translate(1.000000, 0.000000)">
                    <path d="M33.8583182,22.667366 C34.1875767,22.6247012 34.5168351,22.6247012 34.8460936,22.667366 C35.0266547,22.2620501 35.0585184,21.5474141 34.8991998,20.7901133 C34.6655325,19.6488289 34.336274,18.9555253 33.6777571,19.0621874 C33.0192402,19.1688495 32.9873764,20.0008138 33.231665,21.1420982 C33.3484986,21.7714045 33.5927872,22.3260474 33.8583182,22.667366 L33.8583182,22.667366 Z M28.1547118,23.5739938 C28.6326676,23.787318 28.9194411,23.9259787 29.0362748,23.7979842 C29.2380784,23.5953262 28.6645313,22.7953605 27.7511046,22.4007108 C26.667738,21.95273 25.4356741,22.102057 24.4903836,22.7953605 C24.1717464,23.0300171 23.8743517,23.3500034 23.9168366,23.5526614 C24.0124278,23.9473111 24.9789607,23.2646737 26.3278583,23.1793441 C27.060724,23.126013 27.6767559,23.3606696 28.1547118,23.5739938 L28.1547118,23.5739938 Z M27.1988001,24.1179704 C26.2322672,24.2672974 25.6056139,24.811274 25.7649326,25.1952575 C25.8605237,25.2272562 25.8923874,25.2805872 26.3172371,25.1099279 C26.9545115,24.8646051 27.634271,24.8006078 28.3140304,24.8966037 C28.6220464,24.9286023 28.7707438,24.9499347 28.8450924,24.8432726 C28.9831686,24.6192823 28.2290605,24.0006421 27.1988001,24.1179704 L27.1988001,24.1179704 Z M32.9555127,25.9525584 C33.3166349,25.21659 31.7977974,24.4592891 31.4366752,25.2059237 C31.0755531,25.9418922 32.6050118,26.6885268 32.9555127,25.9525584 L32.9555127,25.9525584 Z M34.6230475,23.7659856 C33.805212,23.7553193 33.7733483,25.4512466 34.5911838,25.472579 C35.4196406,25.472579 35.4515043,23.7766518 34.6230475,23.7659856 L34.6230475,23.7659856 Z M11.3412873,32.1922906 C11.2032111,32.2242892 10.7040128,32.3522837 10.4384818,31.9363016 C9.88617726,31.0830048 11.6174395,29.7603949 10.757119,28.1071326 C9.7905861,26.240546 7.79379279,26.6565282 7.02906344,27.5098249 C6.10501547,28.5337809 6.10501547,30.0270502 6.49800139,30.0803812 C6.95471475,30.1443785 6.93347227,29.3870776 7.28397322,28.8324348 C7.69820162,28.1924622 8.53727966,28.0111367 9.17455412,28.4271188 C9.17455412,28.4271188 9.18517536,28.4271188 9.18517536,28.437785 C10.4172393,29.2484169 9.33387273,30.3363702 9.4294639,31.498987 C9.57816128,33.2802439 11.3943935,33.2482452 11.723652,32.4589458 C11.7661369,32.3842823 11.7555157,32.2776202 11.7024095,32.213623 C11.7024095,32.3309513 11.7661369,32.0962947 11.3412873,32.1922906 L11.3412873,32.1922906 Z M43.2474952,30.3683688 C42.886373,29.1097562 42.971343,29.3870776 42.5252508,28.1711298 C42.7907819,27.7764801 44.1503007,25.6005735 42.1959924,23.5526614 C41.0913833,22.3900446 38.5847704,21.7820707 37.8200411,21.5687465 C37.6607225,20.3527987 38.3192394,15.2970157 35.525853,12.6944607 C37.7350712,10.3905596 39.1158325,7.8520019 39.1158325,5.67609529 C39.1052112,1.4949414 33.9857731,0.225662547 27.6767559,2.84954993 L26.3384796,3.414859 C26.3278583,3.40419279 23.9168366,1.03629442 23.8849729,1.0042958 C16.705014,-5.28876745 -5.79077445,19.8088221 1.39980571,25.9098935 L2.97174938,27.2431696 C2.54689974,28.384454 2.39820236,29.611068 2.53627849,30.8270158 C2.89740069,34.4001958 6.37054649,37.2907384 9.72685865,37.2800722 C15.8765572,51.5087949 38.2448907,51.5301273 44.0334671,37.6000585 C44.2140282,37.1200791 45,34.9655049 45,33.0669197 C45,31.1683345 43.9272547,30.3683688 43.2474952,30.3683688 L43.2474952,30.3683688 Z M9.59940376,35.5201477 C7.16713957,35.4561505 4.54369304,33.2589115 4.28878326,30.6563565 C3.63026632,24.1073042 12.1909866,22.614035 13.2318682,29.3337466 C13.7204453,32.5016106 12.7326699,35.584145 9.59940376,35.5201477 L9.59940376,35.5201477 Z M7.63447417,23.3073386 C6.02004554,23.6273248 4.59679925,24.5446188 3.72585749,25.8138977 C3.20541668,25.3765831 2.23888375,24.5339526 2.06894389,24.2139663 C0.688182561,21.5580803 3.58778135,16.4063014 5.61643838,13.5050926 C10.6296641,6.31606782 18.4787612,0.876301289 22.1218469,1.85759251 C22.7166364,2.02825185 24.6709447,4.30015434 24.6709447,4.30015434 C24.6709447,4.30015434 21.0384803,6.32673403 17.6715469,9.15327938 C13.1150345,12.6731283 9.68437369,17.7715762 7.63447417,23.3073386 L7.63447417,23.3073386 Z M33.0617251,34.1228744 C33.0617251,34.1228744 29.2593208,34.6881834 25.6587201,33.3655735 C26.3172371,31.2109994 28.5370765,34.0162123 35.9188389,31.8936367 C37.5438888,31.4243235 39.6787583,30.5070296 41.3462931,29.1844197 C41.7074153,30.016384 41.9623251,30.8910131 42.1004012,31.7763084 C42.4933871,31.701645 43.6192387,31.7229774 43.3218439,33.7068922 C42.971343,35.8294678 42.0685375,37.5573936 40.5603213,39.1466588 C39.6150308,40.1706148 38.4891793,41.0239115 37.2464941,41.6425516 C36.5561134,42.0052027 35.8232478,42.3145228 35.0797609,42.5598456 C29.3867757,44.4264322 23.5557144,42.37852 21.6651335,37.9627096 C21.5164362,37.6213909 21.3889813,37.2800722 21.2827689,36.9174211 C20.4861758,34.0055461 21.1659352,30.5176958 23.2901834,28.3204567 C23.4176383,28.181796 23.5557144,28.0111367 23.5557144,27.8084787 C23.5344719,27.6271532 23.4707445,27.4564938 23.3539108,27.3178331 C22.610424,26.2298798 20.0294624,24.3846257 20.5499032,20.8114457 C20.9216467,18.2408893 23.1521073,16.4383 25.2444917,16.5449621 L25.7755538,16.5769608 C26.6783593,16.6302918 27.4643311,16.7476201 28.207818,16.7796187 C29.4505032,16.8329498 30.5763547,16.6516242 31.8933886,15.5423385 C32.3394807,15.1690212 32.7006029,14.8383687 33.3060137,14.7423728 C33.805212,14.6143783 34.3256528,14.7103742 34.7505024,14.9770294 C35.8126265,15.6916654 35.9613239,17.4089251 36.0144301,18.6675377 C36.0462938,19.3821737 36.1312638,21.131432 36.1631275,21.6220776 C36.2268549,22.7633619 36.5242497,22.923355 37.1296604,23.1153468 C37.4695401,23.2326751 37.7881774,23.3073386 38.2448907,23.4459993 C39.6468945,23.840649 40.4753513,24.2459649 41.0170346,24.757943 C41.2931869,25.0245982 41.4631267,25.3765831 41.5268542,25.7499004 C41.696794,26.9658482 40.592185,28.4697837 37.6607225,29.8243922 C32.6899817,32.1389595 27.6873772,31.3709925 26.9651328,31.2856628 C24.8196421,30.9976752 23.5981994,33.7815557 24.8833696,35.6801409 C27.2943913,39.2533208 37.9156323,37.8133826 40.9957921,33.3975722 C41.0701408,33.2909101 41.0064134,33.2269128 40.9214435,33.2909101 C36.4711435,36.3414458 30.586976,37.3760681 27.2412851,36.0747906 C26.7314655,35.8721326 25.6693414,35.381487 25.5418865,34.2935337 C30.1833688,35.7334719 33.1042101,34.3681972 33.1042101,34.3681972 C33.1042101,34.3681972 33.3378774,34.0908757 33.0617251,34.1228744 L33.0617251,34.1228744 Z M16.8961963,13.473094 C18.6805648,11.4038495 20.8685405,9.60126015 22.8440913,8.59863652 C22.875955,8.5773041 22.9290612,8.58797031 22.9503037,8.63063515 C22.9609249,8.65196756 22.9609249,8.68396619 22.9503037,8.70529861 C22.7909851,8.99328625 22.4935903,9.60126015 22.3979992,10.0599071 C22.3873779,10.102572 22.4192416,10.1452368 22.4617266,10.155903 C22.4829691,10.1665692 22.5042116,10.155903 22.5254541,10.1452368 C23.7468968,9.31327251 25.8817662,8.40664476 27.7404834,8.29998267 C27.7829683,8.29998267 27.8254533,8.3319813 27.8254533,8.37464613 C27.8254533,8.40664476 27.8148321,8.42797718 27.7935896,8.4493096 C27.4855736,8.68396619 27.2094213,8.96128762 26.975754,9.28127389 C26.9545115,9.31327251 26.9545115,9.36660356 26.9969965,9.38793598 C27.0076178,9.39860219 27.0288602,9.39860219 27.0394815,9.39860219 C28.3458941,9.40926839 30.1939901,9.86791538 31.4048115,10.5505527 C31.4897815,10.5932176 31.426054,10.7532107 31.3410841,10.7318783 C23.9380791,9.02528487 18.2344727,12.7157931 17.0236512,13.6010885 C16.9811663,13.6224209 16.9386813,13.6117547 16.9068176,13.5797561 C16.8749538,13.5370912 16.8749538,13.4944264 16.8961963,13.473094 L16.8961963,13.473094 Z" id="Shape"></path>
                </g>
            </g>
        </g>
    </g>
</svg>