<?xml version="1.0" encoding="UTF-8"?>
<svg width="48px" height="48px" viewBox="0 0 48 48" version="1.1" xmlns="http://www.w3.org/2000/svg" xmlns:xlink="http://www.w3.org/1999/xlink">
    <title>BB7E7C70-F4F6-4844-9616-243FB2A25D12</title>
    <g id="UI-kit" stroke="none" stroke-width="1" fill="none" fill-rule="evenodd">
        <g id="Connectors" transform="translate(-1020.000000, -1876.000000)">
            <g id="Connector/Ably-Copy-119" transform="translate(1020.000000, 1876.000000)">
                <rect id="Rectangle" fill="#40404B" x="1" y="1" width="46" height="46" rx="6"></rect>
                <path d="M15.4353345,33.4137221 C18.090566,33.4137221 20.251801,32.6356775 21.9066895,31.0795883 C23.561578,29.5234991 24.3890223,27.4981132 24.3890223,25.0034305 L24.4013722,23.212693 L15.361235,23.212693 L15.361235,26.2013722 L20.8075472,26.2013722 C20.6469983,27.3499142 20.115952,28.3008576 19.2020583,29.0542024 C18.2881647,29.8075472 17.1149228,30.1903945 15.6823328,30.1903945 C13.780446,30.1903945 12.2737564,29.6099485 11.1622642,28.4490566 C10.0507719,27.2881647 9.49502573,25.8679245 9.49502573,24.1759863 C9.49502573,22.5334477 10.038422,21.1379074 11.1252144,19.9893654 C12.2120069,18.8408233 13.5951973,18.2727273 15.2871355,18.2727273 C17.7941681,18.2727273 19.5478559,19.2977702 20.548199,21.335506 L23.7591767,20.4216123 C23.1787307,18.8531732 22.1413379,17.5564322 20.6469983,16.5313894 C19.1526587,15.5063465 17.3619211,15 15.2747856,15 C12.6442539,15 10.4459691,15.8768439 8.66758148,17.6428816 C6.88919383,19.4089194 6,21.5825043 6,24.1759863 C6,26.806518 6.88919383,29.0048027 8.67993139,30.7708405 C10.470669,32.5368782 12.7183533,33.4137221 15.4353345,33.4137221 Z M30.4157804,33.0555746 L30.4157804,25.6209262 L38.5049743,25.6209262 L38.5049743,33.0555746 L42,33.0555746 L42,15.3457976 L38.5049743,15.3457976 L38.5049743,22.484048 L30.4157804,22.484048 L30.4157804,15.3457976 L26.9454545,15.3457976 L26.9454545,33.0555746 L30.4157804,33.0555746 Z" id="GH" fill="#FFFFFF" fill-rule="nonzero"></path>
            </g>
        </g>
    </g>
</svg>