<?xml version="1.0" encoding="UTF-8"?>
<svg width="48px" height="49px" viewBox="0 0 48 49" version="1.1" xmlns="http://www.w3.org/2000/svg" xmlns:xlink="http://www.w3.org/1999/xlink">
    <title>3C7CE3E7-B2BF-41CB-B6E4-C7D7D6DF76D2</title>
    <defs>
        <path d="M24.0587137,47.9920772 L0.0875110041,47.4966356 L0.0618137673,25.9807516 C4.3644743,26.2809104 12.5251466,24.4234682 20.3409305,18.6503339 C16.2239484,17.8212757 14.8711172,16.8463567 14.7611912,15.6681543 C14.6879071,14.882686 15.8012586,14.1904077 18.1012456,13.5913193 L34.3536123,10.4096691 C33.3863957,20.0321788 32.8009175,25.4735929 32.5971777,26.7339114 C32.2915678,28.624389 31.7488518,30.4280809 30.612212,30.212377 C29.4755722,29.996673 28.1355027,28.4703354 27.1588618,24.8317432 C21.8757385,33.4629473 21.1917842,41.2582858 21.4504638,45.3725576 L21.5400795,46.40357 C23.9205755,46.40357 45.9942503,43.6015185 45.9942503,41.2478484 L45.9942503,4.27105794 C45.9942503,1.91113018 44.0633244,0.00227556154 41.6828285,0.00227556154 L4.30952453,0.00227556154 C1.98728053,0.00227556154 0.0913959389,1.81885188 -1.28109333e-16,4.09864267 L-1.28109333e-16,0.00227556154 L45.9942503,0.00227556154 L45.9942503,45.513502 L34.5301756,46.2950492 L17.7664033,48 L0.0656332537,47.0008522 L-1.28109333e-16,-6.33772213e-16 L46,-6.33772213e-16 L46,45.513502 L34.5733723,47.2739527 L24.0587137,47.9920772 Z" id="path-1"></path>
    </defs>
    <g id="UI-kit" stroke="none" stroke-width="1" fill="none" fill-rule="evenodd">
        <g id="Connectors" transform="translate(-1020.000000, -2616.000000)">
            <g id="Connector/prodpad" transform="translate(1020.000000, 2616.000000)">
                <g id="Rectangle-Clipped" transform="translate(1.000000, 1.000000)">
                    <mask id="mask-2" fill="white">
                        <use xlink:href="#path-1"></use>
                    </mask>
                    <g id="path-1"></g>
                    <path d="M9.58045001,1.41266617 C14.0359282,0.489882084 18.5053407,0.0284900321 22.9886877,0.0284900321 C27.4910129,0.0284900321 31.9934313,0.493796571 36.4959429,1.42440964 L36.4959429,1.42440961 C40.5475344,2.26182314 43.7201895,5.38229777 44.5906514,9.38598478 C45.5466803,13.7832372 46.0246947,18.2058953 46.0246947,22.6539589 C46.0246947,27.1501115 45.5362886,31.6464361 44.5594763,36.1429326 L44.5594763,36.1429326 C43.6949925,40.1223547 40.5552703,43.2320779 36.534206,44.0915246 C32.0100371,45.0585029 27.4975496,45.541992 22.9967433,45.541992 C18.5111295,45.541992 14.0255926,45.0617614 9.54013246,44.1013001 L9.54013247,44.1013001 C5.52134017,43.2407653 2.38370646,40.1323894 1.51905304,36.1550157 C0.536147541,31.6336868 0.0446947979,27.1359981 0.0446947979,22.6619494 C0.0446947979,18.2318462 0.526540579,13.8018963 1.49023214,9.37210006 L1.49023211,9.37210005 C2.36077245,5.37049153 5.53120091,2.25131525 9.58045001,1.41266617 Z" id="Rectangle" fill="#25A7D9" fill-rule="nonzero" mask="url(#mask-2)"></path>
                </g>
            </g>
        </g>
    </g>
</svg>