<?xml version="1.0" encoding="UTF-8"?>
<svg width="50px" height="50px" viewBox="0 0 50 50" version="1.1" xmlns="http://www.w3.org/2000/svg" xmlns:xlink="http://www.w3.org/1999/xlink">
    <title>45F36AEE-1E66-4054-9224-87AE595EAC58</title>
    <g id="UI-kit" stroke="none" stroke-width="1" fill="none" fill-rule="evenodd" stroke-linecap="round" stroke-linejoin="round">
        <g id="Connectors" transform="translate(-419.000000, -1735.000000)" fill="#006DD6">
            <g id="iot-hub" transform="translate(420.000000, 1736.000000)">
                <g id="Group" transform="translate(0.298137, 0.298133)">
                    <path d="M15.3540373,7.32691519 C15.3540373,4.75879803 17.4147578,2.6915442 19.9751553,2.6915442 C22.5355528,2.6915442 24.5962733,4.75879803 24.5962733,7.32691519 C24.5962733,9.89503236 22.5355528,11.9622862 19.9751553,11.9622862 C17.4147578,11.9622862 15.3540373,9.89503236 15.3540373,7.32691519 Z M25.0434783,22.2806673 C25.0434783,19.2152644 27.5031056,16.7479162 30.5590062,16.7479162 C33.6149068,16.7479162 36.0745342,19.2158607 36.0745342,22.2806673 C36.0745342,25.345474 33.6149068,27.8134185 30.5590062,27.8134185 C27.5031056,27.8134185 25.0434783,25.3460702 25.0434783,22.2806673 Z M35.4782609,38.729258 C35.4782609,36.3269028 37.4060124,34.3926162 39.8012422,34.3926162 C42.196472,34.3926162 44.1242236,36.3269028 44.1242236,38.729258 C44.1242236,41.1316133 42.196472,43.0658998 39.8012422,43.0658998 C37.4060124,43.0658998 35.4782609,41.1316133 35.4782609,38.729258 Z M18.931677,35.7389846 C18.931677,33.6681532 20.594087,32.0003975 22.6583851,32.0003975 C24.7226832,32.0003975 26.3850932,33.6675569 26.3850932,35.7389846 C26.3850932,37.8104123 24.7232795,39.4775717 22.6583851,39.4775717 C20.5934907,39.4775717 18.931677,37.8104123 18.931677,35.7389846 Z" id="Shape"></path>
                    <path d="M3.8757764,24.3741568 C3.8757764,22.3033254 5.53818634,20.6355697 7.60248447,20.6355697 C9.66678261,20.6355697 11.3291925,22.3027292 11.3291925,24.3741568 C11.3291925,26.4455845 9.66737888,28.1127439 7.60248447,28.1127439 C5.53759006,28.1127439 3.8757764,26.4455845 3.8757764,24.3741568 Z M20.7825093,6.43788276 L31.3270062,21.4852486 L29.376,22.860834 L18.8315031,7.81406442 L20.7825093,6.43788276 Z" id="Shape"></path>
                    <polygon id="Path" points="31.4778634 21.4918076 40.8089441 37.8438032 38.7386832 39.0321611 29.4081988 22.6801655"></polygon>
                    <polygon id="Path" points="30.2149565 20.9939255 30.412323 23.3783928 7.68238509 25.271537 7.48501863 22.8870697"></polygon>
                    <path d="M29.3813665,21.5931728 L31.4241988,22.8280394 L23.4228075,36.148023 L21.3799752,34.9131564 L29.3813665,21.5931728 Z M46.9565217,0 L34.8819876,0 C34.4347826,0 34.136646,0.298729208 34.136646,0.897380157 L34.136646,5.23402194 C34.136646,5.68241388 34.4347826,5.98173936 34.8819876,5.98173936 L41.7391304,5.98173936 L41.7391304,12.7105999 C41.7391304,13.1589918 42.0372671,13.4583173 42.6335404,13.4583173 L46.9565217,13.4583173 C47.4037267,13.4583173 47.7018634,13.1595881 47.7018634,12.7105999 L47.7018634,0.74771742 C47.7018634,0.298729208 47.4037267,0 46.9565217,0 Z M0.745341615,47.7018671 L12.8198758,47.7018671 C13.2670807,47.7018671 13.5652174,47.4025416 13.5652174,46.8044869 L13.5652174,42.4678451 C13.5652174,42.0194532 13.2670807,41.7201277 12.8198758,41.7201277 L5.96273292,41.7201277 L5.96273292,34.9912672 C5.96273292,34.542279 5.66459627,34.2435498 5.06832298,34.2435498 L0.745341615,34.2435498 C0.298136646,34.2435498 0,34.542279 0,34.9912672 L0,46.9541496 C0,47.4025416 0.298136646,47.7018671 0.745341615,47.7018671 Z" id="Shape"></path>
                </g>
                <g id="Group">
                    <path d="M15.3540373,7.32691519 C15.3540373,4.75879803 17.4147578,2.6915442 19.9751553,2.6915442 C22.5355528,2.6915442 24.5962733,4.75879803 24.5962733,7.32691519 C24.5962733,9.89503236 22.5355528,11.9622862 19.9751553,11.9622862 C17.4147578,11.9622862 15.3540373,9.89503236 15.3540373,7.32691519 Z M25.0434783,22.2806673 C25.0434783,19.2152644 27.5031056,16.7479162 30.5590062,16.7479162 C33.6149068,16.7479162 36.0745342,19.2158607 36.0745342,22.2806673 C36.0745342,25.345474 33.6149068,27.8134185 30.5590062,27.8134185 C27.5031056,27.8134185 25.0434783,25.3460702 25.0434783,22.2806673 Z M35.4782609,38.729258 C35.4782609,36.3269028 37.4060124,34.3926162 39.8012422,34.3926162 C42.196472,34.3926162 44.1242236,36.3269028 44.1242236,38.729258 C44.1242236,41.1316133 42.196472,43.0658998 39.8012422,43.0658998 C37.4060124,43.0658998 35.4782609,41.1316133 35.4782609,38.729258 Z M18.931677,35.7389846 C18.931677,33.6681532 20.594087,32.0003975 22.6583851,32.0003975 C24.7226832,32.0003975 26.3850932,33.6675569 26.3850932,35.7389846 C26.3850932,37.8104123 24.7232795,39.4775717 22.6583851,39.4775717 C20.5934907,39.4775717 18.931677,37.8104123 18.931677,35.7389846 Z" id="Shape"></path>
                    <path d="M3.8757764,24.3741568 C3.8757764,22.3033254 5.53818634,20.6355697 7.60248447,20.6355697 C9.66678261,20.6355697 11.3291925,22.3027292 11.3291925,24.3741568 C11.3291925,26.4455845 9.66737888,28.1127439 7.60248447,28.1127439 C5.53759006,28.1127439 3.8757764,26.4455845 3.8757764,24.3741568 Z M20.7825093,6.43788276 L31.3270062,21.4852486 L29.376,22.860834 L18.8315031,7.81406442 L20.7825093,6.43788276 Z" id="Shape"></path>
                    <polygon id="Path" points="31.4778634 21.4918076 40.8089441 37.8438032 38.7386832 39.0321611 29.4081988 22.6801655"></polygon>
                    <polygon id="Path" points="30.2149565 20.9939255 30.412323 23.3783928 7.68238509 25.271537 7.48501863 22.8870697"></polygon>
                    <path d="M29.3813665,21.5931728 L31.4241988,22.8280394 L23.4228075,36.148023 L21.3799752,34.9131564 L29.3813665,21.5931728 Z M46.9565217,0 L34.8819876,0 C34.4347826,0 34.136646,0.298729208 34.136646,0.897380157 L34.136646,5.23402194 C34.136646,5.68241388 34.4347826,5.98173936 34.8819876,5.98173936 L41.7391304,5.98173936 L41.7391304,12.7105999 C41.7391304,13.1589918 42.0372671,13.4583173 42.6335404,13.4583173 L46.9565217,13.4583173 C47.4037267,13.4583173 47.7018634,13.1595881 47.7018634,12.7105999 L47.7018634,0.74771742 C47.7018634,0.298729208 47.4037267,0 46.9565217,0 Z M0.745341615,47.7018671 L12.8198758,47.7018671 C13.2670807,47.7018671 13.5652174,47.4025416 13.5652174,46.8044869 L13.5652174,42.4678451 C13.5652174,42.0194532 13.2670807,41.7201277 12.8198758,41.7201277 L5.96273292,41.7201277 L5.96273292,34.9912672 C5.96273292,34.542279 5.66459627,34.2435498 5.06832298,34.2435498 L0.745341615,34.2435498 C0.298136646,34.2435498 0,34.542279 0,34.9912672 L0,46.9541496 C0,47.4025416 0.298136646,47.7018671 0.745341615,47.7018671 Z" id="Shape"></path>
                </g>
            </g>
        </g>
    </g>
</svg>