<?xml version="1.0" encoding="UTF-8"?>
<svg width="48px" height="48px" viewBox="0 0 48 48" version="1.1" xmlns="http://www.w3.org/2000/svg" xmlns:xlink="http://www.w3.org/1999/xlink">
    <title>1BABA97D-A2E3-4F25-93D5-5EFF0D4E53AD</title>
    <g id="UI-kit" stroke="none" stroke-width="1" fill="none" fill-rule="evenodd">
        <g id="Connectors" transform="translate(-820.000000, -1736.000000)" fill-rule="nonzero">
            <g id="Connector/Ably-Copy-107" transform="translate(820.000000, 1736.000000)">
                <path d="M24,0 C10.745166,0 0,10.745166 0,24 C0,37.254834 10.745166,48 24,48 C37.254834,48 48,37.254834 48,24 C48,10.745166 37.254834,0 24,0 Z M24,4 C35.045695,4 44,12.954305 44,24 C44,35.045695 35.045695,44 24,44 C12.954305,44 4,35.045695 4,24 C4,12.954305 12.954305,4 24,4 Z" id="Oval" fill="#1566BF"></path>
                <path d="M13,18.5 C13.7796961,18.5 14.4204487,19.0948881 14.4931334,19.85554 L14.5,20 L14.5,33.499 L28,33.5 C28.7796961,33.5 29.4204487,34.0948881 29.4931334,34.85554 L29.5,35 C29.5,35.7796961 28.9051119,36.4204487 28.14446,36.4931334 L28,36.5 L14,36.5 C12.6745166,36.5 11.5899613,35.4684641 11.5053177,34.1643757 L11.5,34 L11.5,20 C11.5,19.1715729 12.1715729,18.5 13,18.5 Z M34,11.5 C35.3254834,11.5 36.4100387,12.5315359 36.4946823,13.8356243 L36.5,14 L36.5,29 C36.5,29.8284271 35.8284271,30.5 35,30.5 C34.2203039,30.5 33.5795513,29.9051119 33.5068666,29.14446 L33.5,29 L33.5,14.5 L20,14.5 C19.2203039,14.5 18.5795513,13.9051119 18.5068666,13.14446 L18.5,13 C18.5,12.2203039 19.0948881,11.5795513 19.85554,11.5068666 L20,11.5 L34,11.5 Z M20,22 C21.1045695,22 22,22.8954305 22,24 C22,25.1045695 21.1045695,26 20,26 C18.8954305,26 18,25.1045695 18,24 C18,22.8954305 18.8954305,22 20,22 Z M28,22 C29.1045695,22 30,22.8954305 30,24 C30,25.1045695 29.1045695,26 28,26 C26.8954305,26 26,25.1045695 26,24 C26,22.8954305 26.8954305,22 28,22 Z" id="Combined-Shape" fill="#32BEDD"></path>
            </g>
        </g>
    </g>
</svg>