<?xml version="1.0" encoding="UTF-8"?>
<svg width="48px" height="48px" viewBox="0 0 48 48" version="1.1" xmlns="http://www.w3.org/2000/svg" xmlns:xlink="http://www.w3.org/1999/xlink">
    <title>75498DCB-A0E8-40C4-A35C-0A4EFB55AB01</title>
    <g id="UI-kit" stroke="none" stroke-width="1" fill="none" fill-rule="evenodd">
        <g id="Connectors" transform="translate(-520.000000, -2888.000000)" fill="#181818" fill-rule="nonzero">
            <g id="Connector/zendesk.support-Copy-4" transform="translate(520.000000, 2888.000000)">
                <path d="M24.3411967,0 C25.3327863,0 26.1370249,0.808 26.1370249,1.80571429 L26.1370249,1.80571429 L26.1370249,11.744 L34.4947087,3.33485714 C34.8305862,2.99629502 35.2876637,2.80587734 35.7644689,2.80587734 C36.2412741,2.80587734 36.6983516,2.99629502 37.0342291,3.33485714 C37.7345177,4.04217202 37.7345177,5.18182798 37.0342291,5.88914286 L37.0342291,5.88914286 L26.1370249,16.8537143 L26.1370249,21.8171429 L40.0638324,7.85714286 C40.4001675,7.51890075 40.8576448,7.32910903 41.3345448,7.3299675 C41.8114449,7.33082598 42.2682365,7.52226349 42.6033527,7.86171429 C43.3037553,8.57016261 43.3017149,9.71120601 42.5987832,10.4171429 L42.5987832,10.4171429 L26.1370249,26.9165714 L26.1370249,32.1794286 L43.8919623,14.3154286 C44.2278397,13.9768664 44.6849173,13.7864488 45.1617224,13.7864488 C45.6385276,13.7864488 46.0956052,13.9768664 46.4314826,14.3154286 C47.1317712,15.0227434 47.1317712,16.1623994 46.4314826,16.8697143 L46.4314826,16.8697143 L39.3566964,23.9897143 L46.4737509,31.1508571 C47.1754164,31.8580504 47.1754164,32.9990925 46.4737509,33.7062857 C46.1383726,34.0453474 45.6813703,34.2361311 45.2045619,34.2361311 C44.7277534,34.2361311 44.2707511,34.0453474 43.9353729,33.7062857 L43.9353729,33.7062857 L36.8160337,26.544 L33.9703543,29.4091429 L42.3280381,37.8182857 C43.0283267,38.5256006 43.0283267,39.6652566 42.3280381,40.3725714 C41.9924199,40.7120542 41.5349831,40.9030899 41.0577067,40.9030899 C40.5804304,40.9030899 40.1229935,40.7120542 39.7873753,40.3725714 L39.7873753,40.3725714 L31.4296915,31.9634286 L28.5840122,34.8285714 L36.2357024,42.528 C36.935991,43.2353149 36.935991,44.3749708 36.2357024,45.0822857 C35.9001282,45.4214156 35.4429371,45.6122267 34.9659423,45.6122267 C34.4889474,45.6122267 34.0317564,45.4214156 33.6961821,45.0822857 L33.6961821,45.0822857 L26.1370249,37.4765714 L26.1370249,46.1942857 C26.1370249,47.1908571 25.3327863,48 24.3411967,48 C23.3496071,48 22.5453686,47.1908571 22.5453686,46.1942857 L22.5453686,46.1942857 L22.5453686,1.80571429 C22.5453686,0.808 23.3496071,0 24.3411967,0 Z M17.1590264,1.032 C18.150616,1.032 18.9548546,1.84114286 18.9548546,2.83885714 L18.9548546,2.83885714 L18.9548546,45.1611429 C18.9548546,46.1588571 18.150616,46.9668571 17.1590264,46.9668571 C16.1674368,46.9668571 15.3643406,46.1588571 15.3643406,45.1611429 L15.3643406,45.1611429 L15.3643406,2.83771429 C15.3643406,1.84114286 16.1674368,1.032 17.1590264,1.032 Z M9.97685611,5.16114286 C10.9695881,5.16114286 11.7726843,5.97028571 11.7726843,6.968 L11.7726843,6.968 L11.7726843,41.032 C11.7726843,42.0297143 10.9695881,42.8377143 9.97685611,42.8377143 C8.9852665,42.8377143 8.18217032,42.0297143 8.18217032,41.032 L8.18217032,41.032 L8.18217032,6.96685714 C8.18217032,5.97028571 8.9852665,5.16114286 9.97685611,5.16114286 Z M2.79582818,17.5485714 C3.78741778,17.5485714 4.59051397,18.3565714 4.59051397,19.3542857 L4.59051397,19.3542857 L4.59051397,28.6457143 C4.59051397,29.6422857 3.78741778,30.4514286 2.79582818,30.4514286 C1.80423857,30.4514286 1,29.6422857 1,28.6457143 L1,28.6457143 L1,19.3542857 C1,18.3565714 1.80423857,17.5485714 2.79582818,17.5485714 Z" id="Combined-Shape"></path>
            </g>
        </g>
    </g>
</svg>