<?xml version="1.0" encoding="UTF-8"?>
<svg width="48px" height="48px" viewBox="0 0 48 48" version="1.1" xmlns="http://www.w3.org/2000/svg" xmlns:xlink="http://www.w3.org/1999/xlink">
    <title>2E5A4198-98E5-42DE-A459-CC51825325B4</title>
    <g id="UI-kit" stroke="none" stroke-width="1" fill="none" fill-rule="evenodd">
        <g id="Connectors" transform="translate(-1020.000000, -2024.000000)" fill-rule="nonzero">
            <g id="Connector/Ably-Copy-129" transform="translate(1020.000000, 2024.000000)">
                <path d="M48,7 L35.3512834,42 C31.3774847,41.0140244 28.13186,40.0852439 25.6135558,39.2136585 C23.8054987,38.5879268 21.4271951,37.8392683 18.5614503,36.4264634 C17.8102273,36.0568293 16.6168072,35.3508537 14.9794826,34.3093902 C13.9977708,33.4779268 13.4386219,32.8837805 13.3003286,32.5252439 C12.5542276,30.5959756 13.3003286,29.7389024 14.4194801,28.735 C16.0055849,27.3145122 19.1769409,25.902561 23.9344018,24.5 C23.814889,27.4109756 24.0026948,29.5297561 24.4935507,30.8537805 C24.9852602,32.1769512 25.8064835,32.8086585 26.9563669,32.7489024 C27.3319783,32.7164634 27.593199,32.6789024 27.740029,32.6370732 C28.4400322,32.4364634 28.9104002,32.132561 29.3073532,31.8568293 C31.5072414,30.3262195 33.6499342,27.6508537 35.6876264,25.1684146 C38.4475171,21.805 42.5519262,15.75 48,7 Z" id="Path" fill="#417DC2"></path>
                <path d="M0,41 L12.6487166,6 C16.6225153,6.98597561 19.86814,7.9147561 22.3864442,8.78634146 C24.1945013,9.41207317 26.5728049,10.1607317 29.4385497,11.5735366 C30.1897727,11.9431707 31.3831928,12.6491463 33.0205174,13.6906098 C34.0022292,14.5220732 34.5613781,15.1162195 34.6996714,15.4747561 C35.4457724,17.4040244 34.6996714,18.2610976 33.5805199,19.265 C31.9944151,20.6854878 28.8230591,22.097439 24.0655982,23.5 C24.185111,20.5890244 23.9973052,18.4702439 23.5064493,17.1462195 C23.0147398,15.8230488 22.1935165,15.1913415 21.0436331,15.2510976 C20.6680217,15.2835366 20.406801,15.3210976 20.259971,15.3629268 C19.5599678,15.5635366 19.0895998,15.867439 18.6926468,16.1431707 C16.4927586,17.6737805 14.3500658,20.3491463 12.3123736,22.8315854 C9.55248286,26.195 5.44807378,32.25 0,41 Z" id="Path" fill="#D0021B"></path>
            </g>
        </g>
    </g>
</svg>