<?xml version="1.0" encoding="UTF-8"?>
<svg width="48px" height="48px" viewBox="0 0 48 48" version="1.1" xmlns="http://www.w3.org/2000/svg" xmlns:xlink="http://www.w3.org/1999/xlink">
    <title>79B5048D-5702-448A-BC7E-32215A0C3DAB</title>
    <g id="UI-kit" stroke="none" stroke-width="1" fill="none" fill-rule="evenodd">
        <g id="Connectors" transform="translate(-320.000000, -464.000000)" fill-rule="nonzero">
            <g id="Connector/Ably-Copy-12" transform="translate(320.000000, 464.000000)">
                <g id="ebay-logo-svgrepo-com" transform="translate(0.000000, 14.000000)">
                    <path d="M6.20685791,4.14544017 C2.82124083,4.14544017 0,5.56421228 0,9.84520291 C0,13.2366535 1.89710474,15.3722456 6.29411608,15.3722456 C11.4697265,15.3722456 11.8014676,12.004204 11.8014676,12.004204 L9.29371581,12.004204 C9.29371581,12.004204 8.75607738,13.8177648 6.14121414,13.8177648 C4.01147432,13.8177648 2.47973316,12.396462 2.47973316,10.404487 L12.0638826,10.404487 L12.0638826,9.15432258 C12.0638826,7.18354214 10.7974383,4.14544017 6.20685791,4.14544017 L6.20685791,4.14544017 Z M6.11927952,5.74310094 C8.14655103,5.74310094 9.52859239,6.97001457 9.52859239,8.80888241 L2.53513009,8.80888241 C2.53513009,6.8566077 4.33921281,5.74310094 6.11927952,5.74310094 Z" id="Shape" fill="#E53238"></path>
                    <path d="M12.0621214,0 L12.0621214,13.2224183 C12.0621214,13.9729282 12.0078452,15.0268054 12.0078452,15.0268054 L14.3996798,15.0268054 C14.3996798,15.0268054 14.4856571,14.2699688 14.4856571,13.5781394 C14.4856571,13.5781394 15.6674049,15.4046701 18.8807472,15.4046701 C22.264443,15.4046701 24.5629353,13.0837045 24.5629353,9.75884287 C24.5629353,6.66554006 22.4517678,4.17770656 18.8861908,4.17770656 C15.5473249,4.17770656 14.5098332,5.95884287 14.5098332,5.95884287 L14.5098332,0 L12.0621214,0 Z M18.2688192,5.81316961 C20.5666711,5.81316961 22.0279653,7.49798127 22.0279653,9.75884287 C22.0279653,12.1832508 20.3402802,13.7692071 18.2853102,13.7692071 C15.8327952,13.7692071 14.5098332,11.8773528 14.5098332,9.7803538 C14.5098332,7.82633923 15.6968646,5.81316961 18.2688192,5.81316961 L18.2688192,5.81316961 Z" id="Shape" fill="#0064D2"></path>
                    <path d="M30.5075384,4.14544017 C25.4142228,4.14544017 25.0876051,6.9004204 25.0876051,7.34076171 L27.6227352,7.34076171 C27.6227352,7.34076171 27.7556237,5.73234547 30.3327018,5.73234547 C32.0072582,5.73234547 33.3049233,6.48965661 33.3049233,7.945282 L33.3049233,8.46344225 L30.3327018,8.46344225 C26.3868712,8.46344225 24.3008406,9.60383767 24.3008406,11.9180021 C24.3008406,14.1953132 26.2282055,15.4344058 28.832982,15.4344058 C32.3828686,15.4344058 33.5263509,13.4966826 33.5263509,13.4966826 C33.5263509,14.2674381 33.5863909,15.0269636 33.5863909,15.0269636 L35.8400534,15.0269636 C35.8400534,15.0269636 35.7527952,14.0855442 35.7527952,13.4832383 L35.7527952,8.27727784 C35.7527952,4.86368366 32.9656571,4.14544017 30.5075384,4.14544017 L30.5075384,4.14544017 Z M33.3049233,10.017923 L33.3049233,10.7088033 C33.3049233,11.6098897 32.741988,13.8501894 29.4284189,13.8501894 C27.6139293,13.8501894 26.8359706,12.9555879 26.8359706,11.9178439 C26.8359706,10.030102 29.4557972,10.017923 33.3049233,10.017923 Z" id="Shape" fill="#F5AF02"></path>
                    <polygon id="Path" fill="#86B817" points="34.387565 4.57755671 37.2395464 4.57755671 41.3326751 12.6786348 45.4163576 4.57755671 48 4.57755671 40.5616011 19 37.8514743 19 39.9978652 14.979513"></polygon>
                </g>
            </g>
        </g>
    </g>
</svg>