<?xml version="1.0" encoding="UTF-8"?>
<svg width="48px" height="48px" viewBox="0 0 48 48" version="1.1" xmlns="http://www.w3.org/2000/svg" xmlns:xlink="http://www.w3.org/1999/xlink">
    <title>FECA2C36-0AAD-4930-9FA3-A351F2BCFBA4</title>
    <g id="UI-kit" stroke="none" stroke-width="1" fill="none" fill-rule="evenodd">
        <g id="Connectors" transform="translate(-920.000000, -1024.000000)">
            <g id="Connector/Ably-Copy-58" transform="translate(920.000000, 1024.000000)">
                <circle id="Oval" fill="#4F8DF5" cx="24" cy="24" r="24"></circle>
                <g id="google-tasks-svgrepo-com" transform="translate(23.163202, 25.426790) rotate(5.000000) translate(-23.163202, -25.426790) translate(6.323208, 11.926790)" fill-rule="nonzero">
                    <path d="M27.1465574,1.31009084 C28.4598487,-0.241451088 30.793253,-0.443830905 32.3584743,0.858078073 C33.9235106,2.15996871 34.1277181,4.473135 32.8144268,6.02467692 L16.1687367,25.6897901 C14.8554454,27.2414237 12.5220966,27.4438585 10.9569678,26.1419679 C9.39183898,24.8400772 9.18768692,22.5267459 10.5009782,20.9752957 L27.1465574,1.31009084 Z" id="Path" fill="#FFFFFF"></path>
                    <path d="M-3.63797881e-12,13.8590095 C-3.63797881e-12,11.0977595 2.25817825,8.85900955 5.04378512,8.85900955 C7.82939198,8.85900955 10.0875702,11.0977595 10.0875702,13.8590095 C10.0875702,16.6205095 7.82939198,18.8590095 5.04378512,18.8590095 C2.25817825,18.8590095 -3.63797881e-12,16.6205095 -3.63797881e-12,13.8590095 Z" id="Path" fill="#FBC013"></path>
                </g>
            </g>
        </g>
    </g>
</svg>