<?xml version="1.0" encoding="UTF-8"?>
<svg width="48px" height="48px" viewBox="0 0 48 48" version="1.1" xmlns="http://www.w3.org/2000/svg" xmlns:xlink="http://www.w3.org/1999/xlink">
    <title>638BDF20-BC9E-4BC4-AAC5-ABE114ED35BD</title>
    <g id="UI-kit" stroke="none" stroke-width="1" fill="none" fill-rule="evenodd">
        <g id="Connectors" transform="translate(-420.000000, -2024.000000)">
            <g id="Connector/Ably-Copy-123" transform="translate(420.000000, 2024.000000)">
                <rect id="Rectangle" fill="#40404B" x="1" y="1" width="46" height="46" rx="6"></rect>
                <path d="M21.1013917,34.5264414 L21.1013917,30.8906561 L9.93638171,30.8906561 L9.93638171,25.8520875 L19.6270378,25.8520875 L19.6270378,22.3308151 L9.93638171,22.3308151 L9.93638171,17.6357853 L21.1300199,17.6357853 L21.1300199,14 L6,14 L6,34.5264414 L21.1013917,34.5264414 Z M28.3586481,34.5407555 L28.3586481,27.3550696 L32.7244533,27.3550696 L37.3622266,34.5264414 L42,34.5264414 L36.904175,26.9399602 C38.3069583,26.4389662 39.4091451,25.6230616 40.1964215,24.4779324 C40.9836978,23.3328032 41.384493,22.073161 41.384493,20.6846918 C41.384493,18.9526839 40.7403579,17.4067594 39.4520875,16.0469185 C38.1638171,14.6870775 36.4604374,14.0143141 34.3562624,14.0143141 L24.3650099,14.0143141 L24.3650099,34.5407555 L28.3586481,34.5407555 Z M34.0842942,23.8337972 L28.344334,23.8337972 L28.3586481,17.6214712 L34.2417495,17.6214712 C35.1864811,17.6214712 35.9594433,17.9220676 36.5749503,18.5232604 C37.1904573,19.1244533 37.4910537,19.8544732 37.4910537,20.699006 C37.4910537,21.5864811 37.1761431,22.3308151 36.5463221,22.932008 C35.916501,23.5332008 35.1005964,23.8337972 34.0842942,23.8337972 Z" id="ER" fill="#FFFFFF" fill-rule="nonzero"></path>
            </g>
        </g>
    </g>
</svg>