<?xml version="1.0" encoding="UTF-8"?>
<svg width="48px" height="48px" viewBox="0 0 48 48" version="1.1" xmlns="http://www.w3.org/2000/svg" xmlns:xlink="http://www.w3.org/1999/xlink">
    <title>9550EE14-27D0-4D64-80D6-026BF1FD1555</title>
    <g id="UI-kit" stroke="none" stroke-width="1" fill="none" fill-rule="evenodd">
        <g id="Connectors" transform="translate(-820.000000, -1160.000000)">
            <g id="Connector/Ably-Copy-67" transform="translate(820.000000, 1160.000000)">
                <rect id="Rectangle" fill="#052373" x="1" y="1" width="46" height="46" rx="6"></rect>
                <path d="M10.8984375,32 L10.8984375,15.1953125 L7.55859375,15.1953125 L7.55859375,32 L10.8984375,32 Z M20.8125,32.375 L20.8710938,32.3398438 C22.8515625,32.3398438 24.46875,31.8359375 25.7109375,30.828125 C26.953125,29.8203125 27.5742188,28.5898438 27.5742188,27.125 C27.5742188,25.859375 27.1875,24.8867188 26.4140625,24.2070312 C25.640625,23.5273438 24.515625,22.9648438 23.0507812,22.5195312 L18.8789062,21.171875 C17.8125,20.8554688 17.2734375,20.328125 17.2734375,19.5898438 C17.2734375,19.0859375 17.5195312,18.6523438 18.0234375,18.3007812 C18.5273438,17.9492188 19.171875,17.7734375 19.96875,17.7734375 C20.8945312,17.7734375 21.7265625,17.984375 22.4648438,18.40625 C23.203125,18.828125 23.7539062,19.3789062 24.1054688,20.0703125 L27.1640625,19.1796875 C26.6835938,17.9492188 25.7929688,16.9296875 24.4921875,16.109375 C23.1914062,15.2890625 21.6679688,14.8789062 19.921875,14.8789062 C18.1992188,14.8789062 16.7578125,15.3476562 15.609375,16.2851562 C14.4609375,17.2226562 13.8867188,18.359375 13.8984375,19.6835938 C13.8867188,20.7265625 14.2265625,21.6054688 14.9179688,22.3320312 C15.609375,23.0585938 16.5351562,23.609375 17.7070312,23.9726562 L21.9960938,25.3203125 C22.8046875,25.5664062 23.3789062,25.859375 23.71875,26.1875 C24.0585938,26.515625 24.2226562,26.9023438 24.2226562,27.3476562 C24.2226562,27.921875 23.9296875,28.4140625 23.3320312,28.8359375 C22.734375,29.2578125 21.9609375,29.46875 21.0117188,29.46875 C19.8515625,29.46875 18.84375,29.1757812 18,28.5898438 C17.15625,28.0039062 16.5585938,27.2539062 16.2070312,26.328125 L13.0546875,27.2773438 C13.5703125,28.7070312 14.5078125,29.9140625 15.8671875,30.8984375 C17.2265625,31.8828125 18.8789062,32.375 20.8125,32.375 Z M33.3046875,32 L33.3046875,26.8671875 L37.7695312,26.8671875 C39.5859375,26.8671875 41.0390625,26.28125 42.1171875,25.109375 C43.1953125,23.9375 43.734375,22.578125 43.734375,21.0429688 C43.734375,19.5429688 43.1953125,18.1953125 42.1171875,17 C41.0390625,15.8046875 39.6328125,15.2070312 37.8867188,15.2070312 L37.9101562,15.1953125 L30.0351562,15.1953125 L30.0351562,32 L33.3046875,32 Z M37.640625,23.9492188 L33.28125,23.9492188 L33.28125,18.1835938 L37.7929688,18.1835938 C38.578125,18.1835938 39.2226562,18.4765625 39.7382812,19.0507812 C40.2539062,19.625 40.5117188,20.2929688 40.5117188,21.0546875 C40.5117188,21.8164062 40.2421875,22.484375 39.703125,23.0585938 C39.1640625,23.6328125 38.4726562,23.9257812 37.6171875,23.9257812 L37.640625,23.9492188 Z" id="ISP" fill="#FFFFFF" fill-rule="nonzero"></path>
            </g>
        </g>
    </g>
</svg>