<?xml version="1.0" encoding="UTF-8"?>
<svg width="48px" height="48px" viewBox="0 0 48 48" version="1.1" xmlns="http://www.w3.org/2000/svg" xmlns:xlink="http://www.w3.org/1999/xlink">
    <title>9DEF2E8B-A6F4-4646-8B87-C4AFB8B9D2BB</title>
    <g id="UI-kit" stroke="none" stroke-width="1" fill="none" fill-rule="evenodd">
        <g id="Connectors" transform="translate(-520.000000, -1312.000000)">
            <g id="Connector/Ably-Copy-74" transform="translate(520.000000, 1312.000000)">
                <rect id="Rectangle" fill="#FFB14C" x="1" y="1" width="46" height="46" rx="6"></rect>
                <path d="M10.5595703,15.4433594 L10.5595703,15.4169922 C11.152832,15.4169922 11.6538086,15.2192383 12.0625,14.8237305 C12.4711914,14.4282227 12.6821289,13.9272461 12.6821289,13.3339844 C12.6821289,12.7539062 12.4711914,12.2661133 12.0625,11.8706055 C11.6538086,11.4750977 11.152832,11.2773438 10.5595703,11.2773438 C9.96630859,11.2773438 9.46533203,11.4750977 9.05664062,11.8706055 C8.64794922,12.2661133 8.43701172,12.7539062 8.43701172,13.3339844 C8.43701172,13.9272461 8.64794922,14.4282227 9.05664062,14.8369141 C9.46533203,15.2456055 9.96630859,15.4433594 10.5595703,15.4433594 Z M7.58007812,37.0776367 C9.16210938,37.0776367 10.3486328,36.5898438 11.1264648,35.6010742 C11.9042969,34.6123047 12.2998047,33.2412109 12.2998047,31.4746094 L12.2998047,17.3813477 L8.74023438,17.3813477 L8.74023438,31.7514648 C8.74023438,33.2807617 8.17333984,34.0454102 7.03955078,34.0454102 C6.63085938,34.0585938 6.22216797,33.953125 5.82666016,33.7290039 L5.00927734,36.484375 C5.89257812,36.8798828 6.74951172,37.0776367 7.58007812,37.0776367 Z M17.5336914,31.2373047 L17.546875,31.2109375 C18.1665039,31.2109375 18.6806641,31 19.1025391,30.5649414 C19.5244141,30.1298828 19.7353516,29.6025391 19.7353516,28.9829102 C19.7353516,28.4160156 19.5244141,27.9282227 19.1025391,27.5195312 C18.6806641,27.1108398 18.1665039,26.8999023 17.546875,26.8999023 C16.9272461,26.8999023 16.3999023,27.1108398 15.9648438,27.5195312 C15.5297852,27.9282227 15.3188477,28.4291992 15.3188477,29.0092773 C15.3188477,29.6289062 15.5297852,30.15625 15.9516602,30.5913086 C16.3735352,31.0263672 16.9008789,31.2373047 17.5336914,31.2373047 Z M24.5078125,15.4433594 L24.5078125,15.4169922 C25.1010742,15.4169922 25.6020508,15.2192383 26.0107422,14.8237305 C26.4194336,14.4282227 26.6303711,13.9272461 26.6303711,13.3339844 C26.6303711,12.7539062 26.4194336,12.2661133 26.0107422,11.8706055 C25.6020508,11.4750977 25.1010742,11.2773438 24.5078125,11.2773438 C23.9145508,11.2773438 23.4135742,11.4750977 23.0048828,11.8706055 C22.5961914,12.2661133 22.3852539,12.7539062 22.3852539,13.3339844 C22.3852539,13.9272461 22.5961914,14.4282227 23.0048828,14.8369141 C23.4135742,15.2456055 23.9145508,15.4433594 24.5078125,15.4433594 Z M26.2480469,31.0263672 L26.2480469,17.3681641 L22.6621094,17.3681641 L22.6621094,31.0263672 L26.2480469,31.0263672 Z M36.3071289,31.3823242 C38.4033203,31.3823242 40.1435547,30.6967773 41.527832,29.3125 C42.9121094,27.9282227 43.5976562,26.2143555 43.5976562,24.1577148 C43.5976562,22.1010742 42.9121094,20.387207 41.527832,19.0161133 C40.1435547,17.6450195 38.4033203,16.9594727 36.2939453,16.9594727 C34.1845703,16.9594727 32.4443359,17.6450195 31.0600586,19.0161133 C29.6757812,20.387207 28.9770508,22.1010742 28.9770508,24.1577148 C28.9770508,26.2143555 29.6625977,27.9282227 31.046875,29.3125 C32.4311523,30.6967773 34.1713867,31.3823242 36.2807617,31.3823242 L36.3071289,31.3823242 Z M36.2807617,28.1391602 C35.1469727,28.1391602 34.2241211,27.7700195 33.512207,27.0185547 C32.800293,26.2670898 32.4443359,25.3178711 32.4443359,24.1708984 C32.4443359,23.0239258 32.800293,22.074707 33.512207,21.3232422 C34.2241211,20.5717773 35.1469727,20.2026367 36.2807617,20.2026367 C37.4145508,20.2026367 38.3374023,20.5717773 39.0493164,21.3232422 C39.7612305,22.074707 40.1171875,23.0239258 40.1171875,24.1708984 C40.1171875,25.3178711 39.7612305,26.2670898 39.0493164,27.0185547 C38.3374023,27.7700195 37.4145508,28.1391602 36.2807617,28.1391602 Z" id="j.io" fill="#FFFFFF" fill-rule="nonzero"></path>
            </g>
        </g>
    </g>
</svg>