<?xml version="1.0" encoding="UTF-8"?>
<svg width="48px" height="48px" viewBox="0 0 48 48" version="1.1" xmlns="http://www.w3.org/2000/svg" xmlns:xlink="http://www.w3.org/1999/xlink">
    <title>68647B9C-D238-4C83-B89E-DF2B058C92CB</title>
    <g id="UI-kit" stroke="none" stroke-width="1" fill="none" fill-rule="evenodd">
        <g id="Connectors" transform="translate(-520.000000, -3032.000000)" fill-rule="nonzero">
            <g id="Connector/zendesk.support-Copy-14" transform="translate(520.000000, 3032.000000)">
                <g id="Shopify_logo_2018" transform="translate(3.000000, 0.000000)">
                    <path d="M36.7846424,9.24271999 C36.7516459,9.00031999 36.5416895,8.86583999 36.3674265,8.85119999 C36.1945119,8.83655999 32.8064966,8.78463999 32.8064966,8.78463999 C32.8064966,8.78463999 29.9729977,6.00939999 29.6930823,5.72707999 C29.4132462,5.44476799 28.8665823,5.52999199 28.6540084,5.59391199 C28.6513909,5.59524799 28.1219392,5.76037599 27.2307152,6.03869599 C27.0815169,5.55130399 26.8622802,4.95203999 26.5493683,4.35011999 C25.5406735,2.40852799 24.0632056,1.38179999 22.2780608,1.37914399 C22.2754433,1.37914399 22.2740949,1.37914399 22.2714774,1.37914399 C22.1473438,1.37914399 22.0245586,1.39112799 21.9005042,1.40177599 C21.847678,1.33785599 21.7948518,1.27527199 21.7394081,1.21400799 C20.9616891,0.375051992 19.9648921,-0.033774488 18.7699571,0.00218089603 C16.4646409,0.068765032 14.1686049,1.74801599 12.3069177,4.73098399 C10.9971294,6.82971199 10.0002531,9.46647999 9.71772016,11.50792 C7.07042171,12.33488 5.21929973,12.9128 5.17837132,12.92616 C3.84218579,13.3496 3.7999407,13.39088 3.62565391,14.66136 C3.49626145,15.62144 0,42.88904 0,42.88904 L29.299662,48 L41.9986516,44.81592 C41.9986516,44.81592 36.8176389,9.48511999 36.7846424,9.24271999 Z M25.7637967,6.49679199 C25.0891126,6.70719999 24.3219429,6.94690399 23.4901286,7.20658399 C23.4729958,6.02937599 23.3343468,4.39140799 22.7903798,2.97582399 C24.5398312,3.31007999 25.4006761,5.30627199 25.7637967,6.49679199 Z M21.957217,7.68598399 C20.421688,8.16535999 18.7461615,8.68871999 17.0654001,9.21343999 C17.5380597,7.38768799 18.434598,5.56994399 19.5357784,4.37808799 C19.9450624,3.93463999 20.5180601,3.44058399 21.1967102,3.15826399 C21.8344318,4.50059999 21.9730808,6.40091199 21.957217,7.68598399 Z M18.8161206,1.54959199 C19.3574701,1.53760799 19.8129969,1.65746399 20.2025306,1.91580799 C19.5793243,2.24207199 18.9772167,2.71082399 18.4121509,3.32206399 C16.9478499,4.90676799 15.8255708,7.36638399 15.3779759,9.73943999 C13.9823648,10.17488 12.6171328,10.6024 11.3601707,10.99392 C12.1537535,7.25851999 15.2578082,1.65346399 18.8161206,1.54959199 Z" id="Shape" fill="#95BF47"></path>
                    <path d="M36.3686956,8.85255999 C36.195781,8.83791999 32.8077657,8.78599999 32.8077657,8.78599999 C32.8077657,8.78599999 29.9743461,6.01075199 29.6944307,5.72843999 C29.5901267,5.62323199 29.4488603,5.56863199 29.300931,5.54599999 L29.3022795,47.99872 L42,44.816 C42,44.816 36.8189874,9.48647999 36.7859908,9.24407999 C36.752915,9.00167999 36.5416895,8.86719999 36.3686956,8.85255999 Z" id="Path" fill="#5E8E3E"></path>
                    <path d="M22.2621971,15.43776 L20.7874261,21.0028 C20.7874261,21.0028 19.1422787,20.24776 17.1921512,20.3716 C14.3322392,20.55408 14.3018602,22.37312 14.3309701,22.82992 C14.4867519,25.3188 20.9788219,25.86216 21.343291,31.69224 C21.6297898,36.27856 18.9309739,39.416 15.0426168,39.66368 C10.3751922,39.96064 7.80581632,37.18408 7.80581632,37.18408 L8.79476875,32.94136 C8.79476875,32.94136 11.3812695,34.9096 13.4515647,34.77776 C14.8036298,34.6912 15.2868388,33.58192 15.2379785,32.79752 C15.0346849,29.55088 9.74801987,29.74264 9.41400918,24.40792 C9.13274537,19.91888 12.0560329,15.36984 18.5058261,14.95968 C20.9907197,14.79856 22.2621971,15.43776 22.2621971,15.43776 Z" id="Path" fill="#FFFFFF"></path>
                </g>
            </g>
        </g>
    </g>
</svg>