<?xml version="1.0" encoding="UTF-8"?>
<svg width="48px" height="48px" viewBox="0 0 48 48" version="1.1" xmlns="http://www.w3.org/2000/svg" xmlns:xlink="http://www.w3.org/1999/xlink">
    <title>536C05FD-0E28-46A9-B071-01FF14C7D9C2</title>
    <g id="UI-kit" stroke="none" stroke-width="1" fill="none" fill-rule="evenodd">
        <g id="Connectors" transform="translate(-920.000000, -2616.000000)" fill="#6772E5">
            <g id="Connector/stripe" transform="translate(920.000000, 2616.000000)">
                <path d="M20.1480315,14.2945055 C20.1480315,12.2373627 21.8110236,11.4461539 24.5653543,11.4461539 C28.5149606,11.4461539 33.503937,12.6593407 37.4535433,14.8219781 L37.4535433,2.42637363 C33.1401575,0.685714292 28.8787402,0 24.5653543,0 C14.015748,0 7,5.59120883 7,14.9274726 C7,29.4857142 26.7480315,27.1648354 26.7480315,33.4417583 C26.7480315,35.8681319 24.6692914,36.6593409 21.7590551,36.6593409 C17.4456693,36.6593409 11.9370079,34.8659341 7.57165354,32.4395606 L7.57165354,44.9934068 C12.4047244,47.103297 17.2897638,48 21.7590551,48 C32.5685039,48 40,42.5670333 40,33.1252749 C39.9480315,17.4065935 20.1480315,20.2021979 20.1480315,14.2945055 Z" id="Path"></path>
            </g>
        </g>
    </g>
</svg>