<?xml version="1.0" encoding="UTF-8"?>
<svg width="48px" height="48px" viewBox="0 0 48 48" version="1.1" xmlns="http://www.w3.org/2000/svg" xmlns:xlink="http://www.w3.org/1999/xlink">
    <title>ED233D75-D7A7-4767-BD58-32027B681F9D</title>
    <g id="UI-kit" stroke="none" stroke-width="1" fill="none" fill-rule="evenodd">
        <g id="Connectors" transform="translate(-820.000000, -1608.000000)">
            <g id="Connector/Ably-Copy-97" transform="translate(820.000000, 1608.000000)">
                <rect id="Rectangle" fill="#017799" x="1" y="1" width="46" height="46" rx="6"></rect>
                <path d="M9.87456175,29.6166732 C11.5574601,29.6166732 12.9520841,29.0634982 14.0662252,27.9493572 C15.1803662,26.8352162 15.7335411,25.4483833 15.7335411,23.7888586 C15.7335411,22.1449162 15.1803662,20.7658746 14.0662252,19.6595247 C12.9520841,18.5531749 11.5574601,18 9.87456175,18 C8.19166342,18 6.78924815,18.5531749 5.67510713,19.6595247 C4.56096611,20.7658746 4,22.1449162 4,23.7888586 C4,25.4483833 4.56096611,26.8352162 5.67510713,27.9493572 C6.78924815,29.0634982 8.18387222,29.6166732 9.86677055,29.6166732 L9.87456175,29.6166732 Z M9.85897935,27.5987534 L9.85897935,27.5909622 C8.77600312,27.5909622 7.89559797,27.2325672 7.21776393,26.507986 C6.53992988,25.7834048 6.20490845,24.879626 6.20490845,23.7966498 C6.20490845,22.7292559 6.53992988,21.8332684 7.21776393,21.1086872 C7.89559797,20.384106 8.77600312,20.0257109 9.85897935,20.0257109 C10.9419556,20.0257109 11.8223607,20.384106 12.5001948,21.1086872 C13.1780288,21.8332684 13.5130503,22.7292559 13.5130503,23.7966498 C13.5130503,24.879626 13.1780288,25.7834048 12.5001948,26.507986 C11.8223607,27.2325672 10.9419556,27.5987534 9.85897935,27.5987534 Z M22.1924425,29.3907285 C23.8052201,29.3907285 25.0985586,28.8687183 26.0724581,27.8246981 C27.0463576,26.7806778 27.5294118,25.4405921 27.5294118,23.804441 C27.5294118,22.1449162 27.0385664,20.7970393 26.0646669,19.7608103 C25.0907674,18.7245812 23.7974289,18.2103623 22.1846513,18.2103623 L22.1924425,18.2181535 L17.3385275,18.2181535 L17.3385275,29.3907285 L22.1924425,29.3907285 Z M22.130113,27.4117647 L22.1379042,27.4039735 L19.5044799,27.4039735 L19.5044799,20.1737437 L22.1379042,20.1737437 C23.0962213,20.1737437 23.8675497,20.5009739 24.4518894,21.1632256 C25.0362291,21.8254772 25.3245033,22.6903 25.3245033,23.7576938 C25.3245033,24.84067 25.0284379,25.7210752 24.4440982,26.3989092 C23.8597585,27.0767433 23.0884301,27.4117647 22.130113,27.4117647 Z M33.8948189,29.3907285 L36.0997273,21.8878068 L38.3046358,29.3907285 L40.618621,29.3907285 L44,18.2181535 L41.7015972,18.2181535 L39.4031944,26.3132061 L37.0736268,18.2181535 L35.1102454,18.2181535 L32.7806778,26.3132061 L30.482275,18.2181535 L28.1838722,18.2181535 L31.5808337,29.3907285 L33.8948189,29.3907285 Z" id="ODW" fill="#FFFFFF" fill-rule="nonzero"></path>
            </g>
        </g>
    </g>
</svg>